<?xml version="1.0" encoding="utf-8"?>
<!-- Generator: Adobe Illustrator 25.2.0, SVG Export Plug-In . SVG Version: 6.00 Build 0)  -->
<svg version="1.1" id="Lager_1" xmlns="http://www.w3.org/2000/svg" xmlns:xlink="http://www.w3.org/1999/xlink" x="0px" y="0px"
	 viewBox="0 0 283.46 283.46" style="enable-background:new 0 0 283.46 283.46;" xml:space="preserve">
<style type="text/css">
	.st0{fill:#76606C;}
	.st1{fill:#F2E8E9;}
	.st2{fill:#333332;}
	.st3{fill:#3C3C3B;}
	.st4{fill:#373636;}
	.st5{fill:#2D2D2C;}
	.st6{fill:#83827F;}
	.st7{fill:#575756;}
	.st8{opacity:0.8;}
	.st9{fill:#E30613;}
	.st10{fill:#C82726;}
	.st11{fill:#E02F29;}
	.st12{fill:#E73534;}
	.st13{fill:#9C8383;}
	.st14{fill:#533E41;}
	.st15{fill:#B5B5B5;}
	.st16{fill:#746C6C;}
	.st17{fill:#476F7C;}
	.st18{fill:#BDC4C6;}
	.st19{fill:#DADFE1;}
	.st20{fill:#A4A4A4;}
	.st21{fill:#7D666A;}
	.st22{opacity:0.5;}
	.st23{fill:#BC9CA2;}
	.st24{fill:#B45217;}
	.st25{fill:#FBFCFC;}
	.st26{fill:#CFCECE;}
	.st27{fill:#E7E3E4;}
	.st28{fill:#6A4248;}
	.st29{fill:#D8D8D4;}
	.st30{fill:#87686B;}
	.st31{fill:#412417;}
	.st32{fill:#B09B9F;}
</style>
<g>
	<g>
		<polygon class="st0" points="128.01,240.24 156.91,256.92 282.27,184.54 253.37,167.86 		"/>
	</g>
	<g>
		<polygon class="st1" points="130.11,241.45 132.07,242.58 257.43,170.2 255.47,169.07 		"/>
		<polygon class="st1" points="152.85,254.58 154.81,255.71 280.17,183.33 278.21,182.2 		"/>
		<g>
			<polygon class="st1" points="141.48,248.02 143.44,249.14 149.43,245.68 147.48,244.56 			"/>
			<polygon class="st1" points="153.31,241.19 155.27,242.31 161.26,238.85 159.3,237.73 			"/>
			<polygon class="st1" points="164.75,234.58 166.71,235.71 172.7,232.25 170.74,231.12 			"/>
			<polygon class="st1" points="176.58,227.75 178.53,228.88 184.53,225.42 182.57,224.29 			"/>
			<polygon class="st1" points="187.99,221.16 189.95,222.29 195.94,218.83 193.98,217.7 			"/>
			<polygon class="st1" points="199.82,214.33 201.77,215.46 207.77,212 205.81,210.87 			"/>
			<polygon class="st1" points="211.26,207.73 213.21,208.86 219.21,205.4 217.25,204.27 			"/>
			<polygon class="st1" points="223.09,200.9 225.04,202.03 231.04,198.57 229.08,197.44 			"/>
			<polygon class="st1" points="235.62,193.66 237.58,194.79 243.57,191.33 241.62,190.2 			"/>
			<polygon class="st1" points="247.06,187.06 249.02,188.19 255.01,184.73 253.06,183.6 			"/>
			<polygon class="st1" points="258.89,180.23 260.85,181.36 266.84,177.9 264.88,176.77 			"/>
		</g>
	</g>
</g>
<polygon class="st2" points="2.65,167.85 128.01,240.23 253.37,167.85 128.01,95.47 "/>
<polygon class="st3" points="2.65,162.27 128.01,234.65 253.37,162.27 128.01,89.89 "/>
<polygon class="st4" points="253.37,167.85 253.37,162.27 243.7,167.85 "/>
<polygon class="st5" points="2.65,167.85 128.01,240.23 128.01,234.65 2.65,162.27 "/>
<polygon class="st6" points="26.49,96.82 26.49,169.38 132.75,108.03 132.75,35.47 "/>
<polygon class="st7" points="99.93,139.12 99.93,211.68 206.2,150.33 206.19,77.77 "/>
<polygon class="st7" points="26.49,96.75 26.49,169.38 99.93,211.68 99.93,139.15 "/>
<polygon class="st7" points="26.49,96.75 99.93,139.15 206.19,77.77 132.75,35.47 "/>
<g>
	<path class="st3" d="M136.16,121.62c-1.05,0.61-2.12,1.44-3.16,2.47c-0.11,3.39-0.18,6.43-0.18,9.61c0,1.57,0.02,3.26,0.07,5.01
		l2.47-1.15c-0.04-1.63-0.05-3.28-0.05-4.79c2.83-2.56,4.95-5.86,4.95-8.58C140.26,121.1,138.12,120.49,136.16,121.62z
		 M135.31,130.39c0.02-1.92,0.05-3.8,0.11-5.78c0.24-0.18,0.45-0.37,0.74-0.53c0.78-0.45,1.61,0.01,1.61,1.56
		C137.77,127.1,136.83,128.94,135.31,130.39z"/>
	<path class="st3" d="M144.31,117.27l-2.45,1.16c-0.11,2.64-0.16,4.87-0.16,7.13c0,2.49,0.07,4.99,0.24,7.84l2.45-1.16
		c-0.16-2.27-0.24-4.97-0.24-7.74C144.15,122.04,144.2,119.53,144.31,117.27z"/>
	<path class="st3" d="M153.45,112.14c-3.07,1.81-5.75,3.59-7.13,4.72l0.35,2.25c1.22-0.91,2.72-1.95,4.37-3.01
		c-1.58,4.47-3.03,7.99-5.01,12.78l0.29,2.03c1.63-1.26,2.63-1.98,3.21-2.31c1.13-0.65,2.38-1.23,3.47-1.69l0.31-2.67
		c-0.96,0.39-2.05,0.89-3.16,1.53c-0.44,0.25-0.89,0.53-1.32,0.83c1.81-4.34,3.3-8.29,4.93-12.82L153.45,112.14z"/>
	<path class="st3" d="M161.77,107.34c-3.07,1.81-5.75,3.59-7.13,4.72l0.35,2.25c1.22-0.91,2.72-1.95,4.37-3.01
		c-1.58,4.47-3.03,7.99-5.01,12.78l0.29,2.03c1.63-1.26,2.63-1.98,3.21-2.31c1.13-0.65,2.38-1.23,3.47-1.69l0.31-2.67
		c-0.96,0.39-2.05,0.89-3.16,1.53c-0.44,0.25-0.89,0.53-1.32,0.83c1.81-4.34,3.3-8.29,4.94-12.82L161.77,107.34z"/>
	<path class="st3" d="M165.26,105.18l-3.25,17.06l2.54-1.22l0.69-4.34l2.7-1.69l0.42,2.67l2.63-1.27l-2.38-12.83L165.26,105.18z
		 M165.62,114.23l1.14-7.17l0.89,5.92L165.62,114.23z"/>
</g>
<polygon class="st3" points="138.72,121.22 134.75,124.01 133.77,130.92 132.89,138.71 136.31,140.82 138.07,134.25 139.65,133.29 
	142.46,128.27 142.37,123.44 "/>
<path class="st3" d="M141.86,118.43c0,0,0.63,14.16,0.07,14.98l3.41,2.11l0.69-1.31l1.69-14.83l-3.41-2.11L141.86,118.43z"/>
<polygon class="st3" points="146.32,116.86 146.67,119.11 150.08,121.22 149.74,118.97 "/>
<polygon class="st3" points="148.2,127.24 152.22,125.08 154.76,118.01 151.04,119.73 "/>
<polygon class="st3" points="146.63,117.45 149.63,119.6 156.87,114.24 153.45,112.14 "/>
<polygon class="st3" points="147.22,130.13 149.74,133.02 151.71,127.97 150.57,126.79 "/>
<polygon class="st3" points="151.82,128.67 152.17,128.91 156.72,126.35 153.57,124.07 "/>
<polygon class="st3" points="154.35,124.08 155.75,126.49 158.05,128.22 157.76,126.19 "/>
<polygon class="st3" points="154.64,112.06 155.06,114.17 158.4,116.42 158.05,114.17 "/>
<polygon class="st3" points="156.74,122.38 160.86,120.18 163.3,112.91 159.24,114.62 "/>
<polygon class="st3" points="154.94,112.58 158.05,114.17 165.18,109.44 161.77,107.34 "/>
<polygon class="st3" points="155.25,125.64 158.4,126.79 160.02,121.73 157.09,122.62 "/>
<polygon class="st3" points="160.13,124.78 165.04,121.55 161.58,120.11 "/>
<polygon class="st3" points="162.88,122.62 165.42,124.34 168.67,107.28 165.26,105.18 "/>
<polygon class="st3" points="168.33,107.89 172.03,105.68 168.61,103.57 "/>
<polygon class="st3" points="169.78,108.3 170.05,116.33 171.69,114.43 170.99,109 "/>
<polygon class="st3" points="169.61,117.77 171.77,119.78 171.44,116.33 "/>
<g class="st8">
	<path class="st9" d="M139.57,123.73c-1.05,0.61-2.12,1.44-3.16,2.47c-0.11,3.39-0.18,6.43-0.18,9.61c0,1.57,0.02,3.26,0.07,5.01
		l2.47-1.15c-0.04-1.63-0.06-3.28-0.06-4.79c2.83-2.56,4.95-5.86,4.95-8.58C143.67,123.2,141.53,122.59,139.57,123.73z
		 M138.72,132.49c0.02-1.92,0.06-3.8,0.11-5.78c0.24-0.18,0.45-0.37,0.74-0.53c0.78-0.45,1.61,0.01,1.61,1.56
		C141.19,129.2,140.24,131.05,138.72,132.49z"/>
	<path class="st9" d="M147.72,119.38l-2.45,1.16c-0.11,2.64-0.16,4.87-0.16,7.13c0,2.49,0.07,4.99,0.24,7.84l2.45-1.16
		c-0.16-2.27-0.24-4.97-0.24-7.74C147.56,124.14,147.61,121.64,147.72,119.38z"/>
	<path class="st9" d="M156.87,114.24c-3.07,1.81-5.75,3.59-7.13,4.72l0.35,2.25c1.22-0.91,2.72-1.95,4.37-3.01
		c-1.58,4.47-3.03,7.99-5.01,12.78l0.29,2.03c1.63-1.26,2.63-1.98,3.21-2.31c1.13-0.65,2.38-1.23,3.47-1.69l0.31-2.67
		c-0.96,0.39-2.05,0.89-3.16,1.53c-0.44,0.25-0.89,0.53-1.33,0.83c1.81-4.34,3.3-8.29,4.94-12.82L156.87,114.24z"/>
	<path class="st9" d="M165.18,109.44c-3.07,1.81-5.75,3.59-7.13,4.72l0.35,2.25c1.22-0.91,2.72-1.95,4.37-3.01
		c-1.58,4.47-3.03,7.99-5.01,12.78l0.29,2.03c1.63-1.26,2.63-1.98,3.21-2.31c1.13-0.65,2.38-1.23,3.47-1.69l0.31-2.67
		c-0.96,0.39-2.05,0.89-3.16,1.53c-0.44,0.25-0.89,0.53-1.33,0.83c1.81-4.34,3.3-8.29,4.94-12.82L165.18,109.44z"/>
	<path class="st9" d="M168.67,107.28l-3.25,17.06l2.54-1.22l0.69-4.34l2.7-1.69l0.42,2.67l2.63-1.27l-2.38-12.83L168.67,107.28z
		 M169.03,116.33l1.14-7.17l0.89,5.92L169.03,116.33z"/>
</g>
<g>
	<polygon class="st10" points="24.12,96.65 133.15,33.69 133.15,26.58 24.12,89.68 	"/>
</g>
<g>
	<polygon class="st11" points="133.15,33.66 208.55,77.1 208.55,70.18 133.15,26.54 	"/>
</g>
<g>
	<polygon class="st11" points="24.11,96.64 99.51,140.08 99.51,133.15 24.11,89.52 	"/>
</g>
<g>
	<path class="st10" d="M33.21,89.93v2.13c1.61,0.57,3.01,1.4,4.19,2.42l103.19-59.58c-2.5-0.63-4.55-1.85-6.14-3.46L33.21,89.93z"/>
</g>
<polygon class="st12" points="24.11,89.52 99.52,133.17 104.29,130.41 28.91,86.89 "/>
<polygon class="st12" points="128.51,29.27 203.81,72.85 208.58,70.1 133.21,26.58 "/>
<polygon class="st12" points="24.11,89.52 29.3,92.52 134.03,31.47 129.33,28.78 "/>
<g>
	<path class="st11" d="M133.15,39.12l66.19,38.14c1.19-1.73,2.78-3.17,4.76-4.19l-70.95-41.06V39.12z"/>
</g>
<g>
	<polygon class="st10" points="99.52,140.14 208.55,77.19 208.55,70.18 99.52,133.17 	"/>
</g>
<polygon class="st12" points="95.03,129.73 100.22,132.73 208.55,70.18 200.25,68.99 "/>
<g>
	<g>
		<g>
			<g>
				<g>
					<polygon class="st13" points="116.14,63.49 133.26,70.78 154.62,57.42 137.5,50.12 					"/>
				</g>
				<g>
					<path class="st13" d="M115.21,63.55l18.11,7.71l22.22-13.91l-18.11-7.71L115.21,63.55z M153.7,57.48l-20.5,12.83l-16.14-6.88
						l20.5-12.83L153.7,57.48z"/>
				</g>
			</g>
			<g>
				<g>
					<polygon class="st13" points="117.6,64.07 117.84,64.27 139.02,50.82 138.78,50.62 					"/>
				</g>
				<g>
					<polygon class="st13" points="119.22,64.75 119.45,64.94 140.63,51.5 140.4,51.3 					"/>
				</g>
				<g>
					<polygon class="st13" points="120.89,65.49 121.12,65.68 142.3,52.24 142.07,52.04 					"/>
				</g>
				<g>
					<polygon class="st13" points="122.5,66.17 122.74,66.36 143.92,52.92 143.68,52.72 					"/>
				</g>
				<g>
					<polygon class="st13" points="124.16,66.85 124.4,67.04 145.58,53.6 145.34,53.4 					"/>
				</g>
				<g>
					<polygon class="st13" points="125.77,67.53 126.01,67.72 147.19,54.28 146.95,54.08 					"/>
				</g>
				<g>
					<polygon class="st13" points="127.26,68.18 127.5,68.38 148.67,54.93 148.44,54.74 					"/>
				</g>
				<g>
					<polygon class="st13" points="128.87,68.86 129.11,69.06 150.29,55.61 150.05,55.42 					"/>
				</g>
				<g>
					<polygon class="st13" points="130.13,69.41 130.36,69.6 151.54,56.16 151.31,55.96 					"/>
				</g>
				<g>
					<polygon class="st13" points="131.74,70.09 131.98,70.28 153.16,56.84 152.92,56.64 					"/>
				</g>
				<g>
					<polygon class="st13" points="117.63,62.61 134.78,69.89 134.96,69.67 117.81,62.38 					"/>
				</g>
				<g>
					<polygon class="st13" points="119.43,61.49 136.58,68.77 136.76,68.54 119.61,61.26 					"/>
				</g>
				<g>
					<polygon class="st13" points="121.44,60.21 138.59,67.5 138.77,67.27 121.63,59.99 					"/>
				</g>
				<g>
					<polygon class="st13" points="123.24,59.09 140.39,66.37 140.57,66.15 123.43,58.87 					"/>
				</g>
				<g>
					<polygon class="st13" points="124.97,58.02 142.11,65.3 142.3,65.08 125.15,57.79 					"/>
				</g>
				<g>
					<polygon class="st13" points="126.77,56.9 143.91,64.18 144.1,63.95 126.95,56.67 					"/>
				</g>
				<g>
					<polygon class="st13" points="128.78,55.62 145.93,62.91 146.11,62.68 128.96,55.4 					"/>
				</g>
				<g>
					<polygon class="st13" points="130.58,54.5 147.72,61.78 147.91,61.56 130.76,54.28 					"/>
				</g>
				<g>
					<polygon class="st13" points="132.34,53.43 149.48,60.71 149.66,60.49 132.52,53.21 					"/>
				</g>
				<g>
					<polygon class="st13" points="134.35,52.16 151.49,59.44 151.68,59.22 134.53,51.93 					"/>
				</g>
				<g>
					<polygon class="st13" points="136.15,51.04 153.29,58.32 153.48,58.09 136.33,50.81 					"/>
				</g>
			</g>
			<g>
				<path class="st13" d="M115.21,63.55l18.11,7.71l22.22-13.91l-18.11-7.71L115.21,63.55z M153.7,57.48l-20.5,12.83l-16.14-6.88
					l20.5-12.83L153.7,57.48z"/>
			</g>
		</g>
		<g>
			<g>
				<g>
					<polygon class="st13" points="116.14,62.51 133.26,69.8 154.63,56.44 137.5,49.14 					"/>
				</g>
				<g>
					<path class="st13" d="M115.22,62.57l18.11,7.71l22.22-13.91l-18.11-7.71L115.22,62.57z M153.7,56.5l-20.5,12.83l-16.14-6.88
						l20.5-12.83L153.7,56.5z"/>
				</g>
			</g>
			<g>
				<g>
					<polygon class="st13" points="117.61,63.09 117.84,63.29 139.02,49.84 138.78,49.64 					"/>
				</g>
				<g>
					<polygon class="st13" points="119.22,63.77 119.46,63.96 140.64,50.52 140.4,50.32 					"/>
				</g>
				<g>
					<polygon class="st13" points="120.89,64.51 121.13,64.7 142.3,51.26 142.07,51.06 					"/>
				</g>
				<g>
					<polygon class="st13" points="122.5,65.19 122.74,65.38 143.92,51.94 143.68,51.74 					"/>
				</g>
				<g>
					<polygon class="st13" points="124.16,65.87 124.4,66.06 145.58,52.62 145.34,52.42 					"/>
				</g>
				<g>
					<polygon class="st13" points="125.77,66.55 126.01,66.74 147.19,53.3 146.95,53.1 					"/>
				</g>
				<g>
					<polygon class="st13" points="127.26,67.2 127.5,67.4 148.68,53.95 148.44,53.76 					"/>
				</g>
				<g>
					<polygon class="st13" points="128.87,67.88 129.11,68.08 150.29,54.63 150.05,54.44 					"/>
				</g>
				<g>
					<polygon class="st13" points="130.13,68.43 130.37,68.62 151.55,55.18 151.31,54.98 					"/>
				</g>
				<g>
					<polygon class="st13" points="131.74,69.11 131.98,69.3 153.16,55.86 152.92,55.66 					"/>
				</g>
				<g>
					<polygon class="st13" points="117.63,61.63 134.78,68.91 134.96,68.69 117.82,61.4 					"/>
				</g>
				<g>
					<polygon class="st13" points="119.43,60.51 136.58,67.79 136.76,67.56 119.61,60.28 					"/>
				</g>
				<g>
					<polygon class="st13" points="121.44,59.23 138.59,66.52 138.77,66.29 121.63,59.01 					"/>
				</g>
				<g>
					<polygon class="st13" points="123.24,58.11 140.39,65.39 140.57,65.17 123.43,57.89 					"/>
				</g>
				<g>
					<polygon class="st13" points="124.97,57.04 142.12,64.32 142.3,64.1 125.15,56.81 					"/>
				</g>
				<g>
					<polygon class="st13" points="126.77,55.92 143.91,63.2 144.1,62.97 126.95,55.69 					"/>
				</g>
				<g>
					<polygon class="st13" points="128.78,54.64 145.93,61.92 146.11,61.7 128.96,54.42 					"/>
				</g>
				<g>
					<polygon class="st13" points="130.58,53.52 147.73,60.8 147.91,60.58 130.76,53.3 					"/>
				</g>
				<g>
					<polygon class="st13" points="132.34,52.45 149.48,59.73 149.67,59.51 132.52,52.23 					"/>
				</g>
				<g>
					<polygon class="st13" points="134.35,51.18 151.5,58.46 151.68,58.24 134.53,50.95 					"/>
				</g>
				<g>
					<polygon class="st13" points="136.15,50.05 153.29,57.34 153.48,57.11 136.33,49.83 					"/>
				</g>
			</g>
			<g>
				<path class="st13" d="M115.21,62.57l18.11,7.71l22.22-13.91l-18.11-7.71L115.21,62.57z M153.7,56.5l-20.5,12.83l-16.14-6.88
					l20.5-12.83L153.7,56.5z"/>
			</g>
		</g>
		<g>
			<polygon class="st13" points="115.21,63.55 116.51,63.12 115.21,62.57 			"/>
		</g>
		<g>
			<polygon class="st13" points="133.32,71.27 155.54,57.36 155.55,56.38 133.32,70.28 			"/>
		</g>
	</g>
	<g>
		<g>
			<g>
				<path class="st14" d="M140.67,61.05c-0.48-0.28-1.27-0.28-1.75,0c-0.48,0.28-0.48,0.73,0,1.01c0.48,0.28,1.27,0.28,1.75,0
					C141.16,61.78,141.16,61.33,140.67,61.05z"/>
			</g>
			<g>
				<rect x="138.56" y="54.03" class="st14" width="2.47" height="7.53"/>
			</g>
		</g>
		<g>
			<g>
				<path class="st14" d="M129.45,67.59c-0.48-0.28-1.27-0.28-1.75,0c-0.48,0.28-0.48,0.73,0,1.01c0.48,0.28,1.27,0.28,1.75,0
					C129.93,68.33,129.93,67.87,129.45,67.59z"/>
			</g>
			<g>
				<rect x="127.34" y="60.57" class="st14" width="2.47" height="7.53"/>
			</g>
		</g>
		<g>
			<g>
				<g>
					<g>
						<polygon class="st15" points="110.73,60.57 125.07,69.03 142.95,53.52 128.62,45.05 						"/>
					</g>
					<g>
						<path class="st15" d="M109.96,60.64l15.16,8.95l18.6-16.14l-15.16-8.95L109.96,60.64z M142.18,53.59l-17.16,14.89l-13.51-7.98
							l17.16-14.89L142.18,53.59z"/>
					</g>
				</g>
				<g>
					<g>
						
							<rect x="109.12" y="53.4" transform="matrix(0.7513 -0.66 0.66 0.7513 -5.2659 93.1294)" class="st15" width="23.62" height="0.3"/>
					</g>
					<g>
						
							<rect x="110.47" y="54.19" transform="matrix(0.7501 -0.6613 0.6613 0.7501 -5.3792 94.444)" class="st15" width="23.62" height="0.3"/>
					</g>
					<g>
						
							<rect x="111.87" y="55.05" transform="matrix(0.7501 -0.6613 0.6613 0.7501 -5.5963 95.5823)" class="st15" width="23.62" height="0.3"/>
					</g>
					<g>
						
							<rect x="113.21" y="55.83" transform="matrix(0.7495 -0.662 0.662 0.7495 -5.7419 96.7952)" class="st15" width="23.62" height="0.3"/>
					</g>
					<g>
						
							<rect x="114.61" y="56.63" transform="matrix(0.7507 -0.6607 0.6607 0.7507 -5.9908 97.6785)" class="st15" width="23.62" height="0.3"/>
					</g>
					<g>
						
							<rect x="115.96" y="57.41" transform="matrix(0.7513 -0.66 0.66 0.7513 -6.2139 98.6405)" class="st15" width="23.62" height="0.3"/>
					</g>
					<g>
						<polygon class="st15" points="120.04,66.01 120.24,66.24 137.97,50.64 137.77,50.41 						"/>
					</g>
					<g>
						
							<rect x="118.55" y="58.96" transform="matrix(0.7497 -0.6618 0.6618 0.7497 -6.4905 101.0666)" class="st15" width="23.62" height="0.3"/>
					</g>
					<g>
						
							<rect x="119.6" y="59.6" transform="matrix(0.7509 -0.6605 0.6605 0.7509 -6.7208 101.6751)" class="st15" width="23.62" height="0.3"/>
					</g>
					<g>
						
							<rect x="120.95" y="60.38" transform="matrix(0.7509 -0.6605 0.6605 0.7509 -6.9052 102.7629)" class="st15" width="23.62" height="0.3"/>
					</g>
					<g>
						
							<rect x="119.09" y="55.31" transform="matrix(0.5074 -0.8617 0.8617 0.5074 3.8963 134.0962)" class="st15" width="0.3" height="16.66"/>
					</g>
					<g>
						
							<rect x="120.59" y="54.01" transform="matrix(0.5074 -0.8617 0.8617 0.5074 5.759 134.7489)" class="st15" width="0.3" height="16.66"/>
					</g>
					<g>
						
							<rect x="122.28" y="52.53" transform="matrix(0.5074 -0.8617 0.8617 0.5074 7.8629 135.4744)" class="st15" width="0.3" height="16.66"/>
					</g>
					<g>
						
							<rect x="123.78" y="51.23" transform="matrix(0.5074 -0.8617 0.8617 0.5074 9.729 136.1322)" class="st15" width="0.3" height="16.66"/>
					</g>
					<g>
						
							<rect x="125.23" y="49.98" transform="matrix(0.5074 -0.8617 0.8617 0.5074 11.5118 136.7635)" class="st15" width="0.3" height="16.66"/>
					</g>
					<g>
						
							<rect x="126.74" y="48.68" transform="matrix(0.5074 -0.8617 0.8617 0.5074 13.3753 137.4179)" class="st15" width="0.3" height="16.66"/>
					</g>
					<g>
						
							<rect x="128.42" y="47.2" transform="matrix(0.5074 -0.8617 0.8617 0.5074 15.4812 138.1459)" class="st15" width="0.3" height="16.66"/>
					</g>
					<g>
						
							<rect x="129.93" y="45.9" transform="matrix(0.5074 -0.8617 0.8617 0.5074 17.3454 138.801)" class="st15" width="0.3" height="16.66"/>
					</g>
					<g>
						
							<rect x="131.4" y="44.66" transform="matrix(0.5074 -0.8617 0.8617 0.5074 19.1367 139.4554)" class="st15" width="0.3" height="16.66"/>
					</g>
					<g>
						
							<rect x="133.08" y="43.18" transform="matrix(0.5074 -0.8617 0.8617 0.5074 21.2386 140.1779)" class="st15" width="0.3" height="16.66"/>
					</g>
					<g>
						
							<rect x="134.59" y="41.88" transform="matrix(0.5074 -0.8617 0.8617 0.5074 23.1034 140.834)" class="st15" width="0.3" height="16.66"/>
					</g>
				</g>
				<g>
					<path class="st15" d="M109.96,60.64l15.16,8.95l18.6-16.14l-15.16-8.95L109.96,60.64z M142.18,53.59l-17.16,14.89L111.5,60.5
						l17.16-14.89L142.18,53.59z"/>
				</g>
			</g>
			<g>
				<g>
					<g>
						<polygon class="st16" points="110.73,59.43 125.07,67.89 142.95,52.38 128.62,43.92 						"/>
					</g>
					<g>
						<path class="st17" d="M109.96,59.5l15.16,8.95l18.6-16.14l-15.16-8.95L109.96,59.5z M142.18,52.45l-17.16,14.89l-13.51-7.98
							l17.16-14.89L142.18,52.45z"/>
					</g>
				</g>
				<g>
					<g>
						
							<rect x="109.12" y="52.26" transform="matrix(0.7501 -0.6613 0.6613 0.7501 -4.4425 93.0708)" class="st18" width="23.62" height="0.3"/>
					</g>
					<g>
						
							<rect x="110.47" y="53.05" transform="matrix(0.7499 -0.6615 0.6615 0.7499 -4.6154 94.1948)" class="st18" width="23.62" height="0.3"/>
					</g>
					<g>
						
							<rect x="111.87" y="53.91" transform="matrix(0.7511 -0.6602 0.6602 0.7511 -4.904 95.1097)" class="st18" width="23.62" height="0.3"/>
					</g>
					<g>
						<polygon class="st18" points="116.06,62.54 116.26,62.76 133.99,47.16 133.79,46.93 						"/>
					</g>
					<g>
						
							<rect x="114.61" y="55.49" transform="matrix(0.7513 -0.66 0.66 0.7513 -5.2782 97.2711)" class="st18" width="23.62" height="0.3"/>
					</g>
					<g>
						
							<rect x="115.96" y="56.28" transform="matrix(0.7503 -0.6611 0.6611 0.7503 -5.4028 98.5481)" class="st18" width="23.62" height="0.3"/>
					</g>
					<g>
						
							<rect x="117.2" y="57.04" transform="matrix(0.7509 -0.6605 0.6605 0.7509 -5.629 99.4518)" class="st18" width="23.62" height="0.3"/>
					</g>
					<g>
						<polygon class="st18" points="121.39,65.66 121.59,65.89 139.32,50.29 139.12,50.06 						"/>
					</g>
					<g>
						<polygon class="st18" points="122.45,66.3 122.65,66.52 140.38,50.92 140.18,50.69 						"/>
					</g>
					<g>
						
							<rect x="120.95" y="59.25" transform="matrix(0.7513 -0.66 0.66 0.7513 -6.1806 102.3927)" class="st18" width="23.62" height="0.3"/>
					</g>
					<g>
						<polygon class="st18" points="111.99,58.41 126.34,66.86 126.49,66.6 112.14,58.15 						"/>
					</g>
					<g>
						
							<rect x="120.59" y="52.87" transform="matrix(0.5074 -0.8617 0.8617 0.5074 6.742 134.1928)" class="st18" width="0.3" height="16.66"/>
					</g>
					<g>
						
							<rect x="122.28" y="51.39" transform="matrix(0.5074 -0.8617 0.8617 0.5074 8.8435 134.9143)" class="st18" width="0.3" height="16.66"/>
					</g>
					<g>
						
							<rect x="123.79" y="50.09" transform="matrix(0.5074 -0.8617 0.8617 0.5074 10.7076 135.5693)" class="st18" width="0.3" height="16.66"/>
					</g>
					<g>
						
							<rect x="125.23" y="48.85" transform="matrix(0.5074 -0.8617 0.8617 0.5074 12.494 136.2059)" class="st18" width="0.3" height="16.66"/>
					</g>
					<g>
						
							<rect x="126.74" y="47.54" transform="matrix(0.5074 -0.8617 0.8617 0.5074 14.3587 136.8618)" class="st18" width="0.3" height="16.66"/>
					</g>
					<g>
						
							<rect x="128.42" y="46.07" transform="matrix(0.5074 -0.8617 0.8617 0.5074 16.4591 137.5823)" class="st18" width="0.3" height="16.66"/>
					</g>
					<g>
						
							<rect x="129.93" y="44.76" transform="matrix(0.5074 -0.8617 0.8617 0.5074 18.3252 138.24)" class="st18" width="0.3" height="16.66"/>
					</g>
					<g>
						
							<rect x="131.4" y="43.52" transform="matrix(0.5074 -0.8617 0.8617 0.5074 20.1185 138.8969)" class="st18" width="0.3" height="16.66"/>
					</g>
					<g>
						<polygon class="st18" points="125.98,46.28 140.33,54.73 140.49,54.47 126.13,46.02 						"/>
					</g>
					<g>
						
							<rect x="134.59" y="40.74" transform="matrix(0.5074 -0.8617 0.8617 0.5074 24.0849 140.2753)" class="st18" width="0.3" height="16.66"/>
					</g>
				</g>
				<g>
					<path class="st19" d="M109.96,59.5l15.16,8.95l18.6-16.14l-15.16-8.95L109.96,59.5z M142.18,52.45l-17.16,14.89l-13.51-7.98
						l17.16-14.89L142.18,52.45z"/>
				</g>
			</g>
			<g>
				<polygon class="st15" points="109.96,60.64 111.05,60.14 109.96,59.5 				"/>
			</g>
			<g>
				<polygon class="st20" points="125.12,69.59 143.72,53.45 143.72,52.31 125.12,68.45 				"/>
			</g>
		</g>
	</g>
</g>
<g>
	<g>
		<g>
			<g>
				<g>
					<polygon class="st13" points="138.01,75.98 155.13,83.28 176.5,69.91 159.37,62.61 					"/>
				</g>
				<g>
					<path class="st13" d="M137.09,76.04l18.11,7.71l22.22-13.91l-18.11-7.71L137.09,76.04z M175.57,69.97l-20.5,12.83l-16.14-6.88
						l20.5-12.83L175.57,69.97z"/>
				</g>
			</g>
			<g>
				<g>
					<polygon class="st13" points="139.48,76.56 139.71,76.76 160.89,63.31 160.66,63.12 					"/>
				</g>
				<g>
					<polygon class="st13" points="141.09,77.24 141.33,77.44 162.51,63.99 162.27,63.8 					"/>
				</g>
				<g>
					<polygon class="st13" points="142.76,77.98 143,78.18 164.18,64.73 163.94,64.53 					"/>
				</g>
				<g>
					<polygon class="st13" points="144.37,78.66 144.61,78.85 165.79,65.41 165.55,65.21 					"/>
				</g>
				<g>
					<polygon class="st13" points="146.03,79.34 146.27,79.54 167.45,66.09 167.21,65.89 					"/>
				</g>
				<g>
					<polygon class="st13" points="147.64,80.02 147.88,80.22 169.06,66.77 168.82,66.57 					"/>
				</g>
				<g>
					<polygon class="st13" points="149.13,80.68 149.37,80.87 170.55,67.42 170.31,67.23 					"/>
				</g>
				<g>
					<polygon class="st13" points="150.74,81.35 150.98,81.55 172.16,68.1 171.92,67.91 					"/>
				</g>
				<g>
					<polygon class="st13" points="152,81.9 152.24,82.1 173.42,68.65 173.18,68.45 					"/>
				</g>
				<g>
					<polygon class="st13" points="153.61,82.58 153.85,82.77 175.03,69.33 174.79,69.13 					"/>
				</g>
				<g>
					<polygon class="st13" points="139.5,75.1 156.65,82.38 156.83,82.16 139.69,74.88 					"/>
				</g>
				<g>
					<polygon class="st13" points="141.3,73.98 158.45,81.26 158.63,81.04 141.48,73.75 					"/>
				</g>
				<g>
					<polygon class="st13" points="143.32,72.7 160.46,79.99 160.64,79.76 143.5,72.48 					"/>
				</g>
				<g>
					<polygon class="st13" points="145.11,71.58 162.26,78.86 162.44,78.64 145.3,71.36 					"/>
				</g>
				<g>
					<polygon class="st13" points="146.84,70.51 163.99,77.79 164.17,77.57 147.02,70.29 					"/>
				</g>
				<g>
					<polygon class="st13" points="148.64,69.39 165.78,76.67 165.97,76.45 148.82,69.16 					"/>
				</g>
				<g>
					<polygon class="st13" points="150.65,68.11 167.8,75.4 167.98,75.17 150.84,67.89 					"/>
				</g>
				<g>
					<polygon class="st13" points="152.45,66.99 169.6,74.27 169.78,74.05 152.63,66.77 					"/>
				</g>
				<g>
					<polygon class="st13" points="154.21,65.92 171.35,73.21 171.54,72.98 154.39,65.7 					"/>
				</g>
				<g>
					<polygon class="st13" points="156.22,64.65 173.37,71.93 173.55,71.71 156.4,64.43 					"/>
				</g>
				<g>
					<polygon class="st13" points="158.02,63.53 175.17,70.81 175.35,70.59 158.2,63.3 					"/>
				</g>
			</g>
			<g>
				<path class="st13" d="M137.08,76.04l18.11,7.71l22.22-13.91l-18.11-7.71L137.08,76.04z M175.57,69.97l-20.5,12.83l-16.14-6.88
					l20.5-12.83L175.57,69.97z"/>
			</g>
		</g>
		<g>
			<g>
				<g>
					<polygon class="st13" points="138.01,75 155.14,82.3 176.5,68.93 159.37,61.63 					"/>
				</g>
				<g>
					<path class="st13" d="M137.09,75.06l18.11,7.71l22.22-13.91l-18.11-7.71L137.09,75.06z M175.58,68.99l-20.5,12.83l-16.14-6.88
						l20.5-12.83L175.58,68.99z"/>
				</g>
			</g>
			<g>
				<g>
					<polygon class="st13" points="139.48,75.58 139.72,75.78 160.89,62.33 160.66,62.14 					"/>
				</g>
				<g>
					<polygon class="st13" points="141.09,76.26 141.33,76.46 162.51,63.01 162.27,62.82 					"/>
				</g>
				<g>
					<polygon class="st13" points="142.76,77 143,77.19 164.18,63.75 163.94,63.55 					"/>
				</g>
				<g>
					<polygon class="st13" points="144.37,77.68 144.61,77.87 165.79,64.43 165.55,64.23 					"/>
				</g>
				<g>
					<polygon class="st13" points="146.03,78.36 146.27,78.56 167.45,65.11 167.21,64.91 					"/>
				</g>
				<g>
					<polygon class="st13" points="147.65,79.04 147.88,79.24 169.06,65.79 168.82,65.59 					"/>
				</g>
				<g>
					<polygon class="st13" points="149.13,79.7 149.37,79.89 170.55,66.44 170.31,66.25 					"/>
				</g>
				<g>
					<polygon class="st13" points="150.74,80.37 150.98,80.57 172.16,67.12 171.92,66.93 					"/>
				</g>
				<g>
					<polygon class="st13" points="152,80.92 152.24,81.11 173.42,67.67 173.18,67.47 					"/>
				</g>
				<g>
					<polygon class="st13" points="153.61,81.6 153.85,81.79 175.03,68.35 174.79,68.15 					"/>
				</g>
				<g>
					<polygon class="st13" points="139.5,74.12 156.65,81.4 156.83,81.18 139.69,73.9 					"/>
				</g>
				<g>
					<polygon class="st13" points="141.3,73 158.45,80.28 158.63,80.06 141.49,72.77 					"/>
				</g>
				<g>
					<polygon class="st13" points="143.32,71.72 160.46,79.01 160.65,78.78 143.5,71.5 					"/>
				</g>
				<g>
					<polygon class="st13" points="145.11,70.6 162.26,77.88 162.44,77.66 145.3,70.38 					"/>
				</g>
				<g>
					<polygon class="st13" points="146.84,69.53 163.99,76.81 164.17,76.59 147.02,69.31 					"/>
				</g>
				<g>
					<polygon class="st13" points="148.64,68.41 165.79,75.69 165.97,75.47 148.82,68.18 					"/>
				</g>
				<g>
					<polygon class="st13" points="150.65,67.13 167.8,74.42 167.98,74.19 150.84,66.91 					"/>
				</g>
				<g>
					<polygon class="st13" points="152.45,66.01 169.6,73.29 169.78,73.07 152.63,65.79 					"/>
				</g>
				<g>
					<polygon class="st13" points="154.21,64.94 171.35,72.23 171.54,72 154.39,64.72 					"/>
				</g>
				<g>
					<polygon class="st13" points="156.22,63.67 173.37,70.95 173.55,70.73 156.4,63.45 					"/>
				</g>
				<g>
					<polygon class="st13" points="158.02,62.55 175.17,69.83 175.35,69.61 158.2,62.32 					"/>
				</g>
			</g>
			<g>
				<path class="st13" d="M137.08,75.06l18.11,7.71l22.22-13.91l-18.11-7.71L137.08,75.06z M175.57,68.99l-20.5,12.83l-16.14-6.88
					l20.5-12.83L175.57,68.99z"/>
			</g>
		</g>
		<g>
			<polygon class="st13" points="137.08,76.04 138.38,75.62 137.08,75.06 			"/>
		</g>
		<g>
			<polygon class="st13" points="155.19,83.76 177.42,69.85 177.42,68.87 155.19,82.78 			"/>
		</g>
	</g>
	<g>
		<g>
			<g>
				<path class="st14" d="M162.54,73.54c-0.48-0.28-1.27-0.28-1.75,0c-0.48,0.28-0.48,0.73,0,1.01c0.48,0.28,1.27,0.28,1.75,0
					C163.03,74.27,163.03,73.82,162.54,73.54z"/>
			</g>
			<g>
				<rect x="160.43" y="66.52" class="st14" width="2.47" height="7.53"/>
			</g>
		</g>
		<g>
			<g>
				<path class="st14" d="M151.32,80.09c-0.48-0.28-1.27-0.28-1.75,0c-0.48,0.28-0.48,0.73,0,1.01c0.48,0.28,1.27,0.28,1.75,0
					C151.8,80.82,151.8,80.37,151.32,80.09z"/>
			</g>
			<g>
				<rect x="149.21" y="73.06" class="st14" width="2.47" height="7.53"/>
			</g>
		</g>
		<g>
			<g>
				<g>
					<g>
						<polygon class="st15" points="132.61,73.06 146.94,81.53 164.82,66.01 150.49,57.54 						"/>
					</g>
					<g>
						<path class="st15" d="M131.83,73.13l15.16,8.95l18.6-16.14l-15.16-8.95L131.83,73.13z M164.05,66.08l-17.16,14.89l-13.51-7.98
							l17.16-14.89L164.05,66.08z"/>
					</g>
				</g>
				<g>
					<g>
						
							<rect x="130.99" y="65.89" transform="matrix(0.7513 -0.66 0.66 0.7513 -8.0705 110.6715)" class="st15" width="23.62" height="0.3"/>
					</g>
					<g>
						
							<rect x="132.34" y="66.68" transform="matrix(0.7503 -0.6611 0.6611 0.7503 -8.1908 111.9758)" class="st15" width="23.62" height="0.3"/>
					</g>
					<g>
						
							<rect x="133.74" y="67.54" transform="matrix(0.7501 -0.6613 0.6613 0.7501 -8.3919 113.1685)" class="st15" width="23.62" height="0.3"/>
					</g>
					<g>
						
							<rect x="135.09" y="68.33" transform="matrix(0.7497 -0.6618 0.6618 0.7497 -8.549 114.3492)" class="st15" width="23.62" height="0.3"/>
					</g>
					<g>
						
							<rect x="136.48" y="69.12" transform="matrix(0.7507 -0.6607 0.6607 0.7507 -8.7906 115.2438)" class="st15" width="23.62" height="0.3"/>
					</g>
					<g>
						
							<rect x="137.83" y="69.91" transform="matrix(0.7513 -0.66 0.66 0.7513 -9.0185 116.1825)" class="st15" width="23.62" height="0.3"/>
					</g>
					<g>
						
							<rect x="139.07" y="70.67" transform="matrix(0.7503 -0.6611 0.6611 0.7503 -9.145 117.42)" class="st15" width="23.62" height="0.3"/>
					</g>
					<g>
						
							<rect x="140.42" y="71.45" transform="matrix(0.7499 -0.6615 0.6615 0.7499 -9.2996 118.6106)" class="st15" width="23.62" height="0.3"/>
					</g>
					<g>
						
							<rect x="141.47" y="72.09" transform="matrix(0.7509 -0.6605 0.6605 0.7509 -9.5222 119.2327)" class="st15" width="23.62" height="0.3"/>
					</g>
					<g>
						
							<rect x="142.82" y="72.88" transform="matrix(0.7507 -0.6607 0.6607 0.7507 -9.6918 120.3721)" class="st15" width="23.62" height="0.3"/>
					</g>
					<g>
						
							<rect x="140.96" y="67.8" transform="matrix(0.5074 -0.8617 0.8617 0.5074 3.9035 159.0932)" class="st15" width="0.3" height="16.66"/>
					</g>
					<g>
						
							<rect x="142.47" y="66.5" transform="matrix(0.5074 -0.8617 0.8617 0.5074 5.7689 159.7503)" class="st15" width="0.3" height="16.66"/>
					</g>
					<g>
						
							<rect x="144.15" y="65.02" transform="matrix(0.5074 -0.8617 0.8617 0.5074 7.8727 160.4756)" class="st15" width="0.3" height="16.66"/>
					</g>
					<g>
						
							<rect x="145.66" y="63.72" transform="matrix(0.5074 -0.8617 0.8617 0.5074 9.7371 161.131)" class="st15" width="0.3" height="16.66"/>
					</g>
					<g>
						
							<rect x="147.1" y="62.48" transform="matrix(0.5074 -0.8617 0.8617 0.5074 11.5209 161.7637)" class="st15" width="0.3" height="16.66"/>
					</g>
					<g>
						
							<rect x="148.61" y="61.17" transform="matrix(0.5074 -0.8617 0.8617 0.5074 13.3839 162.4172)" class="st15" width="0.3" height="16.66"/>
					</g>
					<g>
						<polygon class="st15" points="143.19,63.93 157.54,72.38 157.7,72.12 143.34,63.67 						"/>
					</g>
					<g>
						
							<rect x="151.8" y="58.39" transform="matrix(0.5074 -0.8617 0.8617 0.5074 17.3551 163.8021)" class="st15" width="0.3" height="16.66"/>
					</g>
					<g>
						
							<rect x="153.27" y="57.15" transform="matrix(0.5074 -0.8617 0.8617 0.5074 19.1459 164.4555)" class="st15" width="0.3" height="16.66"/>
					</g>
					<g>
						
							<rect x="154.95" y="55.68" transform="matrix(0.5074 -0.8617 0.8617 0.5074 21.2479 165.1784)" class="st15" width="0.3" height="16.66"/>
					</g>
					<g>
						
							<rect x="156.46" y="54.37" transform="matrix(0.5074 -0.8617 0.8617 0.5074 23.1142 165.8363)" class="st15" width="0.3" height="16.66"/>
					</g>
				</g>
				<g>
					<path class="st15" d="M131.83,73.13l15.16,8.95l18.6-16.14l-15.16-8.95L131.83,73.13z M164.05,66.08l-17.16,14.89l-13.51-7.98
						l17.16-14.89L164.05,66.08z"/>
				</g>
			</g>
			<g>
				<g>
					<g>
						<polygon class="st16" points="132.61,71.92 146.94,80.39 164.83,64.87 150.49,56.41 						"/>
					</g>
					<g>
						<path class="st17" d="M131.83,71.99l15.16,8.95l18.6-16.14l-15.16-8.95L131.83,71.99z M164.05,64.94l-17.16,14.89l-13.51-7.98
							l17.16-14.89L164.05,64.94z"/>
					</g>
				</g>
				<g>
					<g>
						
							<rect x="130.99" y="64.75" transform="matrix(0.7503 -0.6611 0.6611 0.7503 -7.2543 110.6033)" class="st18" width="23.62" height="0.3"/>
					</g>
					<g>
						<polygon class="st18" points="135.18,73.38 135.38,73.61 153.11,58 152.91,57.78 						"/>
					</g>
					<g>
						
							<rect x="133.74" y="66.4" transform="matrix(0.7511 -0.6602 0.6602 0.7511 -7.7071 112.6596)" class="st18" width="23.62" height="0.3"/>
					</g>
					<g>
						<polygon class="st18" points="137.93,75.03 138.13,75.25 155.86,59.65 155.66,59.42 						"/>
					</g>
					<g>
						
							<rect x="136.48" y="67.98" transform="matrix(0.7513 -0.66 0.66 0.7513 -8.0808 114.82)" class="st18" width="23.62" height="0.3"/>
					</g>
					<g>
						
							<rect x="137.83" y="68.77" transform="matrix(0.7501 -0.6613 0.6613 0.7501 -8.1834 116.1816)" class="st18" width="23.62" height="0.3"/>
					</g>
					<g>
						
							<rect x="139.07" y="69.53" transform="matrix(0.7509 -0.6605 0.6605 0.7509 -8.4304 117.0095)" class="st18" width="23.62" height="0.3"/>
					</g>
					<g>
						
							<rect x="140.42" y="70.32" transform="matrix(0.7497 -0.6618 0.6618 0.7497 -8.5297 118.3838)" class="st18" width="23.62" height="0.3"/>
					</g>
					<g>
						<polygon class="st18" points="144.32,78.79 144.52,79.02 162.25,63.41 162.05,63.18 						"/>
					</g>
					<g>
						
							<rect x="142.82" y="71.74" transform="matrix(0.7513 -0.66 0.66 0.7513 -8.9852 119.9348)" class="st18" width="23.62" height="0.3"/>
					</g>
					<g>
						<polygon class="st18" points="133.86,70.9 148.21,79.35 148.36,79.09 134.01,70.64 						"/>
					</g>
					<g>
						
							<rect x="142.47" y="65.36" transform="matrix(0.5074 -0.8617 0.8617 0.5074 6.752 159.1943)" class="st18" width="0.3" height="16.66"/>
					</g>
					<g>
						
							<rect x="144.15" y="63.89" transform="matrix(0.5074 -0.8617 0.8617 0.5074 8.8515 159.9126)" class="st18" width="0.3" height="16.66"/>
					</g>
					<g>
						
							<rect x="145.66" y="62.58" transform="matrix(0.5074 -0.8617 0.8617 0.5074 10.7165 160.5691)" class="st18" width="0.3" height="16.66"/>
					</g>
					<g>
						
							<rect x="147.1" y="61.34" transform="matrix(0.5074 -0.8617 0.8617 0.5074 12.5044 161.2081)" class="st18" width="0.3" height="16.66"/>
					</g>
					<g>
						
							<rect x="148.61" y="60.04" transform="matrix(0.5074 -0.8617 0.8617 0.5074 14.3677 161.8618)" class="st18" width="0.3" height="16.66"/>
					</g>
					<g>
						
							<rect x="150.29" y="58.56" transform="matrix(0.5074 -0.8617 0.8617 0.5074 16.468 162.5821)" class="st18" width="0.3" height="16.66"/>
					</g>
					<g>
						
							<rect x="151.8" y="57.25" transform="matrix(0.5074 -0.8617 0.8617 0.5074 18.3345 163.2402)" class="st18" width="0.3" height="16.66"/>
					</g>
					<g>
						
							<rect x="153.27" y="56.02" transform="matrix(0.5074 -0.8617 0.8617 0.5074 20.1254 163.8941)" class="st18" width="0.3" height="16.66"/>
					</g>
					<g>
						<polygon class="st18" points="147.85,58.77 162.21,67.22 162.36,66.96 148.01,58.51 						"/>
					</g>
					<g>
						
							<rect x="156.46" y="53.23" transform="matrix(0.5074 -0.8617 0.8617 0.5074 24.0941 165.2754)" class="st18" width="0.3" height="16.66"/>
					</g>
				</g>
				<g>
					<path class="st19" d="M131.83,71.99l15.16,8.95l18.6-16.14l-15.16-8.95L131.83,71.99z M164.05,64.94l-17.16,14.89l-13.51-7.98
						l17.16-14.89L164.05,64.94z"/>
				</g>
			</g>
			<g>
				<polygon class="st15" points="131.83,73.13 132.92,72.63 131.83,71.99 				"/>
			</g>
			<g>
				<polygon class="st20" points="146.99,82.08 165.59,65.94 165.6,64.8 146.99,80.94 				"/>
			</g>
		</g>
	</g>
</g>
<g>
	<g>
		<polygon class="st21" points="33.41,157.18 91.02,190.12 91.02,155.08 33.41,128.19 		"/>
	</g>
	<g>
		<polygon class="st14" points="33.41,157.18 91.02,190.12 91.02,164.1 88.26,141.32 		"/>
	</g>
	<g>
		<polygon class="st11" points="91.02,192.3 31.48,158.12 31.48,125.57 29.38,127.58 29.38,159.82 93.11,196.66 93.11,156.55 
			91.02,156.55 		"/>
	</g>
	<g>
		<polygon class="st10" points="93.11,196.66 95.92,194.98 95.92,157.39 93.11,156.55 		"/>
	</g>
	<g>
		<polygon class="st10" points="31.48,158.12 33.41,157.18 33.41,128.19 31.48,125.57 		"/>
	</g>
	<g>
		<polygon class="st12" points="31.48,158.12 91.02,192.3 91.02,190.12 33.41,157.18 		"/>
	</g>
	<g class="st22">
		<g>
			<polygon class="st23" points="33.41,151.42 33.41,157.18 89.5,155.04 87.49,151.66 			"/>
		</g>
		<g>
			<polygon class="st23" points="36.67,142.92 75.36,142.83 74.68,141.07 			"/>
		</g>
		<g>
			<polygon class="st23" points="64.32,174.85 88.26,171.96 62.19,173.64 			"/>
		</g>
		<g>
			<polygon class="st23" points="47.43,165.19 53.97,168.93 91.02,164.1 90.06,159.6 			"/>
		</g>
	</g>
</g>
<g>
	<path class="st24" d="M21.83,104.3c0,0-3.64,1.82-4.11,6.92v7.99l73.41,42.4l8.94-17.53l-73.53-42.46L21.83,104.3z"/>
</g>
<g>
	<path class="st24" d="M91.12,153.62v7.99l9.6-5.66v-11.87v-0.46c0,0-1.61,0.76-5.49,3.08C91.36,149.02,91.12,153.62,91.12,153.62z"
		/>
</g>
<g>
	<path class="st25" d="M85.9,140.91c-4.2,3.1-4.46,7.63-4.46,7.63v7.29l4.93,2.91c0,0-0.12-2.51,0-7.52
		c0.12-5.01,4.43-7.61,4.43-7.61l4.25-2.44l-4.88-2.88L85.9,140.91z"/>
</g>
<g>
	<path class="st25" d="M81.44,155.82v1.84c0,0,0.07,2.01,2.46,3.41c2.39,1.41,2.46-0.51,2.46-0.51v-1.84l-2.46-1.45L81.44,155.82z"
		/>
</g>
<g>
	<path class="st24" d="M76.52,152.93v1.84c0,0,0.07,2.01,2.46,3.41c2.39,1.41,2.46-0.51,2.46-0.51v-1.84l-2.46-1.45L76.52,152.93z"
		/>
</g>
<g>
	<path class="st25" d="M76.17,135.19c-4.2,3.1-4.46,7.63-4.46,7.63v7.29l4.93,2.91c0,0-0.12-2.51,0-7.52
		c0.12-5.01,4.43-7.61,4.43-7.61l4.25-2.44l-4.88-2.88L76.17,135.19z"/>
</g>
<g>
	<path class="st25" d="M71.72,150.09v1.84c0,0,0.07,2.01,2.46,3.41c2.39,1.41,2.46-0.51,2.46-0.51v-1.84l-2.46-1.45L71.72,150.09z"
		/>
</g>
<g>
	<path class="st24" d="M66.8,147.2v1.84c0,0,0.07,2.01,2.46,3.41c2.39,1.41,2.46-0.51,2.46-0.51v-1.84l-2.46-1.45L66.8,147.2z"/>
</g>
<g>
	<path class="st25" d="M66.34,129.41c-4.2,3.1-4.46,7.63-4.46,7.63v7.29l4.92,2.91c0,0-0.12-2.51,0-7.52
		c0.12-5.01,4.43-7.61,4.43-7.61l4.25-2.44l-4.88-2.88L66.34,129.41z"/>
</g>
<g>
	<path class="st25" d="M61.88,144.32v1.84c0,0,0.07,2.01,2.46,3.41c2.39,1.41,2.46-0.51,2.46-0.51v-1.84l-2.46-1.45L61.88,144.32z"
		/>
</g>
<g>
	<path class="st24" d="M56.97,141.38v1.84c0,0,0.07,2.01,2.46,3.41c2.39,1.41,2.46-0.51,2.46-0.51v-1.84l-2.46-1.45L56.97,141.38z"
		/>
</g>
<g>
	<path class="st25" d="M56.51,123.55c-4.2,3.1-4.46,7.63-4.46,7.63v7.29l4.92,2.91c0,0-0.12-2.51,0-7.52
		c0.12-5.01,4.43-7.61,4.43-7.61l4.25-2.44l-4.88-2.88L56.51,123.55z"/>
</g>
<g>
	<path class="st25" d="M52.05,138.45v1.84c0,0,0.07,2.01,2.46,3.41c2.39,1.41,2.46-0.51,2.46-0.51v-1.84l-2.46-1.45L52.05,138.45z"
		/>
</g>
<g>
	<path class="st24" d="M47.13,135.56v1.84c0,0,0.07,2.01,2.46,3.41c2.39,1.41,2.46-0.51,2.46-0.51v-1.84l-2.46-1.45L47.13,135.56z"
		/>
</g>
<g>
	<path class="st25" d="M46.69,117.78c-4.2,3.1-4.46,7.63-4.46,7.63v7.29l4.92,2.91c0,0-0.12-2.51,0-7.52
		c0.12-5.01,4.43-7.61,4.43-7.61l4.25-2.44l-4.88-2.88L46.69,117.78z"/>
</g>
<g>
	<path class="st25" d="M42.24,132.68v1.84c0,0,0.07,2.01,2.46,3.41c2.39,1.41,2.46-0.51,2.46-0.51v-1.84l-2.46-1.45L42.24,132.68z"
		/>
</g>
<g>
	<path class="st24" d="M37.32,129.79v1.84c0,0,0.07,2.01,2.46,3.41c2.39,1.41,2.46-0.51,2.46-0.51v-1.84l-2.46-1.45L37.32,129.79z"
		/>
</g>
<g>
	<path class="st25" d="M36.86,111.98c-4.2,3.1-4.46,7.63-4.46,7.63v7.29l4.92,2.91c0,0-0.12-2.51,0-7.52
		c0.12-5.01,4.43-7.61,4.43-7.61l4.25-2.44l-4.88-2.88L36.86,111.98z"/>
</g>
<g>
	<path class="st25" d="M32.4,126.88v1.84c0,0,0.07,2.01,2.46,3.41c2.39,1.41,2.46-0.51,2.46-0.51v-1.84l-2.46-1.45L32.4,126.88z"/>
</g>
<g>
	<path class="st24" d="M27.49,124v1.84c0,0,0.07,2.01,2.46,3.41c2.39,1.41,2.46-0.51,2.46-0.51v-1.84l-2.46-1.45L27.49,124z"/>
</g>
<g>
	<path class="st25" d="M27.09,106.18c-4.2,3.1-4.46,7.63-4.46,7.63v7.29l4.92,2.91c0,0-0.12-2.51,0-7.52
		c0.12-5.01,4.43-7.61,4.43-7.61l4.25-2.44l-4.88-2.88L27.09,106.18z"/>
</g>
<g>
	<path class="st25" d="M22.63,121.09v1.84c0,0,0.07,2.01,2.46,3.41c2.39,1.41,2.46-0.51,2.46-0.51v-1.84l-2.46-1.45L22.63,121.09z"
		/>
</g>
<g>
	<path class="st24" d="M17.71,118.2v1.84c0,0,0.07,2.01,2.46,3.41c2.39,1.41,2.46-0.51,2.46-0.51v-1.84l-2.46-1.45L17.71,118.2z"/>
</g>
<g>
	<path class="st24" d="M86.35,158.72v1.82c0,0,0.07,1.98,2.43,3.37c2.36,1.39,2.43-0.51,2.43-0.51v-1.82l-2.43-1.43L86.35,158.72z"
		/>
</g>
<polygon class="st26" points="99.93,142.79 99.93,157.67 103.27,155.11 102.51,142 "/>
<polygon class="st27" points="26.53,99.47 26.53,101.62 100.06,144.08 99.18,141.8 "/>
<g>
	<polygon class="st28" points="107.48,139.72 107.48,204.3 114.8,200.08 114.8,135.5 	"/>
	<polygon class="st29" points="107.48,202.86 107.48,204.3 114.81,200.08 113.68,199.42 	"/>
	<polygon class="st6" points="113.68,136.15 113.68,199.42 114.81,200.08 114.8,135.5 	"/>
	<polygon class="st30" points="107.48,139.72 112.5,200.08 113.68,199.42 108.82,138.95 	"/>
	<polygon class="st30" points="110.27,138.11 112.86,171.64 111.14,137.61 	"/>
	<polygon class="st30" points="110.27,201.32 111.15,200.83 108.67,171.21 	"/>
</g>
<g>
	<polygon class="st28" points="119.96,132.41 119.96,196.99 127.27,192.77 127.27,128.19 	"/>
	<polygon class="st29" points="119.96,195.55 119.96,196.99 127.28,192.77 126.15,192.11 	"/>
	<polygon class="st6" points="126.15,128.84 126.15,192.11 127.28,192.77 127.27,128.19 	"/>
	<polygon class="st30" points="119.96,132.41 124.98,192.77 126.15,192.11 121.3,131.64 	"/>
	<polygon class="st30" points="122.74,130.81 125.34,164.33 123.62,130.3 	"/>
	<polygon class="st30" points="122.74,194.01 123.62,193.52 121.14,163.9 	"/>
</g>
<g>
	<polygon class="st28" points="181.88,97.03 181.88,161.61 189.19,157.39 189.19,92.81 	"/>
	<polygon class="st29" points="181.88,160.17 181.88,161.61 189.2,157.38 188.07,156.73 	"/>
	<polygon class="st6" points="188.07,93.45 188.07,156.73 189.2,157.38 189.19,92.81 	"/>
	<polygon class="st30" points="181.88,97.03 186.9,157.38 188.07,156.73 183.22,96.26 	"/>
	<polygon class="st30" points="184.66,95.42 187.26,128.95 185.53,94.92 	"/>
	<polygon class="st30" points="184.66,158.62 185.54,158.14 183.06,128.52 	"/>
</g>
<g>
	<polygon class="st28" points="194.35,89.72 194.36,154.3 201.67,150.08 201.67,85.5 	"/>
	<polygon class="st29" points="194.36,152.86 194.36,154.3 201.68,150.07 200.55,149.42 	"/>
	<polygon class="st6" points="200.55,86.14 200.55,149.42 201.68,150.07 201.67,85.5 	"/>
	<polygon class="st30" points="194.35,89.72 199.38,150.07 200.55,149.42 195.69,88.95 	"/>
	<polygon class="st30" points="197.14,88.11 199.73,121.64 198.01,87.61 	"/>
	<polygon class="st30" points="197.14,151.31 198.02,150.83 195.54,121.21 	"/>
</g>
<g>
	<g>
		<polygon class="st30" points="155.19,179.97 171.64,170.53 171.64,123.82 155.19,133.26 		"/>
		<polygon class="st31" points="155.19,177.37 155.19,179.97 171.64,170.53 169.34,169.24 		"/>
		<polygon class="st31" points="169.34,169.22 171.64,170.53 171.64,123.82 169.34,125.12 		"/>
		<polygon class="st30" points="138.75,189.47 155.19,180.03 155.19,133.32 138.75,142.76 		"/>
		<polygon class="st31" points="138.75,186.87 138.75,189.47 155.19,180.03 152.89,178.74 		"/>
		<polygon class="st31" points="152.89,178.72 155.19,180.03 155.19,133.32 152.89,134.62 		"/>
	</g>
	<polygon class="st32" points="155.95,176.94 160.01,174.6 169.34,125.12 166.22,126.93 	"/>
	<polygon class="st32" points="138.75,186.87 142.81,184.53 152.13,135.05 149.02,136.86 	"/>
</g>
</svg>
