<?xml version="1.0" encoding="utf-8"?>
<!-- Generator: Adobe Illustrator 25.2.0, SVG Export Plug-In . SVG Version: 6.00 Build 0)  -->
<svg version="1.1" id="Lager_1" xmlns="http://www.w3.org/2000/svg" xmlns:xlink="http://www.w3.org/1999/xlink" x="0px" y="0px"
	 viewBox="0 0 283.46 283.46" style="enable-background:new 0 0 283.46 283.46;" xml:space="preserve">
<style type="text/css">
	.st0{fill:#FFDD08;}
	.st1{fill:#FFE742;}
	.st2{fill:#FFF19A;}
	.st3{fill:#FAB218;}
	.st4{fill:#646464;}
</style>
<g>
	<g>
		<g>
			<g>
				<path class="st0" d="M200.42,120.95c-0.14,0.64-0.36,1.28-0.57,1.85c-1.28,3.63-3.49,6.83-6.27,9.54
					c-4.84,4.63-11.19,7.84-17.45,9.26c-7.98,1.85-16.53,1.14-24.23-1.64c-2.56-0.93-4.98-2.07-7.27-3.56
					c-6.2-4.21-10.76-10.76-12.61-18.02c-0.22-0.93-0.43-1.78-0.57-2.71c-0.28-1.57-0.5-3.21-0.57-4.77
					c-0.07-1.21-0.14-2.42-0.14-3.64c0-6.48,1.07-12.9,2.35-19.24c2.21-10.83,6.63-21.23,13.11-30.2c0.14-0.22,0.36-0.51,0.57-0.71
					c0,0,0,0,0-0.07l0.07-0.07c0.93-1.36,1.99-2.64,3.14-3.78c0.78-0.85,1.56-1.63,2.49-2.28c1.42-1.21,3.06-2.14,4.91-2.78
					c5.48-1.92,11.75-0.21,16.6,3.07c3.35,2.35,6.13,5.34,8.62,8.61c1.14,1.43,2.14,2.85,3.14,4.28c5.2,7.48,9.97,15.53,12.89,24.23
					c0.79,1.92,1.28,3.84,1.78,5.84C202.49,102.93,202.35,112.18,200.42,120.95z"/>
				<path class="st1" d="M197.6,88.37c0.08,1.85-0.2,3.7-1.03,5.5c-1.21,2.64-2.7,5.2-4.91,7.05c-4.06,3.42-9.83,4-15.03,3.14
					c-6.2-1-12.04-3.92-16.6-8.19c-4.63-4.35-7.84-10.4-10.26-16.32c-3.78-9.12-3.85-18.67,1.64-27l1.07-1.64
					c1.42-1.21,3.06-2.14,4.91-2.78c5.48-1.92,11.75-0.21,16.6,3.07c3.35,2.35,6.13,5.34,8.62,8.61c1.14,1.43,2.14,2.85,3.14,4.28
					c3.25,4.67,6.29,9.5,8.85,14.6C196.09,81.67,197.45,85.01,197.6,88.37z"/>
				<path class="st2" d="M180.81,59.79c-0.03,1.49-0.5,2.84-1.68,3.9c-1.65,1.49-3.56,2.73-5.54,3.73
					c-3.92,1.97-8.26,2.92-12.64,2.8c-2.57-0.08-5.13-0.57-7.27-2.07c-2.92-2.06-4.42-5.84-4.42-9.48
					c-0.07-1.85,0.21-3.71,0.71-5.49c2.07-2.21,4.49-4.06,7.41-5.06c5.48-1.92,11.75-0.21,16.6,3.07c1.97,1.38,6.17,4.11,6.64,6.58
					C180.75,58.46,180.82,59.14,180.81,59.79z"/>
				<path class="st3" d="M193.58,132.34c-4.84,4.63-11.19,7.84-17.45,9.26c-7.98,1.85-16.53,1.14-24.23-1.64
					c-2.56-0.93-4.98-2.07-7.27-3.56c-6.2-4.21-10.76-10.76-12.61-18.02c-0.22-0.93-0.43-1.78-0.57-2.71
					c0.14-1.43-0.5-3.35-0.57-4.77c-0.07-1.21-0.14-2.42-0.14-3.64c0-6.48,1.07-12.9,2.35-19.24c2.21-10.83,6.63-21.23,13.11-30.2
					c0.14-0.22,0.36-0.51,0.57-0.71c-0.64,1.28-5.13,9.69-6.2,14.17c-3.56,14.82-2.56,30.57,4.13,44.39
					c3.56,7.4,10.34,10.19,17.81,12.82C172.49,131.91,183.18,133.27,193.58,132.34z"/>
				<path class="st4" d="M182.57,70.81l-0.21-0.23c-0.17-0.93-1.64-1.02-2.25-0.29c-0.61,0.72-0.54,1.79-0.35,2.72
					c0.81,3.8,3.29,6.99,5.21,10.37c4.33,7.62,5.93,16.77,4.43,25.41c-0.78,4.55-2.39,8.92-3.32,13.44
					c-0.27,1.29-0.06,3.16,1.25,3.22c0.69,0.04,1.25-0.53,1.7-1.06c5.42-6.53,7.09-15.46,6.78-23.94
					C195.41,89.27,191.41,77.64,182.57,70.81z"/>
			</g>
		</g>
		<g>
			<g>
				<path class="st0" d="M127.05,184.48c-0.5,0.92-1.07,1.78-1.71,2.63c-0.57,0.79-1.07,1.5-1.71,2.21c-1,1.21-2.07,2.42-3.28,3.49
					c-0.86,0.86-1.71,1.64-2.64,2.43c-4.98,4.2-10.61,7.47-16.24,10.61c-9.76,5.27-20.52,8.62-31.56,9.4c-0.29,0-0.64,0.08-0.93,0
					c0,0,0,0-0.07,0.08h-0.07c-1.64,0.14-3.28,0.14-4.91,0c-1.14,0-2.28-0.15-3.35-0.43c-1.85-0.28-3.64-1-5.27-1.99
					c-5.06-2.92-7.77-8.83-8.34-14.67c-0.35-4.07,0.15-8.13,1-12.11c0.36-1.78,0.85-3.49,1.28-5.13c1.5-5.77,3.42-11.47,5.84-16.96
					c1.28-2.92,2.78-5.84,4.42-8.55c0.93-1.85,2.07-3.42,3.28-5.13c2.5-3.35,5.42-6.41,8.55-9.05c3.64-3.2,7.69-5.91,11.97-8.19
					c0.57-0.29,1.21-0.5,1.78-0.71c3.63-1.36,7.48-1.78,11.32-1.36c6.7,0.71,13.18,3.49,18.31,7.42
					c6.55,4.91,11.55,11.89,14.39,19.59c0.57,1.49,1,3.06,1.36,4.62c0.28,1.07,0.42,2.14,0.57,3.21
					C131.68,172.22,130.25,178.92,127.05,184.48z"/>
				<path class="st3" d="M127.05,184.48c-0.5,0.92-1.07,1.78-1.71,2.63c-0.57,0.79-1.07,1.5-1.71,2.21c-1,1.21-2.07,2.42-3.28,3.49
					c-0.86,0.86-1.71,1.64-2.64,2.43c-4.98,4.2-10.61,7.47-16.24,10.61c-9.76,5.27-20.52,8.62-31.56,9.4c-0.29,0-0.64,0.08-0.93,0
					c0,0,0,0-0.07,0.08h-0.07c-1.64,0.14-3.28,0.14-4.91,0c-1.14,0-2.28-0.15-3.35-0.43c-1.85-0.28-3.64-1-5.27-1.99
					c-5.06-2.92-7.77-8.83-8.34-14.67c-0.35-4.07,0.15-8.13,1-12.11c0.36-1.78,0.85-3.49,1.28-5.13c1.5-5.77,3.42-11.47,5.84-16.96
					l0.15,1.21c-0.5,5.28-0.36,10.69,0.29,15.96c0.28,2.42,0.71,4.91,1.71,7.12c1.49,3.28,4.2,5.91,7.19,7.91
					c8.77,5.84,20.16,6.98,30.49,4.7c10.33-2.29,19.73-7.55,28.35-13.68C124.55,186.33,125.77,185.47,127.05,184.48z"/>
				<path class="st2" d="M49.13,187.5c1.16-0.93,2.49-1.45,4.07-1.23c2.2,0.3,4.38,0.96,6.41,1.84c4.03,1.73,7.56,4.45,10.28,7.88
					c1.6,2.01,2.87,4.29,3.1,6.89c0.3,3.56-1.63,7.14-4.41,9.48c-1.37,1.24-2.97,2.22-4.65,2.99c-3.02-0.16-6-0.82-8.64-2.42
					c-5-2.96-7.73-8.85-8.34-14.67c-0.21-2.4-0.83-7.38,0.76-9.32C48.15,188.39,48.62,187.91,49.13,187.5z"/>
				<path class="st1" d="M130.47,162.67c-1.36,1.85-3,3.57-4.78,4.99c-5.27,4.28-11.83,6.7-18.31,8.62
					c-4.2,1.21-8.55,2.28-12.9,2.35c-10.12,0.14-20.38-5.48-24.79-14.6c-3.49-7.19-2.77-16.17,1.64-22.73
					c3.64-3.2,7.69-5.91,11.97-8.19c0.57-0.29,1.21-0.5,1.78-0.71c3.63-1.36,7.48-1.78,11.32-1.36c6.7,0.71,13.18,3.49,18.31,7.42
					c6.55,4.91,11.55,11.89,14.39,19.59C129.69,159.53,130.12,161.11,130.47,162.67z"/>
				<path class="st4" d="M110.67,143.9c-0.77-0.59-1.54-1.16-2.29-1.69c-6.65-4.75-15.06-8.23-23.01-4.21
					c-1.59,0.81-3.16,2.16-3.23,3.94c-0.06,1.5,1,2.86,2.29,3.61c1.3,0.76,2.8,1.05,4.26,1.39c4.5,1.03,9.24,2.65,12.14,6.43
					c2.11,2.74,3.62,5.99,6.22,8.28c2.52,2.23,5.96,3.37,9.32,3.1c0.81-0.07,1.64-0.23,2.3-0.7c1.02-0.73,1.44-2.03,1.63-3.27
					C121.4,153.72,115.99,148.04,110.67,143.9z"/>
			</g>
		</g>
		<g>
			<g>
				<g>
					<path class="st0" d="M156.41,205.18c0.5,0.93,1.07,1.78,1.71,2.64c0.57,0.78,1.07,1.49,1.71,2.21c1,1.21,2.07,2.42,3.28,3.49
						c0.86,0.86,1.71,1.65,2.64,2.43c4.99,4.2,10.62,7.48,16.24,10.62c9.76,5.27,20.52,8.61,31.56,9.4c0.28,0,0.64,0.08,0.93,0
						c0,0,0,0,0.07,0.08h0.07c1.64,0.13,3.27,0.13,4.91,0c1.14,0,2.28-0.15,3.35-0.43c1.85-0.28,3.63-1,5.27-1.99
						c5.06-2.92,7.76-8.83,8.33-14.68c0.36-4.06-0.14-8.12-1-12.11c-0.35-1.78-0.86-3.49-1.28-5.13c-1.5-5.76-3.42-11.47-5.84-16.95
						c-1.28-2.93-2.78-5.85-4.42-8.55c-0.93-1.85-2.06-3.41-3.28-5.13c-2.49-3.35-5.41-6.41-8.55-9.05
						c-3.63-3.2-7.7-5.91-11.97-8.19c-0.57-0.28-1.21-0.5-1.78-0.71c-3.63-1.36-7.48-1.78-11.33-1.36
						c-6.7,0.71-13.18,3.49-18.31,7.41c-6.56,4.92-11.54,11.9-14.39,19.6c-0.57,1.49-1,3.05-1.35,4.63
						c-0.28,1.07-0.43,2.13-0.57,3.21C151.78,192.93,153.21,199.63,156.41,205.18z"/>
					<path class="st3" d="M156.41,205.18c0.5,0.93,1.07,1.78,1.71,2.64c0.57,0.78,1.07,1.49,1.71,2.21c1,1.21,2.07,2.42,3.28,3.49
						c0.86,0.86,1.71,1.65,2.64,2.43c4.99,4.2,10.62,7.48,16.24,10.62c9.76,5.27,20.52,8.61,31.56,9.4c0.28,0,0.64,0.08,0.93,0
						c0,0,0,0,0.07,0.08h0.07c1.64,0.13,3.27,0.13,4.91,0c1.14,0,2.28-0.15,3.35-0.43c1.85-0.28,3.63-1,5.27-1.99
						c5.06-2.92,7.76-8.83,8.33-14.68c0.36-4.06-0.14-8.12-1-12.11c-0.35-1.78-0.86-3.49-1.28-5.13c-1.5-5.76-3.42-11.47-5.84-16.95
						l-0.14,1.21c0.5,5.28,0.35,10.69-0.29,15.96c-0.28,2.42-0.71,4.91-1.71,7.12c-1.5,3.27-4.2,5.91-7.2,7.91
						c-8.76,5.84-20.16,6.98-30.49,4.7c-10.34-2.28-19.74-7.55-28.36-13.68C158.91,207.04,157.7,206.18,156.41,205.18z"/>
					<path class="st2" d="M234.34,208.21c-1.16-0.94-2.5-1.46-4.07-1.24c-2.2,0.3-4.38,0.96-6.41,1.84
						c-4.03,1.74-7.55,4.45-10.28,7.88c-1.6,2.02-2.87,4.3-3.1,6.89c-0.3,3.56,1.63,7.14,4.41,9.48c1.37,1.25,2.98,2.22,4.66,2.99
						c3.02-0.16,5.99-0.82,8.64-2.42c5-2.96,7.73-8.85,8.34-14.67c0.21-2.4,0.82-7.38-0.77-9.33
						C235.31,209.11,234.84,208.61,234.34,208.21z"/>
					<path class="st1" d="M152.99,183.38c1.35,1.85,2.99,3.56,4.77,4.99c5.27,4.27,11.83,6.69,18.31,8.61
						c4.2,1.22,8.55,2.28,12.9,2.35c10.12,0.14,20.38-5.49,24.79-14.6c3.49-7.19,2.78-16.17-1.64-22.73
						c-3.63-3.2-7.7-5.91-11.97-8.19c-0.57-0.28-1.21-0.5-1.78-0.71c-3.63-1.36-7.48-1.78-11.33-1.36
						c-6.7,0.71-13.18,3.49-18.31,7.41c-6.56,4.92-11.54,11.9-14.39,19.6C153.78,180.25,153.35,181.81,152.99,183.38z"/>
					<path class="st4" d="M172.8,164.61c0.77-0.6,1.54-1.16,2.29-1.7c6.65-4.75,15.06-8.22,23.01-4.21
						c1.59,0.81,3.16,2.16,3.23,3.94c0.06,1.49-1,2.86-2.29,3.61c-1.29,0.76-2.8,1.05-4.27,1.39c-4.49,1.03-9.24,2.65-12.14,6.42
						c-2.11,2.74-3.63,5.99-6.22,8.29c-2.52,2.23-5.97,3.37-9.32,3.09c-0.81-0.07-1.64-0.23-2.3-0.7c-1.02-0.72-1.44-2.03-1.63-3.26
						C162.06,174.43,167.48,168.75,172.8,164.61z"/>
				</g>
			</g>
		</g>
	</g>
</g>
</svg>
