<?xml version="1.0" encoding="utf-8"?>
<!-- Generator: Adobe Illustrator 25.2.0, SVG Export Plug-In . SVG Version: 6.00 Build 0)  -->
<svg version="1.1" id="Lager_1" xmlns="http://www.w3.org/2000/svg" xmlns:xlink="http://www.w3.org/1999/xlink" x="0px" y="0px"
	 viewBox="0 0 283.46 283.46" style="enable-background:new 0 0 283.46 283.46;" xml:space="preserve">
<style type="text/css">
	.st0{fill:#76606C;}
	.st1{fill:#F2E8E9;}
	.st2{fill:#333332;}
	.st3{fill:#3C3C3B;}
	.st4{fill:#373636;}
	.st5{fill:#2D2D2C;}
	.st6{fill:#83827F;}
	.st7{fill:#575756;}
	.st8{opacity:0.8;}
	.st9{fill:#E30613;}
	.st10{fill:#C82726;}
	.st11{fill:#E02F29;}
	.st12{fill:#E73534;}
	.st13{fill:#9C8383;}
	.st14{fill:#533E41;}
	.st15{fill:#B5B5B5;}
	.st16{fill:#746C6C;}
	.st17{fill:#476F7C;}
	.st18{fill:#BDC4C6;}
	.st19{fill:#DADFE1;}
	.st20{fill:#A4A4A4;}
	.st21{fill:#7D666A;}
	.st22{opacity:0.5;}
	.st23{fill:#BC9CA2;}
	.st24{fill:#B45217;}
	.st25{fill:#FBFCFC;}
	.st26{fill:#CFCECE;}
	.st27{fill:#E7E3E4;}
	.st28{fill:#6A4248;}
	.st29{fill:#D8D8D4;}
	.st30{fill:#87686B;}
	.st31{fill:#412417;}
	.st32{fill:#B09B9F;}
</style>
<g>
	<g>
		<polygon class="st0" points="131.95,210.65 152.08,222.28 239.45,171.83 219.31,160.21 		"/>
	</g>
	<g>
		<polygon class="st1" points="133.41,211.5 134.77,212.28 222.14,161.84 220.78,161.05 		"/>
		<polygon class="st1" points="149.26,220.65 150.62,221.43 237.99,170.99 236.63,170.2 		"/>
		<g>
			<polygon class="st1" points="141.34,216.07 142.7,216.86 146.87,214.45 145.51,213.66 			"/>
			<polygon class="st1" points="149.58,211.31 150.94,212.1 155.12,209.69 153.76,208.9 			"/>
			<polygon class="st1" points="157.55,206.71 158.91,207.49 163.09,205.08 161.73,204.3 			"/>
			<polygon class="st1" points="165.8,201.95 167.16,202.74 171.33,200.32 169.97,199.54 			"/>
			<polygon class="st1" points="173.75,197.36 175.11,198.14 179.29,195.73 177.92,194.95 			"/>
			<polygon class="st1" points="181.99,192.6 183.35,193.38 187.53,190.97 186.17,190.19 			"/>
			<polygon class="st1" points="189.96,187.99 191.33,188.78 195.5,186.37 194.14,185.58 			"/>
			<polygon class="st1" points="198.21,183.23 199.57,184.02 203.75,181.61 202.38,180.82 			"/>
			<polygon class="st1" points="206.94,178.19 208.31,178.98 212.48,176.57 211.12,175.78 			"/>
			<polygon class="st1" points="214.92,173.59 216.28,174.37 220.45,171.96 219.09,171.18 			"/>
			<polygon class="st1" points="223.16,168.83 224.52,169.61 228.7,167.2 227.34,166.42 			"/>
		</g>
	</g>
</g>
<polygon class="st2" points="44.58,160.2 131.95,210.64 219.31,160.2 131.95,109.76 "/>
<polygon class="st3" points="44.58,156.31 131.95,206.75 219.31,156.31 131.95,105.87 "/>
<polygon class="st4" points="219.31,160.2 219.31,156.31 212.58,160.2 "/>
<polygon class="st5" points="44.58,160.2 131.95,210.64 131.95,206.75 44.58,156.31 "/>
<polygon class="st6" points="61.19,110.7 61.2,161.26 135.25,118.51 135.25,67.94 "/>
<polygon class="st7" points="112.38,140.18 112.38,190.75 186.44,147.99 186.43,97.42 "/>
<polygon class="st7" points="61.19,110.65 61.2,161.26 112.38,190.75 112.38,140.2 "/>
<polygon class="st7" points="61.19,110.65 112.38,140.2 186.43,97.42 135.25,67.94 "/>
<g>
	<path class="st3" d="M137.62,127.98c-0.73,0.42-1.48,1-2.2,1.72c-0.08,2.36-0.13,4.48-0.13,6.7c0,1.09,0.01,2.27,0.05,3.49
		l1.72-0.8c-0.03-1.14-0.04-2.28-0.04-3.34c1.97-1.78,3.45-4.08,3.45-5.98C140.48,127.62,138.99,127.19,137.62,127.98z
		 M137.03,134.09c0.01-1.34,0.04-2.65,0.08-4.03c0.16-0.12,0.32-0.26,0.52-0.37c0.54-0.31,1.13,0.01,1.13,1.09
		C138.75,131.8,138.09,133.09,137.03,134.09z"/>
	<path class="st3" d="M143.31,124.95l-1.71,0.81c-0.08,1.84-0.11,3.39-0.11,4.97c0,1.74,0.05,3.47,0.16,5.47l1.71-0.81
		c-0.11-1.58-0.16-3.47-0.16-5.39C143.19,128.27,143.23,126.53,143.31,124.95z"/>
	<path class="st3" d="M149.68,121.37c-2.14,1.26-4.01,2.5-4.97,3.29l0.24,1.57c0.85-0.64,1.9-1.36,3.05-2.1
		c-1.1,3.12-2.11,5.57-3.49,8.9l0.2,1.42c1.14-0.88,1.83-1.38,2.24-1.61c0.78-0.45,1.66-0.85,2.41-1.18l0.22-1.86
		c-0.67,0.27-1.43,0.62-2.2,1.07c-0.3,0.18-0.62,0.37-0.92,0.58c1.26-3.02,2.3-5.78,3.44-8.93L149.68,121.37z"/>
	<path class="st3" d="M155.47,118.03c-2.14,1.26-4.01,2.5-4.97,3.29l0.24,1.57c0.85-0.64,1.9-1.36,3.05-2.1
		c-1.1,3.12-2.11,5.57-3.49,8.91l0.2,1.42c1.14-0.88,1.83-1.38,2.24-1.61c0.78-0.45,1.66-0.85,2.42-1.18l0.22-1.86
		c-0.67,0.27-1.43,0.62-2.2,1.07c-0.3,0.18-0.62,0.37-0.92,0.58c1.26-3.02,2.3-5.78,3.44-8.93L155.47,118.03z"/>
	<path class="st3" d="M157.9,116.52l-2.26,11.89l1.77-0.85l0.48-3.02l1.88-1.18l0.29,1.86l1.83-0.88l-1.66-8.94L157.9,116.52z
		 M158.16,122.83l0.8-5l0.62,4.12L158.16,122.83z"/>
</g>
<polygon class="st3" points="139.41,127.71 136.64,129.65 135.96,134.46 135.35,139.9 137.73,141.36 138.96,136.79 140.06,136.12 
	142.02,132.62 141.96,129.25 "/>
<path class="st3" d="M141.6,125.76c0,0,0.44,9.87,0.05,10.44l2.38,1.47l0.48-0.91l1.18-10.34l-2.38-1.47L141.6,125.76z"/>
<polygon class="st3" points="144.71,124.67 144.95,126.24 147.33,127.7 147.09,126.13 "/>
<polygon class="st3" points="146.02,131.9 148.82,130.39 150.59,125.46 147.99,126.67 "/>
<polygon class="st3" points="144.92,125.08 147.01,126.58 152.06,122.84 149.68,121.37 "/>
<polygon class="st3" points="145.33,133.91 147.09,135.93 148.46,132.41 147.67,131.59 "/>
<polygon class="st3" points="148.54,132.9 148.78,133.07 151.96,131.28 149.76,129.69 "/>
<polygon class="st3" points="150.3,129.7 151.28,131.38 152.88,132.58 152.68,131.17 "/>
<polygon class="st3" points="150.5,121.32 150.8,122.79 153.12,124.36 152.88,122.79 "/>
<polygon class="st3" points="151.97,128.51 154.84,126.98 156.54,121.91 153.71,123.11 "/>
<polygon class="st3" points="150.71,121.68 152.88,122.79 157.85,119.5 155.47,118.03 "/>
<polygon class="st3" points="150.93,130.79 153.12,131.59 154.25,128.06 152.21,128.68 "/>
<polygon class="st3" points="154.33,130.18 157.75,127.94 155.34,126.93 "/>
<polygon class="st3" points="156.25,128.68 158.02,129.88 160.28,117.99 157.9,116.52 "/>
<polygon class="st3" points="160.05,118.42 162.62,116.88 160.24,115.41 "/>
<polygon class="st3" points="161.05,118.7 161.24,124.3 162.39,122.97 161.9,119.19 "/>
<polygon class="st3" points="160.94,125.3 162.44,126.7 162.21,124.3 "/>
<g class="st8">
	<path class="st9" d="M140,129.45c-0.73,0.42-1.48,1-2.2,1.72c-0.08,2.36-0.13,4.48-0.13,6.7c0,1.09,0.01,2.27,0.05,3.49l1.72-0.8
		c-0.03-1.14-0.04-2.28-0.04-3.34c1.97-1.78,3.45-4.08,3.45-5.98C142.86,129.09,141.37,128.66,140,129.45z M139.41,135.56
		c0.01-1.34,0.04-2.65,0.08-4.03c0.16-0.12,0.32-0.26,0.52-0.37c0.54-0.31,1.13,0.01,1.13,1.09
		C141.13,133.27,140.47,134.55,139.41,135.56z"/>
	<path class="st9" d="M145.68,126.42l-1.71,0.81c-0.08,1.84-0.11,3.39-0.11,4.97c0,1.74,0.05,3.47,0.16,5.47l1.71-0.81
		c-0.11-1.58-0.16-3.47-0.16-5.39C145.57,129.74,145.61,128,145.68,126.42z"/>
	<path class="st9" d="M152.06,122.84c-2.14,1.26-4.01,2.5-4.97,3.29l0.24,1.57c0.85-0.64,1.9-1.36,3.05-2.09
		c-1.1,3.12-2.11,5.57-3.49,8.9l0.2,1.42c1.14-0.88,1.83-1.38,2.24-1.61c0.78-0.45,1.66-0.85,2.42-1.18l0.21-1.86
		c-0.67,0.27-1.43,0.62-2.2,1.07c-0.3,0.18-0.62,0.37-0.92,0.58c1.26-3.02,2.3-5.78,3.44-8.93L152.06,122.84z"/>
	<path class="st9" d="M157.85,119.5c-2.14,1.26-4.01,2.5-4.97,3.29l0.24,1.57c0.85-0.64,1.9-1.36,3.05-2.1
		c-1.1,3.12-2.11,5.57-3.49,8.91l0.2,1.42c1.14-0.88,1.83-1.38,2.24-1.61c0.78-0.45,1.66-0.85,2.42-1.18l0.22-1.86
		c-0.67,0.27-1.43,0.62-2.2,1.07c-0.3,0.18-0.62,0.37-0.92,0.58c1.26-3.02,2.3-5.78,3.44-8.93L157.85,119.5z"/>
	<path class="st9" d="M160.28,117.99l-2.26,11.89l1.77-0.85l0.48-3.02l1.88-1.18l0.29,1.86l1.83-0.88l-1.66-8.94L160.28,117.99z
		 M160.54,124.3l0.8-5l0.62,4.12L160.54,124.3z"/>
</g>
<g>
	<polygon class="st10" points="59.54,110.58 135.53,66.71 135.53,61.75 59.54,105.72 	"/>
</g>
<g>
	<polygon class="st11" points="135.53,66.68 188.08,96.96 188.08,92.13 135.53,61.72 	"/>
</g>
<g>
	<polygon class="st11" points="59.53,110.57 112.08,140.85 112.08,136.02 59.53,105.61 	"/>
</g>
<g>
	<path class="st10" d="M65.88,105.9v1.48c1.12,0.39,2.1,0.97,2.92,1.69l71.91-41.52c-1.74-0.44-3.17-1.29-4.28-2.41L65.88,105.9z"/>
</g>
<polygon class="st12" points="59.53,105.61 112.09,136.03 115.41,134.11 62.88,103.78 "/>
<polygon class="st12" points="132.29,63.62 184.77,94 188.1,92.08 135.57,61.75 "/>
<polygon class="st12" points="59.53,105.61 63.15,107.71 136.14,65.16 132.86,63.28 "/>
<g>
	<path class="st11" d="M135.53,70.49l46.13,26.58c0.83-1.2,1.94-2.21,3.32-2.92l-49.45-28.61V70.49z"/>
</g>
<g>
	<polygon class="st10" points="112.09,140.89 188.08,97.02 188.08,92.13 112.09,136.03 	"/>
</g>
<polygon class="st12" points="108.96,133.63 112.58,135.73 188.08,92.13 182.29,91.3 "/>
<g>
	<g>
		<g>
			<g>
				<g>
					<polygon class="st13" points="123.67,87.47 135.61,92.55 150.49,83.24 138.56,78.15 					"/>
				</g>
				<g>
					<path class="st13" d="M123.03,87.51l12.62,5.38l15.49-9.69l-12.62-5.38L123.03,87.51z M149.85,83.28l-14.29,8.94l-11.25-4.79
						l14.29-8.94L149.85,83.28z"/>
				</g>
			</g>
			<g>
				<g>
					<polygon class="st13" points="124.69,87.88 124.86,88.01 139.62,78.64 139.45,78.5 					"/>
				</g>
				<g>
					<polygon class="st13" points="125.82,88.35 125.98,88.48 140.74,79.11 140.58,78.98 					"/>
				</g>
				<g>
					<polygon class="st13" points="126.98,88.86 127.15,89 141.91,79.63 141.74,79.49 					"/>
				</g>
				<g>
					<polygon class="st13" points="128.1,89.34 128.27,89.47 143.03,80.1 142.86,79.97 					"/>
				</g>
				<g>
					<polygon class="st13" points="129.26,89.81 129.43,89.95 144.19,80.58 144.02,80.44 					"/>
				</g>
				<g>
					<polygon class="st13" points="130.39,90.29 130.55,90.42 145.31,81.05 145.15,80.91 					"/>
				</g>
				<g>
					<polygon class="st13" points="131.42,90.74 131.59,90.88 146.35,81.51 146.18,81.37 					"/>
				</g>
				<g>
					<polygon class="st13" points="132.54,91.22 132.71,91.35 147.47,81.98 147.3,81.84 					"/>
				</g>
				<g>
					<polygon class="st13" points="133.42,91.6 133.59,91.73 148.35,82.36 148.18,82.22 					"/>
				</g>
				<g>
					<polygon class="st13" points="134.54,92.07 134.71,92.2 149.47,82.83 149.3,82.7 					"/>
				</g>
				<g>
					<polygon class="st13" points="124.71,86.86 136.66,91.93 136.79,91.78 124.84,86.7 					"/>
				</g>
				<g>
					<polygon class="st13" points="125.97,86.07 137.92,91.15 138.04,90.99 126.09,85.92 					"/>
				</g>
				<g>
					<polygon class="st13" points="127.37,85.19 139.32,90.26 139.45,90.11 127.5,85.03 					"/>
				</g>
				<g>
					<polygon class="st13" points="128.62,84.4 140.57,89.48 140.7,89.32 128.75,84.25 					"/>
				</g>
				<g>
					<polygon class="st13" points="129.83,83.66 141.78,88.73 141.9,88.58 129.95,83.5 					"/>
				</g>
				<g>
					<polygon class="st13" points="131.08,82.88 143.03,87.95 143.16,87.79 131.21,82.72 					"/>
				</g>
				<g>
					<polygon class="st13" points="132.48,81.99 144.43,87.06 144.56,86.91 132.61,81.83 					"/>
				</g>
				<g>
					<polygon class="st13" points="133.74,81.21 145.69,86.28 145.81,86.12 133.86,81.05 					"/>
				</g>
				<g>
					<polygon class="st13" points="134.96,80.46 146.91,85.54 147.04,85.38 135.09,80.3 					"/>
				</g>
				<g>
					<polygon class="st13" points="136.36,79.57 148.31,84.65 148.44,84.49 136.49,79.42 					"/>
				</g>
				<g>
					<polygon class="st13" points="137.62,78.79 149.57,83.87 149.69,83.71 137.74,78.63 					"/>
				</g>
			</g>
			<g>
				<path class="st13" d="M123.03,87.51l12.62,5.38l15.49-9.69l-12.62-5.38L123.03,87.51z M149.85,83.28l-14.29,8.94l-11.25-4.79
					l14.29-8.94L149.85,83.28z"/>
			</g>
		</g>
		<g>
			<g>
				<g>
					<polygon class="st13" points="123.67,86.79 135.61,91.87 150.5,82.56 138.56,77.47 					"/>
				</g>
				<g>
					<path class="st13" d="M123.03,86.83l12.62,5.38l15.49-9.69l-12.62-5.38L123.03,86.83z M149.85,82.6l-14.29,8.94l-11.25-4.79
						l14.29-8.94L149.85,82.6z"/>
				</g>
			</g>
			<g>
				<g>
					<polygon class="st13" points="124.69,87.19 124.86,87.33 139.62,77.96 139.45,77.82 					"/>
				</g>
				<g>
					<polygon class="st13" points="125.82,87.67 125.98,87.8 140.74,78.43 140.58,78.29 					"/>
				</g>
				<g>
					<polygon class="st13" points="126.98,88.18 127.15,88.32 141.91,78.95 141.74,78.81 					"/>
				</g>
				<g>
					<polygon class="st13" points="128.11,88.65 128.27,88.79 143.03,79.42 142.87,79.28 					"/>
				</g>
				<g>
					<polygon class="st13" points="129.26,89.13 129.43,89.26 144.19,79.89 144.02,79.76 					"/>
				</g>
				<g>
					<polygon class="st13" points="130.39,89.6 130.55,89.74 145.31,80.37 145.15,80.23 					"/>
				</g>
				<g>
					<polygon class="st13" points="131.42,90.06 131.59,90.19 146.35,80.82 146.18,80.69 					"/>
				</g>
				<g>
					<polygon class="st13" points="132.54,90.53 132.71,90.67 147.47,81.3 147.31,81.16 					"/>
				</g>
				<g>
					<polygon class="st13" points="133.42,90.91 133.59,91.05 148.35,81.68 148.18,81.54 					"/>
				</g>
				<g>
					<polygon class="st13" points="134.54,91.39 134.71,91.52 149.47,82.15 149.31,82.01 					"/>
				</g>
				<g>
					<polygon class="st13" points="124.71,86.17 136.66,91.25 136.79,91.09 124.84,86.02 					"/>
				</g>
				<g>
					<polygon class="st13" points="125.97,85.39 137.92,90.47 138.04,90.31 126.09,85.23 					"/>
				</g>
				<g>
					<polygon class="st13" points="127.37,84.5 139.32,89.58 139.45,89.42 127.5,84.35 					"/>
				</g>
				<g>
					<polygon class="st13" points="128.62,83.72 140.57,88.8 140.7,88.64 128.75,83.57 					"/>
				</g>
				<g>
					<polygon class="st13" points="129.83,82.97 141.78,88.05 141.9,87.89 129.95,82.82 					"/>
				</g>
				<g>
					<polygon class="st13" points="131.08,82.19 143.03,87.27 143.16,87.11 131.21,82.04 					"/>
				</g>
				<g>
					<polygon class="st13" points="132.48,81.3 144.43,86.38 144.56,86.22 132.61,81.15 					"/>
				</g>
				<g>
					<polygon class="st13" points="133.74,80.52 145.69,85.6 145.81,85.44 133.86,80.37 					"/>
				</g>
				<g>
					<polygon class="st13" points="134.96,79.78 146.91,84.85 147.04,84.7 135.09,79.62 					"/>
				</g>
				<g>
					<polygon class="st13" points="136.36,78.89 148.31,83.97 148.44,83.81 136.49,78.73 					"/>
				</g>
				<g>
					<polygon class="st13" points="137.62,78.11 149.57,83.18 149.69,83.03 137.75,77.95 					"/>
				</g>
			</g>
			<g>
				<path class="st13" d="M123.03,86.83l12.62,5.38l15.49-9.69l-12.62-5.38L123.03,86.83z M149.85,82.6l-14.29,8.94l-11.25-4.79
					l14.29-8.94L149.85,82.6z"/>
			</g>
		</g>
		<g>
			<polygon class="st13" points="123.03,87.51 123.93,87.22 123.03,86.83 			"/>
		</g>
		<g>
			<polygon class="st13" points="135.65,92.89 151.14,83.2 151.14,82.51 135.65,92.21 			"/>
		</g>
	</g>
	<g>
		<g>
			<g>
				<path class="st14" d="M140.77,85.77c-0.34-0.19-0.88-0.19-1.22,0c-0.34,0.19-0.34,0.51,0,0.7c0.34,0.19,0.88,0.19,1.22,0
					C141.11,86.28,141.11,85.96,140.77,85.77z"/>
			</g>
			<g>
				<rect x="139.3" y="80.88" class="st14" width="1.72" height="5.25"/>
			</g>
		</g>
		<g>
			<g>
				<path class="st14" d="M132.95,90.33c-0.34-0.19-0.88-0.19-1.22,0c-0.34,0.19-0.34,0.51,0,0.7c0.34,0.19,0.88,0.19,1.22,0
					C133.28,90.84,133.28,90.53,132.95,90.33z"/>
			</g>
			<g>
				<rect x="131.48" y="85.44" class="st14" width="1.72" height="5.25"/>
			</g>
		</g>
		<g>
			<g>
				<g>
					<g>
						<polygon class="st15" points="119.91,85.43 129.9,91.33 142.36,80.52 132.37,74.62 						"/>
					</g>
					<g>
						<path class="st15" d="M119.37,85.48l10.56,6.24l12.97-11.25l-10.56-6.24L119.37,85.48z M141.82,80.57l-11.96,10.38l-9.42-5.56
							l11.96-10.38L141.82,80.57z"/>
					</g>
				</g>
				<g>
					<g>
						
							<rect x="118.78" y="80.44" transform="matrix(0.7513 -0.66 0.66 0.7513 -21.5682 103.8575)" class="st15" width="16.46" height="0.21"/>
					</g>
					<g>
						
							<rect x="119.72" y="80.99" transform="matrix(0.7501 -0.6613 0.6613 0.7501 -21.6547 104.8818)" class="st15" width="16.46" height="0.21"/>
					</g>
					<g>
						
							<rect x="120.69" y="81.59" transform="matrix(0.7501 -0.6613 0.6613 0.7501 -21.806 105.6751)" class="st15" width="16.46" height="0.21"/>
					</g>
					<g>
						
							<rect x="121.63" y="82.14" transform="matrix(0.7495 -0.662 0.662 0.7495 -21.9114 106.5776)" class="st15" width="16.46" height="0.21"/>
					</g>
					<g>
						
							<rect x="122.6" y="82.69" transform="matrix(0.7507 -0.6607 0.6607 0.7507 -22.0775 107.085)" class="st15" width="16.46" height="0.21"/>
					</g>
					<g>
						
							<rect x="123.54" y="83.24" transform="matrix(0.7513 -0.66 0.66 0.7513 -22.2289 107.6983)" class="st15" width="16.46" height="0.21"/>
					</g>
					<g>
						<polygon class="st15" points="126.39,89.23 126.53,89.39 138.89,78.51 138.75,78.35 						"/>
					</g>
					<g>
						
							<rect x="125.35" y="84.32" transform="matrix(0.7497 -0.6618 0.6618 0.7497 -22.4318 109.5354)" class="st15" width="16.46" height="0.21"/>
					</g>
					<g>
						
							<rect x="126.08" y="84.76" transform="matrix(0.7509 -0.6605 0.6605 0.7509 -22.5849 109.8513)" class="st15" width="16.46" height="0.21"/>
					</g>
					<g>
						
							<rect x="127.03" y="85.31" transform="matrix(0.7509 -0.6605 0.6605 0.7509 -22.7134 110.6094)" class="st15" width="16.46" height="0.21"/>
					</g>
					<g>
						
							<rect x="125.73" y="81.77" transform="matrix(0.5074 -0.8617 0.8617 0.5074 -13.4809 151.5685)" class="st15" width="0.21" height="11.61"/>
					</g>
					<g>
						
							<rect x="126.78" y="80.86" transform="matrix(0.5074 -0.8617 0.8617 0.5074 -12.1831 152.0221)" class="st15" width="0.21" height="11.61"/>
					</g>
					<g>
						
							<rect x="127.95" y="79.83" transform="matrix(0.5074 -0.8617 0.8617 0.5074 -10.7167 152.5282)" class="st15" width="0.21" height="11.61"/>
					</g>
					<g>
						
							<rect x="129" y="78.93" transform="matrix(0.5074 -0.8617 0.8617 0.5074 -9.4159 152.9877)" class="st15" width="0.21" height="11.61"/>
					</g>
					<g>
						
							<rect x="130.01" y="78.06" transform="matrix(0.5074 -0.8617 0.8617 0.5074 -8.1736 153.427)" class="st15" width="0.21" height="11.61"/>
					</g>
					<g>
						
							<rect x="131.06" y="77.15" transform="matrix(0.5074 -0.8617 0.8617 0.5074 -6.8751 153.8824)" class="st15" width="0.21" height="11.61"/>
					</g>
					<g>
						
							<rect x="132.23" y="76.12" transform="matrix(0.5074 -0.8617 0.8617 0.5074 -5.4069 154.3918)" class="st15" width="0.21" height="11.61"/>
					</g>
					<g>
						
							<rect x="133.28" y="75.21" transform="matrix(0.5074 -0.8617 0.8617 0.5074 -4.1078 154.848)" class="st15" width="0.21" height="11.61"/>
					</g>
					<g>
						
							<rect x="134.31" y="74.35" transform="matrix(0.5074 -0.8617 0.8617 0.5074 -2.8596 155.3031)" class="st15" width="0.21" height="11.61"/>
					</g>
					<g>
						
							<rect x="135.48" y="73.32" transform="matrix(0.5074 -0.8617 0.8617 0.5074 -1.395 155.8058)" class="st15" width="0.21" height="11.61"/>
					</g>
					<g>
						
							<rect x="136.53" y="72.41" transform="matrix(0.5074 -0.8617 0.8617 0.5074 -0.0953 156.2632)" class="st15" width="0.21" height="11.61"/>
					</g>
				</g>
				<g>
					<path class="st15" d="M119.37,85.48l10.56,6.24l12.97-11.25l-10.56-6.24L119.37,85.48z M141.82,80.57l-11.96,10.38l-9.42-5.56
						l11.96-10.38L141.82,80.57z"/>
				</g>
			</g>
			<g>
				<g>
					<g>
						<polygon class="st16" points="119.91,84.64 129.9,90.54 142.36,79.73 132.37,73.83 						"/>
					</g>
					<g>
						<path class="st17" d="M119.37,84.69l10.56,6.24l12.97-11.25l-10.56-6.24L119.37,84.69z M141.82,79.78l-11.96,10.38l-9.42-5.56
							l11.96-10.38L141.82,79.78z"/>
					</g>
				</g>
				<g>
					<g>
						
							<rect x="118.78" y="79.65" transform="matrix(0.7501 -0.6613 0.6613 0.7501 -21.0019 103.9247)" class="st18" width="16.46" height="0.21"/>
					</g>
					<g>
						
							<rect x="119.72" y="80.2" transform="matrix(0.7499 -0.6615 0.6615 0.7499 -21.1235 104.7246)" class="st18" width="16.46" height="0.21"/>
					</g>
					<g>
						
							<rect x="120.69" y="80.79" transform="matrix(0.7511 -0.6602 0.6602 0.7511 -21.3174 105.2566)" class="st18" width="16.46" height="0.21"/>
					</g>
					<g>
						<polygon class="st18" points="123.62,86.81 123.76,86.96 136.11,76.09 135.97,75.93 						"/>
					</g>
					<g>
						
							<rect x="122.6" y="81.89" transform="matrix(0.7513 -0.66 0.66 0.7513 -21.5768 106.7439)" class="st18" width="16.46" height="0.21"/>
					</g>
					<g>
						
							<rect x="123.55" y="82.44" transform="matrix(0.7503 -0.6611 0.6611 0.7503 -21.6697 107.7205)" class="st18" width="16.46" height="0.21"/>
					</g>
					<g>
						
							<rect x="124.41" y="82.97" transform="matrix(0.7509 -0.6605 0.6605 0.7509 -21.824 108.3018)" class="st18" width="16.46" height="0.21"/>
					</g>
					<g>
						<polygon class="st18" points="127.33,88.99 127.47,89.14 139.83,78.27 139.69,78.11 						"/>
					</g>
					<g>
						<polygon class="st18" points="128.07,89.43 128.21,89.59 140.56,78.71 140.42,78.55 						"/>
					</g>
					<g>
						
							<rect x="127.03" y="84.51" transform="matrix(0.7513 -0.66 0.66 0.7513 -22.2057 110.3133)" class="st18" width="16.46" height="0.21"/>
					</g>
					<g>
						<polygon class="st18" points="120.78,83.93 130.78,89.82 130.89,89.64 120.89,83.75 						"/>
					</g>
					<g>
						
							<rect x="126.78" y="80.07" transform="matrix(0.5074 -0.8617 0.8617 0.5074 -11.4976 151.6363)" class="st18" width="0.21" height="11.61"/>
					</g>
					<g>
						
							<rect x="127.95" y="79.04" transform="matrix(0.5074 -0.8617 0.8617 0.5074 -10.0333 152.1377)" class="st18" width="0.21" height="11.61"/>
					</g>
					<g>
						
							<rect x="129" y="78.13" transform="matrix(0.5074 -0.8617 0.8617 0.5074 -8.7343 152.5939)" class="st18" width="0.21" height="11.61"/>
					</g>
					<g>
						
							<rect x="130.01" y="77.27" transform="matrix(0.5074 -0.8617 0.8617 0.5074 -7.4888 153.0395)" class="st18" width="0.21" height="11.61"/>
					</g>
					<g>
						
							<rect x="131.06" y="76.36" transform="matrix(0.5074 -0.8617 0.8617 0.5074 -6.1892 153.4968)" class="st18" width="0.21" height="11.61"/>
					</g>
					<g>
						
							<rect x="132.23" y="75.33" transform="matrix(0.5074 -0.8617 0.8617 0.5074 -4.7259 153.9968)" class="st18" width="0.21" height="11.61"/>
					</g>
					<g>
						
							<rect x="133.28" y="74.42" transform="matrix(0.5074 -0.8617 0.8617 0.5074 -3.4251 154.4564)" class="st18" width="0.21" height="11.61"/>
					</g>
					<g>
						
							<rect x="134.31" y="73.56" transform="matrix(0.5074 -0.8617 0.8617 0.5074 -2.1752 154.9147)" class="st18" width="0.21" height="11.61"/>
					</g>
					<g>
						<polygon class="st18" points="130.53,75.48 140.53,81.37 140.64,81.18 130.64,75.29 						"/>
					</g>
					<g>
						
							<rect x="136.53" y="71.62" transform="matrix(0.5074 -0.8617 0.8617 0.5074 0.5889 155.8745)" class="st18" width="0.21" height="11.61"/>
					</g>
				</g>
				<g>
					<path class="st19" d="M119.37,84.69l10.56,6.24l12.96-11.25l-10.56-6.24L119.37,84.69z M141.82,79.78l-11.96,10.38l-9.42-5.56
						l11.96-10.38L141.82,79.78z"/>
				</g>
			</g>
			<g>
				<polygon class="st15" points="119.37,85.48 120.12,85.14 119.37,84.69 				"/>
			</g>
			<g>
				<polygon class="st20" points="129.93,91.72 142.9,80.47 142.9,79.68 129.93,90.93 				"/>
			</g>
		</g>
	</g>
</g>
<g>
	<g>
		<g>
			<g>
				<g>
					<polygon class="st13" points="138.91,96.18 150.85,101.26 165.74,91.94 153.8,86.86 					"/>
				</g>
				<g>
					<path class="st13" d="M138.27,96.22l12.62,5.38l15.49-9.69l-12.62-5.38L138.27,96.22z M165.09,91.99l-14.29,8.94l-11.25-4.79
						l14.29-8.94L165.09,91.99z"/>
				</g>
			</g>
			<g>
				<g>
					<polygon class="st13" points="139.94,96.58 140.1,96.72 154.86,87.35 154.7,87.21 					"/>
				</g>
				<g>
					<polygon class="st13" points="141.06,97.05 141.23,97.19 155.99,87.82 155.82,87.68 					"/>
				</g>
				<g>
					<polygon class="st13" points="142.22,97.57 142.39,97.71 157.15,88.33 156.98,88.2 					"/>
				</g>
				<g>
					<polygon class="st13" points="143.35,98.04 143.51,98.18 158.27,88.81 158.11,88.67 					"/>
				</g>
				<g>
					<polygon class="st13" points="144.51,98.52 144.67,98.65 159.43,89.28 159.27,89.15 					"/>
				</g>
				<g>
					<polygon class="st13" points="145.63,98.99 145.8,99.13 160.56,89.76 160.39,89.62 					"/>
				</g>
				<g>
					<polygon class="st13" points="146.66,99.45 146.83,99.58 161.59,90.21 161.42,90.08 					"/>
				</g>
				<g>
					<polygon class="st13" points="147.79,99.92 147.95,100.06 162.71,90.69 162.55,90.55 					"/>
				</g>
				<g>
					<polygon class="st13" points="148.66,100.3 148.83,100.44 163.59,91.07 163.42,90.93 					"/>
				</g>
				<g>
					<polygon class="st13" points="149.79,100.77 149.95,100.91 164.71,91.54 164.55,91.4 					"/>
				</g>
				<g>
					<polygon class="st13" points="139.96,95.56 151.91,100.64 152.03,100.48 140.08,95.41 					"/>
				</g>
				<g>
					<polygon class="st13" points="141.21,94.78 153.16,99.86 153.29,99.7 141.34,94.62 					"/>
				</g>
				<g>
					<polygon class="st13" points="142.61,93.89 154.56,98.97 154.69,98.81 142.74,93.74 					"/>
				</g>
				<g>
					<polygon class="st13" points="143.87,93.11 155.82,98.19 155.94,98.03 143.99,92.95 					"/>
				</g>
				<g>
					<polygon class="st13" points="145.07,92.36 157.02,97.44 157.15,97.28 145.2,92.21 					"/>
				</g>
				<g>
					<polygon class="st13" points="146.32,91.58 158.27,96.66 158.4,96.5 146.45,91.43 					"/>
				</g>
				<g>
					<polygon class="st13" points="147.73,90.69 159.67,95.77 159.8,95.61 147.85,90.54 					"/>
				</g>
				<g>
					<polygon class="st13" points="148.98,89.91 160.93,94.99 161.06,94.83 149.11,89.76 					"/>
				</g>
				<g>
					<polygon class="st13" points="150.2,89.17 162.15,94.24 162.28,94.09 150.33,89.01 					"/>
				</g>
				<g>
					<polygon class="st13" points="151.61,88.28 163.56,93.36 163.68,93.2 151.73,88.12 					"/>
				</g>
				<g>
					<polygon class="st13" points="152.86,87.5 164.81,92.57 164.94,92.42 152.99,87.34 					"/>
				</g>
			</g>
			<g>
				<path class="st13" d="M138.27,96.22l12.62,5.38l15.49-9.69l-12.62-5.38L138.27,96.22z M165.09,91.99l-14.29,8.94l-11.25-4.79
					l14.29-8.94L165.09,91.99z"/>
			</g>
		</g>
		<g>
			<g>
				<g>
					<polygon class="st13" points="138.91,95.49 150.85,100.58 165.74,91.26 153.8,86.18 					"/>
				</g>
				<g>
					<path class="st13" d="M138.27,95.54l12.62,5.38l15.49-9.69l-12.62-5.38L138.27,95.54z M165.1,91.3l-14.29,8.94l-11.25-4.79
						l14.29-8.94L165.1,91.3z"/>
				</g>
			</g>
			<g>
				<g>
					<polygon class="st13" points="139.94,95.9 140.1,96.03 154.86,86.66 154.7,86.53 					"/>
				</g>
				<g>
					<polygon class="st13" points="141.06,96.37 141.23,96.51 155.99,87.14 155.82,87 					"/>
				</g>
				<g>
					<polygon class="st13" points="142.22,96.89 142.39,97.02 157.15,87.65 156.99,87.52 					"/>
				</g>
				<g>
					<polygon class="st13" points="143.35,97.36 143.51,97.5 158.28,88.12 158.11,87.99 					"/>
				</g>
				<g>
					<polygon class="st13" points="144.51,97.83 144.67,97.97 159.43,88.6 159.27,88.46 					"/>
				</g>
				<g>
					<polygon class="st13" points="145.63,98.31 145.8,98.44 160.56,89.07 160.39,88.94 					"/>
				</g>
				<g>
					<polygon class="st13" points="146.66,98.77 146.83,98.9 161.59,89.53 161.43,89.39 					"/>
				</g>
				<g>
					<polygon class="st13" points="147.79,99.24 147.95,99.37 162.71,90 162.55,89.87 					"/>
				</g>
				<g>
					<polygon class="st13" points="148.66,99.62 148.83,99.75 163.59,90.38 163.42,90.25 					"/>
				</g>
				<g>
					<polygon class="st13" points="149.79,100.09 149.95,100.23 164.71,90.86 164.55,90.72 					"/>
				</g>
				<g>
					<polygon class="st13" points="139.96,94.88 151.91,99.96 152.03,99.8 140.08,94.72 					"/>
				</g>
				<g>
					<polygon class="st13" points="141.21,94.1 153.16,99.17 153.29,99.02 141.34,93.94 					"/>
				</g>
				<g>
					<polygon class="st13" points="142.61,93.21 154.56,98.29 154.69,98.13 142.74,93.05 					"/>
				</g>
				<g>
					<polygon class="st13" points="143.87,92.43 155.82,97.5 155.94,97.35 143.99,92.27 					"/>
				</g>
				<g>
					<polygon class="st13" points="145.07,91.68 157.02,96.76 157.15,96.6 145.2,91.52 					"/>
				</g>
				<g>
					<polygon class="st13" points="146.32,90.9 158.27,95.97 158.4,95.82 146.45,90.74 					"/>
				</g>
				<g>
					<polygon class="st13" points="147.73,90.01 159.68,95.09 159.8,94.93 147.85,89.85 					"/>
				</g>
				<g>
					<polygon class="st13" points="148.98,89.23 160.93,94.3 161.06,94.15 149.11,89.07 					"/>
				</g>
				<g>
					<polygon class="st13" points="150.2,88.48 162.15,93.56 162.28,93.4 150.33,88.33 					"/>
				</g>
				<g>
					<polygon class="st13" points="151.61,87.6 163.56,92.67 163.68,92.52 151.73,87.44 					"/>
				</g>
				<g>
					<polygon class="st13" points="152.86,86.81 164.81,91.89 164.94,91.73 152.99,86.66 					"/>
				</g>
			</g>
			<g>
				<path class="st13" d="M138.27,95.54l12.62,5.38l15.49-9.69l-12.62-5.38L138.27,95.54z M165.09,91.3l-14.29,8.94l-11.25-4.79
					l14.29-8.94L165.09,91.3z"/>
			</g>
		</g>
		<g>
			<polygon class="st13" points="138.27,96.22 139.18,95.92 138.27,95.54 			"/>
		</g>
		<g>
			<polygon class="st13" points="150.89,101.6 166.38,91.9 166.38,91.22 150.89,100.91 			"/>
		</g>
	</g>
	<g>
		<g>
			<g>
				<path class="st14" d="M156.01,94.48c-0.34-0.19-0.88-0.19-1.22,0c-0.34,0.19-0.34,0.51,0,0.7c0.34,0.19,0.88,0.19,1.22,0
					C156.35,94.99,156.35,94.67,156.01,94.48z"/>
			</g>
			<g>
				<rect x="154.54" y="89.58" class="st14" width="1.72" height="5.25"/>
			</g>
		</g>
		<g>
			<g>
				<path class="st14" d="M148.19,99.04c-0.34-0.19-0.88-0.19-1.22,0c-0.34,0.19-0.34,0.51,0,0.7c0.34,0.19,0.88,0.19,1.22,0
					C148.53,99.55,148.53,99.23,148.19,99.04z"/>
			</g>
			<g>
				<rect x="146.72" y="94.14" class="st14" width="1.72" height="5.25"/>
			</g>
		</g>
		<g>
			<g>
				<g>
					<g>
						<polygon class="st15" points="135.15,94.14 145.14,100.04 157.6,89.23 147.61,83.33 						"/>
					</g>
					<g>
						<path class="st15" d="M134.61,94.19l10.56,6.24l12.97-11.25l-10.56-6.24L134.61,94.19z M157.07,89.28L145.1,99.65l-9.42-5.56
							l11.96-10.38L157.07,89.28z"/>
					</g>
				</g>
				<g>
					<g>
						
							<rect x="134.02" y="89.15" transform="matrix(0.7513 -0.66 0.66 0.7513 -23.5228 116.083)" class="st15" width="16.46" height="0.21"/>
					</g>
					<g>
						
							<rect x="134.96" y="89.69" transform="matrix(0.7503 -0.6611 0.6611 0.7503 -23.6127 117.0786)" class="st15" width="16.46" height="0.21"/>
					</g>
					<g>
						
							<rect x="135.94" y="90.29" transform="matrix(0.7501 -0.6613 0.6613 0.7501 -23.7543 117.9313)" class="st15" width="16.46" height="0.21"/>
					</g>
					<g>
						
							<rect x="136.88" y="90.84" transform="matrix(0.7497 -0.6618 0.6618 0.7497 -23.8663 118.7897)" class="st15" width="16.46" height="0.21"/>
					</g>
					<g>
						
							<rect x="137.85" y="91.39" transform="matrix(0.7507 -0.6607 0.6607 0.7507 -24.0287 119.3267)" class="st15" width="16.46" height="0.21"/>
					</g>
					<g>
						
							<rect x="138.79" y="91.94" transform="matrix(0.7513 -0.66 0.66 0.7513 -24.1835 119.9238)" class="st15" width="16.46" height="0.21"/>
					</g>
					<g>
						
							<rect x="139.65" y="92.47" transform="matrix(0.7503 -0.6611 0.6611 0.7503 -24.2777 120.8727)" class="st15" width="16.46" height="0.21"/>
					</g>
					<g>
						
							<rect x="140.59" y="93.02" transform="matrix(0.7499 -0.6615 0.6615 0.7499 -24.3881 121.7406)" class="st15" width="16.46" height="0.21"/>
					</g>
					<g>
						
							<rect x="141.33" y="93.46" transform="matrix(0.7509 -0.6605 0.6605 0.7509 -24.5373 122.0875)" class="st15" width="16.46" height="0.21"/>
					</g>
					<g>
						
							<rect x="142.27" y="94.01" transform="matrix(0.7507 -0.6607 0.6607 0.7507 -24.6567 122.9007)" class="st15" width="16.46" height="0.21"/>
					</g>
					<g>
						
							<rect x="140.97" y="90.48" transform="matrix(0.5074 -0.8617 0.8617 0.5074 -13.4763 168.9881)" class="st15" width="0.21" height="11.61"/>
					</g>
					<g>
						
							<rect x="142.02" y="89.57" transform="matrix(0.5074 -0.8617 0.8617 0.5074 -12.176 169.4469)" class="st15" width="0.21" height="11.61"/>
					</g>
					<g>
						
							<rect x="143.19" y="88.54" transform="matrix(0.5074 -0.8617 0.8617 0.5074 -10.7098 169.9525)" class="st15" width="0.21" height="11.61"/>
					</g>
					<g>
						
							<rect x="144.24" y="87.63" transform="matrix(0.5074 -0.8617 0.8617 0.5074 -9.4104 170.4093)" class="st15" width="0.21" height="11.61"/>
					</g>
					<g>
						
							<rect x="145.25" y="86.76" transform="matrix(0.5074 -0.8617 0.8617 0.5074 -8.1673 170.8503)" class="st15" width="0.21" height="11.61"/>
					</g>
					<g>
						
							<rect x="146.3" y="85.86" transform="matrix(0.5074 -0.8617 0.8617 0.5074 -6.8691 171.3048)" class="st15" width="0.21" height="11.61"/>
					</g>
					<g>
						<polygon class="st15" points="142.53,87.78 152.53,93.67 152.63,93.49 142.63,87.6 						"/>
					</g>
					<g>
						
							<rect x="148.52" y="83.92" transform="matrix(0.5074 -0.8617 0.8617 0.5074 -4.1009 172.2722)" class="st15" width="0.21" height="11.61"/>
					</g>
					<g>
						
							<rect x="149.55" y="83.05" transform="matrix(0.5074 -0.8617 0.8617 0.5074 -2.8533 172.7262)" class="st15" width="0.21" height="11.61"/>
					</g>
					<g>
						
							<rect x="150.72" y="82.03" transform="matrix(0.5074 -0.8617 0.8617 0.5074 -1.3884 173.2294)" class="st15" width="0.21" height="11.61"/>
					</g>
					<g>
						
							<rect x="151.77" y="81.12" transform="matrix(0.5074 -0.8617 0.8617 0.5074 -0.0875 173.689)" class="st15" width="0.21" height="11.61"/>
					</g>
				</g>
				<g>
					<path class="st15" d="M134.61,94.19l10.56,6.24l12.97-11.25l-10.56-6.24L134.61,94.19z M157.06,89.28L145.1,99.65l-9.42-5.56
						l11.96-10.38L157.06,89.28z"/>
				</g>
			</g>
			<g>
				<g>
					<g>
						<polygon class="st16" points="135.15,93.35 145.14,99.25 157.6,88.43 147.61,82.53 						"/>
					</g>
					<g>
						<path class="st17" d="M134.61,93.4l10.56,6.24l12.96-11.25l-10.56-6.24L134.61,93.4z M157.07,88.48l-11.96,10.38l-9.42-5.56
							l11.96-10.38L157.07,88.48z"/>
					</g>
				</g>
				<g>
					<g>
						
							<rect x="134.02" y="88.35" transform="matrix(0.7503 -0.6611 0.6611 0.7503 -22.9601 116.122)" class="st18" width="16.46" height="0.21"/>
					</g>
					<g>
						<polygon class="st18" points="136.95,94.37 137.09,94.52 149.44,83.65 149.3,83.49 						"/>
					</g>
					<g>
						
							<rect x="135.94" y="89.5" transform="matrix(0.7511 -0.6602 0.6602 0.7511 -23.2709 117.4876)" class="st18" width="16.46" height="0.21"/>
					</g>
					<g>
						<polygon class="st18" points="138.86,95.51 139,95.67 151.36,84.79 151.22,84.64 						"/>
					</g>
					<g>
						
							<rect x="137.85" y="90.6" transform="matrix(0.7513 -0.66 0.66 0.7513 -23.5302 118.9768)" class="st18" width="16.46" height="0.21"/>
					</g>
					<g>
						
							<rect x="138.79" y="91.15" transform="matrix(0.7501 -0.6613 0.6613 0.7501 -23.6091 120.0313)" class="st18" width="16.46" height="0.21"/>
					</g>
					<g>
						
							<rect x="139.65" y="91.68" transform="matrix(0.7509 -0.6605 0.6605 0.7509 -23.7764 120.5381)" class="st18" width="16.46" height="0.21"/>
					</g>
					<g>
						
							<rect x="140.59" y="92.23" transform="matrix(0.7497 -0.6618 0.6618 0.7497 -23.853 121.6041)" class="st18" width="16.46" height="0.21"/>
					</g>
					<g>
						<polygon class="st18" points="143.31,98.13 143.45,98.29 155.81,87.42 155.67,87.26 						"/>
					</g>
					<g>
						
							<rect x="142.27" y="93.22" transform="matrix(0.7513 -0.66 0.66 0.7513 -24.1603 122.5388)" class="st18" width="16.46" height="0.21"/>
					</g>
					<g>
						<polygon class="st18" points="136.02,92.63 146.02,98.52 146.13,98.34 136.13,92.45 						"/>
					</g>
					<g>
						
							<rect x="142.02" y="88.78" transform="matrix(0.5074 -0.8617 0.8617 0.5074 -11.4905 169.0609)" class="st18" width="0.21" height="11.61"/>
					</g>
					<g>
						
							<rect x="143.2" y="87.75" transform="matrix(0.5074 -0.8617 0.8617 0.5074 -10.028 169.5589)" class="st18" width="0.21" height="11.61"/>
					</g>
					<g>
						
							<rect x="144.24" y="86.84" transform="matrix(0.5074 -0.8617 0.8617 0.5074 -8.7281 170.0168)" class="st18" width="0.21" height="11.61"/>
					</g>
					<g>
						
							<rect x="145.25" y="85.97" transform="matrix(0.5074 -0.8617 0.8617 0.5074 -7.4814 170.4648)" class="st18" width="0.21" height="11.61"/>
					</g>
					<g>
						
							<rect x="146.3" y="85.06" transform="matrix(0.5074 -0.8617 0.8617 0.5074 -6.183 170.9196)" class="st18" width="0.21" height="11.61"/>
					</g>
					<g>
						
							<rect x="147.48" y="84.03" transform="matrix(0.5074 -0.8617 0.8617 0.5074 -4.7197 171.4198)" class="st18" width="0.21" height="11.61"/>
					</g>
					<g>
						
							<rect x="148.52" y="83.13" transform="matrix(0.5074 -0.8617 0.8617 0.5074 -3.4186 171.8797)" class="st18" width="0.21" height="11.61"/>
					</g>
					<g>
						
							<rect x="149.55" y="82.26" transform="matrix(0.5074 -0.8617 0.8617 0.5074 -2.1708 172.3344)" class="st18" width="0.21" height="11.61"/>
					</g>
					<g>
						<polygon class="st18" points="145.77,84.18 155.78,90.07 155.88,89.89 145.88,84 						"/>
					</g>
					<g>
						
							<rect x="151.77" y="80.32" transform="matrix(0.5074 -0.8617 0.8617 0.5074 0.5953 173.2977)" class="st18" width="0.21" height="11.61"/>
					</g>
				</g>
				<g>
					<path class="st19" d="M134.61,93.4l10.56,6.24l12.96-11.25l-10.56-6.24L134.61,93.4z M157.06,88.48L145.1,98.86l-9.42-5.56
						l11.96-10.38L157.06,88.48z"/>
				</g>
			</g>
			<g>
				<polygon class="st15" points="134.61,94.19 135.37,93.84 134.61,93.4 				"/>
			</g>
			<g>
				<polygon class="st20" points="145.17,100.43 158.14,89.18 158.14,88.39 145.17,99.64 				"/>
			</g>
		</g>
	</g>
</g>
<g>
	<g>
		<polygon class="st21" points="66.02,152.76 106.17,175.72 106.17,151.31 66.02,132.56 		"/>
	</g>
	<g>
		<polygon class="st14" points="66.02,152.76 106.17,175.72 106.17,157.59 104.24,141.71 		"/>
	</g>
	<g>
		<polygon class="st11" points="106.17,177.25 64.67,153.42 64.67,130.73 63.21,132.13 63.21,154.6 107.63,180.28 107.63,152.33 
			106.17,152.33 		"/>
	</g>
	<g>
		<polygon class="st10" points="107.63,180.28 109.58,179.11 109.58,152.91 107.63,152.33 		"/>
	</g>
	<g>
		<polygon class="st10" points="64.67,153.42 66.02,152.76 66.02,132.56 64.67,130.73 		"/>
	</g>
	<g>
		<polygon class="st12" points="64.67,153.42 106.17,177.25 106.17,175.72 66.02,152.76 		"/>
	</g>
	<g class="st22">
		<g>
			<polygon class="st23" points="66.02,148.75 66.02,152.76 105.1,151.27 103.71,148.92 			"/>
		</g>
		<g>
			<polygon class="st23" points="68.29,142.83 95.25,142.76 94.78,141.54 			"/>
		</g>
		<g>
			<polygon class="st23" points="87.56,165.08 104.24,163.06 86.08,164.23 			"/>
		</g>
		<g>
			<polygon class="st23" points="75.79,158.35 80.35,160.96 106.17,157.59 105.5,154.45 			"/>
		</g>
	</g>
</g>
<g>
	<path class="st24" d="M57.94,115.91c0,0-2.54,1.27-2.87,4.82v5.57l51.16,29.55l6.23-12.22l-51.25-29.59L57.94,115.91z"/>
</g>
<g>
	<path class="st24" d="M106.24,150.28v5.57l6.69-3.95v-8.27v-0.32c0,0-1.12,0.53-3.82,2.15
		C106.4,147.08,106.24,150.28,106.24,150.28z"/>
</g>
<g>
	<path class="st25" d="M102.6,141.43c-2.93,2.16-3.11,5.32-3.11,5.32v5.08l3.43,2.03c0,0-0.08-1.75,0-5.24
		c0.08-3.49,3.09-5.31,3.09-5.31l2.96-1.7l-3.4-2.01L102.6,141.43z"/>
</g>
<g>
	<path class="st25" d="M99.49,151.82v1.28c0,0,0.05,1.4,1.71,2.38c1.66,0.98,1.71-0.36,1.71-0.36v-1.28l-1.71-1.01L99.49,151.82z"/>
</g>
<g>
	<path class="st24" d="M96.06,149.8v1.28c0,0,0.05,1.4,1.71,2.38c1.66,0.98,1.71-0.36,1.71-0.36v-1.28l-1.71-1.01L96.06,149.8z"/>
</g>
<g>
	<path class="st25" d="M95.82,137.44c-2.93,2.16-3.11,5.32-3.11,5.32v5.08l3.43,2.03c0,0-0.08-1.75,0-5.24
		c0.08-3.49,3.09-5.31,3.09-5.31l2.96-1.7l-3.4-2.01L95.82,137.44z"/>
</g>
<g>
	<path class="st25" d="M92.71,147.82v1.28c0,0,0.05,1.4,1.71,2.38c1.66,0.98,1.71-0.36,1.71-0.36v-1.28l-1.71-1.01L92.71,147.82z"/>
</g>
<g>
	<path class="st24" d="M89.29,145.81v1.28c0,0,0.05,1.4,1.71,2.38c1.66,0.98,1.71-0.36,1.71-0.36v-1.28L91,146.82L89.29,145.81z"/>
</g>
<g>
	<path class="st25" d="M88.96,133.41c-2.93,2.16-3.11,5.32-3.11,5.32v5.08l3.43,2.03c0,0-0.08-1.75,0-5.24
		c0.08-3.49,3.09-5.31,3.09-5.31l2.96-1.7l-3.4-2.01L88.96,133.41z"/>
</g>
<g>
	<path class="st25" d="M85.86,143.8v1.28c0,0,0.05,1.4,1.71,2.38c1.66,0.98,1.71-0.36,1.71-0.36v-1.28l-1.71-1.01L85.86,143.8z"/>
</g>
<g>
	<path class="st24" d="M82.43,141.76v1.28c0,0,0.05,1.4,1.71,2.38c1.66,0.98,1.71-0.36,1.71-0.36v-1.28l-1.71-1.01L82.43,141.76z"/>
</g>
<g>
	<path class="st25" d="M82.11,129.33c-2.93,2.16-3.11,5.32-3.11,5.32v5.08l3.43,2.03c0,0-0.08-1.75,0-5.24
		c0.08-3.49,3.09-5.31,3.09-5.31l2.96-1.7l-3.4-2.01L82.11,129.33z"/>
</g>
<g>
	<path class="st25" d="M79.01,139.71V141c0,0,0.05,1.4,1.71,2.38c1.66,0.98,1.71-0.36,1.71-0.36v-1.28l-1.71-1.01L79.01,139.71z"/>
</g>
<g>
	<path class="st24" d="M75.58,137.7v1.28c0,0,0.05,1.4,1.71,2.38c1.66,0.98,1.71-0.36,1.71-0.36v-1.28l-1.71-1.01L75.58,137.7z"/>
</g>
<g>
	<path class="st25" d="M75.27,125.3c-2.93,2.16-3.11,5.32-3.11,5.32v5.08l3.43,2.03c0,0-0.08-1.75,0-5.24
		c0.08-3.49,3.09-5.31,3.09-5.31l2.96-1.7l-3.4-2.01L75.27,125.3z"/>
</g>
<g>
	<path class="st25" d="M72.17,135.69v1.28c0,0,0.05,1.4,1.71,2.38c1.66,0.98,1.71-0.36,1.71-0.36v-1.28l-1.71-1.01L72.17,135.69z"/>
</g>
<g>
	<path class="st24" d="M68.74,133.68v1.28c0,0,0.05,1.4,1.71,2.38c1.66,0.98,1.71-0.36,1.71-0.36v-1.28l-1.71-1.01L68.74,133.68z"/>
</g>
<g>
	<path class="st25" d="M68.42,121.27c-2.93,2.16-3.11,5.32-3.11,5.32v5.08l3.43,2.03c0,0-0.08-1.75,0-5.24
		c0.08-3.49,3.09-5.31,3.09-5.31l2.96-1.7l-3.4-2.01L68.42,121.27z"/>
</g>
<g>
	<path class="st25" d="M65.32,131.65v1.28c0,0,0.05,1.4,1.71,2.38c1.66,0.98,1.71-0.36,1.71-0.36v-1.28l-1.71-1.01L65.32,131.65z"/>
</g>
<g>
	<path class="st24" d="M61.89,129.64v1.28c0,0,0.05,1.4,1.71,2.38c1.66,0.98,1.71-0.36,1.71-0.36v-1.28l-1.71-1.01L61.89,129.64z"/>
</g>
<g>
	<path class="st25" d="M61.61,117.23c-2.93,2.16-3.11,5.32-3.11,5.32v5.08l3.43,2.03c0,0-0.08-1.75,0-5.24
		c0.08-3.49,3.09-5.31,3.09-5.31l2.96-1.7l-3.4-2.01L61.61,117.23z"/>
</g>
<g>
	<path class="st25" d="M58.5,127.61v1.28c0,0,0.05,1.4,1.71,2.38c1.66,0.98,1.71-0.36,1.71-0.36v-1.28l-1.71-1.01L58.5,127.61z"/>
</g>
<g>
	<path class="st24" d="M55.08,125.6v1.28c0,0,0.05,1.4,1.71,2.38c1.66,0.98,1.71-0.36,1.71-0.36v-1.28l-1.71-1.01L55.08,125.6z"/>
</g>
<g>
	<path class="st24" d="M102.91,153.84v1.27c0,0,0.05,1.38,1.69,2.35c1.64,0.97,1.69-0.35,1.69-0.35v-1.27l-1.69-1L102.91,153.84z"/>
</g>
<polygon class="st26" points="112.38,142.74 112.38,153.11 114.7,151.32 114.17,142.19 "/>
<polygon class="st27" points="61.22,112.55 61.22,114.04 112.47,143.63 111.85,142.05 "/>
<g>
	<polygon class="st28" points="117.64,140.6 117.64,185.61 122.74,182.66 122.74,137.66 	"/>
	<polygon class="st29" points="117.64,184.6 117.64,185.61 122.74,182.66 121.96,182.21 	"/>
	<polygon class="st6" points="121.96,138.11 121.96,182.21 122.74,182.66 122.74,137.66 	"/>
	<polygon class="st30" points="117.64,140.6 121.14,182.66 121.96,182.21 118.57,140.06 	"/>
	<polygon class="st30" points="119.58,139.48 121.39,162.85 120.19,139.13 	"/>
	<polygon class="st30" points="119.58,183.53 120.19,183.19 118.46,162.55 	"/>
</g>
<g>
	<polygon class="st28" points="126.34,135.51 126.34,180.51 131.43,177.57 131.43,132.56 	"/>
	<polygon class="st29" points="126.34,179.51 126.34,180.51 131.44,177.57 130.65,177.11 	"/>
	<polygon class="st6" points="130.65,133.01 130.65,177.11 131.44,177.57 131.43,132.56 	"/>
	<polygon class="st30" points="126.34,135.51 129.83,177.57 130.65,177.11 127.27,134.97 	"/>
	<polygon class="st30" points="128.28,134.38 130.08,157.75 128.88,134.03 	"/>
	<polygon class="st30" points="128.28,178.43 128.89,178.09 127.16,157.45 	"/>
</g>
<g>
	<polygon class="st28" points="169.49,110.85 169.49,155.85 174.58,152.91 174.58,107.9 	"/>
	<polygon class="st29" points="169.49,154.85 169.49,155.85 174.59,152.91 173.81,152.45 	"/>
	<polygon class="st6" points="173.81,108.35 173.81,152.45 174.59,152.91 174.58,107.9 	"/>
	<polygon class="st30" points="169.49,110.85 172.99,152.91 173.81,152.45 170.42,110.31 	"/>
	<polygon class="st30" points="171.43,109.72 173.24,133.09 172.04,109.37 	"/>
	<polygon class="st30" points="171.43,153.77 172.04,153.43 170.31,132.79 	"/>
</g>
<g>
	<polygon class="st28" points="178.18,105.75 178.18,150.76 183.28,147.81 183.28,102.81 	"/>
	<polygon class="st29" points="178.18,149.75 178.18,150.76 183.29,147.81 182.5,147.36 	"/>
	<polygon class="st6" points="182.5,103.26 182.5,147.36 183.29,147.81 183.28,102.81 	"/>
	<polygon class="st30" points="178.18,105.75 181.68,147.81 182.5,147.36 179.12,105.21 	"/>
	<polygon class="st30" points="180.12,104.63 181.93,128 180.73,104.28 	"/>
	<polygon class="st30" points="180.12,148.68 180.74,148.34 179.01,127.7 	"/>
</g>
<g>
	<g>
		<polygon class="st30" points="150.89,168.65 162.35,162.07 162.35,129.52 150.89,136.09 		"/>
		<polygon class="st31" points="150.89,166.84 150.89,168.65 162.35,162.07 160.75,161.17 		"/>
		<polygon class="st31" points="160.75,161.16 162.35,162.07 162.35,129.52 160.75,130.42 		"/>
		<polygon class="st30" points="139.43,175.27 150.89,168.69 150.89,136.14 139.43,142.71 		"/>
		<polygon class="st31" points="139.43,173.46 139.43,175.27 150.89,168.69 149.29,167.79 		"/>
		<polygon class="st31" points="149.29,167.78 150.89,168.69 150.89,136.14 149.29,137.04 		"/>
	</g>
	<polygon class="st32" points="151.42,166.54 154.25,164.91 160.75,130.42 158.58,131.68 	"/>
	<polygon class="st32" points="139.43,173.46 142.26,171.83 148.76,137.34 146.59,138.6 	"/>
</g>
</svg>
