<?xml version="1.0" encoding="utf-8"?>
<!-- Generator: Adobe Illustrator 25.2.0, SVG Export Plug-In . SVG Version: 6.00 Build 0)  -->
<svg version="1.1" id="Lager_1" xmlns="http://www.w3.org/2000/svg" xmlns:xlink="http://www.w3.org/1999/xlink" x="0px" y="0px"
	 viewBox="0 0 283.46 283.46" style="enable-background:new 0 0 283.46 283.46;" xml:space="preserve">
<style type="text/css">
	.st0{fill:#644B35;}
	.st1{fill:#7D6041;}
	.st2{fill:#A3540D;}
	.st3{fill:#997454;}
	.st4{fill:#9F4E10;}
	.st5{fill:#AA7E5D;}
	.st6{fill:#886647;}
	.st7{fill:#9F4D10;}
	.st8{fill:#402F24;}
</style>
<g>
	<path class="st0" d="M187.63,93.47c-37.66-21.74-98.72-21.74-136.39,0c-37.66,21.74-37.66,57,0,78.75
		c37.66,21.74,98.72,21.74,136.39,0C225.3,150.47,225.29,115.21,187.63,93.47z"/>
	<path class="st0" d="M267.28,194.49c-5.65-4.42-26.61-4.61-45.23-16.13c-18.62-11.52-19.24-17.32-17.43-19.39
		c1.81-2.07-12.67,1.44-12.67,1.44l-11.05,7.92l-13.71,6.38c0,0-6.08,8.36-2.49,7.31c3.58-1.04,13.63-0.69,33.59,10.06
		c19.95,10.75,20.29,22.85,27.94,26.11c7.65,3.26,25.58-8.93,25.58-8.93S272.94,198.91,267.28,194.49z"/>
</g>
<polygon class="st0" points="23.01,133.29 35.89,129.83 23.01,117.79 "/>
<polygon class="st0" points="215.83,134.64 215.88,117.27 210.15,125.95 "/>
<polygon class="st0" points="268.24,196.45 268.24,180.71 252.3,191.76 "/>
<g>
	<path class="st1" d="M187.63,77.9c-37.66-21.74-98.72-21.74-136.39,0c-37.66,21.74-37.66,57,0,78.75
		c37.66,21.74,98.72,21.74,136.39,0C225.3,134.9,225.29,99.64,187.63,77.9z"/>
	<path class="st1" d="M267.28,178.92c-5.65-4.42-26.61-4.61-45.23-16.13c-18.62-11.52-19.24-17.32-17.43-19.39
		c1.81-2.07-12.67,1.44-12.67,1.44l-11.05,7.92l-13.71,6.38c0,0-6.08,8.36-2.49,7.31c3.58-1.04,13.63-0.69,33.59,10.06
		c19.95,10.75,20.29,22.85,27.94,26.11c7.65,3.26,25.58-8.93,25.58-8.93S272.94,183.34,267.28,178.92z"/>
</g>
<path class="st2" d="M126.15,61.73c-12.19-0.93-30.04,1.51-30.04,1.51l117.02,67.27c4.8-10.27,1.71-21.41,1.71-21.41L126.15,61.73z"
	/>
<path class="st3" d="M86.21,64.99c-2.66,0.54-9.87,2.46-9.87,2.46l127.76,76.89c-1.01,3.65,4.54,8.57,4.54,8.57l-1.07-12.99
	L86.21,64.99z"/>
<path class="st4" d="M54.44,76.14L248.74,196.1l0.66,14.7c4.58-2.65,11.44-6.72,11.44-6.72v-15.57L67.83,70.22
	C61.57,72.33,54.44,76.14,54.44,76.14z"/>
<polygon class="st5" points="43.08,83.25 237.27,201.55 237.94,216.7 242.44,214.68 242.44,199.11 47.69,80.06 "/>
<path class="st6" d="M33.24,92.28l121.83,76.76l0.08,15.55c2.19-0.48,8.43-2.22,8.43-2.22v-15.57l-126.6-78.4
	C35.42,89.82,33.24,92.28,33.24,92.28z"/>
<path class="st7" d="M28.48,98.73c-4.34,7.3-4.99,12.94-4.99,12.94l99.58,61.29l1.15,15.55c5.86,0,16.05-1.31,16.05-1.31
	l-0.71-15.48L28.48,98.73z"/>
<path class="st3" d="M27.79,134.64L83.7,169.1l0.03,15.48c5.44,1.36,13.23,2.42,13.23,2.42v-15.57l-73.48-48.55
	C24.41,129.36,27.79,134.64,27.79,134.64z"/>
<path class="st8" d="M243.27,181.31c-3.12-1.8-8.19-1.8-11.31,0c-3.12,1.8-3.12,4.73,0,6.53c3.12,1.8,8.19,1.8,11.31,0
	C246.39,186.04,246.39,183.12,243.27,181.31z"/>
</svg>
