<?xml version="1.0" encoding="utf-8"?>
<!-- Generator: Adobe Illustrator 25.2.0, SVG Export Plug-In . SVG Version: 6.00 Build 0)  -->
<svg version="1.1" id="Lager_1" xmlns="http://www.w3.org/2000/svg" xmlns:xlink="http://www.w3.org/1999/xlink" x="0px" y="0px"
	 viewBox="0 0 283.46 283.46" style="enable-background:new 0 0 283.46 283.46;" xml:space="preserve">
<style type="text/css">
	.st0{fill:#644B35;}
	.st1{fill:#7D6041;}
	.st2{fill:#A3540D;}
	.st3{fill:#997454;}
	.st4{fill:#9F4E10;}
	.st5{fill:#AA7E5D;}
	.st6{fill:#886647;}
	.st7{fill:#9F4D10;}
	.st8{fill:#402F24;}
</style>
<g>
	<path class="st0" d="M190.18,83.91c-43.39-25.05-113.74-25.05-157.13,0c-43.39,25.05-43.39,65.67,0,90.72
		c43.39,25.05,113.74,25.05,157.13,0C233.57,149.58,233.57,108.96,190.18,83.91z"/>
	<path class="st0" d="M281.95,200.3c-6.51-5.09-30.65-5.31-52.11-18.58c-21.46-13.27-22.16-19.96-20.08-22.34
		c2.08-2.38-14.59,1.66-14.59,1.66l-12.73,9.12l-15.8,7.35c0,0-7,9.63-2.87,8.43c4.13-1.2,15.7-0.79,38.69,11.59
		c22.99,12.39,23.37,26.32,32.18,30.09c8.81,3.76,29.47-10.29,29.47-10.29S288.46,205.39,281.95,200.3z"/>
</g>
<polygon class="st0" points="0.53,129.78 15.37,125.81 0.53,111.94 "/>
<polygon class="st0" points="222.67,131.34 222.73,111.33 216.12,121.34 "/>
<polygon class="st0" points="283.04,202.55 283.04,184.42 264.68,197.15 "/>
<g>
	<path class="st1" d="M190.18,65.97c-43.39-25.05-113.74-25.05-157.13,0c-43.39,25.05-43.39,65.67,0,90.72
		c43.39,25.05,113.74,25.05,157.13,0C233.57,131.64,233.57,91.02,190.18,65.97z"/>
	<path class="st1" d="M281.95,182.36c-6.51-5.09-30.65-5.31-52.11-18.58c-21.46-13.27-22.16-19.96-20.08-22.34
		c2.08-2.38-14.59,1.66-14.59,1.66l-12.73,9.12l-15.8,7.35c0,0-7,9.63-2.87,8.43c4.13-1.2,15.7-0.79,38.69,11.59
		c22.99,12.39,23.37,26.32,32.18,30.09c8.81,3.76,29.47-10.29,29.47-10.29S288.46,187.45,281.95,182.36z"/>
</g>
<path class="st2" d="M119.35,47.35c-14.04-1.08-34.61,1.74-34.61,1.74l134.82,77.5c5.53-11.83,1.97-24.66,1.97-24.66L119.35,47.35z"
	/>
<path class="st3" d="M73.34,51.1c-3.07,0.62-11.37,2.83-11.37,2.83l147.19,88.58c-1.16,4.2,5.23,9.87,5.23,9.87l-1.24-14.96
	L73.34,51.1z"/>
<path class="st4" d="M36.74,63.95l223.85,138.21l0.76,16.93c5.28-3.05,13.18-7.74,13.18-7.74v-17.93L52.17,57.13
	C44.96,59.56,36.74,63.95,36.74,63.95z"/>
<polygon class="st5" points="23.65,72.14 247.37,208.43 248.15,225.88 253.32,223.56 253.32,205.62 28.96,68.47 "/>
<path class="st6" d="M12.31,82.54l140.35,88.43l0.09,17.91c2.52-0.56,9.71-2.56,9.71-2.56v-17.94L16.61,78.06
	C14.82,79.71,12.31,82.54,12.31,82.54z"/>
<path class="st7" d="M6.83,89.97c-5,8.41-5.75,14.91-5.75,14.91L115.8,175.5l1.33,17.92c6.75,0,18.49-1.51,18.49-1.51l-0.82-17.83
	L6.83,89.97z"/>
<path class="st3" d="M6.04,131.34l64.42,39.71l0.04,17.83c6.26,1.57,15.24,2.78,15.24,2.78v-17.94L1.08,117.79
	C2.14,125.26,6.04,131.34,6.04,131.34z"/>
<path class="st8" d="M254.28,185.12c-3.6-2.08-9.43-2.08-13.03,0c-3.6,2.08-3.6,5.44,0,7.52c3.6,2.08,9.43,2.08,13.03,0
	C257.88,190.56,257.88,187.19,254.28,185.12z"/>
</svg>
