<?xml version="1.0" encoding="utf-8"?>
<!-- Generator: Adobe Illustrator 25.2.0, SVG Export Plug-In . SVG Version: 6.00 Build 0)  -->
<svg version="1.1" id="Lager_1" xmlns="http://www.w3.org/2000/svg" xmlns:xlink="http://www.w3.org/1999/xlink" x="0px" y="0px"
	 viewBox="0 0 425.2 283.46" style="enable-background:new 0 0 425.2 283.46;" xml:space="preserve">
<style type="text/css">
	.st0{fill:#422713;}
	.st1{fill:#6B3C12;}
	.st2{fill:#EF7A08;}
	.st3{fill:#F6A239;}
	.st4{fill:#FECD3A;}
	.st5{fill:#F9B339;}
	.st6{fill:#ED6A1D;}
	.st7{fill:#E8471E;}
	.st8{fill:#F07F1A;}
	.st9{fill:#EF7B0F;}
</style>
<g>
	<g>
		<path class="st0" d="M424.28,138.17c-0.1-0.96-0.2-1.93-0.32-2.9c-0.85-6.95,0.41-0.63-4.39-5.6c-2.83-2.92-6.31-4.34-9.83-6.18
			c-0.45-0.24-0.86-0.48-1.24-0.74c-14.19-19.05-37.3-36.23-68.81-49.37c-37.78-15.75-81.85-23.28-125.61-23.21
			c-0.37,0-0.75-0.01-1.12-0.01c-0.37,0-0.75,0.01-1.12,0.01C168.07,50.11,124,57.64,86.23,73.38
			C54.71,86.52,31.6,103.7,17.41,122.75c-0.38,0.25-0.79,0.5-1.24,0.74c-3.52,1.84-7,3.26-9.83,6.18c-4.8,4.96-5.29,12.05-6.15,19
			c-0.12,0.97,0.11,29.98,9.34,46.71c8.87,16.07,23.41,28.38,38.18,38.58c11.8,8.15,24.62,14.74,37.84,20.25
			c38.3,15.96,83.06,23.5,127.41,23.21c44.35,0.29,89.11-7.25,127.41-23.21c13.22-5.51,26.04-12.1,37.84-20.25
			c14.76-10.19,29.31-22.5,38.18-38.58C425.61,178.65,426.22,156.97,424.28,138.17z"/>
		<path class="st1" d="M425.16,153.72c-0.08,1.05-0.18,2.13-0.34,3.19c-0.29,2.45-0.71,4.9-1.32,7.35c-0.21,1-0.47,1.97-0.76,2.97
			c-1,3.63-2.29,7.24-3.92,10.79c-0.37,0.9-0.79,1.79-1.24,2.69c-1.03,2.08-2.13,4.13-3.34,6.19c-0.5,0.84-1.03,1.69-1.58,2.53
			c-1.97,3.11-4.18,6.16-6.66,9.19c-0.61,0.76-1.24,1.53-1.92,2.29c-1.53,1.79-3.13,3.55-4.84,5.29c-0.71,0.74-1.45,1.47-2.18,2.19
			c-2.74,2.71-5.69,5.34-8.82,7.92c-0.82,0.68-1.66,1.34-2.5,1.97c-1.95,1.58-3.97,3.08-6.08,4.55c-0.89,0.66-1.82,1.29-2.74,1.92
			c-3.39,2.32-6.97,4.58-10.74,6.77c-1,0.58-2.03,1.16-3.05,1.74c-2.34,1.32-4.74,2.61-7.21,3.84c-1.08,0.55-2.16,1.1-3.26,1.61
			c-4.03,2-8.21,3.9-12.58,5.71c-0.08,0.03-0.16,0.08-0.24,0.11c-1.11,0.47-2.21,0.92-3.34,1.32c-2.74,1.16-5.53,2.21-8.34,3.21
			c-1.24,0.47-2.47,0.89-3.74,1.34c-4.76,1.63-9.61,3.16-14.53,4.55c-1.37,0.42-2.74,0.79-4.11,1.13c-3.18,0.9-6.39,1.71-9.63,2.45
			c-1.45,0.37-2.89,0.71-4.34,1c-5.53,1.26-11.13,2.34-16.79,3.26c-1.58,0.29-3.16,0.55-4.74,0.79c-3.71,0.58-7.45,1.11-11.21,1.53
			c-1.68,0.21-3.37,0.42-5.05,0.58c-6.53,0.71-13.11,1.24-19.71,1.55c-1.9,0.13-3.76,0.21-5.66,0.26
			c-4.45,0.18-8.92,0.26-13.37,0.26c-2.08,0-4.13-0.03-6.18-0.05c-8.19-0.11-16.34-0.5-24.42-1.16c-2.42-0.18-4.84-0.42-7.26-0.66
			c-5.9-0.58-11.76-1.32-17.55-2.18c-2.89-0.45-5.79-0.92-8.63-1.45c-13.05-2.26-25.77-5.27-37.92-8.98
			c-4.97-1.5-9.84-3.13-14.61-4.87c-21.24-7.74-40.42-17.77-56.35-29.93c-3.61-2.76-6.97-5.58-10.11-8.45
			c-3.05-2.76-5.87-5.58-8.47-8.45l-0.03-0.03c-6.37-7-11.45-14.27-15.21-21.67c-0.84-1.63-1.61-3.26-2.32-4.9
			c-1.42-3.32-2.58-6.66-3.53-10c-0.37-1.37-0.71-2.76-1-4.13c-0.97-4.61-1.47-9.19-1.5-13.8c-0.03-1.16,0-2.32,0.05-3.5
			c0.08-2.53,0.34-5.05,0.74-7.56c0.13-1.08,0.34-2.13,0.55-3.21c0.74-3.71,1.79-7.42,3.18-11.08c0.32-0.95,0.68-1.92,1.11-2.87
			c0.87-2.11,1.84-4.21,2.92-6.32c0.47-0.9,0.95-1.79,1.47-2.66c1.76-3.19,3.82-6.35,6.11-9.43c0.58-0.84,1.18-1.66,1.84-2.45
			c1.39-1.84,2.89-3.63,4.47-5.42c0.68-0.76,1.37-1.53,2.08-2.29c2.61-2.76,5.4-5.48,8.4-8.14c0.79-0.74,1.61-1.42,2.42-2.11
			c1.84-1.58,3.79-3.13,5.79-4.69c0.84-0.66,1.74-1.32,2.63-1.95c3.26-2.42,6.71-4.74,10.34-7c0.97-0.63,1.95-1.21,2.92-1.82
			c2.26-1.37,4.61-2.69,7-4c1.03-0.55,2.05-1.11,3.11-1.66c3.9-2.05,7.97-4.03,12.21-5.92c1.13-0.53,2.29-1.03,3.45-1.5
			c0.89-0.42,1.79-0.82,2.71-1.19c1.79-0.76,3.61-1.47,5.45-2.16c1.18-0.5,2.37-0.95,3.58-1.37c4.63-1.76,9.37-3.37,14.16-4.84
			c1.29-0.45,2.58-0.84,3.89-1.21c3.11-0.92,6.24-1.82,9.4-2.63c1.37-0.37,2.74-0.71,4.13-1.03c5.4-1.37,10.84-2.55,16.37-3.61
			c1.47-0.32,2.97-0.58,4.47-0.84c3.63-0.66,7.29-1.24,10.97-1.76c1.55-0.24,3.13-0.47,4.71-0.66c6.37-0.84,12.76-1.5,19.21-2
			c1.74-0.13,3.47-0.26,5.21-0.37c4.32-0.29,8.69-0.47,13.03-0.58c1.89-0.08,3.79-0.1,5.71-0.1c7.79-0.11,15.61,0.03,23.37,0.42
			c2.16,0.11,4.34,0.24,6.53,0.37c5.58,0.37,11.13,0.87,16.66,1.5c2.5,0.29,5,0.58,7.47,0.92c11.29,1.5,22.37,3.53,33.13,6.08
			c3.53,0.82,7.03,1.71,10.5,2.66c30.5,8.29,58,20.83,79.56,37.28c9.13,6.98,16.74,14.32,22.84,21.88c1.63,2,3.13,4,4.53,6
			c4.29,6.19,7.63,12.51,10.05,18.88c0.55,1.4,1.03,2.82,1.47,4.24c0.97,3.13,1.74,6.27,2.29,9.42c0.18,1.24,0.37,2.48,0.5,3.71
			C425.43,144.93,425.51,149.32,425.16,153.72z"/>
	</g>
</g>
<path class="st2" d="M413.45,122.59c-0.09-0.9-0.19-1.8-0.3-2.71c-0.8-6.51-2.26-13.14-6.75-17.79c-2.65-2.74-5.9-4.06-9.2-5.79
	c-0.42-0.22-0.8-0.45-1.16-0.69c-13.29-17.84-34.92-33.92-64.43-46.22c-35.37-14.74-76.63-21.8-117.6-21.73
	c-0.35,0-0.7-0.01-1.05-0.01c-0.35,0-0.7,0.01-1.05,0.01c-40.97-0.07-82.23,6.98-117.6,21.73c-29.5,12.3-51.14,28.38-64.43,46.22
	c-0.36,0.24-0.74,0.47-1.16,0.69c-3.3,1.72-6.55,3.05-9.2,5.79c-4.5,4.65-5.95,11.28-6.75,17.79c-0.11,0.91-0.21,1.81-0.3,2.71
	c-1.81,17.61,1.4,37.91,10.04,53.57c8.3,15.05,21.92,26.57,35.74,36.12c11.05,7.63,23.05,13.8,35.43,18.96
	c35.85,14.95,77.76,22,119.29,21.73c41.53,0.27,83.43-6.79,119.29-21.73c12.38-5.16,24.38-11.33,35.43-18.96
	c13.82-9.54,27.44-21.07,35.74-36.12C412.05,160.49,415.25,140.2,413.45,122.59z"/>
<ellipse transform="matrix(7.492679e-03 -1 1 7.492679e-03 92.4725 330.5827)" class="st3" cx="212.77" cy="118.71" rx="112.65" ry="199.05"/>
<path class="st4" d="M328.59,205.86c-85.8,35.77-207.21,25.13-271.17-23.75C-6.55,133.22,11.15,64.59,96.95,28.83
	c85.8-35.77,207.21-25.13,271.17,23.75C432.09,101.46,414.39,170.09,328.59,205.86z"/>
<path class="st5" d="M325.04,201.78c-83.17,34.67-200.86,24.36-262.87-23.03C0.17,131.36,17.33,64.84,100.5,30.17
	C183.67-4.5,301.36,5.81,363.36,53.2C425.37,100.58,408.21,167.11,325.04,201.78z"/>
<path class="st2" d="M319.7,195.56c-79.21,32.39-191.3,22.76-250.36-21.51c-59.06-44.27-42.72-106.42,36.5-138.8
	c79.21-32.39,191.3-22.76,250.36,21.51C415.26,101.03,398.92,163.17,319.7,195.56z"/>
<path class="st6" d="M187.09,217.46c-5.6,0-10.56-2.52-15.35-4.96c-1.81-0.92-3.52-1.79-5.27-2.54c-3.58-1.53-6.85-1.64-10.31-1.75
	c-2.76-0.09-5.62-0.19-8.64-1.05c-7.96-2.28-14.58-7-20.97-11.57c-6.62-4.73-12.87-9.19-20.4-11.06c-3.01-0.75-6.19-0.85-8.9-0.85
	c-1.14,0-2.27,0.02-3.41,0.04c-1.14,0.02-2.28,0.04-3.41,0.04c-6.46,0-11.65-0.72-15.98-4.22c-2.92-2.36-4.76-5.58-6.53-8.7
	c-0.8-1.4-1.62-2.84-2.52-4.15c-2.85-4.17-6.77-7.52-11.34-9.67c-0.92-0.44-1.88-0.83-2.84-1.22c-2.92-1.2-5.94-2.44-8.2-4.87
	c-4.86-5.23-3.61-12.32-2.41-19.17c0.89-5.06,1.81-10.29,0.29-14.71c-0.86-2.52-2.5-4.75-4.23-7.11c-2.41-3.29-4.9-6.69-5.15-10.97
	c-0.38-6.3,4.96-14.67,10.13-18.8c2.11-1.69,4.41-3.16,6.64-4.58c3.36-2.15,6.53-4.18,9.15-6.91c2.36-2.46,4.14-5.36,6.03-8.43
	c2.14-3.47,4.35-7.07,7.45-9.92c6.82-6.28,16.1-7.6,25.08-8.88c5.51-0.78,11.2-1.6,16.25-3.54c4.22-1.63,8.16-4.13,11.98-6.55
	c2.8-1.77,5.69-3.61,8.72-5.13c8.33-4.18,17.97-6.22,29.47-6.22c3.71,0,7.54,0.21,11.72,0.64c1.52,0.16,3.11,0.24,4.7,0.24
	c6.92,0,13.7-1.49,20.25-2.92c6.66-1.46,13.54-2.97,20.67-2.97c0.54,0,1.08,0.01,1.63,0.03c5.91,0.19,11.59,1.94,17.09,3.63
	c4.68,1.44,9.53,2.93,14.39,3.39c1.33,0.13,2.76,0.19,4.39,0.19c1.91,0,3.87-0.09,5.77-0.17c1.92-0.08,3.9-0.17,5.86-0.17
	c3.43,0,6.22,0.27,8.76,0.86c5.45,1.26,10.28,4.11,14.96,6.86c3.5,2.06,7.13,4.19,10.92,5.58c4.39,1.61,9.2,2.3,13.84,2.96
	c4.97,0.71,10.11,1.44,14.93,3.3c4.03,1.56,7.4,4.04,10.66,6.45c2.25,1.66,4.57,3.37,7.03,4.71l1.54,0.83
	c5.24,2.8,9.76,5.23,13.82,10.53c1.27,1.66,2.42,3.43,3.52,5.15c2.22,3.45,4.32,6.7,7.34,9.09c1.83,1.45,4.08,2.63,6.26,3.77
	c4.38,2.3,8.91,4.69,10.79,9.49c1.24,3.18,0.9,6.5,0.56,9.71c-0.23,2.19-0.44,4.25-0.19,6.25c0.31,2.4,1.29,4.66,2.33,7.05
	c1.01,2.32,2.05,4.72,2.47,7.32c1.06,6.6-1.86,13.65-8.69,20.98c-1.27,1.36-2.61,2.7-3.91,4c-4.02,4.01-7.82,7.81-10.13,12.64
	c-0.79,1.65-1.37,3.38-2,5.21c-0.86,2.53-1.75,5.15-3.21,7.52c-4.79,7.8-13.71,10.53-22.33,13.17c-3.94,1.21-8.02,2.46-11.61,4.17
	c-4.17,1.99-8.03,4.82-11.75,7.56c-3.1,2.28-6.3,4.63-9.74,6.56c-4.41,2.47-8.43,3.57-13.05,3.57c-3.05,0-6.12-0.47-9.8-1.18
	c-2.91-0.56-5.94-0.84-9-0.84c-4.79,0-9.53,0.68-14.1,2.02c-3.11,0.91-6.2,2.27-9.18,3.57c-4.7,2.06-9.57,4.19-14.84,4.78
	c-1.04,0.11-2.12,0.17-3.22,0.17c-5.28,0-10.54-1.33-15.63-2.62c-3.74-0.95-7.6-1.93-11.32-2.32c-1.18-0.12-2.27-0.18-3.33-0.18
	c-2.18,0-4.17,0.25-6.08,0.78c-2.24,0.61-4.35,1.6-6.58,2.65c-3.14,1.47-6.39,3-10,3.36C188.33,217.43,187.7,217.46,187.09,217.46z"
	/>
<path class="st7" d="M215.08,209.4c-3.33-0.35-6.64-0.26-9.92,0.63c-5.62,1.54-10.56,5.38-16.36,5.97c-8.02,0.82-14.8-4.32-21.8-7.3
	c-6.81-2.9-12.6-1-19.1-2.86c-15.71-4.5-26.09-18.84-41.42-22.64c-10.38-2.58-22.85,2-31.18-4.73c-4-3.23-5.88-8.32-8.78-12.56
	c-2.97-4.35-7.12-7.89-11.89-10.14c-3.67-1.73-7.85-2.81-10.62-5.79c-7.83-8.42,1.91-22.53-1.82-33.4
	c-2.19-6.38-8.9-10.98-9.31-17.72c-0.36-6.04,5-13.96,9.62-17.65c5.14-4.11,11.36-6.86,15.91-11.61
	c5.25-5.47,7.84-13.16,13.42-18.29c10.6-9.76,27.46-6.96,40.9-12.15c7.44-2.87,13.69-8.16,20.82-11.74
	c12.48-6.27,26.79-6.85,40.43-5.44c16.61,1.71,31.13-6.15,47.35-5.62c10.74,0.35,20.69,6,31.39,7.02c8.19,0.78,16.59-1.17,24.6,0.68
	c9.3,2.15,16.76,9.11,25.72,12.39c9.23,3.38,19.58,2.71,28.75,6.25c6.63,2.56,11.43,7.77,17.53,11.08
	c5.85,3.17,10.66,5.42,14.93,10.99c3.71,4.85,6.31,10.69,11.1,14.48c5.58,4.41,14.03,6.07,16.62,12.69
	c1.91,4.89-0.37,10.42,0.29,15.63c0.64,5.04,4,9.4,4.81,14.42c1.18,7.34-3.27,14.4-8.34,19.83c-5.07,5.44-11.08,10.28-14.27,16.99
	c-1.95,4.1-2.76,8.74-5.14,12.61c-6.66,10.84-21.89,11.35-33.36,16.83c-7.77,3.71-14.05,9.95-21.57,14.16
	c-7.79,4.36-13.72,3.82-21.92,2.24c-7.63-1.47-15.94-1.08-23.74,1.21c-8.09,2.37-15.42,7.37-23.79,8.31
	C234.96,215.29,224.93,210.44,215.08,209.4z"/>
<path class="st8" d="M187.09,213.36c-4.62,0-8.93-2.19-13.5-4.52c-1.79-0.91-3.65-1.85-5.52-2.65c-4.29-1.83-8.09-1.95-11.78-2.08
	c-2.63-0.09-5.11-0.17-7.65-0.9c-7.28-2.08-13.32-6.4-19.72-10.97c-6.64-4.74-13.51-9.65-21.8-11.7c-3.44-0.85-6.93-0.97-9.89-0.97
	c-1.16,0-2.32,0.02-3.48,0.04c-1.12,0.02-2.24,0.04-3.34,0.04c-5.59,0-10.01-0.56-13.41-3.31c-2.32-1.87-3.89-4.63-5.55-7.54
	c-0.84-1.47-1.7-2.99-2.69-4.44c-3.26-4.78-7.75-8.6-12.98-11.07c-0.99-0.46-2.01-0.88-3.03-1.3c-2.63-1.08-5.11-2.1-6.75-3.87
	c-3.47-3.74-2.5-9.26-1.37-15.67c0.98-5.57,1.99-11.33,0.13-16.76c-1.07-3.11-2.96-5.7-4.79-8.2c-2.15-2.94-4.18-5.72-4.37-8.79
	c-0.29-4.76,4.3-11.91,8.6-15.35c1.95-1.56,4.05-2.9,6.29-4.33c3.41-2.18,6.94-4.44,9.9-7.52c2.66-2.78,4.64-6,6.56-9.12
	c2.08-3.38,4.05-6.58,6.74-9.05c5.88-5.41,14.14-6.59,22.88-7.83c5.74-0.82,11.67-1.66,17.15-3.78c4.6-1.77,8.72-4.39,12.7-6.92
	c2.84-1.8,5.52-3.5,8.36-4.93c7.75-3.89,16.79-5.78,27.63-5.78c3.57,0,7.26,0.2,11.3,0.62c1.66,0.17,3.39,0.26,5.12,0.26
	c7.36,0,14.36-1.53,21.13-3.02c6.74-1.48,13.11-2.87,19.8-2.87c0.5,0,1,0.01,1.5,0.02c5.36,0.17,10.54,1.77,16.02,3.45
	c4.88,1.5,9.93,3.05,15.21,3.56c1.46,0.14,3.02,0.21,4.78,0.21c2,0,4.01-0.09,5.95-0.17c1.88-0.08,3.82-0.17,5.68-0.17
	c3.11,0,5.6,0.24,7.84,0.76c4.84,1.12,9.19,3.68,13.81,6.4c3.66,2.15,7.44,4.38,11.58,5.9c4.8,1.76,9.82,2.48,14.68,3.17
	c4.96,0.71,9.65,1.38,14.03,3.07c3.52,1.36,6.52,3.57,9.7,5.92c2.36,1.74,4.8,3.54,7.52,5.01l1.56,0.84
	c5.01,2.69,8.97,4.81,12.5,9.41c1.17,1.53,2.22,3.16,3.33,4.88c2.31,3.58,4.69,7.27,8.24,10.08c2.13,1.68,4.55,2.96,6.89,4.19
	c4.06,2.13,7.56,3.97,8.88,7.35c0.88,2.25,0.6,4.94,0.3,7.79c-0.24,2.32-0.49,4.72-0.17,7.19c0.38,2.98,1.53,5.62,2.64,8.17
	c0.95,2.18,1.84,4.24,2.18,6.34c0.85,5.28-1.72,11.18-7.64,17.53c-1.22,1.31-2.54,2.62-3.81,3.89c-4.09,4.08-8.32,8.3-10.93,13.78
	c-0.89,1.87-1.54,3.8-2.18,5.66c-0.82,2.42-1.6,4.71-2.82,6.7c-3.98,6.48-11.78,8.87-20.04,11.4c-4.09,1.25-8.31,2.55-12.17,4.39
	c-4.52,2.16-8.53,5.11-12.41,7.96c-3.14,2.31-6.1,4.48-9.31,6.28c-3.76,2.11-7.17,3.05-11.05,3.05c-2.72,0-5.58-0.44-9.02-1.1
	c-3.17-0.61-6.45-0.92-9.77-0.92c-5.18,0-10.31,0.74-15.26,2.19c-3.36,0.99-6.57,2.39-9.68,3.75c-4.63,2.03-9,3.94-13.65,4.46
	c-0.89,0.1-1.81,0.15-2.76,0.15c-4.77,0-9.56-1.21-14.63-2.5c-3.88-0.98-7.88-2-11.89-2.42c-1.3-0.14-2.57-0.21-3.76-0.21
	c-2.55,0-4.9,0.3-7.16,0.92c-2.57,0.7-4.95,1.81-7.24,2.89c-2.96,1.39-5.76,2.7-8.68,3C188.04,213.34,187.56,213.36,187.09,213.36z"
	/>
<path class="st9" d="M187.09,210.83c-4.01,0-8.06-2.06-12.35-4.24c-1.83-0.93-3.72-1.89-5.67-2.73c-4.72-2.01-8.95-2.15-12.68-2.28
	c-2.58-0.08-4.8-0.16-7.03-0.8c-6.86-1.96-12.73-6.16-18.95-10.59c-6.83-4.88-13.9-9.92-22.66-12.1c-3.7-0.92-7.39-1.04-10.5-1.04
	c-1.17,0-2.35,0.02-3.52,0.04c-1.1,0.02-2.2,0.04-3.29,0.04c-5.05,0-9-0.47-11.82-2.75c-1.94-1.57-3.4-4.13-4.94-6.83
	c-0.86-1.51-1.75-3.08-2.8-4.61c-3.51-5.15-8.35-9.27-13.99-11.93c-1.03-0.48-2.09-0.92-3.15-1.36c-2.36-0.97-4.59-1.88-5.85-3.25
	c-2.49-2.68-1.9-6.88-0.73-13.51c0.99-5.61,2.11-11.97,0.03-18.02c-1.19-3.47-3.29-6.34-5.15-8.88c-2.01-2.75-3.75-5.12-3.88-7.45
	c-0.23-3.82,3.92-10.24,7.65-13.22c1.84-1.47,3.89-2.78,6.07-4.17c3.54-2.26,7.19-4.6,10.36-7.91c2.85-2.97,4.9-6.31,6.89-9.54
	c1.99-3.23,3.86-6.28,6.29-8.52c5.3-4.88,13.18-6,21.52-7.19c5.88-0.84,11.95-1.7,17.71-3.92c4.83-1.86,9.06-4.55,13.15-7.14
	c2.78-1.77,5.41-3.43,8.14-4.81c7.39-3.71,16.05-5.51,26.49-5.51c3.48,0,7.09,0.2,11.04,0.6c1.75,0.18,3.56,0.27,5.38,0.27
	c7.64,0,14.77-1.57,21.67-3.08c6.6-1.45,12.84-2.81,19.25-2.81c0.47,0,0.94,0.01,1.41,0.02c5.02,0.16,10.05,1.71,15.36,3.34
	c5,1.54,10.18,3.13,15.71,3.66c1.54,0.15,3.18,0.22,5.01,0.22c2.02,0,4.04-0.08,6.06-0.17c1.87-0.08,3.73-0.16,5.58-0.16
	c2.92,0,5.23,0.22,7.27,0.69c4.45,1.03,8.65,3.5,13.09,6.11c3.76,2.21,7.65,4.5,12,6.1c5.05,1.85,10.21,2.59,15.19,3.3
	c4.81,0.69,9.36,1.34,13.48,2.92c3.2,1.23,6.07,3.35,9.11,5.59c2.43,1.79,4.94,3.65,7.81,5.2l1.57,0.84
	c4.93,2.64,8.49,4.55,11.69,8.72c1.11,1.45,2.14,3.04,3.22,4.72c2.42,3.75,4.92,7.62,8.8,10.69c2.32,1.83,4.84,3.15,7.28,4.44
	c3.61,1.9,6.73,3.54,7.71,6.04c0.66,1.67,0.42,3.95,0.14,6.6c-0.24,2.35-0.52,5.02-0.17,7.78c0.42,3.34,1.7,6.27,2.83,8.86
	c0.88,2.03,1.72,3.95,2,5.73c0.9,5.57-3.31,11.45-6.99,15.4c-1.21,1.3-2.48,2.57-3.75,3.83c-4.24,4.23-8.63,8.61-11.42,14.48
	c-0.95,2-1.63,4-2.29,5.93c-0.78,2.29-1.51,4.45-2.58,6.19c-3.48,5.66-10.83,7.92-18.62,10.3c-4.17,1.28-8.49,2.6-12.52,4.53
	c-4.74,2.26-8.85,5.28-12.82,8.2c-3.07,2.26-5.97,4.39-9.05,6.12c-3.41,1.91-6.35,2.72-9.82,2.72c-2.53,0-5.24-0.42-8.55-1.06
	c-3.32-0.64-6.77-0.96-10.25-0.96c-5.42,0-10.79,0.77-15.97,2.29c-3.52,1.03-6.8,2.47-9.98,3.86c-4.45,1.95-8.64,3.79-12.91,4.26
	c-0.83,0.09-1.66,0.13-2.48,0.13c-4.45,0-9.09-1.18-14.01-2.42c-3.96-1.01-8.06-2.04-12.25-2.48c-1.41-0.15-2.73-0.22-4.04-0.22
	c-2.78,0-5.34,0.33-7.82,1.01c-2.78,0.76-5.25,1.92-7.65,3.04c-2.76,1.3-5.37,2.52-7.86,2.77
	C187.87,210.81,187.48,210.83,187.09,210.83z"/>
</svg>
