<?xml version="1.0" encoding="utf-8"?>
<!-- Generator: Adobe Illustrator 25.2.0, SVG Export Plug-In . SVG Version: 6.00 Build 0)  -->
<svg version="1.1" id="Lager_1" xmlns="http://www.w3.org/2000/svg" xmlns:xlink="http://www.w3.org/1999/xlink" x="0px" y="0px"
	 viewBox="0 0 283.46 283.46" style="enable-background:new 0 0 283.46 283.46;" xml:space="preserve">
<style type="text/css">
	.st0{fill:#F8A815;}
	.st1{fill:#FFE04F;}
	.st2{fill:#FCBE0E;}
	.st3{fill:#FAB628;}
</style>
<path class="st0" d="M215.94,152.24c-31.91-23.95-91.97-28.81-134.34-10.76c-25.58,10.84-38.87,27.65-38.24,44.44
	c0,0.57,0,1.01,0.09,1.54c0.91,10.51,7.15,20.97,19.16,30.01c31.81,23.94,91.89,28.74,134.27,10.75
	c23.57-10.03,36.68-25.01,38.12-40.47c0.09-0.72,0.09-1.35,0.09-2.07C235.43,174.12,229.2,162.27,215.94,152.24z M160.27,200.66
	c-15.49,6.58-37.4,4.83-49.03-3.92c-4.39-3.3-6.65-7.12-6.99-10.94c-0.03-0.19-0.03-0.37-0.03-0.57
	c-0.22-6.13,4.61-12.28,13.95-16.23c15.48-6.59,37.42-4.8,49.05,3.91c4.86,3.67,7.11,8,6.99,12.23c0,0.26,0,0.5-0.03,0.75
	C173.66,191.54,168.89,197.02,160.27,200.66z"/>
<path class="st0" d="M229.14,166.09c-3.17-4.89-7.52-9.5-13.2-13.83c-31.91-23.94-91.97-28.83-134.34-10.75
	c-15.46,6.49-26.21,15.27-32.36,24.83h-5.89c0,0,0,20.43,0.09,21.15c0.91,10.47,7.15,20.94,19.16,29.91
	c31.81,23.95,91.89,28.8,134.27,10.85c23.57-10.03,36.68-25.04,38.12-40.5c0.09-0.87,0.09-1.79,0.09-2.7h0.1v-18.96H229.14z
	 M107.07,141.04c23.67-10.03,57.17-7.3,74.98,6.06c7.87,5.9,11.29,12.94,10.57,19.81c-0.72,8.56-8.03,16.96-21.23,22.57
	c-23.6,10.03-57.2,7.33-74.91-6.05c-6.67-4.96-10.19-10.85-10.66-16.71C85,157.04,92.34,147.28,107.07,141.04z"/>
<path class="st1" d="M234.27,158.22c-2.03-8.96-8.08-17.8-18.34-25.58c-4.07-3.04-8.62-5.8-13.54-8.21h-0.03
	c-5.87-2.95-12.23-5.39-18.97-7.33c-2.98-0.91-6.05-1.7-9.19-2.35c-6.11-1.38-12.47-2.39-18.93-2.98
	c-3.95-0.41-7.96-0.63-11.97-0.72c-4.83-0.13-9.69-0.06-14.48,0.25c-3.29,0.19-6.55,0.5-9.81,0.91
	c-10.47,1.25-20.69,3.54-30.19,6.89c-2.47,0.85-4.89,1.79-7.23,2.8c-1.83,0.78-3.58,1.57-5.27,2.41
	c-6.33,3.07-11.79,6.55-16.3,10.31c-1.59,1.28-3.07,2.64-4.42,3.98v0.03c-2.19,2.2-4.07,4.45-5.67,6.81l-0.02,0.03
	c-1.51,2.16-2.76,4.38-3.73,6.65c-2.04,4.63-3.01,9.44-2.82,14.23c0,0.56,0,1,0.09,1.54c0.35,4.16,1.57,8.4,3.67,12.47
	c0.81,1.6,1.75,3.16,2.81,4.7h0.04c3.07,4.48,7.3,8.81,12.64,12.82c4.13,3.1,8.74,5.89,13.72,8.31c2.38,1.23,4.86,2.32,7.4,3.29
	c5.55,2.22,11.47,4.11,17.62,5.61c3.39,0.82,6.83,1.54,10.34,2.1c5.33,0.92,10.75,1.57,16.27,1.95c3.61,0.22,7.21,0.37,10.85,0.37
	c7.21,0.03,14.42-0.41,21.5-1.32c4.7-0.59,9.37-1.38,13.91-2.42c7.9-1.75,15.55-4.1,22.66-7.15c8.18-3.47,15.08-7.52,20.69-12
	c2.66-2.16,5.04-4.39,7.12-6.71c6.11-6.79,9.62-14.22,10.31-21.75c0.09-0.72,0.09-1.35,0.09-2.07
	C235.15,163.48,234.9,160.85,234.27,158.22z M174.19,166.31c-0.53,5.64-5.29,11.13-13.91,14.76c-15.49,6.58-37.4,4.82-49.03-3.92
	c-2.73-2.04-4.64-4.3-5.77-6.65c-0.69-1.42-1.1-2.85-1.23-4.29c-0.03-0.19-0.03-0.37-0.03-0.57c-0.22-6.14,4.61-12.29,13.95-16.24
	c15.48-6.58,37.42-4.8,49.05,3.92c4.86,3.66,7.11,7.98,6.99,12.22C174.21,165.81,174.21,166.06,174.19,166.31z"/>
<path class="st2" d="M89.74,155.24l-5.71-0.4h-0.03l-37.83-2.73c0.84-1.98,1.94-3.95,3.23-5.86c0.15-0.26,0.31-0.54,0.5-0.79
	l0.02-0.03L89.74,155.24z"/>
<path class="st0" d="M89.74,155.24l-5.71-0.4h-0.03l-34.6-8.59c0.15-0.26,0.31-0.54,0.5-0.79l0.02-0.03L89.74,155.24z"/>
<path class="st2" d="M75.36,142.8l-19.75-4.17v-0.03c1.35-1.35,2.83-2.7,4.42-3.98L75.36,142.8z"/>
<path class="st0" d="M73.34,142.38l2.02,0.43l-15.33-8.18c-0.16,0.13-0.31,0.27-0.47,0.4L73.34,142.38z"/>
<path class="st2" d="M105.48,170.51l-55.51,14.54h-0.04c-1.06-1.53-2-3.1-2.81-4.7L105.48,170.51z"/>
<path class="st0" d="M99.9,171.97l5.57-1.46l-58.36,9.84c0.08,0.16,0.18,0.32,0.26,0.47L99.9,171.97z"/>
<path class="st2" d="M101.34,189.91l-17.62,19.56c-2.54-0.97-5.02-2.06-7.4-3.29L101.34,189.91z"/>
<path class="st0" d="M99.22,192.25l2.12-2.35l-25.02,16.27c0.28,0.14,0.57,0.27,0.86,0.4L99.22,192.25z"/>
<path class="st2" d="M125.38,185.05l-13.69,32.13c-3.51-0.56-6.96-1.28-10.34-2.1L125.38,185.05z"/>
<path class="st0" d="M124.28,187.64l1.1-2.59l-24.04,30.03c0.27,0.06,0.55,0.12,0.81,0.18L124.28,187.64z"/>
<path class="st2" d="M139.27,190.01v29.49c0,0-7.71-0.16-11.31-0.37L139.27,190.01z"/>
<path class="st0" d="M128.99,219.13l10.27-26.41l0.01-2.71l-11.31,29.11C131.56,219.35,132.26,219.32,128.99,219.13z"/>
<path class="st2" d="M174.21,215.77c-4.55,1.03-9.21,1.82-13.91,2.42l-1.81-17.07L174.21,215.77z"/>
<path class="st0" d="M172.48,216.11c0.58-0.12,1.17-0.22,1.73-0.35l-15.72-14.65l0.23,2.17L172.48,216.11z"/>
<path class="st2" d="M224.69,189.91c-2.08,2.32-4.46,4.55-7.12,6.71h-0.06l-43.29-22.19L224.69,189.91z"/>
<path class="st0" d="M223.8,190.81c0.28-0.3,0.61-0.59,0.89-0.91l-50.47-15.48l5.72,2.93L223.8,190.81z"/>
<path class="st2" d="M235.09,166.09l-28.83-6.37l-6.8-1.5h34.82c0.13,0.5,0.23,1,0.31,1.5
	C234.99,161.86,235.15,163.99,235.09,166.09z"/>
<path class="st0" d="M234.27,158.22c0.13,0.5,0.23,1,0.31,1.5h-28.33l-6.8-1.5H234.27z"/>
<path class="st2" d="M133.63,140.98l-14.61-28.77c3.27-0.41,6.53-0.72,9.81-0.91L133.63,140.98z"/>
<path class="st0" d="M132.05,137.86l1.58,3.12l-4.8-29.69c-0.35,0.02-0.71,0.06-1.06,0.08L132.05,137.86z"/>
<path class="st2" d="M183.4,117.1l-19.48,23.88l10.29-26.23C177.35,115.4,180.43,116.19,183.4,117.1z"/>
<path class="st0" d="M175.38,115.02c-0.39-0.08-0.77-0.18-1.17-0.27l-10.29,26.23l2.45-3.01L175.38,115.02z"/>
<path class="st2" d="M109.09,145.44l-32.76-21.13c1.69-0.84,3.44-1.63,5.27-2.41c2.35-1,4.76-1.95,7.23-2.8L109.09,145.44z"/>
<path class="st0" d="M106.59,143.83l2.49,1.61L88.83,119.1c-0.33,0.12-0.64,0.26-0.97,0.38L106.59,143.83z"/>
<path class="st2" d="M155.28,111.77l-4.95,15.98l-7.02-16.71C147.32,111.14,151.34,111.36,155.28,111.77z"/>
<path class="st0" d="M144.14,111.08c-0.28-0.01-0.55-0.02-0.83-0.03l7.02,16.71l0.34-1.11L144.14,111.08z"/>
<path class="st2" d="M215.94,132.64l-24.22,5.93l10.66-14.14h0.03C207.31,126.85,211.86,129.6,215.94,132.64z"/>
<path class="st0" d="M203.36,124.97h0.02c-0.34-0.17-0.64-0.38-0.98-0.54h-0.03l-10.66,14.14l1.72-0.42L203.36,124.97z"/>
<path class="st0" d="M215.94,152.24c-31.91-23.95-91.97-28.81-134.34-10.76c-25.58,10.84-38.87,27.65-38.24,44.44
	c0,0.57,0,1.01,0.09,1.54c0.91,10.51,7.15,20.97,19.16,30.01c31.81,23.94,91.89,28.74,134.27,10.75
	c23.57-10.03,36.68-25.01,38.12-40.47c0.09-0.72,0.09-1.35,0.09-2.07C235.43,174.12,229.2,162.27,215.94,152.24z M160.27,200.66
	c-15.49,6.58-37.4,4.83-49.03-3.92c-4.39-3.3-6.65-7.12-6.99-10.94c-0.03-0.19-0.03-0.37-0.03-0.57
	c-0.22-6.13,4.61-12.28,13.95-16.23c15.48-6.59,37.42-4.8,49.05,3.91c4.86,3.67,7.11,8,6.99,12.23c0,0.26,0,0.5-0.03,0.75
	C173.66,191.54,168.89,197.02,160.27,200.66z"/>
<path class="st0" d="M229.14,166.09c-3.17-4.89-7.52-9.5-13.2-13.83c-31.91-23.94-91.97-28.83-134.34-10.75
	c-15.46,6.49-26.21,15.27-32.36,24.83h-5.89c0,0,0,20.43,0.09,21.15c0.91,10.47,7.15,20.94,19.16,29.91
	c31.81,23.95,91.89,28.8,134.27,10.85c23.57-10.03,36.68-25.04,38.12-40.5c0.09-0.87,0.09-1.79,0.09-2.7h0.1v-18.96H229.14z
	 M107.07,141.04c23.67-10.03,57.17-7.3,74.98,6.06c7.87,5.9,11.29,12.94,10.57,19.81c-0.72,8.56-8.03,16.96-21.23,22.57
	c-23.6,10.03-57.2,7.33-74.91-6.05c-6.67-4.96-10.19-10.85-10.66-16.71C85,157.04,92.34,147.28,107.07,141.04z"/>
<path class="st3" d="M234.27,158.22c-2.03-8.96-8.08-17.8-18.34-25.58c-4.07-3.04-8.62-5.8-13.54-8.21h-0.03
	c-5.87-2.95-12.23-5.39-18.97-7.33c-2.98-0.91-6.05-1.7-9.19-2.35c-6.11-1.38-12.47-2.39-18.93-2.98
	c-3.95-0.41-7.96-0.63-11.97-0.72c-4.83-0.13-9.69-0.06-14.48,0.25c-3.29,0.19-6.55,0.5-9.81,0.91
	c-10.47,1.25-20.69,3.54-30.19,6.89c-2.47,0.85-4.89,1.79-7.23,2.8c-1.83,0.78-3.58,1.57-5.27,2.41
	c-6.33,3.07-11.79,6.55-16.3,10.31c-1.59,1.28-3.07,2.64-4.42,3.98v0.03c-2.19,2.2-4.07,4.45-5.67,6.81l-0.02,0.03
	c-1.51,2.16-2.76,4.38-3.73,6.65c-2.04,4.63-3.01,9.44-2.82,14.23c0,0.56,0,1,0.09,1.54c0.35,4.16,1.57,8.4,3.67,12.47
	c0.81,1.6,1.75,3.16,2.81,4.7h0.04c3.07,4.48,7.3,8.81,12.64,12.82c4.13,3.1,8.74,5.89,13.72,8.31c2.38,1.23,4.86,2.32,7.4,3.29
	c5.55,2.22,11.47,4.11,17.62,5.61c3.39,0.82,6.83,1.54,10.34,2.1c5.33,0.92,10.75,1.57,16.27,1.95c3.61,0.22,7.21,0.37,10.85,0.37
	c7.21,0.03,14.42-0.41,21.5-1.32c4.7-0.59,9.37-1.38,13.91-2.42c7.9-1.75,15.55-4.1,22.66-7.15c8.18-3.47,15.08-7.52,20.69-12
	c2.66-2.16,5.04-4.39,7.12-6.71c6.11-6.79,9.62-14.22,10.31-21.75c0.09-0.72,0.09-1.35,0.09-2.07
	C235.15,163.48,234.9,160.85,234.27,158.22z M174.19,166.31c-0.53,5.64-5.29,11.13-13.91,14.76c-15.49,6.58-37.4,4.82-49.03-3.92
	c-2.73-2.04-4.64-4.3-5.77-6.65c-0.69-1.42-1.1-2.85-1.23-4.29c-0.03-0.19-0.03-0.37-0.03-0.57c-0.22-6.14,4.61-12.29,13.95-16.24
	c15.48-6.58,37.42-4.8,49.05,3.92c4.86,3.66,7.11,7.98,6.99,12.22C174.21,165.81,174.21,166.06,174.19,166.31z"/>
<path class="st2" d="M89.74,155.24l-5.71-0.4h-0.03l-37.83-2.73c0.84-1.98,1.94-3.95,3.23-5.86c0.15-0.26,0.31-0.54,0.5-0.79
	l0.02-0.03L89.74,155.24z"/>
<path class="st0" d="M89.74,155.24l-5.71-0.4h-0.03l-34.6-8.59c0.15-0.26,0.31-0.54,0.5-0.79l0.02-0.03L89.74,155.24z"/>
<path class="st2" d="M75.36,142.8l-19.75-4.17v-0.03c1.35-1.35,2.83-2.7,4.42-3.98L75.36,142.8z"/>
<path class="st0" d="M73.34,142.38l2.02,0.43l-15.33-8.18c-0.16,0.13-0.31,0.27-0.47,0.4L73.34,142.38z"/>
<path class="st2" d="M105.48,170.51l-55.51,14.54h-0.04c-1.06-1.53-2-3.1-2.81-4.7L105.48,170.51z"/>
<path class="st0" d="M99.9,171.97l5.57-1.46l-58.36,9.84c0.08,0.16,0.18,0.32,0.26,0.47L99.9,171.97z"/>
<path class="st2" d="M101.34,189.91l-17.62,19.56c-2.54-0.97-5.02-2.06-7.4-3.29L101.34,189.91z"/>
<path class="st0" d="M99.22,192.25l2.12-2.35l-25.02,16.27c0.28,0.14,0.57,0.27,0.86,0.4L99.22,192.25z"/>
<path class="st2" d="M125.38,185.05l-13.69,32.13c-3.51-0.56-6.96-1.28-10.34-2.1L125.38,185.05z"/>
<path class="st0" d="M124.28,187.64l1.1-2.59l-24.04,30.03c0.27,0.06,0.55,0.12,0.81,0.18L124.28,187.64z"/>
<path class="st2" d="M139.27,190.01v29.49c0,0-7.71-0.16-11.31-0.37L139.27,190.01z"/>
<path class="st0" d="M128.99,219.13l10.27-26.41l0.01-2.71l-11.31,29.11C131.56,219.35,132.26,219.32,128.99,219.13z"/>
<path class="st2" d="M174.21,215.77c-4.55,1.03-9.21,1.82-13.91,2.42l-1.81-17.07L174.21,215.77z"/>
<path class="st0" d="M172.48,216.11c0.58-0.12,1.17-0.22,1.73-0.35l-15.72-14.65l0.23,2.17L172.48,216.11z"/>
<path class="st2" d="M224.69,189.91c-2.08,2.32-4.46,4.55-7.12,6.71h-0.06l-43.29-22.19L224.69,189.91z"/>
<path class="st0" d="M223.8,190.81c0.28-0.3,0.61-0.59,0.89-0.91l-50.47-15.48l5.72,2.93L223.8,190.81z"/>
<path class="st2" d="M235.09,166.09l-28.83-6.37l-6.8-1.5h34.82c0.13,0.5,0.23,1,0.31,1.5
	C234.99,161.86,235.15,163.99,235.09,166.09z"/>
<path class="st0" d="M234.27,158.22c0.13,0.5,0.23,1,0.31,1.5h-28.33l-6.8-1.5H234.27z"/>
<path class="st2" d="M133.63,140.98l-14.61-28.77c3.27-0.41,6.53-0.72,9.81-0.91L133.63,140.98z"/>
<path class="st0" d="M132.05,137.86l1.58,3.12l-4.8-29.69c-0.35,0.02-0.71,0.06-1.06,0.08L132.05,137.86z"/>
<path class="st2" d="M183.4,117.1l-19.48,23.88l10.29-26.23C177.35,115.4,180.43,116.19,183.4,117.1z"/>
<path class="st0" d="M175.38,115.02c-0.39-0.08-0.77-0.18-1.17-0.27l-10.29,26.23l2.45-3.01L175.38,115.02z"/>
<path class="st2" d="M109.09,145.44l-32.76-21.13c1.69-0.84,3.44-1.63,5.27-2.41c2.35-1,4.76-1.95,7.23-2.8L109.09,145.44z"/>
<path class="st0" d="M106.59,143.83l2.49,1.61L88.83,119.1c-0.33,0.12-0.64,0.26-0.97,0.38L106.59,143.83z"/>
<path class="st2" d="M155.28,111.77l-4.95,15.98l-7.02-16.71C147.32,111.14,151.34,111.36,155.28,111.77z"/>
<path class="st0" d="M144.14,111.08c-0.28-0.01-0.55-0.02-0.83-0.03l7.02,16.71l0.34-1.11L144.14,111.08z"/>
<path class="st2" d="M215.94,132.64l-24.22,5.93l10.66-14.14h0.03C207.31,126.85,211.86,129.6,215.94,132.64z"/>
<path class="st0" d="M203.36,124.97h0.02c-0.34-0.17-0.64-0.38-0.98-0.54h-0.03l-10.66,14.14l1.72-0.42L203.36,124.97z"/>
<path class="st0" d="M236.62,112.18c-31.91-23.95-91.97-28.81-134.35-10.75c-25.57,10.85-38.87,27.65-38.24,44.44
	c0,0.57,0,1,0.1,1.54c0.91,10.5,7.15,20.97,19.15,30c31.82,23.95,91.9,28.74,134.28,10.75c23.58-10.02,36.67-25.01,38.12-40.46
	c0.09-0.72,0.09-1.35,0.09-2.08C256.11,134.06,249.88,122.21,236.62,112.18z M180.95,160.61c-15.49,6.58-37.4,4.82-49.03-3.92
	c-4.39-3.29-6.64-7.12-6.98-10.95c-0.03-0.18-0.03-0.37-0.03-0.56c-0.22-6.14,4.6-12.29,13.95-16.24
	c15.48-6.58,37.43-4.8,49.05,3.92c4.86,3.67,7.12,7.99,7,12.23c0,0.25,0,0.5-0.04,0.75C194.34,151.49,189.57,156.97,180.95,160.61z"
	/>
<path class="st0" d="M249.81,126.04c-3.17-4.9-7.52-9.5-13.2-13.83c-31.91-23.95-91.97-28.83-134.35-10.75
	c-15.45,6.48-26.21,15.27-32.34,24.82h-5.9c0,0,0,20.43,0.1,21.16c0.91,10.47,7.15,20.94,19.15,29.9
	c31.82,23.95,91.9,28.81,134.28,10.85c23.58-10.03,36.67-25.04,38.12-40.49c0.09-0.88,0.09-1.79,0.09-2.7h0.1v-18.96H249.81z
	 M127.76,100.99c23.66-10.03,57.17-7.3,74.98,6.06c7.86,5.89,11.28,12.94,10.56,19.81c-0.72,8.56-8.02,16.95-21.22,22.57
	c-23.61,10.03-57.21,7.33-74.91-6.05c-6.67-4.94-10.19-10.85-10.66-16.71C105.69,116.98,113.02,107.23,127.76,100.99z"/>
<path class="st1" d="M254.95,118.17c-2.03-8.96-8.08-17.8-18.34-25.58c-4.07-3.04-8.61-5.8-13.54-8.21h-0.04
	c-5.86-2.95-12.22-5.39-18.96-7.34c-2.98-0.9-6.05-1.69-9.18-2.35c-6.11-1.37-12.48-2.38-18.94-2.98c-3.95-0.4-7.95-0.62-11.97-0.72
	c-4.83-0.12-9.69-0.06-14.48,0.26c-3.29,0.18-6.55,0.49-9.81,0.91c-10.46,1.25-20.69,3.54-30.18,6.9c-2.48,0.84-4.89,1.79-7.25,2.78
	c-1.81,0.79-3.57,1.57-5.26,2.42c-6.33,3.07-11.78,6.55-16.29,10.31c-1.6,1.29-3.08,2.63-4.42,3.99v0.02
	c-2.2,2.2-4.07,4.46-5.68,6.81l-0.03,0.03c-1.5,2.16-2.76,4.38-3.73,6.65c-2.04,4.64-3.01,9.44-2.83,14.23c0,0.57,0,1,0.1,1.54
	c0.34,4.17,1.57,8.4,3.66,12.48c0.81,1.59,1.76,3.16,2.83,4.7h0.03c3.07,4.48,7.3,8.81,12.63,12.82c4.14,3.1,8.74,5.9,13.73,8.3
	c2.39,1.23,4.86,2.32,7.4,3.3c5.55,2.22,11.48,4.1,17.62,5.6c3.39,0.82,6.84,1.54,10.34,2.1c5.33,0.91,10.75,1.57,16.27,1.95
	c3.61,0.21,7.2,0.37,10.85,0.37c7.2,0.03,14.42-0.41,21.5-1.32c4.7-0.6,9.37-1.38,13.92-2.42c7.89-1.76,15.54-4.1,22.66-7.14
	c8.18-3.49,15.08-7.52,20.69-12.01c2.66-2.16,5.05-4.39,7.11-6.71c6.11-6.8,9.62-14.23,10.32-21.76c0.09-0.72,0.09-1.35,0.09-2.06
	C255.83,123.43,255.58,120.81,254.95,118.17z M194.87,126.25c-0.53,5.65-5.3,11.13-13.91,14.77c-15.49,6.58-37.4,4.82-49.03-3.93
	c-2.72-2.03-4.63-4.29-5.76-6.65c-0.69-1.41-1.1-2.85-1.23-4.29c-0.03-0.19-0.03-0.38-0.03-0.57c-0.22-6.15,4.6-12.29,13.95-16.24
	c15.48-6.58,37.43-4.8,49.05,3.92c4.86,3.66,7.12,7.99,7,12.22C194.9,125.75,194.9,126,194.87,126.25z"/>
<path class="st2" d="M110.43,115.19l-5.71-0.41h-0.03l-37.83-2.73c0.85-1.97,1.94-3.95,3.22-5.86c0.16-0.25,0.31-0.54,0.5-0.79
	l0.03-0.03L110.43,115.19z"/>
<path class="st0" d="M110.43,115.19l-5.71-0.41h-0.03l-34.61-8.59c0.16-0.25,0.31-0.54,0.5-0.79l0.03-0.03L110.43,115.19z"/>
<path class="st2" d="M96.04,102.75l-19.74-4.17v-0.02c1.35-1.35,2.82-2.7,4.42-3.99L96.04,102.75z"/>
<path class="st0" d="M94.02,102.32l2.01,0.43l-15.32-8.18c-0.17,0.13-0.31,0.27-0.47,0.4L94.02,102.32z"/>
<path class="st2" d="M126.16,130.45L70.64,145h-0.03c-1.06-1.54-2.01-3.1-2.83-4.7L126.16,130.45z"/>
<path class="st0" d="M120.58,131.92l5.58-1.47l-58.37,9.85c0.08,0.16,0.18,0.31,0.27,0.47L120.58,131.92z"/>
<path class="st2" d="M122.02,149.86l-17.62,19.56c-2.54-0.97-5.01-2.07-7.4-3.3L122.02,149.86z"/>
<path class="st0" d="M119.91,152.2l2.11-2.34l-25.02,16.26c0.28,0.15,0.57,0.28,0.86,0.41L119.91,152.2z"/>
<path class="st2" d="M146.07,145l-13.7,32.13c-3.51-0.57-6.96-1.28-10.34-2.1L146.07,145z"/>
<path class="st0" d="M144.96,147.59l1.11-2.59l-24.05,30.02c0.27,0.07,0.55,0.13,0.82,0.19L144.96,147.59z"/>
<path class="st2" d="M159.95,149.97v29.49c0,0-7.71-0.16-11.31-0.37L159.95,149.97z"/>
<path class="st0" d="M149.67,179.08l10.27-26.41l0.01-2.7l-11.31,29.11C152.24,179.29,152.95,179.27,149.67,179.08z"/>
<path class="st2" d="M194.9,175.72c-4.55,1.03-9.22,1.82-13.92,2.42l-1.81-17.07L194.9,175.72z"/>
<path class="st0" d="M193.17,176.07c0.57-0.13,1.16-0.22,1.74-0.35l-15.73-14.66l0.23,2.17L193.17,176.07z"/>
<path class="st2" d="M245.36,149.86c-2.06,2.32-4.45,4.55-7.11,6.71h-0.06l-43.28-22.2L245.36,149.86z"/>
<path class="st0" d="M244.48,150.77c0.28-0.31,0.61-0.6,0.88-0.91l-50.46-15.49l5.7,2.93L244.48,150.77z"/>
<path class="st2" d="M255.77,126.04l-28.84-6.36l-6.8-1.51h34.82c0.13,0.5,0.22,1,0.32,1.51
	C255.68,121.8,255.83,123.94,255.77,126.04z"/>
<path class="st0" d="M254.95,118.17c0.13,0.5,0.22,1,0.32,1.51h-28.34l-6.8-1.51H254.95z"/>
<path class="st2" d="M154.3,100.93l-14.6-28.78c3.26-0.41,6.52-0.72,9.81-0.91L154.3,100.93z"/>
<path class="st0" d="M152.72,97.82l1.58,3.12l-4.79-29.68c-0.36,0.02-0.71,0.06-1.07,0.08L152.72,97.82z"/>
<path class="st2" d="M204.08,77.04l-19.48,23.89l10.3-26.24C198.03,75.36,201.1,76.14,204.08,77.04z"/>
<path class="st0" d="M196.06,74.97c-0.39-0.09-0.77-0.19-1.16-0.28l-10.3,26.24l2.46-3.01L196.06,74.97z"/>
<path class="st2" d="M129.76,105.38L97.01,84.25c1.69-0.85,3.45-1.63,5.26-2.42c2.36-1,4.77-1.94,7.25-2.78L129.76,105.38z"/>
<path class="st0" d="M127.27,103.77l2.49,1.61l-20.24-26.33c-0.33,0.11-0.65,0.26-0.97,0.37L127.27,103.77z"/>
<path class="st2" d="M175.96,71.71l-4.95,15.99l-7.02-16.71C168.01,71.09,172.02,71.31,175.96,71.71z"/>
<path class="st0" d="M164.82,71.03c-0.28-0.01-0.55-0.03-0.83-0.04l7.02,16.71l0.35-1.12L164.82,71.03z"/>
<path class="st2" d="M236.62,92.59l-24.23,5.93l10.66-14.14h0.04C228,86.79,232.54,89.55,236.62,92.59z"/>
<path class="st0" d="M224.05,84.92h0.01c-0.33-0.18-0.64-0.38-0.98-0.54h-0.04l-10.66,14.14l1.72-0.42L224.05,84.92z"/>
<path class="st0" d="M236.62,112.18c-31.91-23.95-91.97-28.81-134.35-10.75c-25.57,10.85-38.87,27.65-38.24,44.44
	c0,0.57,0,1,0.1,1.54c0.91,10.5,7.15,20.97,19.15,30c31.82,23.95,91.9,28.74,134.28,10.75c23.58-10.02,36.67-25.01,38.12-40.46
	c0.09-0.72,0.09-1.35,0.09-2.08C256.11,134.06,249.88,122.21,236.62,112.18z M180.95,160.61c-15.49,6.58-37.4,4.82-49.03-3.92
	c-4.39-3.29-6.64-7.12-6.98-10.95c-0.03-0.18-0.03-0.37-0.03-0.56c-0.22-6.14,4.6-12.29,13.95-16.24
	c15.48-6.58,37.43-4.8,49.05,3.92c4.86,3.67,7.12,7.99,7,12.23c0,0.25,0,0.5-0.04,0.75C194.34,151.49,189.57,156.97,180.95,160.61z"
	/>
<path class="st0" d="M249.81,126.04c-3.17-4.9-7.52-9.5-13.2-13.83c-31.91-23.95-91.97-28.83-134.35-10.75
	c-15.45,6.48-26.21,15.27-32.34,24.82h-5.9c0,0,0,20.43,0.1,21.16c0.91,10.47,7.15,20.94,19.15,29.9
	c31.82,23.95,91.9,28.81,134.28,10.85c23.58-10.03,36.67-25.04,38.12-40.49c0.09-0.88,0.09-1.79,0.09-2.7h0.1v-18.96H249.81z
	 M127.76,100.99c23.66-10.03,57.17-7.3,74.98,6.06c7.86,5.89,11.28,12.94,10.56,19.81c-0.72,8.56-8.02,16.95-21.22,22.57
	c-23.61,10.03-57.21,7.33-74.91-6.05c-6.67-4.94-10.19-10.85-10.66-16.71C105.69,116.98,113.02,107.23,127.76,100.99z"/>
<path class="st3" d="M254.95,118.17c-2.03-8.96-8.08-17.8-18.34-25.58c-4.07-3.04-8.61-5.8-13.54-8.21h-0.04
	c-5.86-2.95-12.22-5.39-18.96-7.34c-2.98-0.9-6.05-1.69-9.18-2.35c-6.11-1.37-12.48-2.38-18.94-2.98c-3.95-0.4-7.95-0.62-11.97-0.72
	c-4.83-0.12-9.69-0.06-14.48,0.26c-3.29,0.18-6.55,0.49-9.81,0.91c-10.46,1.25-20.69,3.54-30.18,6.9c-2.48,0.84-4.89,1.79-7.25,2.78
	c-1.81,0.79-3.57,1.57-5.26,2.42c-6.33,3.07-11.78,6.55-16.29,10.31c-1.6,1.29-3.08,2.63-4.42,3.99v0.02
	c-2.2,2.2-4.07,4.46-5.68,6.81l-0.03,0.03c-1.5,2.16-2.76,4.38-3.73,6.65c-2.04,4.64-3.01,9.44-2.83,14.23c0,0.57,0,1,0.1,1.54
	c0.34,4.17,1.57,8.4,3.66,12.48c0.81,1.59,1.76,3.16,2.83,4.7h0.03c3.07,4.48,7.3,8.81,12.63,12.82c4.14,3.1,8.74,5.9,13.73,8.3
	c2.39,1.23,4.86,2.32,7.4,3.3c5.55,2.22,11.48,4.1,17.62,5.6c3.39,0.82,6.84,1.54,10.34,2.1c5.33,0.91,10.75,1.57,16.27,1.95
	c3.61,0.21,7.2,0.37,10.85,0.37c7.2,0.03,14.42-0.41,21.5-1.32c4.7-0.6,9.37-1.38,13.92-2.42c7.89-1.76,15.54-4.1,22.66-7.14
	c8.18-3.49,15.08-7.52,20.69-12.01c2.66-2.16,5.05-4.39,7.11-6.71c6.11-6.8,9.62-14.23,10.32-21.76c0.09-0.72,0.09-1.35,0.09-2.06
	C255.83,123.43,255.58,120.81,254.95,118.17z M194.87,126.25c-0.53,5.65-5.3,11.13-13.91,14.77c-15.49,6.58-37.4,4.82-49.03-3.93
	c-2.72-2.03-4.63-4.29-5.76-6.65c-0.69-1.41-1.1-2.85-1.23-4.29c-0.03-0.19-0.03-0.38-0.03-0.57c-0.22-6.15,4.6-12.29,13.95-16.24
	c15.48-6.58,37.43-4.8,49.05,3.92c4.86,3.66,7.12,7.99,7,12.22C194.9,125.75,194.9,126,194.87,126.25z"/>
<path class="st2" d="M110.43,115.19l-5.71-0.41h-0.03l-37.83-2.73c0.85-1.97,1.94-3.95,3.22-5.86c0.16-0.25,0.31-0.54,0.5-0.79
	l0.03-0.03L110.43,115.19z"/>
<path class="st0" d="M110.43,115.19l-5.71-0.41h-0.03l-34.61-8.59c0.16-0.25,0.31-0.54,0.5-0.79l0.03-0.03L110.43,115.19z"/>
<path class="st2" d="M96.04,102.75l-19.74-4.17v-0.02c1.35-1.35,2.82-2.7,4.42-3.99L96.04,102.75z"/>
<path class="st0" d="M94.02,102.32l2.01,0.43l-15.32-8.18c-0.17,0.13-0.31,0.27-0.47,0.4L94.02,102.32z"/>
<path class="st2" d="M126.16,130.45L70.64,145h-0.03c-1.06-1.54-2.01-3.1-2.83-4.7L126.16,130.45z"/>
<path class="st0" d="M120.58,131.92l5.58-1.47l-58.37,9.85c0.08,0.16,0.18,0.31,0.27,0.47L120.58,131.92z"/>
<path class="st2" d="M122.02,149.86l-17.62,19.56c-2.54-0.97-5.01-2.07-7.4-3.3L122.02,149.86z"/>
<path class="st0" d="M119.91,152.2l2.11-2.34l-25.02,16.26c0.28,0.15,0.57,0.28,0.86,0.41L119.91,152.2z"/>
<path class="st2" d="M146.07,145l-13.7,32.13c-3.51-0.57-6.96-1.28-10.34-2.1L146.07,145z"/>
<path class="st0" d="M144.96,147.59l1.11-2.59l-24.05,30.02c0.27,0.07,0.55,0.13,0.82,0.19L144.96,147.59z"/>
<path class="st2" d="M159.95,149.97v29.49c0,0-7.71-0.16-11.31-0.37L159.95,149.97z"/>
<path class="st0" d="M149.67,179.08l10.27-26.41l0.01-2.7l-11.31,29.11C152.24,179.29,152.95,179.27,149.67,179.08z"/>
<path class="st2" d="M194.9,175.72c-4.55,1.03-9.22,1.82-13.92,2.42l-1.81-17.07L194.9,175.72z"/>
<path class="st0" d="M193.17,176.07c0.57-0.13,1.16-0.22,1.74-0.35l-15.73-14.66l0.23,2.17L193.17,176.07z"/>
<path class="st2" d="M245.36,149.86c-2.06,2.32-4.45,4.55-7.11,6.71h-0.06l-43.28-22.2L245.36,149.86z"/>
<path class="st0" d="M244.48,150.77c0.28-0.31,0.61-0.6,0.88-0.91l-50.46-15.49l5.7,2.93L244.48,150.77z"/>
<path class="st2" d="M255.77,126.04l-28.84-6.36l-6.8-1.51h34.82c0.13,0.5,0.22,1,0.32,1.51
	C255.68,121.8,255.83,123.94,255.77,126.04z"/>
<path class="st0" d="M254.95,118.17c0.13,0.5,0.22,1,0.32,1.51h-28.34l-6.8-1.51H254.95z"/>
<path class="st2" d="M154.3,100.93l-14.6-28.78c3.26-0.41,6.52-0.72,9.81-0.91L154.3,100.93z"/>
<path class="st0" d="M152.72,97.82l1.58,3.12l-4.79-29.68c-0.36,0.02-0.71,0.06-1.07,0.08L152.72,97.82z"/>
<path class="st2" d="M204.08,77.04l-19.48,23.89l10.3-26.24C198.03,75.36,201.1,76.14,204.08,77.04z"/>
<path class="st0" d="M196.06,74.97c-0.39-0.09-0.77-0.19-1.16-0.28l-10.3,26.24l2.46-3.01L196.06,74.97z"/>
<path class="st2" d="M129.76,105.38L97.01,84.25c1.69-0.85,3.45-1.63,5.26-2.42c2.36-1,4.77-1.94,7.25-2.78L129.76,105.38z"/>
<path class="st0" d="M127.27,103.77l2.49,1.61l-20.24-26.33c-0.33,0.11-0.65,0.26-0.97,0.37L127.27,103.77z"/>
<path class="st2" d="M175.96,71.71l-4.95,15.99l-7.02-16.71C168.01,71.09,172.02,71.31,175.96,71.71z"/>
<path class="st0" d="M164.82,71.03c-0.28-0.01-0.55-0.03-0.83-0.04l7.02,16.71l0.35-1.12L164.82,71.03z"/>
<path class="st2" d="M236.62,92.59l-24.23,5.93l10.66-14.14h0.04C228,86.79,232.54,89.55,236.62,92.59z"/>
<path class="st0" d="M224.05,84.92h0.01c-0.33-0.18-0.64-0.38-0.98-0.54h-0.04l-10.66,14.14l1.72-0.42L224.05,84.92z"/>
<path class="st0" d="M210.72,79.03c-31.91-23.95-91.97-28.81-134.34-10.76C50.8,79.12,37.51,95.92,38.13,112.72
	c0,0.57,0,1.01,0.1,1.54c0.91,10.51,7.15,20.98,19.15,30c31.82,23.94,91.9,28.74,134.28,10.75c23.57-10.03,36.67-25.01,38.12-40.47
	c0.09-0.72,0.09-1.35,0.09-2.07C230.22,100.91,223.98,89.07,210.72,79.03z M155.06,127.46c-15.49,6.58-37.4,4.83-49.03-3.92
	c-4.39-3.3-6.65-7.12-6.99-10.94c-0.03-0.19-0.03-0.38-0.03-0.57c-0.22-6.14,4.6-12.28,13.95-16.23c15.48-6.59,37.42-4.8,49.05,3.91
	c4.85,3.67,7.11,8,6.99,12.23c0,0.26,0,0.5-0.04,0.75C168.44,118.33,163.67,123.82,155.06,127.46z"/>
<path class="st0" d="M223.92,92.88c-3.17-4.9-7.52-9.5-13.2-13.83c-31.91-23.94-91.97-28.83-134.34-10.75
	C60.92,74.8,50.18,83.57,44.03,93.14h-5.89c0,0,0,20.43,0.1,21.15c0.91,10.47,7.15,20.94,19.15,29.91
	c31.82,23.94,91.9,28.8,134.28,10.85c23.57-10.04,36.67-25.04,38.12-40.5c0.09-0.87,0.09-1.79,0.09-2.7h0.1V92.88H223.92z
	 M101.86,67.83c23.67-10.02,57.17-7.3,74.98,6.06c7.87,5.89,11.29,12.94,10.56,19.81c-0.72,8.56-8.03,16.96-21.22,22.57
	c-23.61,10.03-57.21,7.33-74.91-6.05c-6.67-4.95-10.19-10.85-10.66-16.71C79.8,83.83,87.13,74.08,101.86,67.83z"/>
<path class="st1" d="M229.06,85.01c-2.03-8.96-8.08-17.8-18.34-25.58c-4.07-3.04-8.61-5.8-13.54-8.21h-0.03
	c-5.86-2.95-12.22-5.39-18.96-7.33c-2.98-0.91-6.05-1.69-9.19-2.35c-6.11-1.38-12.47-2.39-18.93-2.98
	c-3.95-0.41-7.96-0.63-11.97-0.72c-4.83-0.13-9.69-0.06-14.48,0.25c-3.29,0.19-6.55,0.5-9.81,0.91
	c-10.47,1.25-20.69,3.54-30.19,6.89c-2.47,0.84-4.89,1.79-7.23,2.79c-1.82,0.78-3.58,1.57-5.27,2.41
	c-6.33,3.07-11.79,6.55-16.29,10.31c-1.6,1.28-3.08,2.63-4.43,3.98v0.03c-2.19,2.2-4.07,4.45-5.67,6.81l-0.03,0.03
	c-1.51,2.16-2.76,4.38-3.73,6.65c-2.04,4.63-3.01,9.43-2.83,14.23c0,0.56,0,1,0.1,1.53c0.34,4.17,1.57,8.4,3.66,12.48
	c0.82,1.6,1.76,3.17,2.83,4.7h0.04c3.06,4.48,7.3,8.81,12.62,12.82c4.14,3.1,8.74,5.89,13.73,8.31c2.38,1.22,4.86,2.32,7.4,3.29
	c5.55,2.22,11.47,4.11,17.62,5.61c3.39,0.82,6.83,1.54,10.34,2.1c5.33,0.92,10.75,1.57,16.27,1.95c3.61,0.21,7.21,0.37,10.84,0.37
	c7.21,0.04,14.42-0.41,21.51-1.31c4.7-0.6,9.37-1.39,13.91-2.42c7.9-1.75,15.55-4.1,22.66-7.14c8.18-3.48,15.08-7.52,20.69-12.01
	c2.66-2.16,5.05-4.38,7.11-6.71c6.12-6.79,9.63-14.22,10.32-21.75c0.09-0.72,0.09-1.35,0.09-2.07
	C229.94,90.28,229.69,87.65,229.06,85.01z M168.97,93.1c-0.52,5.64-5.29,11.13-13.91,14.76c-15.49,6.58-37.4,4.82-49.03-3.92
	c-2.73-2.04-4.64-4.29-5.77-6.65c-0.69-1.41-1.1-2.85-1.23-4.29c-0.03-0.19-0.03-0.37-0.03-0.57c-0.22-6.14,4.6-12.29,13.95-16.24
	c15.48-6.58,37.42-4.8,49.05,3.92c4.85,3.67,7.11,7.99,6.99,12.23C169,92.6,169,92.85,168.97,93.1z"/>
<path class="st2" d="M84.53,82.04l-5.71-0.41h-0.03l-37.83-2.72c0.84-1.98,1.95-3.95,3.22-5.87c0.16-0.25,0.32-0.53,0.51-0.78
	l0.03-0.03L84.53,82.04z"/>
<path class="st0" d="M84.53,82.04l-5.71-0.41h-0.03l-34.61-8.59c0.16-0.25,0.32-0.53,0.51-0.78l0.03-0.03L84.53,82.04z"/>
<path class="st2" d="M100.27,97.3l-55.51,14.54h-0.04c-1.07-1.53-2.01-3.1-2.83-4.7L100.27,97.3z"/>
<path class="st0" d="M94.68,98.76l5.58-1.47l-58.37,9.85c0.08,0.16,0.18,0.32,0.27,0.48L94.68,98.76z"/>
<path class="st2" d="M96.13,116.7l-17.62,19.56c-2.54-0.97-5.02-2.07-7.4-3.29L96.13,116.7z"/>
<path class="st0" d="M94.02,119.05l2.11-2.35l-25.01,16.27c0.28,0.14,0.57,0.27,0.86,0.4L94.02,119.05z"/>
<path class="st2" d="M120.17,111.84l-13.69,32.13c-3.51-0.56-6.96-1.28-10.34-2.1L120.17,111.84z"/>
<path class="st0" d="M119.07,114.43l1.1-2.59l-24.04,30.03c0.27,0.06,0.55,0.12,0.82,0.18L119.07,114.43z"/>
<path class="st2" d="M134.05,116.81v29.49c0,0-7.71-0.16-11.31-0.37L134.05,116.81z"/>
<path class="st0" d="M123.78,145.92l10.27-26.41l0.01-2.71l-11.31,29.11C126.34,146.13,127.05,146.12,123.78,145.92z"/>
<path class="st2" d="M169,142.56c-4.54,1.03-9.22,1.82-13.91,2.42l-1.81-17.07L169,142.56z"/>
<path class="st0" d="M167.27,142.91c0.57-0.12,1.16-0.22,1.73-0.35l-15.72-14.65l0.23,2.18L167.27,142.91z"/>
<path class="st2" d="M219.46,116.7c-2.06,2.32-4.45,4.55-7.11,6.71h-0.06L169,101.22L219.46,116.7z"/>
<path class="st0" d="M218.58,117.61c0.29-0.3,0.62-0.59,0.89-0.91L169,101.22l5.71,2.93L218.58,117.61z"/>
<path class="st2" d="M229.87,92.88l-28.83-6.36l-6.8-1.51h34.82c0.13,0.5,0.23,1,0.31,1.51C229.78,88.65,229.94,90.79,229.87,92.88z
	"/>
<path class="st0" d="M229.06,85.01c0.13,0.5,0.23,1,0.31,1.51h-28.33l-6.8-1.51H229.06z"/>
<path class="st0" d="M210.72,79.03c-31.91-23.95-91.97-28.81-134.34-10.76C50.8,79.12,37.51,95.92,38.13,112.72
	c0,0.57,0,1.01,0.1,1.54c0.91,10.51,7.15,20.98,19.15,30c31.82,23.94,91.9,28.74,134.28,10.75c23.57-10.03,36.67-25.01,38.12-40.47
	c0.09-0.72,0.09-1.35,0.09-2.07C230.22,100.91,223.98,89.07,210.72,79.03z M155.06,127.46c-15.49,6.58-37.4,4.83-49.03-3.92
	c-4.39-3.3-6.65-7.12-6.99-10.94c-0.03-0.19-0.03-0.38-0.03-0.57c-0.22-6.14,4.6-12.28,13.95-16.23c15.48-6.59,37.42-4.8,49.05,3.91
	c4.85,3.67,7.11,8,6.99,12.23c0,0.26,0,0.5-0.04,0.75C168.44,118.33,163.67,123.82,155.06,127.46z"/>
<path class="st0" d="M223.92,92.88c-3.17-4.9-7.52-9.5-13.2-13.83c-31.91-23.94-91.97-28.83-134.34-10.75
	C60.92,74.8,50.18,83.57,44.03,93.14h-5.89c0,0,0,20.43,0.1,21.15c0.91,10.47,7.15,20.94,19.15,29.91
	c31.82,23.94,91.9,28.8,134.28,10.85c23.57-10.04,36.67-25.04,38.12-40.5c0.09-0.87,0.09-1.79,0.09-2.7h0.1V92.88H223.92z
	 M101.86,67.83c23.67-10.02,57.17-7.3,74.98,6.06c7.87,5.89,11.29,12.94,10.56,19.81c-0.72,8.56-8.03,16.96-21.22,22.57
	c-23.61,10.03-57.21,7.33-74.91-6.05c-6.67-4.95-10.19-10.85-10.66-16.71C79.8,83.83,87.13,74.08,101.86,67.83z"/>
<path class="st3" d="M229.06,85.01c-2.03-8.96-8.08-17.8-18.34-25.58c-4.07-3.04-8.61-5.8-13.54-8.21h-0.03
	c-5.86-2.95-12.22-5.39-18.96-7.33c-2.98-0.91-6.05-1.69-9.19-2.35c-6.11-1.38-12.47-2.39-18.93-2.98
	c-3.95-0.41-7.96-0.63-11.97-0.72c-4.83-0.13-9.69-0.06-14.48,0.25c-3.29,0.19-6.55,0.5-9.81,0.91
	c-10.47,1.25-20.69,3.54-30.19,6.89c-2.47,0.84-4.89,1.79-7.23,2.79c-1.82,0.78-3.58,1.57-5.27,2.41
	c-6.33,3.07-11.79,6.55-16.29,10.31c-1.6,1.28-3.08,2.63-4.43,3.98v0.03c-2.19,2.2-4.07,4.45-5.67,6.81l-0.03,0.03
	c-1.51,2.16-2.76,4.38-3.73,6.65c-2.04,4.63-3.01,9.43-2.83,14.23c0,0.56,0,1,0.1,1.53c0.34,4.17,1.57,8.4,3.66,12.48
	c0.82,1.6,1.76,3.17,2.83,4.7h0.04c3.06,4.48,7.3,8.81,12.62,12.82c4.14,3.1,8.74,5.89,13.73,8.31c2.38,1.22,4.86,2.32,7.4,3.29
	c5.55,2.22,11.47,4.11,17.62,5.61c3.39,0.82,6.83,1.54,10.34,2.1c5.33,0.92,10.75,1.57,16.27,1.95c3.61,0.21,7.21,0.37,10.84,0.37
	c7.21,0.04,14.42-0.41,21.51-1.31c4.7-0.6,9.37-1.39,13.91-2.42c7.9-1.75,15.55-4.1,22.66-7.14c8.18-3.48,15.08-7.52,20.69-12.01
	c2.66-2.16,5.05-4.38,7.11-6.71c6.12-6.79,9.63-14.22,10.32-21.75c0.09-0.72,0.09-1.35,0.09-2.07
	C229.94,90.28,229.69,87.65,229.06,85.01z M168.97,93.1c-0.52,5.64-5.29,11.13-13.91,14.76c-15.49,6.58-37.4,4.82-49.03-3.92
	c-2.73-2.04-4.64-4.29-5.77-6.65c-0.69-1.41-1.1-2.85-1.23-4.29c-0.03-0.19-0.03-0.37-0.03-0.57c-0.22-6.14,4.6-12.29,13.95-16.24
	c15.48-6.58,37.42-4.8,49.05,3.92c4.85,3.67,7.11,7.99,6.99,12.23C169,92.6,169,92.85,168.97,93.1z"/>
<path class="st2" d="M84.53,82.04l-5.71-0.41h-0.03l-37.83-2.72c0.84-1.98,1.95-3.95,3.22-5.87c0.16-0.25,0.32-0.53,0.51-0.78
	l0.03-0.03L84.53,82.04z"/>
<path class="st0" d="M84.53,82.04l-5.71-0.41h-0.03l-34.61-8.59c0.16-0.25,0.32-0.53,0.51-0.78l0.03-0.03L84.53,82.04z"/>
<path class="st2" d="M100.27,97.3l-55.51,14.54h-0.04c-1.07-1.53-2.01-3.1-2.83-4.7L100.27,97.3z"/>
<path class="st0" d="M94.68,98.76l5.58-1.47l-58.37,9.85c0.08,0.16,0.18,0.32,0.27,0.48L94.68,98.76z"/>
<path class="st2" d="M96.13,116.7l-17.62,19.56c-2.54-0.97-5.02-2.07-7.4-3.29L96.13,116.7z"/>
<path class="st0" d="M94.02,119.05l2.11-2.35l-25.01,16.27c0.28,0.14,0.57,0.27,0.86,0.4L94.02,119.05z"/>
<path class="st2" d="M120.17,111.84l-13.69,32.13c-3.51-0.56-6.96-1.28-10.34-2.1L120.17,111.84z"/>
<path class="st0" d="M119.07,114.43l1.1-2.59l-24.04,30.03c0.27,0.06,0.55,0.12,0.82,0.18L119.07,114.43z"/>
<path class="st2" d="M134.05,116.81v29.49c0,0-7.71-0.16-11.31-0.37L134.05,116.81z"/>
<path class="st0" d="M123.78,145.92l10.27-26.41l0.01-2.71l-11.31,29.11C126.34,146.13,127.05,146.12,123.78,145.92z"/>
<path class="st2" d="M169,142.56c-4.54,1.03-9.22,1.82-13.91,2.42l-1.81-17.07L169,142.56z"/>
<path class="st0" d="M167.27,142.91c0.57-0.12,1.16-0.22,1.73-0.35l-15.72-14.65l0.23,2.18L167.27,142.91z"/>
<path class="st2" d="M219.46,116.7c-2.06,2.32-4.45,4.55-7.11,6.71h-0.06L169,101.22L219.46,116.7z"/>
<path class="st0" d="M218.58,117.61c0.29-0.3,0.62-0.59,0.89-0.91L169,101.22l5.71,2.93L218.58,117.61z"/>
<path class="st2" d="M229.87,92.88l-28.83-6.36l-6.8-1.51h34.82c0.13,0.5,0.23,1,0.31,1.51C229.78,88.65,229.94,90.79,229.87,92.88z
	"/>
<path class="st0" d="M229.06,85.01c0.13,0.5,0.23,1,0.31,1.51h-28.33l-6.8-1.51H229.06z"/>
</svg>
