<?xml version="1.0" encoding="utf-8"?>
<!-- Generator: Adobe Illustrator 25.2.0, SVG Export Plug-In . SVG Version: 6.00 Build 0)  -->
<svg version="1.1" id="Lager_1" xmlns="http://www.w3.org/2000/svg" xmlns:xlink="http://www.w3.org/1999/xlink" x="0px" y="0px"
	 viewBox="0 0 283.46 283.46" style="enable-background:new 0 0 283.46 283.46;" xml:space="preserve">
<style type="text/css">
	.st0{fill:#BF2918;}
	.st1{fill:#E6361B;}
	.st2{fill:#4E742C;}
	.st3{fill:#5B9231;}
	.st4{fill:#FCC00D;}
	.st5{fill:#FFE759;}
</style>
<g>
	<g>
		<path class="st0" d="M281.12,169.93c-1.47-2.71-3.43-12.65-6.73-14.97c-14.34-10.08-40.89-10.58-59.27-2.05
			c-3.21,1.49-5.95,3.25-8.21,5.08c-14.94-7.6-38.17-8.33-54.79-0.62c-7.91,3.67-13.06,9.84-15.24,16.48l-0.83-0.8l-0.47,9.67
			c0,0.13-0.01,0.27-0.02,0.4l-0.02,0.53l0.04-0.01c-0.1,6.59,2.71,12.98,8.77,17.24c8.36,5.88,20.82,8.7,33.41,8.4l-0.27,5.56
			l0.01,0.01c-0.45,5.5,2.41,11.03,8.86,15.57c14.34,10.08,40.85,11.35,59.21,2.84c10.47-4.85,16.01-11.83,16.2-18.81l0.58-11.8
			l-2.72-1.05l-0.35,1.37c-0.77-1.16-1.68-2.3-2.8-3.39l2.8,0.5l-0.77,1.74c2.82-0.8,5.56-1.73,8.09-2.91
			c9.92-4.6,15.39-11.11,16.11-17.71l0.02,0.03l0.02-0.32c0.03-0.34,0.72-13.74,0.72-13.74L281.12,169.93z M263.49,187.06
			c-1.89,0.88-3.97,0.78-6.18,1.45l-3.18,2.09l-5.5-1.97L248.02,201l3.25,3.19c8.79,8.6,5.27,10.95-8.83,17.49
			c-15.81,7.33-38.73,6.24-51.09-2.45c-7.12-5.01-9.9-2.77-6.72-9.18l2.2-4.39l0.61-12.37l-3.84,2.72l-1.26,3.64l-0.16,3.32
			l-2.76-7.89c-11.63,0.47-22.86-2.24-29.98-7.25c-12.36-8.69-10.06-10.8,5.75-18.13c14.23-6.6,34.11-6.51,47.27,0.19l4.81,2.45
			l3.87-3.1c2.02-1.64,4.41-3.1,7.08-4.34c15.82-7.34,38.75-6.25,51.11,2.44C281.68,176.02,279.32,179.72,263.49,187.06z"/>
		<g>
			<path class="st1" d="M256.91,190.09c3.62-0.89,7.1-2.06,10.29-3.54c18.38-8.53,21.64-23.61,7.29-33.7
				c-14.34-10.08-40.85-11.35-59.24-2.83c-3.21,1.49-5.94,3.19-8.21,5.03c-14.93-7.6-38.18-7.93-54.81-0.22
				c-18.36,8.51-21.62,23.6-7.29,33.68c8.65,6.09,21.7,8.93,34.74,8.39c-3.59,7.19-1.39,15.07,7.26,21.16
				c14.33,10.08,40.85,11.35,59.21,2.84C262.86,213.14,267.04,200,256.91,190.09z M191.52,215.93c-7.12-5.01-9.46-11.84-6.27-18.25
				l2.2-4.39l-7.95,0.34c-11.64,0.47-22.86-2.24-29.99-7.25c-12.36-8.69-9.52-21.73,6.28-29.06c14.24-6.6,34.11-6.51,47.27,0.19
				l4.81,2.45l3.87-3.11c2.02-1.64,4.41-3.1,7.07-4.34c15.83-7.34,38.76-6.25,51.11,2.44c12.36,8.69,9.54,21.74-6.29,29.08
				c-2.64,1.22-5.64,2.26-8.89,3.06l-6.11,1.53l3.25,3.19c8.79,8.6,4.82,20.02-9.27,26.56C226.8,225.7,203.88,224.62,191.52,215.93z
				"/>
		</g>
	</g>
	<g>
		<path class="st2" d="M275.74,70.25c-1.47-2.71-3.43-12.65-6.73-14.97c-14.33-10.08-40.89-10.58-59.27-2.05
			c-3.21,1.49-5.94,3.25-8.21,5.09c-14.93-7.6-38.17-8.34-54.8-0.63c-7.9,3.67-13.06,9.84-15.23,16.48l-0.83-0.8l-0.46,9.67
			c-0.01,0.13-0.02,0.27-0.02,0.4l-0.02,0.53l0.03-0.01c-0.11,6.59,2.71,12.98,8.77,17.24c8.36,5.88,20.82,8.7,33.42,8.4l-0.27,5.57
			l0,0c-0.45,5.5,2.41,11.03,8.86,15.57c14.34,10.08,40.85,11.35,59.21,2.84c10.48-4.86,16.01-11.83,16.2-18.81l0.58-11.8
			l-2.72-1.05l-0.35,1.38c-0.77-1.16-1.68-2.3-2.79-3.39l2.8,0.5l-0.77,1.74c2.82-0.8,5.56-1.73,8.09-2.9
			c9.92-4.6,15.39-11.11,16.11-17.71l0.02,0.03l0.02-0.32c0.03-0.34,0.72-13.73,0.72-13.73L275.74,70.25z M258.11,87.38
			c-1.89,0.88-3.97,0.78-6.18,1.45l-3.17,2.09l-5.5-1.97l-0.61,12.37l3.25,3.19c8.79,8.6,5.27,10.95-8.83,17.49
			c-15.8,7.33-38.73,6.24-51.09-2.45c-7.12-5.01-9.9-2.77-6.71-9.18l2.2-4.39l0.62-12.37l-3.84,2.72l-1.26,3.64l-0.16,3.32
			l-2.76-7.89c-11.63,0.47-22.86-2.24-29.99-7.25c-12.36-8.69-10.06-10.8,5.75-18.13c14.23-6.6,34.11-6.51,47.27,0.19l4.81,2.45
			l3.87-3.1c2.02-1.64,4.4-3.1,7.08-4.34c15.82-7.34,38.75-6.25,51.11,2.44C276.3,76.34,273.94,80.04,258.11,87.38z"/>
		<g>
			<g>
				<path class="st3" d="M251.54,90.41c3.62-0.89,7.1-2.06,10.29-3.55c18.38-8.52,21.64-23.61,7.29-33.7
					c-14.33-10.08-40.85-11.35-59.23-2.83c-3.22,1.49-5.94,3.19-8.21,5.03c-14.93-7.6-38.18-7.94-54.81-0.23
					c-18.36,8.51-21.62,23.6-7.29,33.68c8.65,6.09,21.7,8.93,34.74,8.39c-3.59,7.19-1.39,15.07,7.26,21.15
					c14.34,10.08,40.85,11.35,59.21,2.84C257.49,113.46,261.66,100.32,251.54,90.41z M186.14,116.25
					c-7.12-5.01-9.46-11.84-6.27-18.25l2.2-4.39l-7.95,0.34c-11.63,0.47-22.86-2.24-29.99-7.25c-12.36-8.69-9.52-21.73,6.28-29.06
					c14.23-6.6,34.11-6.51,47.28,0.19l4.8,2.45l3.87-3.1c2.02-1.64,4.4-3.1,7.07-4.34c15.83-7.34,38.75-6.25,51.11,2.44
					c12.35,8.69,9.53,21.74-6.3,29.09c-2.64,1.23-5.64,2.26-8.89,3.06l-6.11,1.53l3.25,3.19c8.79,8.6,4.82,20.02-9.28,26.56
					C221.43,126.03,198.5,124.94,186.14,116.25z"/>
			</g>
		</g>
	</g>
	<g>
		<path class="st4" d="M145.58,131.99c-1.47-2.71-3.43-12.65-6.73-14.97c-14.33-10.08-40.89-10.58-59.27-2.05
			c-3.22,1.49-5.95,3.24-8.21,5.08c-14.94-7.6-38.17-8.33-54.8-0.62c-7.9,3.66-13.06,9.84-15.23,16.48l-0.83-0.8l-0.46,9.67
			c-0.01,0.13-0.01,0.27-0.02,0.4L0,145.72l0.04-0.01c-0.1,6.59,2.72,12.98,8.77,17.24c8.36,5.88,20.82,8.7,33.42,8.4l-0.27,5.57
			l0.01,0c-0.45,5.5,2.4,11.04,8.85,15.58c14.34,10.08,40.85,11.35,59.21,2.84c10.47-4.86,16.01-11.83,16.19-18.81l0.58-11.8
			l-2.72-1.05l-0.35,1.37c-0.77-1.16-1.68-2.3-2.79-3.39l2.8,0.5l-0.77,1.74c2.81-0.8,5.56-1.73,8.09-2.9
			c9.91-4.6,15.39-11.11,16.11-17.71l0.02,0.03l0.02-0.32c0.03-0.34,0.73-13.73,0.73-13.73L145.58,131.99z M127.95,149.12
			c-1.89,0.88-3.97,0.78-6.18,1.45l-3.17,2.09l-5.5-1.97l-0.61,12.37l3.25,3.19c8.79,8.6,5.27,10.95-8.83,17.49
			c-15.8,7.33-38.73,6.24-51.09-2.45c-7.12-5.01-9.91-2.77-6.72-9.18l2.2-4.39l0.61-12.38l-3.83,2.72l-1.26,3.64l-0.16,3.32
			l-2.76-7.89c-11.63,0.47-22.87-2.24-29.99-7.25c-12.35-8.69-10.06-10.8,5.75-18.13c14.23-6.6,34.11-6.51,47.27,0.19l4.8,2.45
			l3.87-3.11c2.02-1.64,4.41-3.1,7.07-4.34c15.83-7.34,38.75-6.25,51.11,2.44C146.14,138.08,143.78,141.78,127.95,149.12z"/>
		<g>
			<g>
				<path class="st5" d="M121.37,152.15c3.62-0.89,7.1-2.06,10.29-3.54c18.38-8.52,21.64-23.61,7.29-33.7
					c-14.34-10.08-40.85-11.35-59.23-2.83c-3.22,1.49-5.94,3.19-8.21,5.03c-14.94-7.6-38.19-7.93-54.81-0.23
					c-18.35,8.52-21.62,23.6-7.29,33.68c8.65,6.09,21.7,8.93,34.74,8.39c-3.59,7.19-1.39,15.07,7.26,21.15
					c14.34,10.08,40.85,11.35,59.21,2.84C127.32,175.2,131.5,162.07,121.37,152.15z M55.98,177.99c-7.12-5.01-9.46-11.85-6.27-18.25
					l2.2-4.39l-7.95,0.34c-11.63,0.47-22.86-2.24-29.98-7.25c-12.36-8.69-9.51-21.73,6.29-29.06c14.23-6.6,34.11-6.51,47.27,0.19
					l4.81,2.45l3.87-3.1c2.02-1.64,4.4-3.1,7.07-4.34c15.83-7.34,38.75-6.25,51.11,2.44c12.36,8.69,9.53,21.74-6.29,29.08
					c-2.64,1.23-5.64,2.26-8.89,3.06l-6.11,1.53l3.25,3.19c8.78,8.6,4.82,20.02-9.28,26.56C91.27,187.77,68.33,186.68,55.98,177.99z
					"/>
			</g>
		</g>
	</g>
</g>
</svg>
