<?xml version="1.0" encoding="utf-8"?>
<!-- Generator: Adobe Illustrator 25.2.0, SVG Export Plug-In . SVG Version: 6.00 Build 0)  -->
<svg version="1.1" id="Lager_1" xmlns="http://www.w3.org/2000/svg" xmlns:xlink="http://www.w3.org/1999/xlink" x="0px" y="0px"
	 viewBox="0 0 283.46 283.46" style="enable-background:new 0 0 283.46 283.46;" xml:space="preserve">
<style type="text/css">
	.st0{fill:#27123F;}
	.st1{fill:#2A1545;}
	.st2{fill:#4A165F;}
</style>
<path class="st0" d="M111.34,155.25c-20.57-15.44-59.34-18.59-86.67-6.94c-16.5,7-25.06,17.84-24.65,28.68c0,0.35,0,0.64,0.06,0.99
	c0.57,6.75,4.6,13.52,12.35,19.35c20.52,15.44,59.28,18.54,86.62,6.94c15.21-6.47,23.66-16.15,24.59-26.11
	c0.06-0.47,0.06-0.87,0.06-1.34C123.93,169.35,119.9,161.72,111.34,155.25z M82.6,191.91c-15.21,6.47-36.9,4.72-48.32-3.9
	c-4.31-3.21-6.58-6.99-6.88-10.79c-0.52-6.23,4.2-12.53,13.7-16.55c15.26-6.46,36.89-4.72,48.37,3.9c5.07,3.79,7.29,8.34,6.82,12.77
	C95.83,182.88,91.11,188.3,82.6,191.91z"/>
<path class="st1" d="M119.84,164.18c-2.04-3.14-4.84-6.12-8.51-8.92c-20.57-15.45-59.34-18.59-86.67-6.94
	c-9.97,4.2-16.9,9.85-20.87,16.03H0.01l0.11,12.18c0,0.53-0.11,1-0.06,1.46c0.57,6.76,4.6,13.52,12.35,19.3
	c20.52,15.44,59.28,18.59,86.62,6.99c15.21-6.48,23.66-16.15,24.59-26.11c0.06-0.58,0.06-1.17,0.06-1.75h0.06v-12.24H119.84z
	 M41.1,148.04c15.26-6.47,36.89-4.72,48.37,3.9c5.07,3.79,7.29,8.34,6.82,12.77c-0.47,5.54-5.19,10.96-13.69,14.57
	c-15.21,6.46-36.9,4.72-48.32-3.9c-4.31-3.21-6.58-7-6.88-10.79C26.88,158.36,31.61,152.06,41.1,148.04z"/>
<path class="st1" d="M111.34,142.61c-20.57-15.44-59.34-18.59-86.67-6.94c-16.5,6.99-25.06,17.84-24.65,28.67
	c0,0.35,0,0.65,0.06,0.99c0.57,6.76,4.6,13.52,12.35,19.35c20.52,15.44,59.28,18.53,86.62,6.94c15.21-6.47,23.66-16.15,24.59-26.11
	c0.06-0.47,0.06-0.87,0.06-1.34C123.93,156.72,119.9,149.08,111.34,142.61z M82.6,179.28c-15.21,6.46-36.9,4.72-48.32-3.9
	c-4.31-3.21-6.58-7-6.88-10.79c-0.52-6.23,4.2-12.53,13.7-16.55c15.26-6.47,36.89-4.72,48.37,3.9c5.07,3.79,7.29,8.34,6.82,12.77
	C95.83,170.25,91.11,175.67,82.6,179.28z"/>
<path class="st2" d="M109.59,144.94c-11.19-8.39-29.03-13.4-47.8-13.4c-13.11,0-25.52,2.39-35.96,6.82
	c-14.86,6.29-23.31,15.97-22.9,25.99c0,0.23,0,0.53,0.06,0.76c0.52,6.18,4.38,12.12,11.19,17.25c11.13,8.39,28.97,13.41,47.74,13.41
	c13.12,0,25.53-2.39,35.96-6.82c13.7-5.77,21.97-14.46,22.85-23.72c0.06-0.35,0.06-0.7,0.06-1.05
	C121.01,157.42,117.05,150.6,109.59,144.94z M82.6,179.28c-15.21,6.46-36.9,4.72-48.32-3.9c-4.31-3.21-6.58-7-6.88-10.79
	c-0.52-6.23,4.2-12.53,13.7-16.55c15.26-6.47,36.89-4.72,48.37,3.9c5.07,3.79,7.29,8.34,6.82,12.77
	C95.83,170.25,91.11,175.67,82.6,179.28z"/>
<path class="st0" d="M271.05,172.64c-20.58-15.45-59.34-18.6-86.67-6.94c-16.5,6.99-25.06,17.83-24.66,28.68
	c0,0.35,0,0.64,0.06,0.99c0.57,6.76,4.6,13.52,12.35,19.35c20.52,15.45,59.27,18.54,86.61,6.94c15.22-6.47,23.66-16.15,24.59-26.11
	c0.06-0.47,0.06-0.87,0.06-1.33C283.64,186.75,279.61,179.11,271.05,172.64z M242.31,209.31c-15.21,6.47-36.9,4.72-48.32-3.91
	c-4.31-3.21-6.59-6.99-6.88-10.78c-0.52-6.24,4.2-12.53,13.7-16.56c15.27-6.46,36.9-4.72,48.38,3.91c5.07,3.79,7.29,8.34,6.82,12.77
	C255.54,200.27,250.82,205.69,242.31,209.31z"/>
<path class="st1" d="M279.56,181.57c-2.04-3.15-4.84-6.13-8.51-8.92c-20.58-15.44-59.34-18.59-86.67-6.94
	c-9.97,4.21-16.91,9.85-20.87,16.03h-3.79l0.12,12.18c0,0.53-0.12,0.99-0.06,1.46c0.57,6.76,4.6,13.53,12.35,19.3
	c20.52,15.44,59.27,18.59,86.61,6.99c15.22-6.47,23.66-16.15,24.59-26.11c0.06-0.58,0.06-1.16,0.06-1.75h0.06v-12.24H279.56z
	 M200.81,165.42c15.27-6.47,36.9-4.72,48.38,3.91c5.07,3.79,7.29,8.33,6.82,12.77c-0.47,5.53-5.19,10.95-13.7,14.57
	c-15.21,6.46-36.9,4.72-48.32-3.91c-4.31-3.21-6.59-6.99-6.88-10.78C186.6,175.74,191.31,169.45,200.81,165.42z"/>
<path class="st1" d="M271.05,160.01c-20.58-15.45-59.34-18.6-86.67-6.94c-16.5,6.99-25.06,17.83-24.66,28.67
	c0,0.35,0,0.64,0.06,0.99c0.57,6.77,4.6,13.53,12.35,19.35c20.52,15.45,59.27,18.54,86.61,6.94c15.22-6.47,23.66-16.15,24.59-26.11
	c0.06-0.47,0.06-0.87,0.06-1.33C283.64,174.11,279.61,166.47,271.05,160.01z M242.31,196.67c-15.21,6.46-36.9,4.72-48.32-3.91
	c-4.31-3.21-6.59-6.99-6.88-10.78c-0.52-6.24,4.2-12.53,13.7-16.56c15.27-6.47,36.9-4.72,48.38,3.91c5.07,3.79,7.29,8.33,6.82,12.77
	C255.54,187.63,250.82,193.05,242.31,196.67z"/>
<path class="st2" d="M269.3,162.33c-11.19-8.39-29.02-13.41-47.79-13.41c-13.11,0-25.53,2.39-35.96,6.82
	c-14.87,6.3-23.31,15.98-22.9,26c0,0.23,0,0.52,0.06,0.75c0.52,6.19,4.38,12.12,11.19,17.25c11.13,8.4,28.97,13.41,47.73,13.41
	c13.12,0,25.53-2.39,35.96-6.82c13.71-5.77,21.98-14.46,22.85-23.73c0.06-0.35,0.06-0.7,0.06-1.04
	C280.73,174.81,276.76,167.99,269.3,162.33z M242.31,196.67c-15.21,6.46-36.9,4.72-48.32-3.91c-4.31-3.21-6.59-6.99-6.88-10.78
	c-0.52-6.24,4.2-12.53,13.7-16.56c15.27-6.47,36.9-4.72,48.38,3.91c5.07,3.79,7.29,8.33,6.82,12.77
	C255.54,187.63,250.82,193.05,242.31,196.67z"/>
<path class="st0" d="M212.58,81.51c-20.57-15.45-59.34-18.6-86.67-6.94c-16.5,6.99-25.06,17.83-24.65,28.68c0,0.35,0,0.64,0.06,0.99
	c0.58,6.76,4.6,13.52,12.36,19.35c20.51,15.45,59.27,18.54,86.61,6.95c15.21-6.48,23.66-16.15,24.59-26.12
	c0.06-0.46,0.06-0.87,0.06-1.33C225.17,95.61,221.15,87.98,212.58,81.51z M183.85,118.17c-15.22,6.47-36.9,4.72-48.32-3.91
	c-4.31-3.2-6.59-7-6.88-10.78c-0.52-6.24,4.2-12.53,13.7-16.55c15.27-6.47,36.9-4.72,48.37,3.9c5.07,3.79,7.29,8.34,6.82,12.77
	C197.07,109.13,192.36,114.55,183.85,118.17z"/>
<path class="st1" d="M221.09,90.44c-2.04-3.15-4.83-6.13-8.51-8.92c-20.57-15.45-59.34-18.6-86.67-6.94
	c-9.97,4.21-16.9,9.85-20.87,16.03h-3.78l0.11,12.18c0,0.53-0.11,0.99-0.06,1.46c0.58,6.76,4.6,13.53,12.36,19.3
	c20.51,15.45,59.27,18.59,86.61,6.99c15.21-6.47,23.66-16.15,24.59-26.11c0.06-0.58,0.06-1.16,0.06-1.75H225V90.44H221.09z
	 M142.35,74.29c15.27-6.48,36.9-4.72,48.37,3.9c5.07,3.79,7.29,8.34,6.82,12.77c-0.47,5.53-5.19,10.95-13.69,14.57
	c-15.22,6.46-36.9,4.72-48.32-3.91c-4.31-3.21-6.59-7-6.88-10.78C128.13,84.61,132.85,78.32,142.35,74.29z"/>
<path class="st1" d="M212.58,68.87c-20.57-15.45-59.34-18.6-86.67-6.94c-16.5,6.99-25.06,17.83-24.65,28.67c0,0.35,0,0.64,0.06,0.99
	c0.58,6.77,4.6,13.53,12.36,19.35c20.51,15.45,59.27,18.54,86.61,6.94c15.21-6.48,23.66-16.15,24.59-26.12
	c0.06-0.46,0.06-0.87,0.06-1.33C225.17,82.98,221.15,75.34,212.58,68.87z M183.85,105.54c-15.22,6.46-36.9,4.72-48.32-3.91
	c-4.31-3.21-6.59-7-6.88-10.78c-0.52-6.24,4.2-12.53,13.7-16.55c15.27-6.48,36.9-4.72,48.37,3.9c5.07,3.79,7.29,8.34,6.82,12.77
	C197.07,96.5,192.36,101.92,183.85,105.54z"/>
<path class="st2" d="M210.84,71.2c-11.19-8.39-29.03-13.41-47.8-13.41c-13.11,0-25.52,2.39-35.96,6.82
	c-14.86,6.29-23.31,15.97-22.9,25.99c0,0.23,0,0.52,0.06,0.76c0.52,6.18,4.37,12.12,11.19,17.25c11.13,8.4,28.97,13.41,47.74,13.41
	c13.12,0,25.53-2.39,35.96-6.82c13.7-5.77,21.97-14.46,22.85-23.73c0.06-0.35,0.06-0.69,0.06-1.04
	C222.26,83.68,218.3,76.85,210.84,71.2z M183.85,105.54c-15.22,6.46-36.9,4.72-48.32-3.91c-4.31-3.21-6.59-7-6.88-10.78
	c-0.52-6.24,4.2-12.53,13.7-16.55c15.27-6.48,36.9-4.72,48.37,3.9c5.07,3.79,7.29,8.34,6.82,12.77
	C197.07,96.5,192.36,101.92,183.85,105.54z"/>
</svg>
