<?xml version="1.0" encoding="utf-8"?>
<!-- Generator: Adobe Illustrator 25.2.0, SVG Export Plug-In . SVG Version: 6.00 Build 0)  -->
<svg version="1.1" id="Lager_1" xmlns="http://www.w3.org/2000/svg" xmlns:xlink="http://www.w3.org/1999/xlink" x="0px" y="0px"
	 viewBox="0 0 283.46 283.46" style="enable-background:new 0 0 283.46 283.46;" xml:space="preserve">
<style type="text/css">
	.st0{fill:#B01D17;}
	.st1{fill:#CC2317;}
	.st2{fill:#EB5C45;}
	.st3{fill:#E32D14;}
	.st4{fill:#ED6E5D;}
	.st5{fill:#EF7F70;}
</style>
<g>
	<g>
		<g>
			<g>
				<path class="st0" d="M190.27,110.33c-0.07-0.61-0.51-6.36-1.21-6.26c-0.1,0.02-0.18,0.11-0.23,0.2c-0.49,0.8-0.77,1.72-0.8,2.66
					c-0.01,0.47-0.14,1.12-0.61,1.08c-0.31-0.03-0.49-0.38-0.81-0.45c-0.2-0.26-0.39-0.52-0.6-0.78
					c-7.95-9.47-25.34-13.2-38.19-19.7c-2.08-1.06-4.05-2.18-5.84-3.42c-0.82-0.57-1.57-1.15-2.31-1.76
					c-2.31-1.92-4.35-3.99-6.76-5.88c-7.02-5.42-13.98-11.22-24.89-14.27c-22.41-6.27-49.86,1.26-66.46,13.27
					c-9.87,7.14-18,15.24-24.2,23.45c-1.03,1.36-1.98,2.79-2.84,4.28c-0.38,0.66-0.96,2.96-2.09,2.46
					c-0.24-0.11-0.42-0.31-0.67-0.37c-1.77-0.49-1.91,3.18-2.01,4.16c-0.11,1.13-0.39,2.16-0.41,3.33
					c-0.02,1.28,0.04,2.56,0.05,3.84c0.03,2.15,0.31,4.29,0.71,6.4c0.54,2.86,1.02,5.73,1.78,8.54c1.46,5.44,3.81,10.74,7.7,14.9
					c7.32,7.85,17.87,12.36,28.03,15.17c15.85,4.39,36.1,5.14,54.66,2.76c7.79-1,15.38-2.74,22.75-4.79
					c3.08-0.86,5.8-1.99,8.78-2.88c10.4-3.07,19.33-6.87,28.71-11.01c7.74-3.41,15.32-8.04,20.97-14.43
					c2.22-2.52,4.16-5.37,5.31-8.54c0.79-2.17,1.11-4.48,1.29-6.78C190.21,113.79,190.45,112.02,190.27,110.33z"/>
				<path class="st1" d="M162.5,135.93c-8.52,3.76-16.71,7.25-25.95,10.14c-0.9,0.3-1.84,0.6-2.78,0.86
					c-2.97,0.86-5.71,2.03-8.79,2.89c-7.36,2.03-14.95,3.76-22.75,4.77h-0.11c-18.51,2.4-38.71,1.65-54.52-2.74
					c-9.12-2.52-17.05-6.16-23.05-10.74c-4.81-3.61-8.37-7.81-10.32-12.51c-5.26-12.69-6.99-26.06,3.11-39.46
					c6.2-8.18,14.35-16.3,24.22-23.47c16.6-11.98,44.04-19.52,66.46-13.25c10.89,3.08,17.87,8.86,24.89,14.27
					c2.4,1.88,4.43,3.98,6.76,5.9c0.71,0.6,1.5,1.16,2.29,1.76c1.8,1.24,3.75,2.33,5.86,3.42c3.83,1.95,8.04,3.64,12.28,5.3
					c10.06,3.9,20.31,7.74,25.91,14.38C196.78,110.28,183.49,126.65,162.5,135.93z"/>
				<path class="st2" d="M39.17,139.07c-6.47-3.74-10.99-8.36-13.08-13.38c-5.58-13.44-4.79-24.2,2.5-33.86
					c5.64-7.47,12.94-14.54,21.09-20.44c12.51-9.05,34.7-16.34,53.84-10.98c3.33,0.93,6.48,2.27,9.64,4.1
					c3.67,2.12,6.93,4.65,10.08,7.1l1.33,1.03c1.17,0.9,2.23,1.86,3.35,2.88c1.52,1.37,3.08,2.79,4.98,4.11
					c0.9,0.62,1.88,1.24,2.93,1.84c4.66,2.69,10.1,4.82,15.36,6.88c5.18,2.02,10.07,3.94,14.19,6.31c2.95,1.71,5.18,3.47,6.8,5.41
					c9.28,11.05-3.35,23.86-19.02,31.09c-3.06,1.41-6.37,2.72-9.86,3.9c-2.9,0.98-5.8,2.01-8.71,3.04
					c-24.94,8.83-56.03,13.83-80.5,7.06C48.47,143.58,43.45,141.54,39.17,139.07z"/>
				<path class="st1" d="M163.59,103.19c-2.02-2.61-4.72-5.1-8.54-6.87c-3.04-1.41-8.07-2.97-12.01-3.46
					c-2.4-0.3-4.97-0.3-7.52-0.23c-6.33,0.18-10.86,1.31-16.26,3.53c-3.06,1.26-6.55,2.63-7.73,4.71c-1.3,2.29-2.33,4.23-4.61,6.39
					c-5.61,5.33-12.71,10.21-20.86,14.38c-6.15,3.15-18.86,6.46-18.5,11.89c0.13,1.85,1.91,2.81,4.09,3.85
					c2.24,1.07,3.77,2.26,6.63,2.93c4.59,1.09,11.69,1.23,16.9,1.16c9.64-0.13,19.34-3.03,28.3-5.5c9.65-2.66,19.23-5.58,27.77-9.46
					c6.65-3.02,12.87-6.87,14.98-11.42C168.15,110.93,166.38,106.78,163.59,103.19z"/>
				<path class="st3" d="M92.98,137.41c-6.08,0-10.85-0.37-13.77-1.06c-1.5-0.35-2.51-0.9-3.8-1.6c-0.65-0.35-1.3-0.7-2.02-1.05
					c-0.28-0.13-0.93-0.44-1.43-0.73c1.61-1.67,7.2-3.96,10.04-5.12c2.16-0.89,4.21-1.72,5.91-2.6c8.58-4.39,15.92-9.46,21.81-15.05
					c2.57-2.44,3.84-4.7,5.09-6.88l0.25-0.45c0.56-0.83,3.69-2.12,5.38-2.81l0.37-0.15c5.33-2.2,9.35-3.07,14.82-3.23
					c0.79-0.02,1.58-0.03,2.37-0.03c1.77,0,3.25,0.08,4.53,0.24c3.64,0.46,8.28,1.95,10.8,3.12c2.78,1.29,5.08,3.15,7.04,5.67
					c3.21,4.15,2.77,6.38,2.16,7.7c-0.78,1.67-3.5,5.12-12.98,9.43c-8.64,3.93-18.58,6.88-27.17,9.24l-2.03,0.56
					c-8.29,2.3-16.86,4.68-25.24,4.79C94.43,137.4,93.72,137.41,92.98,137.41L92.98,137.41z"/>
				<path class="st1" d="M97.76,65.18c4.51,1.16,8.83,2.72,11.9,4.93c2.44,1.75,5.14,4.66,6,6.93c0.53,1.39,0.53,2.87,0.4,4.35
					c-0.31,3.65-2.26,6.27-6.12,9.39c-2.19,1.77-4.56,3.78-8.16,4.46c-3.96,0.75-7.33,1.34-11.07,2.66
					c-9.22,3.24-17.68,7.35-24.91,12.05c-5.46,3.55-11.2,10.89-20.59,10.68c-3.2-0.07-4.87-1.11-6.67-2.36
					c-1.84-1.29-3.91-2.18-5.08-3.82c-1.89-2.65-2.13-6.75-2.01-9.76c0.22-5.57,5.24-11.17,9.52-16.34
					c4.6-5.57,9.67-11.1,16.39-16.03c5.24-3.84,11.9-7.43,19.77-8.65C84.35,62.54,91.52,63.57,97.76,65.18z"/>
				<path class="st3" d="M45.31,116.56c-2.07-0.05-2.99-0.62-4.42-1.62c-0.61-0.43-1.23-0.81-1.85-1.19
					c-0.93-0.58-1.91-1.17-2.26-1.67c-0.93-1.3-1.39-3.94-1.26-7.24c0.15-3.77,4.12-8.53,7.62-12.74l0.98-1.17
					c4.02-4.85,9.01-10.47,15.66-15.35c5.87-4.31,11.93-6.97,17.99-7.91c1.8-0.28,3.7-0.42,5.64-0.42c4.12,0,8.48,0.61,13.33,1.86
					c4.73,1.22,8.28,2.66,10.55,4.3c2.18,1.56,4.12,3.88,4.57,5.07c0.21,0.56,0.26,1.33,0.16,2.57c-0.16,1.92-0.97,3.61-4.62,6.56
					l-0.26,0.21c-1.96,1.58-3.65,2.95-6.1,3.42l-0.79,0.15c-3.65,0.69-7.09,1.34-10.88,2.67c-9.52,3.34-18.2,7.54-25.78,12.47
					c-1.56,1.02-3.04,2.22-4.6,3.49c-3.94,3.21-8.02,6.54-13.38,6.54L45.31,116.56z"/>
				<path class="st4" d="M124.78,124.83c-3.94,1.69-8.19,3.2-12.75,3.93c-4.54,0.73-9.47,0.61-12.98-0.8
					c-3.98-1.57-5.68-4.1-10.66-5.05c-4.05-0.77-7.78-0.24-11.2,1.61c-3.56,1.93-6.82,3.27-10.64,5.01
					c-3.38,1.52-6.59,3.19-10.12,4.58c-2.9,1.14-7.02,2.73-10.41,2.84c-1.63,0.07-3.29-0.35-3.73-1.22
					c-0.23-0.42-0.14-0.88-0.01-1.34c1.16-3.84,5.74-7.27,10.03-10.55c4.27-3.26,8.63-6.85,9.12-10.7c0.11-0.9,0.15-2.14-0.66-2.89
					c-0.65-0.66-2-0.9-3.06-1.37c-1.95-0.89-3.58-1.98-4.63-3.31c-2.15-2.74-1.49-6.05,0.42-9.13c1.57-2.5,4.04-4.83,6.47-7.15
					c5.22-4.92,11.62-9.23,19.79-12.66c2.01-0.83,4.15-1.66,6.47-1.92c5.51-0.64,9.94,2.13,10.6,5.2c0.46,2.17-0.42,4.43-1.56,6.63
					c-1.29,2.49-3.28,4.8-3.05,7.39c0.05,0.66,0.25,1.36,0.92,1.84c0.85,0.61,2.31,0.82,3.75,0.76c6.5-0.27,11.72-3.53,16.41-6.11
					c5.58-3.06,10.74-6.38,15.39-9.91c3.24-2.45,8.68-6.57,6.84-9.51c1.74,2.79,5.4,5.01,9.47,6.66c2.36,0.96,4.72,1.91,7.07,2.87
					c-1.43,0.39-2.63,0.37-4.06,0.58c-2.11,0.32-4.3,1.01-6.28,1.61c-4.18,1.26-8.15,2.8-11.84,4.54
					c-7.32,3.46-13.53,7.73-18.38,12.36c-2.39,2.29-5.38,6.13-0.33,7.37c1.56,0.38,3.51,0.13,5.27-0.2
					c5.93-1.11,11.66-3.01,17.7-3.51c6.07-0.51,12.83,1.05,13.34,4.44c0.32,2.13-1.9,4.31-4.24,6.19c-0.55,0.46-1.11,0.88-1.69,1.32
					C136.79,118.87,131.11,122.12,124.78,124.83z"/>
				<path class="st5" d="M66.18,120.35c-1.29-1.49,1.08-4.55,1.31-6.42c0.52-4.21-1.04-6.7-2.48-8.07c-1.42-1.38-3.1-1.95-4.21-2.33
					c-1.27-0.44-2.23-1.39-2.19-2.84c0.07-2.55,3.88-5.34,5.54-6.92c5.08-4.79,10.95-8.54,17.99-11.51
					c1.64-0.68,3.26-1.31,4.78-1.48c0.33-0.04,0.63-0.06,0.92-0.06c1.53,0,2.52,0.47,2.98,0.78c-0.09,0.35-0.33,1.04-0.95,2.25
					c-0.27,0.52-0.58,1.03-0.88,1.53c-1.34,2.23-3.17,5.28-2.83,9.19c0.27,3.49,2.27,5.43,3.45,6.27c1.63,1.17,3.41,1.48,5.32,1.87
					c1.66,0.34,3.72,0.05,5.23,0.78c2.38,1.15,2.22,3.47,3.43,5.42c1.37,2.21,3.71,3.52,6.19,4.13c1.01,0.25,2.07,0.37,3.25,0.37
					c1.71,0,3.35-0.26,4.58-0.49c2.33-0.44,4.56-0.97,6.73-1.49c2.06-0.49,4.12-0.99,6.2-1.37c1.6-0.29,3.7-1.02,5.07,0.25
					c2.01,1.86-3.16,3.88-4.4,4.6c-2.84,1.65-5.8,3.11-8.82,4.41c-4.4,1.88-7.89,2.97-11.3,3.51c-1.51,0.24-3,0.36-4.43,0.36
					c-2.14,0-4.03-0.28-5.31-0.8c-1.08-0.43-1.93-0.97-3.02-1.65c-2.07-1.31-4.63-2.94-8.78-3.73c-1.58-0.3-3.14-0.45-4.66-0.45
					c-3.74,0-7.3,0.91-10.59,2.69c-2.05,1.11-4.49,2.52-6.93,1.86C66.81,120.86,66.43,120.64,66.18,120.35z"/>
				<g>
					<g>
						<path class="st2" d="M123.13,101.17c1.32-0.85,2.44-2.05,1.71-2.97c-0.52-0.66-1.96-0.96-3.28-0.73
							c-1.31,0.23-2.42,0.93-2.8,1.69c-0.25,0.51-0.2,1.03-0.15,1.54c0.06,0.57,0.12,1.15,0.18,1.72c0.05,0.46-0.34,1.32,0.26,1.64
							c0.42-0.12,0.46-0.35,0.64-0.56c0.27-0.31,0.65-0.6,1.04-0.87C121.49,102.12,122.35,101.67,123.13,101.17z"/>
						<path class="st5" d="M123.82,99.66c0.12-0.09,0.24-0.18,0.36-0.27c0.57-0.44,0.17-1.07-0.64-1.18
							c-0.59-0.08-1.35,0.16-1.69,0.49c-0.33,0.32-0.23,0.77-0.28,1.11c-0.06,0.47,0.09,0.94,0.21,1.38
							c-0.03-0.1,0.98-0.72,1.11-0.82C123.19,100.13,123.51,99.9,123.82,99.66z"/>
					</g>
					<g>
						<path class="st2" d="M136.01,99.29c1.32-0.85,2.43-2.05,1.71-2.97c-0.52-0.66-1.96-0.95-3.28-0.73
							c-1.32,0.23-2.43,0.93-2.8,1.69c-0.25,0.51-0.2,1.03-0.15,1.54c0.06,0.57,0.12,1.15,0.18,1.72c0.05,0.46-0.34,1.32,0.26,1.64
							c0.42-0.12,0.46-0.35,0.65-0.56c0.26-0.31,0.65-0.6,1.04-0.87C134.37,100.24,135.23,99.78,136.01,99.29z"/>
						<g>
							<path class="st5" d="M136.67,98.02c0.12-0.09,0.24-0.18,0.36-0.27c0.57-0.44,0.16-1.07-0.65-1.18
								c-0.59-0.08-1.35,0.16-1.69,0.49c-0.33,0.32-0.23,0.77-0.28,1.11c-0.06,0.46,0.09,0.94,0.21,1.38
								c-0.03-0.1,0.98-0.72,1.11-0.82C136.04,98.49,136.36,98.26,136.67,98.02z"/>
						</g>
					</g>
					<g>
						<path class="st2" d="M148.03,100.28c1.58-0.68,3.1-1.75,2.78-2.76c-0.23-0.73-1.47-1.22-2.81-1.16
							c-1.33,0.06-2.65,0.62-3.3,1.34c-0.44,0.48-0.59,1.01-0.74,1.53c-0.17,0.58-0.34,1.17-0.51,1.75
							c-0.13,0.47-0.84,1.29-0.4,1.69c0.45-0.06,0.57-0.29,0.83-0.48c0.37-0.28,0.85-0.52,1.32-0.74
							C146.11,101.03,147.1,100.68,148.03,100.28z"/>
						<path class="st5" d="M149.64,98.77c0.14-0.08,0.29-0.16,0.43-0.24c0.68-0.39,0.5-1.07-0.25-1.26
							c-0.54-0.14-1.34,0.02-1.77,0.31c-0.42,0.29-0.46,0.75-0.61,1.09c-0.21,0.46-0.21,0.96-0.23,1.42c0-0.11,1.16-0.62,1.31-0.71
							C148.89,99.18,149.26,98.98,149.64,98.77z"/>
					</g>
					<g>
						<path class="st2" d="M155.99,106.12c1.85-0.08,4.04-0.52,4.83-1.54c0.57-0.74,0.16-1.59-0.87-1.99
							c-1.03-0.4-2.57-0.34-3.77,0.09c-0.81,0.28-1.46,0.71-2.09,1.12c-0.72,0.47-1.44,0.94-2.15,1.41
							c-0.58,0.38-1.93,0.88-2.01,1.39c0.4,0.09,0.71-0.06,1.1-0.15c0.55-0.12,1.15-0.18,1.71-0.22
							C153.83,106.14,154.91,106.17,155.99,106.12z"/>
						<path class="st5" d="M158.52,105.36c0.19-0.02,0.37-0.03,0.55-0.05c0.89-0.07,1.53-0.73,1.25-1.18
							c-0.21-0.32-0.93-0.48-1.55-0.39c-0.61,0.09-1.15,0.47-1.64,0.71c-0.66,0.32-1.22,0.74-1.75,1.13
							c0.12-0.09,1.49-0.1,1.69-0.12C157.56,105.43,158.04,105.4,158.52,105.36z"/>
					</g>
					<g>
						<path class="st2" d="M153.72,113.76c1.38,0.59,3.39,0.99,5.05,0.38c1.19-0.44,1.82-1.34,1.53-2.06
							c-0.3-0.72-1.43-1.22-2.73-1.28c-0.88-0.04-1.79,0.1-2.67,0.23c-1.01,0.16-2.01,0.31-3.02,0.47
							c-0.81,0.12-2.29,0.08-2.89,0.49c0.18,0.22,0.57,0.2,0.93,0.26c0.52,0.09,1,0.25,1.43,0.43
							C152.19,113,152.91,113.41,153.72,113.76z"/>
						<path class="st5" d="M156.99,112.85c0.13,0.07,0.25,0.13,0.38,0.2c0.62,0.32,1.82,0.06,2.22-0.41
							c0.29-0.35,0.08-0.78-0.41-0.96c-0.47-0.18-1.28-0.11-1.86-0.13c-0.79-0.02-1.66,0.08-2.46,0.16c0.19-0.02,1,0.55,1.14,0.62
							C156.34,112.5,156.66,112.68,156.99,112.85z"/>
					</g>
					<g>
						<path class="st2" d="M146.2,120.42c0.92,0.85,2.51,1.61,4.35,1.3c1.32-0.22,2.39-1,2.51-1.77c0.13-0.77-0.62-1.48-1.76-1.77
							c-0.77-0.2-1.67-0.23-2.54-0.26c-1-0.03-1.99-0.06-2.99-0.09c-0.8-0.02-2.11-0.34-2.89-0.04c0.04,0.25,0.4,0.3,0.7,0.43
							c0.42,0.18,0.76,0.43,1.06,0.68C145.23,119.39,145.66,119.92,146.2,120.42z"/>
						<path class="st5" d="M149.47,119.84c0.08,0.09,0.15,0.18,0.23,0.27c0.38,0.43,1.61,0.41,2.23,0.01
							c0.46-0.29,0.5-0.76,0.17-1.03c-0.32-0.27-1.09-0.35-1.6-0.48c-0.7-0.17-1.54-0.23-2.31-0.3c0.17,0.02,0.59,0.73,0.68,0.83
							C149.08,119.37,149.28,119.61,149.47,119.84z"/>
					</g>
					<g>
						<path class="st2" d="M135.86,125.46c0.53,0.97,1.73,1.95,3.58,1.88c1.33-0.05,2.64-0.69,3.07-1.45c0.43-0.76,0-1.56-0.96-2.02
							c-0.64-0.3-1.48-0.45-2.29-0.59c-0.93-0.16-1.85-0.32-2.77-0.49c-0.74-0.13-1.85-0.62-2.7-0.42
							c-0.06,0.26,0.26,0.36,0.49,0.52c0.33,0.24,0.54,0.54,0.73,0.83C135.35,124.29,135.54,124.89,135.86,125.46z"/>
						<path class="st5" d="M138.94,125.36c0.06,0.1,0.12,0.19,0.17,0.29c0.29,0.46,1.49,0.51,2.18,0.15
							c0.51-0.26,0.64-0.73,0.37-1.04c-0.26-0.29-1-0.42-1.47-0.58c-0.65-0.22-1.46-0.33-2.2-0.45c0.17,0.03,0.44,0.77,0.5,0.88
							C138.65,124.86,138.79,125.11,138.94,125.36z"/>
					</g>
					<g>
						<path class="st2" d="M110.34,133.81c-0.68,1.04-0.91,2.33,0.45,2.95c0.97,0.44,2.59,0.35,3.7-0.16
							c1.12-0.51,1.7-1.37,1.52-2.11c-0.12-0.5-0.54-0.93-0.95-1.35c-0.47-0.48-0.93-0.95-1.4-1.43c-0.38-0.38-0.61-1.21-1.43-1.34
							c-0.32,0.2-0.2,0.41-0.23,0.63c-0.03,0.33-0.2,0.67-0.39,0.99C111.26,132.61,110.74,133.2,110.34,133.81z"/>
						<path class="st5" d="M112.62,134.88c-0.06,0.11-0.11,0.21-0.17,0.32c-0.26,0.51,0.56,0.97,1.43,0.88
							c0.63-0.07,1.21-0.44,1.33-0.8c0.11-0.36-0.29-0.72-0.48-1.03c-0.25-0.42-0.72-0.79-1.14-1.15c0.1,0.08-0.47,0.84-0.53,0.96
							C112.92,134.33,112.77,134.61,112.62,134.88z"/>
					</g>
					<g>
						<path class="st2" d="M124.64,129.66c-0.01,1.06,0.58,2.24,2.3,2.49c1.24,0.18,2.77-0.24,3.55-0.92
							c0.78-0.68,0.8-1.56,0.16-2.18c-0.43-0.41-1.12-0.7-1.79-0.99c-0.76-0.32-1.52-0.64-2.29-0.96c-0.61-0.26-1.37-0.94-2.25-0.88
							c-0.19,0.25,0.06,0.4,0.18,0.61c0.17,0.29,0.22,0.63,0.24,0.95C124.78,128.4,124.65,129.03,124.64,129.66z"/>
						<path class="st5" d="M127.74,130.11c-0.01,0.11-0.02,0.21-0.03,0.32c-0.05,0.51,0.98,0.82,1.81,0.62
							c0.61-0.15,1.03-0.58,1-0.94c-0.04-0.35-0.6-0.63-0.92-0.89c-0.43-0.36-1.06-0.64-1.64-0.92c0.13,0.06-0.11,0.85-0.12,0.97
							C127.81,129.56,127.77,129.83,127.74,130.11z"/>
					</g>
					<g>
						<path class="st2" d="M95.18,133.04c-1.54,0.71-3,1.8-2.61,2.81c0.28,0.72,1.56,1.18,2.89,1.09c1.33-0.09,2.62-0.67,3.23-1.4
							c0.41-0.49,0.53-1.02,0.64-1.54c0.13-0.58,0.26-1.17,0.39-1.76c0.1-0.47,0.76-1.3,0.28-1.69c-0.44,0.07-0.56,0.3-0.8,0.5
							c-0.35,0.29-0.82,0.54-1.27,0.77C97.06,132.25,96.09,132.62,95.18,133.04z"/>
						<path class="st5" d="M96.36,134.45c-0.13,0.09-0.27,0.17-0.4,0.25c-0.64,0.4-0.36,1.07,0.41,1.23
							c0.57,0.12,1.34-0.08,1.74-0.38c0.39-0.3,0.37-0.76,0.48-1.11c0.15-0.46,0.09-0.96,0.05-1.41c0.01,0.1-1.09,0.66-1.23,0.76
							C97.06,134.01,96.71,134.23,96.36,134.45z"/>
					</g>
					<g>
						<path class="st2" d="M84.99,129.01c-1.8,0.42-3.72,1.22-3.94,2.3c-0.16,0.77,0.73,1.46,1.98,1.63
							c1.25,0.17,2.74-0.17,3.7-0.78c0.64-0.41,1.05-0.91,1.45-1.4c0.45-0.55,0.9-1.11,1.35-1.67c0.36-0.45,1.42-1.15,1.22-1.62
							c-0.44-0.01-0.67,0.19-1,0.34c-0.48,0.22-1.04,0.37-1.58,0.52C87.12,128.59,86.04,128.77,84.99,129.01z"/>
						<path class="st5" d="M84.57,131.06c-0.18,0.04-0.36,0.08-0.55,0.12c-0.87,0.19-1.25,0.89-0.78,1.27
							c0.34,0.28,1.12,0.33,1.71,0.16c0.58-0.16,0.98-0.6,1.37-0.88c0.53-0.39,0.92-0.86,1.3-1.3c-0.09,0.1-1.45,0.3-1.65,0.34
							C85.51,130.86,85.04,130.96,84.57,131.06z"/>
					</g>
				</g>
				<g>
					<g>
						<path class="st2" d="M101.1,88.45c1.48-0.77,3.55-1.41,5.14-0.99c1.14,0.3,1.65,1.13,1.26,1.89c-0.4,0.76-1.61,1.4-2.93,1.62
							c-0.89,0.15-1.78,0.12-2.66,0.09c-1-0.03-1.99-0.07-2.98-0.1c-0.8-0.03-2.29,0.2-2.85-0.15c0.21-0.24,0.6-0.27,0.98-0.37
							c0.54-0.15,1.04-0.38,1.5-0.6C99.45,89.4,100.24,88.9,101.1,88.45z"/>
						<path class="st5" d="M103.71,88.05c0.16-0.07,0.31-0.14,0.47-0.21c0.76-0.33,1.86-0.1,2.05,0.37
							c0.14,0.34-0.27,0.78-0.84,0.97c-0.55,0.2-1.33,0.14-1.92,0.16c-0.81,0.04-1.63-0.05-2.4-0.12c0.17,0.02,1.25-0.56,1.42-0.64
							C102.9,88.42,103.3,88.23,103.71,88.05z"/>
					</g>
					<g>
						<path class="st2" d="M104.36,81.02c1.47-0.77,3.55-1.41,5.14-0.99c1.14,0.3,1.65,1.13,1.26,1.89c-0.4,0.76-1.61,1.4-2.93,1.62
							c-0.89,0.15-1.78,0.12-2.66,0.09c-0.99-0.03-1.99-0.07-2.98-0.11c-0.8-0.03-2.3,0.2-2.85-0.15c0.21-0.24,0.6-0.27,0.98-0.37
							c0.54-0.15,1.04-0.38,1.5-0.6C102.71,81.96,103.5,81.46,104.36,81.02z"/>
						<g>
							<path class="st5" d="M106.55,80.63c0.16-0.07,0.32-0.14,0.48-0.21c0.76-0.33,1.86-0.1,2.04,0.37
								c0.14,0.34-0.27,0.78-0.84,0.97c-0.55,0.19-1.33,0.14-1.92,0.16c-0.8,0.04-1.63-0.05-2.39-0.12
								c0.17,0.02,1.24-0.56,1.41-0.64C105.74,80.99,106.14,80.81,106.55,80.63z"/>
						</g>
					</g>
					<g>
						<path class="st2" d="M102.64,74.07c1.19-0.91,3.02-1.79,4.79-1.6c1.27,0.13,2.11,0.85,2.01,1.62
							c-0.1,0.77-1.07,1.53-2.32,1.91c-0.84,0.25-1.75,0.34-2.65,0.43c-1.01,0.1-2.03,0.19-3.04,0.29
							c-0.81,0.08-2.24,0.48-2.93,0.23c0.11-0.26,0.5-0.33,0.84-0.48c0.48-0.21,0.9-0.49,1.28-0.76
							C101.34,75.18,101.95,74.61,102.64,74.07z"/>
						<path class="st5" d="M105.25,73.15c0.14-0.08,0.28-0.17,0.42-0.25c0.66-0.4,1.84-0.28,2.18,0.14
							c0.25,0.31-0.03,0.77-0.54,1.02c-0.5,0.24-1.3,0.27-1.89,0.36c-0.8,0.12-1.66,0.12-2.46,0.13c0.18,0,1.08-0.67,1.23-0.76
							C104.55,73.58,104.9,73.36,105.25,73.15z"/>
					</g>
					<g>
						<path class="st2" d="M92.53,69.47c0.14-1.07,0.9-2.33,2.67-2.79c1.28-0.33,2.76-0.09,3.45,0.51c0.69,0.6,0.59,1.48-0.15,2.18
							c-0.49,0.47-1.23,0.84-1.94,1.21c-0.81,0.41-1.63,0.83-2.44,1.24c-0.65,0.33-1.51,1.11-2.39,1.16
							c-0.16-0.23,0.11-0.41,0.26-0.63c0.22-0.32,0.31-0.66,0.38-0.99C92.49,70.72,92.45,70.1,92.53,69.47z"/>
						<path class="st5" d="M93.84,68.02c0.03-0.11,0.05-0.21,0.08-0.32c0.13-0.52,1.27-0.88,2.04-0.72
							c0.56,0.12,0.84,0.53,0.68,0.89c-0.16,0.35-0.82,0.67-1.23,0.94c-0.56,0.38-1.29,0.7-1.96,1.01c0.15-0.07,0.18-0.86,0.21-0.97
							C93.72,68.57,93.78,68.29,93.84,68.02z"/>
					</g>
					<g>
						<path class="st2" d="M79.3,70.79c-1.03-0.8-1.72-1.95-0.66-2.91c0.76-0.69,2.32-1.05,3.56-0.88c1.25,0.17,2.11,0.82,2.21,1.57
							c0.07,0.51-0.17,1.03-0.41,1.54c-0.27,0.58-0.54,1.16-0.81,1.74c-0.21,0.47-0.14,1.32-0.86,1.67
							c-0.38-0.1-0.34-0.32-0.45-0.54c-0.15-0.3-0.44-0.57-0.73-0.83C80.61,71.68,79.9,71.26,79.3,70.79z"/>
						<path class="st5" d="M80.87,68.9c-0.12-0.07-0.23-0.15-0.34-0.22c-0.55-0.36-0.12-1.05,0.71-1.28
							c0.6-0.17,1.34-0.05,1.67,0.23c0.32,0.27,0.2,0.74,0.23,1.07c0.04,0.46-0.14,0.96-0.28,1.42c0.03-0.11-0.94-0.58-1.07-0.66
							C81.48,69.28,81.17,69.09,80.87,68.9z"/>
					</g>
					<g>
						<path class="st2" d="M67.76,75.13c-1.46-0.53-2.78-1.45-2.26-2.51c0.38-0.76,1.73-1.38,3.06-1.45
							c1.33-0.07,2.56,0.36,3.07,1.02c0.35,0.44,0.4,0.96,0.44,1.47c0.06,0.57,0.11,1.15,0.16,1.73c0.04,0.46,0.59,1.22,0.07,1.67
							c-0.44-0.02-0.52-0.23-0.74-0.41c-0.32-0.24-0.75-0.44-1.18-0.61C69.55,75.69,68.62,75.44,67.76,75.13z"/>
						<path class="st5" d="M68.76,73.24c-0.16-0.05-0.31-0.09-0.46-0.13c-0.75-0.22-0.7-0.93-0.02-1.29c0.5-0.27,1.31-0.29,1.79-0.1
							c0.47,0.19,0.61,0.63,0.82,0.92c0.3,0.41,0.4,0.89,0.52,1.34c-0.03-0.1-1.26-0.35-1.43-0.39
							C69.58,73.47,69.17,73.36,68.76,73.24z"/>
					</g>
					<g>
						<path class="st2" d="M59.03,81.1c-1.68-0.31-3.38-1-3.26-2.07c0.08-0.77,1.19-1.52,2.5-1.77c1.31-0.25,2.71,0,3.49,0.55
							c0.52,0.37,0.78,0.85,1.03,1.33c0.28,0.53,0.56,1.07,0.84,1.6c0.23,0.43,1.08,1.07,0.73,1.56c-0.45,0.04-0.62-0.15-0.91-0.28
							c-0.42-0.19-0.93-0.31-1.44-0.42C61.05,81.4,60.02,81.28,59.03,81.1z"/>
						<path class="st5" d="M59.2,79.32c-0.17-0.03-0.33-0.07-0.5-0.1c-0.79-0.16-0.89-0.86-0.27-1.26c0.46-0.29,1.27-0.37,1.79-0.21
							c0.51,0.15,0.73,0.57,1.01,0.85c0.38,0.38,0.58,0.84,0.78,1.27c-0.05-0.1-1.34-0.25-1.52-0.29
							C60.07,79.49,59.64,79.41,59.2,79.32z"/>
					</g>
					<g>
						<path class="st2" d="M44.56,95.84c-1.8,0.39-4.03,0.52-5.09-0.26c-0.76-0.56-0.61-1.49,0.27-2.14
							c0.88-0.64,2.37-0.98,3.65-0.88c0.86,0.07,1.61,0.31,2.34,0.55c0.82,0.27,1.65,0.54,2.47,0.81c0.66,0.22,2.1,0.35,2.33,0.82
							c-0.35,0.19-0.7,0.12-1.1,0.13c-0.57,0.02-1.15,0.12-1.71,0.23C46.65,95.31,45.62,95.61,44.56,95.84z"/>
						<path class="st5" d="M42.71,94.52c-0.18,0.03-0.36,0.06-0.55,0.1c-0.88,0.15-1.68-0.32-1.52-0.82
							c0.11-0.37,0.76-0.7,1.39-0.77c0.61-0.07,1.24,0.17,1.77,0.27c0.73,0.15,1.38,0.42,2,0.66c-0.14-0.05-1.46,0.27-1.66,0.31
							C43.66,94.35,43.19,94.43,42.71,94.52z"/>
					</g>
					<g>
						<path class="st2" d="M51.76,87.58c-1.84,0.01-3.88-0.33-4.32-1.33c-0.32-0.71,0.41-1.6,1.59-2.05
							c1.19-0.45,2.71-0.47,3.77-0.09c0.71,0.25,1.22,0.65,1.71,1.03c0.56,0.44,1.11,0.88,1.67,1.32c0.44,0.35,1.63,0.79,1.53,1.3
							c-0.43,0.11-0.69-0.03-1.05-0.1c-0.51-0.1-1.09-0.13-1.65-0.14C53.93,87.5,52.84,87.57,51.76,87.58z"/>
						<path class="st5" d="M50.97,85.79c-0.19,0-0.37,0.01-0.56,0.02c-0.89,0.03-1.42-0.56-1.07-1.04c0.26-0.35,1.01-0.6,1.62-0.57
							c0.6,0.02,1.09,0.35,1.54,0.53c0.62,0.25,1.11,0.62,1.59,0.95c-0.11-0.07-1.48,0.06-1.68,0.07
							C51.94,85.75,51.46,85.77,50.97,85.79z"/>
					</g>
					<g>
						<path class="st2" d="M45.91,104.59c-1.24,0.89-3.12,1.73-4.86,1.51c-1.25-0.16-2.04-0.9-1.89-1.67
							c0.15-0.77,1.17-1.51,2.43-1.86c0.85-0.24,1.76-0.31,2.66-0.37c1.01-0.07,2.03-0.15,3.04-0.22c0.82-0.06,2.25-0.44,2.93-0.16
							c-0.13,0.25-0.52,0.32-0.86,0.46c-0.49,0.2-0.93,0.47-1.32,0.74C47.27,103.5,46.63,104.06,45.91,104.59z"/>
						<path class="st5" d="M43.46,103.91c-0.14,0.08-0.29,0.16-0.44,0.23c-0.71,0.37-1.86,0.21-2.13-0.24
							c-0.21-0.33,0.13-0.78,0.66-1.01c0.52-0.22,1.32-0.21,1.91-0.28c0.81-0.09,1.65-0.05,2.44-0.03
							c-0.18-0.01-1.16,0.63-1.31,0.71C44.21,103.5,43.84,103.7,43.46,103.91z"/>
					</g>
					<g>
						<path class="st2" d="M52.88,110.47c-0.73,1.04-2.12,2.15-3.97,2.28c-1.33,0.09-2.54-0.43-2.82-1.15
							c-0.29-0.72,0.3-1.58,1.35-2.14c0.71-0.37,1.58-0.61,2.43-0.84c0.97-0.26,1.93-0.52,2.89-0.78c0.77-0.21,1.99-0.82,2.81-0.7
							c0.01,0.25-0.33,0.39-0.59,0.58c-0.38,0.28-0.65,0.6-0.9,0.91C53.61,109.24,53.3,109.87,52.88,110.47z"/>
						<path class="st5" d="M49.33,110.71c-0.06,0.11-0.13,0.21-0.2,0.31c-0.33,0.5-1.55,0.72-2.2,0.45
							c-0.48-0.19-0.58-0.65-0.28-0.99c0.29-0.33,1.04-0.56,1.53-0.79c0.68-0.31,1.5-0.53,2.25-0.75c-0.17,0.05-0.51,0.84-0.58,0.95
							C49.67,110.17,49.51,110.44,49.33,110.71z"/>
					</g>
				</g>
			</g>
		</g>
		<g>
			<g>
				<path class="st0" d="M180.95,179.71c-0.06-0.6-0.51-6.36-1.21-6.26c-0.11,0.02-0.18,0.11-0.23,0.2c-0.49,0.8-0.77,1.73-0.8,2.66
					c-0.02,0.47-0.15,1.12-0.61,1.08c-0.31-0.03-0.49-0.38-0.81-0.45c-0.2-0.26-0.39-0.52-0.6-0.78
					c-7.95-9.47-25.34-13.2-38.19-19.7c-2.07-1.06-4.05-2.17-5.84-3.42c-0.82-0.57-1.57-1.14-2.31-1.76
					c-2.31-1.92-4.35-3.99-6.76-5.87c-7.02-5.42-13.98-11.22-24.89-14.27c-22.41-6.27-49.86,1.26-66.46,13.27
					c-9.87,7.14-17.99,15.24-24.2,23.44c-1.03,1.37-1.98,2.79-2.84,4.28c-0.38,0.66-0.97,2.96-2.09,2.46
					c-0.24-0.1-0.42-0.3-0.67-0.37c-1.77-0.49-1.91,3.18-2.01,4.16c-0.11,1.13-0.39,2.17-0.41,3.33c-0.03,1.28,0.04,2.56,0.05,3.84
					c0.03,2.15,0.31,4.29,0.71,6.4c0.54,2.86,1.02,5.73,1.78,8.54c1.47,5.44,3.81,10.74,7.7,14.89
					c7.32,7.85,17.87,12.36,28.03,15.17c15.85,4.39,36.1,5.14,54.66,2.76c7.79-1,15.38-2.74,22.75-4.79
					c3.08-0.86,5.79-1.99,8.78-2.88c10.4-3.07,19.34-6.87,28.72-11.01c7.73-3.41,15.31-8.04,20.96-14.43
					c2.23-2.52,4.16-5.37,5.32-8.54c0.79-2.18,1.11-4.48,1.29-6.77C180.89,183.17,181.13,181.4,180.95,179.71z"/>
				<path class="st1" d="M161.67,200.92c-2.63,1.58-5.48,3.08-8.48,4.4c-9.39,4.13-18.32,7.92-28.72,11c-3,0.86-5.71,2.03-8.78,2.86
					c-7.36,2.06-14.95,3.79-22.75,4.81c-18.55,2.36-38.83,1.61-54.67-2.78c-16.37-4.5-28.99-12.73-33.34-23.2
					c-5.29-12.69-7.02-26.06,3.12-39.46c4.5-5.97,10.03-11.9,16.52-17.42c2.4-2.06,4.96-4.09,7.66-6.05
					c16.63-12.02,44.08-19.52,66.49-13.25c1.35,0.37,2.67,0.79,3.9,1.28c8.71,3.23,14.79,8.26,20.96,12.99
					c2.4,1.88,4.46,3.94,6.75,5.89c0.75,0.6,1.5,1.16,2.33,1.72c1.24,0.86,2.56,1.65,3.91,2.37c0.64,0.38,1.28,0.72,1.92,1.05
					c12.88,6.53,30.26,10.25,38.22,19.71C185.89,177.83,177.48,191.42,161.67,200.92z"/>
				<path class="st2" d="M29.84,208.44c-6.47-3.73-10.99-8.36-13.07-13.38c-5.59-13.44-4.79-24.2,2.5-33.85
					c5.64-7.48,12.94-14.55,21.09-20.45c12.51-9.05,34.7-16.34,53.84-10.98c3.33,0.93,6.48,2.28,9.64,4.1
					c3.67,2.12,6.93,4.64,10.09,7.09l1.33,1.04c1.17,0.9,2.23,1.86,3.35,2.88c1.51,1.37,3.08,2.79,4.98,4.11
					c0.9,0.62,1.88,1.24,2.93,1.84c4.65,2.69,10.1,4.82,15.37,6.87c5.18,2.02,10.07,3.94,14.19,6.31c2.95,1.71,5.17,3.47,6.8,5.4
					c9.28,11.06-3.35,23.87-19.02,31.09c-3.06,1.41-6.38,2.72-9.85,3.9c-2.91,0.98-5.8,2.01-8.72,3.04
					c-24.94,8.83-56.03,13.84-80.5,7.07C39.14,212.96,34.12,210.92,29.84,208.44z"/>
				<path class="st1" d="M154.26,172.57c-2.02-2.61-4.72-5.1-8.54-6.87c-3.03-1.41-8.07-2.97-12.01-3.46
					c-2.41-0.3-4.97-0.3-7.53-0.23c-6.32,0.18-10.86,1.3-16.26,3.53c-3.07,1.26-6.55,2.63-7.73,4.71c-1.3,2.29-2.33,4.23-4.6,6.39
					c-5.61,5.33-12.72,10.21-20.86,14.38c-6.15,3.15-18.86,6.46-18.5,11.89c0.12,1.85,1.91,2.81,4.09,3.85
					c2.24,1.07,3.77,2.26,6.63,2.94c4.59,1.09,11.69,1.23,16.9,1.16c9.64-0.13,19.34-3.03,28.3-5.5c9.65-2.66,19.23-5.58,27.77-9.46
					c6.65-3.02,12.87-6.87,14.98-11.42C158.83,180.31,157.05,176.17,154.26,172.57z"/>
				<path class="st3" d="M83.66,206.79c-6.08,0-10.85-0.37-13.77-1.07c-1.5-0.36-2.51-0.91-3.8-1.6c-0.65-0.35-1.3-0.7-2.02-1.05
					c-0.28-0.13-0.93-0.44-1.43-0.73c1.61-1.68,7.2-3.96,10.04-5.12c2.17-0.88,4.21-1.72,5.92-2.59c8.58-4.4,15.92-9.46,21.81-15.05
					c2.56-2.44,3.85-4.7,5.09-6.88l0.25-0.45c0.56-0.83,3.7-2.12,5.38-2.81l0.37-0.15c5.33-2.2,9.35-3.07,14.82-3.23
					c0.79-0.02,1.58-0.04,2.37-0.04c1.77,0,3.25,0.08,4.53,0.24c3.64,0.46,8.29,1.95,10.8,3.12c2.78,1.29,5.08,3.15,7.04,5.67
					c3.21,4.15,2.77,6.38,2.16,7.7c-0.78,1.67-3.5,5.12-12.98,9.43c-8.63,3.92-18.58,6.87-27.16,9.24l-2.02,0.56
					c-8.29,2.3-16.86,4.68-25.25,4.79C85.11,206.78,84.4,206.79,83.66,206.79L83.66,206.79z"/>
				<path class="st1" d="M88.44,134.56c4.51,1.16,8.83,2.72,11.91,4.93c2.44,1.75,5.14,4.66,6,6.93c0.53,1.39,0.53,2.87,0.4,4.34
					c-0.3,3.65-2.26,6.27-6.11,9.39c-2.19,1.77-4.57,3.78-8.16,4.47c-3.96,0.75-7.33,1.34-11.07,2.66
					c-9.23,3.24-17.68,7.34-24.91,12.05c-5.45,3.55-11.2,10.89-20.59,10.68c-3.19-0.07-4.87-1.11-6.66-2.36
					c-1.84-1.29-3.91-2.18-5.09-3.83c-1.89-2.65-2.12-6.75-2.01-9.76c0.22-5.56,5.24-11.16,9.52-16.34
					c4.61-5.57,9.67-11.1,16.39-16.03c5.24-3.84,11.9-7.43,19.77-8.65C75.02,131.92,82.2,132.95,88.44,134.56z"/>
				<path class="st3" d="M35.99,185.94c-2.07-0.05-2.98-0.62-4.42-1.62c-0.61-0.42-1.23-0.81-1.85-1.19
					c-0.93-0.57-1.91-1.17-2.26-1.66c-0.93-1.3-1.38-3.94-1.25-7.24c0.15-3.77,4.11-8.53,7.62-12.74l0.98-1.17
					c4.01-4.85,9.01-10.47,15.66-15.35c5.88-4.31,11.93-6.97,18-7.91c1.8-0.28,3.7-0.42,5.64-0.42c4.13,0,8.48,0.61,13.33,1.86
					c4.73,1.22,8.28,2.66,10.55,4.29c2.18,1.56,4.12,3.88,4.57,5.07c0.21,0.56,0.25,1.33,0.15,2.57c-0.16,1.93-0.97,3.61-4.62,6.57
					l-0.26,0.21c-1.96,1.58-3.65,2.95-6.1,3.42l-0.79,0.15c-3.65,0.69-7.09,1.34-10.88,2.67c-9.52,3.35-18.2,7.54-25.78,12.47
					c-1.56,1.02-3.04,2.22-4.59,3.49c-3.94,3.22-8.02,6.54-13.38,6.54L35.99,185.94z"/>
				<path class="st4" d="M115.47,194.21c-3.95,1.69-8.19,3.2-12.75,3.93c-4.55,0.73-9.47,0.61-12.98-0.8
					c-3.98-1.57-5.68-4.1-10.66-5.05c-4.06-0.77-7.78-0.24-11.2,1.61c-3.56,1.94-6.82,3.27-10.64,5c-3.38,1.52-6.59,3.2-10.12,4.58
					c-2.89,1.15-7.02,2.73-10.41,2.84c-1.63,0.07-3.3-0.35-3.74-1.22c-0.23-0.42-0.14-0.88,0-1.34c1.15-3.84,5.73-7.28,10.03-10.55
					c4.27-3.26,8.63-6.85,9.13-10.69c0.11-0.9,0.15-2.14-0.66-2.89c-0.65-0.66-2-0.9-3.06-1.37c-1.94-0.89-3.58-1.98-4.62-3.31
					c-2.15-2.74-1.49-6.05,0.42-9.13c1.57-2.49,4.03-4.83,6.47-7.15c5.21-4.92,11.62-9.23,19.78-12.66
					c2.01-0.83,4.15-1.67,6.47-1.92c5.51-0.64,9.94,2.13,10.6,5.2c0.47,2.17-0.42,4.43-1.56,6.63c-1.29,2.49-3.27,4.8-3.05,7.39
					c0.05,0.66,0.25,1.36,0.92,1.84c0.85,0.61,2.31,0.82,3.75,0.76c6.5-0.27,11.72-3.53,16.42-6.11c5.58-3.06,10.74-6.38,15.39-9.91
					c3.23-2.45,8.67-6.57,6.84-9.51c1.75,2.79,5.4,5.01,9.48,6.67c2.36,0.96,4.71,1.91,7.07,2.86c-1.43,0.39-2.63,0.37-4.05,0.58
					c-2.12,0.31-4.3,1.01-6.28,1.61c-4.18,1.26-8.15,2.8-11.85,4.54c-7.32,3.46-13.53,7.73-18.37,12.36
					c-2.4,2.29-5.38,6.13-0.33,7.37c1.55,0.38,3.51,0.13,5.27-0.2c5.93-1.11,11.66-3.01,17.7-3.51c6.07-0.51,12.83,1.05,13.34,4.44
					c0.32,2.13-1.89,4.31-4.24,6.19c-0.55,0.46-1.11,0.89-1.69,1.32C127.47,188.25,121.78,191.5,115.47,194.21z"/>
				<path class="st5" d="M56.86,189.73c-1.29-1.49,1.08-4.55,1.31-6.43c0.52-4.2-1.04-6.7-2.48-8.07c-1.42-1.39-3.1-1.95-4.21-2.33
					c-1.28-0.43-2.24-1.39-2.2-2.84c0.07-2.55,3.88-5.34,5.54-6.91c5.08-4.79,10.95-8.55,17.99-11.51c1.64-0.68,3.26-1.31,4.78-1.48
					c0.33-0.04,0.63-0.06,0.92-0.06c1.54,0,2.53,0.47,2.98,0.78c-0.09,0.35-0.33,1.04-0.95,2.25c-0.27,0.52-0.58,1.03-0.88,1.53
					c-1.33,2.23-3.17,5.28-2.83,9.19c0.26,3.49,2.27,5.43,3.44,6.28c1.63,1.17,3.41,1.48,5.32,1.87c1.66,0.34,3.73,0.05,5.23,0.78
					c2.38,1.15,2.22,3.47,3.43,5.42c1.37,2.21,3.71,3.52,6.18,4.13c1.01,0.25,2.07,0.37,3.25,0.37c1.71,0,3.34-0.26,4.58-0.49
					c2.32-0.43,4.56-0.97,6.73-1.49c2.06-0.49,4.12-0.99,6.2-1.37c1.6-0.29,3.7-1.01,5.07,0.25c2.02,1.86-3.16,3.88-4.4,4.59
					c-2.85,1.65-5.8,3.11-8.82,4.41c-4.41,1.88-7.89,2.97-11.3,3.51c-1.51,0.25-3,0.37-4.43,0.37c-2.15,0-4.03-0.29-5.31-0.8
					c-1.08-0.43-1.93-0.97-3.02-1.65c-2.07-1.31-4.63-2.94-8.78-3.73c-1.57-0.3-3.14-0.45-4.65-0.45c-3.74,0-7.3,0.9-10.59,2.69
					c-2.05,1.11-4.49,2.52-6.94,1.86C57.49,190.24,57.11,190.01,56.86,189.73z"/>
				<g>
					<g>
						<path class="st2" d="M113.8,170.54c1.32-0.85,2.43-2.05,1.71-2.97c-0.52-0.66-1.96-0.95-3.28-0.73
							c-1.31,0.23-2.43,0.93-2.8,1.69c-0.25,0.51-0.2,1.03-0.14,1.54c0.06,0.57,0.12,1.15,0.18,1.72c0.05,0.46-0.34,1.32,0.26,1.64
							c0.43-0.12,0.46-0.35,0.65-0.56c0.26-0.31,0.65-0.6,1.04-0.87C112.16,171.5,113.03,171.05,113.8,170.54z"/>
						<path class="st5" d="M114.5,169.04c0.12-0.09,0.24-0.18,0.35-0.27c0.57-0.44,0.17-1.07-0.64-1.18
							c-0.59-0.08-1.35,0.16-1.69,0.48c-0.34,0.32-0.23,0.77-0.28,1.11c-0.06,0.47,0.09,0.94,0.21,1.38
							c-0.03-0.1,0.98-0.72,1.11-0.82C113.87,169.51,114.19,169.28,114.5,169.04z"/>
					</g>
					<g>
						<path class="st2" d="M126.68,168.66c1.32-0.85,2.43-2.05,1.71-2.97c-0.52-0.66-1.96-0.96-3.27-0.73
							c-1.32,0.23-2.42,0.93-2.8,1.69c-0.25,0.51-0.2,1.03-0.14,1.54c0.06,0.57,0.12,1.15,0.18,1.72c0.05,0.46-0.34,1.32,0.26,1.64
							c0.42-0.12,0.47-0.35,0.65-0.56c0.26-0.31,0.65-0.6,1.04-0.87C125.04,169.62,125.91,169.16,126.68,168.66z"/>
						<g>
							<path class="st5" d="M127.35,167.4c0.12-0.09,0.24-0.18,0.36-0.28c0.57-0.44,0.17-1.07-0.65-1.18
								c-0.59-0.08-1.35,0.16-1.69,0.49c-0.33,0.32-0.23,0.77-0.28,1.11c-0.06,0.46,0.09,0.94,0.21,1.38
								c-0.03-0.1,0.97-0.72,1.11-0.82C126.72,167.87,127.04,167.64,127.35,167.4z"/>
						</g>
					</g>
					<g>
						<path class="st2" d="M138.7,169.66c1.58-0.69,3.1-1.75,2.78-2.76c-0.23-0.73-1.47-1.22-2.8-1.16
							c-1.33,0.06-2.65,0.62-3.3,1.34c-0.44,0.48-0.59,1.01-0.74,1.53c-0.17,0.59-0.33,1.17-0.5,1.76c-0.13,0.47-0.84,1.29-0.4,1.69
							c0.45-0.07,0.57-0.29,0.83-0.48c0.37-0.28,0.85-0.52,1.32-0.74C136.79,170.41,137.78,170.06,138.7,169.66z"/>
						<path class="st5" d="M140.31,168.15c0.14-0.08,0.29-0.16,0.43-0.24c0.68-0.39,0.49-1.07-0.25-1.26
							c-0.54-0.14-1.34,0.02-1.77,0.31c-0.43,0.29-0.46,0.75-0.62,1.09c-0.21,0.47-0.21,0.96-0.23,1.42c0-0.1,1.16-0.62,1.31-0.71
							C139.56,168.56,139.94,168.36,140.31,168.15z"/>
					</g>
					<g>
						<path class="st2" d="M146.67,175.5c1.85-0.08,4.04-0.52,4.84-1.54c0.57-0.74,0.16-1.59-0.87-1.99
							c-1.03-0.4-2.56-0.34-3.77,0.08c-0.81,0.28-1.46,0.71-2.09,1.12c-0.72,0.47-1.44,0.94-2.15,1.41
							c-0.58,0.38-1.92,0.88-2.01,1.38c0.39,0.09,0.71-0.07,1.1-0.15c0.55-0.13,1.14-0.18,1.71-0.22
							C144.51,175.52,145.58,175.55,146.67,175.5z"/>
						<path class="st5" d="M149.2,174.74c0.18-0.01,0.37-0.03,0.56-0.05c0.89-0.08,1.53-0.73,1.25-1.18
							c-0.2-0.33-0.92-0.49-1.55-0.39c-0.61,0.09-1.16,0.47-1.64,0.71c-0.66,0.32-1.22,0.75-1.74,1.14c0.12-0.09,1.48-0.1,1.68-0.12
							C148.24,174.81,148.72,174.78,149.2,174.74z"/>
					</g>
					<g>
						<path class="st2" d="M144.4,183.14c1.38,0.59,3.39,0.99,5.05,0.37c1.19-0.44,1.82-1.34,1.52-2.06
							c-0.3-0.72-1.43-1.22-2.73-1.28c-0.87-0.04-1.78,0.1-2.67,0.24c-1.01,0.15-2.01,0.31-3.02,0.46c-0.81,0.13-2.29,0.08-2.89,0.5
							c0.18,0.22,0.57,0.2,0.93,0.26c0.52,0.09,1,0.25,1.43,0.42C142.86,182.38,143.59,182.79,144.4,183.14z"/>
						<path class="st5" d="M147.67,182.23c0.13,0.07,0.25,0.13,0.38,0.2c0.62,0.32,1.82,0.06,2.22-0.41
							c0.29-0.35,0.08-0.78-0.41-0.96c-0.47-0.19-1.28-0.11-1.86-0.13c-0.79-0.02-1.66,0.08-2.46,0.16c0.18-0.02,1,0.55,1.14,0.62
							C147.01,181.88,147.34,182.06,147.67,182.23z"/>
					</g>
					<g>
						<path class="st2" d="M136.88,189.8c0.92,0.84,2.51,1.6,4.35,1.3c1.32-0.22,2.39-1,2.51-1.77c0.13-0.77-0.62-1.47-1.76-1.77
							c-0.76-0.21-1.66-0.23-2.54-0.26c-1-0.03-1.99-0.06-2.99-0.09c-0.8-0.03-2.11-0.34-2.89-0.04c0.04,0.25,0.4,0.3,0.7,0.43
							c0.42,0.18,0.76,0.44,1.06,0.68C135.9,188.77,136.34,189.3,136.88,189.8z"/>
						<path class="st5" d="M140.15,189.22c0.08,0.09,0.16,0.18,0.23,0.27c0.38,0.43,1.61,0.41,2.23,0.01
							c0.46-0.29,0.5-0.76,0.17-1.04c-0.32-0.27-1.09-0.35-1.6-0.48c-0.7-0.17-1.54-0.23-2.31-0.3c0.18,0.01,0.59,0.73,0.68,0.83
							C139.76,188.75,139.95,188.98,140.15,189.22z"/>
					</g>
					<g>
						<path class="st2" d="M126.53,194.84c0.54,0.97,1.73,1.95,3.58,1.88c1.33-0.05,2.64-0.69,3.07-1.45c0.43-0.76,0-1.57-0.96-2.02
							c-0.64-0.3-1.47-0.45-2.29-0.59c-0.93-0.16-1.85-0.32-2.78-0.49c-0.74-0.13-1.85-0.62-2.7-0.42
							c-0.06,0.26,0.26,0.36,0.49,0.52c0.32,0.24,0.54,0.54,0.73,0.83C126.03,193.67,126.22,194.27,126.53,194.84z"/>
						<path class="st5" d="M129.62,194.74c0.05,0.1,0.11,0.19,0.17,0.29c0.29,0.46,1.49,0.51,2.18,0.16
							c0.51-0.26,0.64-0.73,0.37-1.04c-0.26-0.29-0.99-0.42-1.47-0.58c-0.65-0.22-1.46-0.33-2.2-0.45c0.17,0.03,0.44,0.77,0.5,0.88
							C129.33,194.23,129.47,194.49,129.62,194.74z"/>
					</g>
					<g>
						<path class="st2" d="M101.02,203.19c-0.68,1.04-0.91,2.33,0.45,2.94c0.97,0.44,2.58,0.35,3.7-0.16
							c1.12-0.51,1.7-1.37,1.52-2.11c-0.12-0.5-0.54-0.93-0.95-1.35c-0.47-0.48-0.93-0.96-1.41-1.43c-0.37-0.38-0.61-1.21-1.42-1.34
							c-0.32,0.2-0.21,0.41-0.23,0.63c-0.03,0.33-0.21,0.67-0.39,0.99C101.93,201.98,101.42,202.58,101.02,203.19z"/>
						<path class="st5" d="M103.3,204.26c-0.06,0.11-0.11,0.21-0.17,0.32c-0.26,0.51,0.56,0.97,1.43,0.88
							c0.63-0.06,1.21-0.44,1.33-0.8c0.11-0.36-0.29-0.72-0.47-1.03c-0.25-0.42-0.72-0.8-1.14-1.15c0.1,0.08-0.47,0.84-0.53,0.95
							C103.6,203.71,103.45,203.98,103.3,204.26z"/>
					</g>
					<g>
						<path class="st2" d="M115.32,199.04c-0.01,1.06,0.58,2.24,2.3,2.49c1.24,0.18,2.77-0.24,3.55-0.92
							c0.78-0.68,0.8-1.56,0.16-2.18c-0.43-0.41-1.12-0.7-1.79-0.99c-0.76-0.32-1.52-0.64-2.29-0.96c-0.61-0.26-1.37-0.94-2.25-0.88
							c-0.19,0.25,0.06,0.4,0.18,0.6c0.17,0.3,0.22,0.63,0.24,0.95C115.46,197.78,115.33,198.41,115.32,199.04z"/>
						<path class="st5" d="M118.42,199.49c-0.01,0.11-0.02,0.21-0.03,0.32c-0.05,0.51,0.98,0.82,1.81,0.62
							c0.61-0.15,1.03-0.58,0.99-0.94c-0.04-0.35-0.6-0.63-0.91-0.89c-0.43-0.36-1.06-0.64-1.64-0.92c0.13,0.06-0.11,0.85-0.12,0.97
							C118.49,198.93,118.45,199.21,118.42,199.49z"/>
					</g>
					<g>
						<path class="st2" d="M85.86,202.41c-1.54,0.72-2.99,1.8-2.61,2.81c0.28,0.72,1.56,1.18,2.89,1.09
							c1.33-0.09,2.62-0.67,3.23-1.4c0.41-0.49,0.53-1.02,0.65-1.53c0.13-0.59,0.26-1.17,0.39-1.76c0.1-0.47,0.76-1.3,0.28-1.69
							c-0.44,0.08-0.55,0.3-0.8,0.5c-0.35,0.28-0.82,0.54-1.27,0.76C87.73,201.63,86.76,201.99,85.86,202.41z"/>
						<path class="st5" d="M87.03,203.82c-0.14,0.09-0.27,0.17-0.4,0.25c-0.64,0.41-0.37,1.07,0.41,1.23
							c0.56,0.12,1.35-0.07,1.74-0.38c0.39-0.3,0.37-0.76,0.48-1.1c0.15-0.47,0.09-0.96,0.05-1.41c0.01,0.11-1.09,0.66-1.23,0.75
							C87.74,203.39,87.38,203.61,87.03,203.82z"/>
					</g>
					<g>
						<path class="st2" d="M75.66,198.39c-1.79,0.42-3.72,1.22-3.94,2.29c-0.16,0.77,0.73,1.46,1.98,1.63
							c1.25,0.17,2.74-0.17,3.7-0.78c0.65-0.41,1.05-0.91,1.45-1.4c0.45-0.56,0.9-1.12,1.35-1.67c0.36-0.45,1.42-1.15,1.22-1.62
							c-0.44-0.01-0.67,0.19-1,0.34c-0.48,0.22-1.04,0.38-1.58,0.52C77.8,197.97,76.72,198.15,75.66,198.39z"/>
						<path class="st5" d="M75.24,200.44c-0.18,0.04-0.36,0.08-0.54,0.12c-0.87,0.19-1.25,0.89-0.79,1.27
							c0.34,0.28,1.12,0.34,1.72,0.16c0.58-0.16,0.97-0.6,1.36-0.88c0.54-0.39,0.92-0.86,1.3-1.3c-0.09,0.1-1.45,0.29-1.65,0.34
							C76.18,200.24,75.71,200.34,75.24,200.44z"/>
					</g>
				</g>
				<g>
					<g>
						<path class="st2" d="M91.78,157.83c1.48-0.76,3.55-1.41,5.14-0.99c1.14,0.3,1.65,1.13,1.26,1.89c-0.4,0.76-1.61,1.4-2.93,1.62
							c-0.89,0.14-1.79,0.12-2.66,0.08c-1-0.03-1.99-0.07-2.98-0.1c-0.8-0.03-2.29,0.19-2.85-0.15c0.21-0.24,0.6-0.27,0.98-0.37
							c0.54-0.15,1.04-0.38,1.5-0.6C90.13,158.78,90.91,158.28,91.78,157.83z"/>
						<path class="st5" d="M94.39,157.43c0.16-0.07,0.31-0.14,0.47-0.21c0.76-0.33,1.86-0.1,2.05,0.37
							c0.14,0.34-0.27,0.78-0.84,0.98c-0.56,0.19-1.33,0.13-1.92,0.16c-0.81,0.04-1.63-0.05-2.4-0.12c0.18,0.02,1.25-0.57,1.42-0.64
							C93.58,157.79,93.98,157.61,94.39,157.43z"/>
					</g>
					<g>
						<path class="st2" d="M95.04,150.39c1.48-0.76,3.55-1.41,5.14-0.99c1.14,0.3,1.65,1.13,1.25,1.89c-0.4,0.76-1.61,1.4-2.93,1.62
							c-0.89,0.14-1.79,0.12-2.66,0.08c-1-0.03-1.99-0.07-2.99-0.1c-0.79-0.03-2.29,0.19-2.85-0.15c0.21-0.24,0.6-0.27,0.98-0.37
							c0.54-0.15,1.04-0.38,1.5-0.6C93.39,151.34,94.17,150.84,95.04,150.39z"/>
						<g>
							<path class="st5" d="M97.23,150.01c0.16-0.07,0.31-0.14,0.47-0.21c0.76-0.33,1.86-0.1,2.05,0.37
								c0.14,0.34-0.27,0.78-0.84,0.98c-0.56,0.19-1.33,0.13-1.92,0.16c-0.81,0.04-1.63-0.05-2.4-0.12
								c0.17,0.02,1.25-0.56,1.42-0.64C96.42,150.37,96.82,150.19,97.23,150.01z"/>
						</g>
					</g>
					<g>
						<path class="st2" d="M93.31,143.45c1.19-0.91,3.03-1.79,4.79-1.6c1.26,0.13,2.11,0.85,2.01,1.62c-0.1,0.77-1.07,1.53-2.31,1.9
							c-0.84,0.25-1.75,0.34-2.65,0.43c-1.02,0.1-2.03,0.19-3.05,0.29c-0.81,0.07-2.23,0.48-2.93,0.23c0.11-0.26,0.5-0.33,0.84-0.48
							c0.48-0.21,0.9-0.49,1.28-0.76C92.02,144.56,92.62,143.99,93.31,143.45z"/>
						<path class="st5" d="M95.93,142.53c0.14-0.08,0.27-0.17,0.41-0.25c0.66-0.39,1.84-0.28,2.18,0.14
							c0.25,0.31-0.03,0.77-0.54,1.02c-0.5,0.24-1.3,0.27-1.89,0.36c-0.8,0.12-1.66,0.12-2.46,0.13c0.18,0,1.08-0.67,1.23-0.76
							C95.22,142.96,95.58,142.74,95.93,142.53z"/>
					</g>
					<g>
						<path class="st2" d="M83.2,138.86c0.14-1.07,0.9-2.33,2.67-2.79c1.27-0.33,2.76-0.09,3.45,0.5c0.69,0.6,0.59,1.48-0.14,2.18
							c-0.49,0.47-1.23,0.84-1.95,1.21c-0.81,0.41-1.63,0.83-2.44,1.24c-0.65,0.33-1.51,1.11-2.39,1.16
							c-0.16-0.23,0.11-0.41,0.26-0.63c0.22-0.32,0.31-0.66,0.38-0.99C83.17,140.1,83.12,139.48,83.2,138.86z"/>
						<path class="st5" d="M84.52,137.39c0.03-0.11,0.05-0.21,0.08-0.32c0.13-0.52,1.27-0.88,2.04-0.72
							c0.57,0.12,0.84,0.54,0.68,0.89c-0.16,0.35-0.82,0.67-1.23,0.95c-0.55,0.38-1.29,0.7-1.96,1.01c0.15-0.07,0.18-0.86,0.21-0.97
							C84.39,137.95,84.45,137.67,84.52,137.39z"/>
					</g>
					<g>
						<path class="st2" d="M69.98,140.17c-1.03-0.8-1.71-1.96-0.65-2.91c0.76-0.69,2.32-1.05,3.56-0.88
							c1.24,0.17,2.11,0.83,2.21,1.58c0.07,0.5-0.17,1.03-0.41,1.54c-0.27,0.58-0.54,1.16-0.81,1.75c-0.21,0.46-0.14,1.32-0.86,1.67
							c-0.38-0.1-0.34-0.33-0.45-0.54c-0.15-0.3-0.44-0.57-0.73-0.83C71.28,141.05,70.58,140.63,69.98,140.17z"/>
						<path class="st5" d="M71.55,138.28c-0.12-0.07-0.23-0.15-0.35-0.22c-0.55-0.36-0.11-1.05,0.71-1.28
							c0.6-0.17,1.34-0.04,1.67,0.23c0.32,0.27,0.19,0.74,0.23,1.07c0.04,0.46-0.13,0.96-0.28,1.42c0.03-0.11-0.95-0.57-1.07-0.66
							C72.15,138.66,71.85,138.47,71.55,138.28z"/>
					</g>
					<g>
						<path class="st2" d="M58.43,144.51c-1.46-0.53-2.78-1.45-2.26-2.51c0.38-0.76,1.73-1.37,3.06-1.45
							c1.33-0.07,2.56,0.36,3.07,1.02c0.35,0.44,0.4,0.96,0.44,1.47c0.06,0.57,0.11,1.15,0.16,1.72c0.04,0.46,0.59,1.22,0.06,1.67
							c-0.43-0.02-0.52-0.23-0.74-0.4c-0.32-0.24-0.75-0.44-1.18-0.61C60.23,145.07,59.29,144.82,58.43,144.51z"/>
						<path class="st5" d="M59.44,142.62c-0.16-0.04-0.31-0.09-0.47-0.13c-0.74-0.22-0.7-0.93-0.02-1.29
							c0.5-0.26,1.31-0.29,1.79-0.1c0.47,0.19,0.61,0.62,0.82,0.92c0.3,0.41,0.4,0.89,0.52,1.34c-0.03-0.1-1.26-0.34-1.43-0.39
							C60.25,142.85,59.84,142.73,59.44,142.62z"/>
					</g>
					<g>
						<path class="st2" d="M49.71,150.48c-1.68-0.31-3.38-1-3.27-2.07c0.08-0.77,1.2-1.52,2.51-1.77c1.31-0.24,2.72,0,3.49,0.56
							c0.52,0.37,0.78,0.85,1.03,1.33c0.28,0.53,0.56,1.07,0.84,1.6c0.22,0.43,1.08,1.07,0.73,1.56c-0.45,0.04-0.62-0.15-0.91-0.28
							c-0.42-0.19-0.93-0.32-1.44-0.42C51.73,150.77,50.69,150.66,49.71,150.48z"/>
						<path class="st5" d="M49.88,148.7c-0.17-0.04-0.33-0.07-0.5-0.1c-0.79-0.16-0.89-0.86-0.26-1.26
							c0.46-0.29,1.27-0.37,1.79-0.21c0.51,0.15,0.73,0.57,1.01,0.85c0.38,0.38,0.58,0.84,0.78,1.27c-0.05-0.1-1.34-0.25-1.52-0.29
							C50.75,148.87,50.31,148.79,49.88,148.7z"/>
					</g>
					<g>
						<path class="st2" d="M35.24,165.21c-1.8,0.39-4.03,0.52-5.09-0.26c-0.77-0.56-0.61-1.49,0.27-2.13
							c0.88-0.65,2.37-0.98,3.65-0.88c0.86,0.07,1.61,0.31,2.34,0.55c0.82,0.27,1.65,0.54,2.47,0.81c0.66,0.21,2.1,0.35,2.33,0.82
							c-0.36,0.19-0.7,0.12-1.1,0.13c-0.57,0.02-1.16,0.12-1.71,0.23C37.33,164.69,36.3,164.98,35.24,165.21z"/>
						<path class="st5" d="M33.39,163.89c-0.18,0.03-0.36,0.07-0.55,0.1c-0.88,0.15-1.68-0.32-1.52-0.82
							c0.11-0.37,0.76-0.7,1.39-0.77c0.61-0.06,1.25,0.17,1.78,0.28c0.72,0.15,1.38,0.42,1.99,0.66c-0.14-0.06-1.46,0.27-1.66,0.3
							C34.34,163.72,33.86,163.81,33.39,163.89z"/>
					</g>
					<g>
						<path class="st2" d="M42.44,156.96c-1.84,0-3.88-0.34-4.32-1.33c-0.32-0.71,0.41-1.59,1.6-2.05c1.18-0.45,2.71-0.46,3.77-0.09
							c0.71,0.25,1.22,0.65,1.71,1.03c0.55,0.44,1.11,0.88,1.66,1.32c0.44,0.35,1.63,0.79,1.52,1.3c-0.43,0.11-0.69-0.03-1.05-0.1
							c-0.51-0.1-1.09-0.13-1.65-0.14C44.61,156.88,43.52,156.95,42.44,156.96z"/>
						<path class="st5" d="M41.65,155.17c-0.19,0-0.37,0.01-0.55,0.02c-0.89,0.02-1.43-0.56-1.08-1.05c0.26-0.35,1.01-0.6,1.62-0.57
							c0.6,0.02,1.09,0.34,1.54,0.53c0.61,0.25,1.11,0.61,1.59,0.94c-0.11-0.08-1.48,0.07-1.68,0.07
							C42.61,155.13,42.13,155.15,41.65,155.17z"/>
					</g>
					<g>
						<path class="st2" d="M36.59,173.96c-1.24,0.89-3.12,1.73-4.87,1.51c-1.25-0.16-2.04-0.9-1.89-1.67
							c0.15-0.77,1.17-1.51,2.43-1.86c0.85-0.24,1.77-0.31,2.66-0.37c1.01-0.07,2.03-0.15,3.05-0.22c0.81-0.06,2.25-0.44,2.92-0.17
							c-0.13,0.26-0.52,0.32-0.86,0.46c-0.49,0.2-0.93,0.47-1.32,0.74C37.95,172.88,37.31,173.44,36.59,173.96z"/>
						<path class="st5" d="M34.14,173.29c-0.15,0.08-0.29,0.15-0.44,0.23c-0.7,0.37-1.86,0.21-2.14-0.24
							c-0.21-0.32,0.13-0.78,0.67-1.01c0.52-0.22,1.32-0.22,1.91-0.28c0.81-0.09,1.65-0.05,2.44-0.03c-0.18,0-1.15,0.63-1.31,0.71
							C34.89,172.88,34.52,173.08,34.14,173.29z"/>
					</g>
					<g>
						<path class="st2" d="M43.55,179.85c-0.72,1.03-2.11,2.15-3.97,2.28c-1.33,0.09-2.54-0.42-2.82-1.14
							c-0.28-0.72,0.3-1.58,1.35-2.14c0.7-0.37,1.58-0.61,2.42-0.84c0.97-0.26,1.93-0.52,2.9-0.78c0.77-0.21,1.99-0.82,2.81-0.7
							c0.02,0.26-0.33,0.39-0.59,0.58c-0.37,0.27-0.65,0.6-0.89,0.91C44.29,178.62,43.98,179.24,43.55,179.85z"/>
						<path class="st5" d="M40.01,180.1c-0.06,0.1-0.13,0.21-0.2,0.31c-0.33,0.5-1.54,0.72-2.21,0.45
							c-0.48-0.19-0.58-0.65-0.28-0.99c0.29-0.33,1.04-0.56,1.53-0.79c0.67-0.31,1.5-0.54,2.25-0.75c-0.17,0.05-0.51,0.84-0.58,0.95
							C40.35,179.55,40.18,179.82,40.01,180.1z"/>
					</g>
				</g>
			</g>
		</g>
		<g>
			<g>
				<path class="st0" d="M281.48,187.88c0.19-0.58,2.08-6.03,1.4-6.23c-0.1-0.03-0.21,0.03-0.29,0.09c-0.77,0.53-1.4,1.27-1.8,2.12
					c-0.2,0.42-0.58,0.96-0.99,0.74c-0.27-0.15-0.3-0.55-0.57-0.74c-0.08-0.32-0.14-0.63-0.24-0.95
					c-3.49-11.87-17.94-22.24-27.11-33.35c-1.48-1.8-2.84-3.61-3.98-5.47c-0.52-0.85-0.99-1.68-1.41-2.54
					c-1.34-2.68-2.39-5.4-3.84-8.09c-4.27-7.78-8.32-15.88-17.09-23.04c-18.03-14.72-46.19-18.81-66.22-14.45
					c-11.91,2.59-22.59,6.77-31.57,11.8c-1.49,0.84-2.93,1.76-4.31,2.78c-0.62,0.46-2.07,2.32-2.9,1.41
					c-0.17-0.19-0.27-0.45-0.46-0.61c-1.43-1.16-3.02,2.15-3.51,3.01c-0.55,0.99-1.22,1.83-1.71,2.88
					c-0.53,1.16-0.99,2.36-1.49,3.54c-0.84,1.98-1.44,4.05-1.91,6.14c-0.65,2.84-1.36,5.65-1.79,8.54
					c-0.84,5.57-0.8,11.37,1.09,16.73c3.57,10.12,11.42,18.48,19.61,25.12c12.77,10.37,31.03,19.16,48.99,24.41
					c7.54,2.2,15.19,3.65,22.76,4.72c3.17,0.45,6.11,0.49,9.2,0.88c10.76,1.35,20.47,1.45,30.72,1.41
					c8.46-0.03,17.26-1.24,24.99-4.83c3.05-1.42,5.97-3.25,8.3-5.7c1.59-1.68,2.81-3.66,3.9-5.69
					C280.04,191.03,280.97,189.5,281.48,187.88z"/>
				<path class="st1" d="M183.11,193.2c-17.96-5.25-36.22-14.05-48.98-24.41c-13.2-10.71-21.48-23.28-21.27-34.64
					c0.25-13.74,4.02-26.69,18.66-34.92c8.97-5.03,19.66-9.2,31.56-11.79c20.02-4.35,48.19-0.27,66.22,14.45
					c8.77,7.17,12.82,15.27,17.09,23.05c1.45,2.69,2.5,5.41,3.84,8.09c0.43,0.85,0.89,1.69,1.41,2.53c1.14,1.86,2.5,3.67,3.98,5.47
					c9.17,11.1,23.61,21.48,27.11,33.35c4.73,16.06-14,25.75-36.93,25.84c-10.25,0.04-19.96-0.06-30.72-1.41
					c-3.09-0.39-6.04-0.43-9.2-0.88C198.29,196.85,190.64,195.4,183.11,193.2z"/>
				<path class="st2" d="M131.51,153.72c-4.43-6.01-6.72-12.06-6.63-17.49c0.26-14.55,5.3-24.09,15.84-30.02
					c8.16-4.59,17.68-8.15,27.51-10.3c15.08-3.28,38.33-1.08,53.74,11.49c2.67,2.19,5.03,4.68,7.19,7.62
					c2.51,3.4,4.49,7.03,6.4,10.54l0.81,1.48c0.71,1.29,1.3,2.6,1.92,3.98c0.84,1.87,1.7,3.79,2.92,5.76
					c0.58,0.93,1.23,1.89,1.94,2.86c3.19,4.32,7.32,8.46,11.33,12.45c3.93,3.93,7.65,7.64,10.47,11.46
					c2.03,2.74,3.35,5.25,4.07,7.68c4.08,13.85-12.63,20.53-29.88,20.87c-3.37,0.07-6.93-0.06-10.59-0.38
					c-3.05-0.26-6.12-0.48-9.2-0.7c-26.39-1.89-56.88-9.76-76.6-25.76C138.23,161.58,134.44,157.7,131.51,153.72z"/>
				<path class="st1" d="M259.89,170.65c-0.81-3.19-2.28-6.56-5.08-9.72c-2.21-2.5-6.2-5.95-9.62-7.98
					c-2.09-1.24-4.43-2.27-6.8-3.23c-5.87-2.37-10.48-3.15-16.31-3.27c-3.31-0.07-7.06-0.21-8.97,1.22
					c-2.11,1.58-3.83,2.95-6.78,4.02c-7.27,2.63-15.74,4.26-24.87,4.83c-6.9,0.42-19.87-1.63-21.71,3.48
					c-0.63,1.74,0.63,3.35,2.21,5.16c1.62,1.87,2.55,3.58,4.9,5.34c3.77,2.84,10.22,5.8,15.02,7.83c8.89,3.74,18.93,4.97,28.14,6.3
					c9.91,1.43,19.86,2.59,29.23,2.45c7.3-0.11,14.54-1.15,18.3-4.46C260.97,179.58,261,175.07,259.89,170.65z"/>
				<path class="st3" d="M181.49,173.74c-5.57-2.44-9.79-4.68-12.19-6.49c-1.23-0.92-1.94-1.84-2.84-2.99
					c-0.45-0.58-0.91-1.16-1.43-1.77c-0.2-0.23-0.67-0.78-1.02-1.24c2.15-0.89,8.19-0.75,11.25-0.67c2.34,0.05,4.54,0.11,6.46-0.01
					c9.62-0.59,18.37-2.29,26.01-5.06c3.32-1.2,5.4-2.76,7.42-4.27l0.41-0.31c0.85-0.53,4.23-0.46,6.05-0.42l0.4,0.01
					c5.77,0.12,9.8,0.93,14.88,2.98c0.73,0.3,1.47,0.6,2.19,0.92c1.62,0.71,2.95,1.37,4.05,2.03c3.15,1.88,6.81,5.1,8.65,7.18
					c2.03,2.29,3.4,4.92,4.18,8.02c1.28,5.09-0.01,6.96-1.1,7.92c-1.38,1.22-5.26,3.29-15.67,3.44c-9.48,0.14-19.78-1.14-28.59-2.4
					l-2.08-0.3c-8.51-1.21-17.32-2.46-25.05-5.72C182.82,174.32,182.17,174.04,181.49,173.74L181.49,173.74z"/>
				<path class="st1" d="M214.79,109.47c3.67,2.87,7,6.03,8.93,9.29c1.53,2.58,2.85,6.33,2.72,8.75c-0.08,1.49-0.67,2.84-1.37,4.14
					c-1.74,3.22-4.58,4.84-9.36,6.15c-2.72,0.74-5.69,1.64-9.26,0.83c-3.93-0.9-7.26-1.71-11.21-2c-9.75-0.73-19.14-0.35-27.65,1.06
					c-6.42,1.07-14.62,5.5-23.14,1.55c-2.9-1.34-4.02-2.96-5.16-4.83c-1.17-1.92-2.71-3.56-3.13-5.54
					c-0.67-3.18,0.75-7.03,2.07-9.75c2.42-5.01,9.27-8.13,15.26-11.16c6.45-3.26,13.31-6.31,21.43-8.13
					c6.34-1.42,13.88-2.04,21.58-0.01C203.55,101.68,209.71,105.5,214.79,109.47z"/>
				<path class="st3" d="M146.15,135.56c-1.88-0.87-2.49-1.76-3.4-3.26c-0.39-0.63-0.81-1.24-1.22-1.83
					c-0.63-0.9-1.28-1.84-1.41-2.43c-0.33-1.56,0.31-4.16,1.75-7.13c1.65-3.4,7.19-6.17,12.08-8.62l1.36-0.69
					c5.62-2.84,12.45-5.99,20.49-7.79c7.11-1.6,13.72-1.61,19.66-0.05c1.76,0.47,3.56,1.1,5.33,1.87c3.78,1.65,7.53,3.95,11.47,7.04
					c3.85,3.01,6.52,5.76,7.95,8.16c1.37,2.3,2.22,5.2,2.16,6.47c-0.03,0.6-0.3,1.32-0.89,2.42c-0.92,1.7-2.33,2.92-6.86,4.16
					l-0.32,0.09c-2.43,0.67-4.53,1.25-6.96,0.7l-0.78-0.18c-3.62-0.83-7.04-1.61-11.03-1.91c-10.07-0.75-19.7-0.38-28.62,1.11
					c-1.84,0.31-3.67,0.82-5.61,1.36c-4.9,1.37-9.96,2.78-14.88,0.63L146.15,135.56z"/>
				<path class="st4" d="M215.67,174.95c-4.29-0.03-8.79-0.34-13.26-1.51c-4.46-1.15-8.92-3.23-11.57-5.93
					c-3.02-3.03-3.56-6.03-7.74-8.9c-3.41-2.33-7.03-3.34-10.91-3.01c-4.03,0.35-7.56,0.26-11.76,0.33
					c-3.7,0.04-7.31,0.29-11.1,0.15c-3.11-0.11-7.52-0.31-10.68-1.57c-1.52-0.59-2.88-1.64-2.94-2.61
					c-0.05-0.47,0.23-0.86,0.54-1.23c2.59-3.06,8.17-4.37,13.41-5.65c5.22-1.28,10.65-2.82,12.64-6.15c0.46-0.78,1-1.9,0.55-2.92
					c-0.33-0.86-1.47-1.62-2.25-2.47c-1.43-1.59-2.5-3.24-2.92-4.88c-0.87-3.37,1.06-6.14,4.04-8.19c2.44-1.65,5.63-2.81,8.79-3.96
					c6.75-2.42,14.34-3.8,23.2-3.68c2.18,0.04,4.47,0.14,6.69,0.82c5.31,1.62,8.26,5.93,7.63,9.01c-0.44,2.18-2.16,3.89-4.09,5.45
					c-2.18,1.77-4.93,3.09-5.76,5.55c-0.22,0.63-0.32,1.35,0.11,2.06c0.53,0.9,1.79,1.68,3.13,2.2c6.07,2.36,12.15,1.46,17.49,0.98
					c6.34-0.57,12.4-1.55,18.07-2.92c3.95-0.95,10.58-2.55,10.08-5.98c0.48,3.26,2.94,6.75,6.01,9.9c1.78,1.82,3.56,3.64,5.33,5.46
					c-1.47-0.21-2.55-0.71-3.94-1.09c-2.07-0.56-4.35-0.79-6.4-1.04c-4.33-0.52-8.59-0.7-12.67-0.58
					c-8.1,0.24-15.49,1.66-21.79,3.97c-3.12,1.14-7.38,3.46-3.25,6.62c1.27,0.97,3.17,1.52,4.91,1.93
					c5.88,1.36,11.89,1.91,17.63,3.87c5.76,1.96,11.34,6.1,10.45,9.4c-0.57,2.08-3.46,3.19-6.37,3.98c-0.68,0.2-1.37,0.37-2.08,0.53
					C229.05,174.3,222.54,175,215.67,174.95z"/>
				<path class="st5" d="M163.76,147.38c-0.59-1.88,2.81-3.74,3.77-5.36c2.16-3.65,1.73-6.55,0.96-8.39
					c-0.75-1.84-2.05-3.03-2.92-3.82c-1-0.91-1.49-2.17-0.87-3.49c1.09-2.31,5.69-3.34,7.84-4.12c6.57-2.36,13.46-3.45,21.1-3.34
					c1.77,0.03,3.51,0.1,4.97,0.55c0.32,0.1,0.6,0.2,0.87,0.32c1.41,0.61,2.12,1.44,2.42,1.91c-0.22,0.28-0.72,0.82-1.77,1.68
					c-0.46,0.37-0.94,0.71-1.42,1.05c-2.12,1.51-5.02,3.57-6.27,7.29c-1.16,3.3-0.1,5.89,0.64,7.13c1.03,1.72,2.53,2.72,4.13,3.84
					c1.38,0.97,3.4,1.53,4.48,2.8c1.72,2.01,0.64,4.07,0.97,6.35c0.37,2.57,1.99,4.71,4.02,6.26c0.82,0.63,1.75,1.17,2.83,1.64
					c1.57,0.69,3.17,1.1,4.4,1.39c2.3,0.53,4.57,0.94,6.76,1.34c2.08,0.38,4.17,0.74,6.23,1.23c1.59,0.37,3.8,0.55,4.55,2.26
					c1.1,2.51-4.45,2.29-5.87,2.45c-3.27,0.37-6.56,0.53-9.85,0.51c-4.79-0.04-8.42-0.44-11.76-1.31c-1.49-0.38-2.9-0.86-4.21-1.44
					c-1.97-0.86-3.58-1.87-4.55-2.86c-0.82-0.82-1.38-1.66-2.1-2.72c-1.36-2.03-3.07-4.55-6.55-6.93c-1.32-0.9-2.7-1.67-4.08-2.28
					c-3.42-1.5-7.05-2.09-10.78-1.78c-2.32,0.2-5.13,0.51-7.1-1.07C164.13,148.1,163.87,147.74,163.76,147.38z"/>
				<g>
					<g>
						<path class="st2" d="M223.62,152.6c1.55-0.25,3.05-0.91,2.75-2.04c-0.21-0.81-1.41-1.66-2.71-1.98
							c-1.3-0.32-2.59-0.12-3.24,0.43c-0.44,0.37-0.6,0.86-0.75,1.35c-0.17,0.55-0.35,1.1-0.52,1.65c-0.14,0.44-0.84,1.08-0.42,1.61
							c0.44,0.06,0.56-0.13,0.82-0.26c0.36-0.18,0.84-0.29,1.3-0.38C221.74,152.82,222.71,152.75,223.62,152.6z"/>
						<path class="st5" d="M224.86,151.5c0.15-0.03,0.29-0.07,0.44-0.11c0.7-0.17,0.58-0.92-0.12-1.34c-0.51-0.31-1.3-0.4-1.74-0.23
							c-0.44,0.16-0.52,0.61-0.7,0.9c-0.24,0.4-0.29,0.9-0.36,1.36c0.02-0.11,1.18-0.27,1.34-0.31
							C224.1,151.68,224.48,151.59,224.86,151.5z"/>
					</g>
					<g>
						<path class="st2" d="M236.18,156.03c1.55-0.25,3.05-0.9,2.75-2.03c-0.21-0.81-1.41-1.66-2.71-1.98
							c-1.3-0.32-2.59-0.12-3.24,0.43c-0.44,0.37-0.6,0.86-0.75,1.35c-0.17,0.55-0.35,1.1-0.52,1.65c-0.14,0.44-0.84,1.07-0.42,1.61
							c0.44,0.06,0.56-0.13,0.82-0.26c0.36-0.18,0.84-0.29,1.3-0.38C234.29,156.25,235.27,156.18,236.18,156.03z"/>
						<g>
							<path class="st5" d="M237.3,155.14c0.14-0.04,0.29-0.07,0.44-0.11c0.7-0.17,0.58-0.91-0.11-1.34
								c-0.51-0.31-1.3-0.4-1.75-0.23c-0.44,0.16-0.52,0.61-0.7,0.9c-0.24,0.4-0.3,0.9-0.36,1.35c0.02-0.1,1.18-0.27,1.34-0.31
								C236.53,155.32,236.91,155.23,237.3,155.14z"/>
						</g>
					</g>
					<g>
						<path class="st2" d="M246.8,161.76c1.72,0.01,3.54-0.36,3.65-1.42c0.08-0.76-0.86-1.7-2.11-2.18c-1.24-0.48-2.67-0.5-3.56-0.1
							c-0.6,0.26-0.95,0.69-1.29,1.1c-0.39,0.47-0.77,0.94-1.16,1.41c-0.31,0.38-1.29,0.85-1.04,1.39c0.43,0.12,0.64-0.04,0.95-0.11
							c0.45-0.11,0.98-0.14,1.5-0.15C244.74,161.68,245.79,161.76,246.8,161.76z"/>
						<path class="st5" d="M248.87,161.02c0.16-0.02,0.33-0.03,0.49-0.05c0.77-0.08,0.88-0.78,0.27-1.25
							c-0.44-0.35-1.23-0.52-1.75-0.42c-0.5,0.1-0.73,0.5-1,0.75c-0.37,0.34-0.57,0.8-0.78,1.21c0.05-0.09,1.31-0.11,1.49-0.13
							C248.02,161.1,248.45,161.06,248.87,161.02z"/>
					</g>
					<g>
						<path class="st2" d="M251.76,170.3c1.73,0.67,3.91,1.14,5.05,0.52c0.82-0.44,0.78-1.4-0.01-2.17
							c-0.78-0.78-2.21-1.34-3.49-1.43c-0.86-0.06-1.62,0.06-2.37,0.19c-0.85,0.14-1.69,0.29-2.54,0.43
							c-0.68,0.12-2.11,0.03-2.39,0.46c0.32,0.24,0.68,0.22,1.06,0.3c0.55,0.1,1.12,0.29,1.66,0.49
							C249.77,169.45,250.74,169.91,251.76,170.3z"/>
						<path class="st5" d="M254.38,170.62c0.18,0.06,0.35,0.12,0.53,0.18c0.85,0.29,1.69-0.06,1.61-0.58
							c-0.06-0.38-0.65-0.82-1.26-0.98c-0.59-0.16-1.25-0.03-1.78-0.01c-0.74,0.03-1.42,0.2-2.06,0.34c0.14-0.03,1.4,0.5,1.59,0.57
							C253.47,170.3,253.92,170.46,254.38,170.62z"/>
					</g>
					<g>
						<path class="st2" d="M246.62,176.39c1.03,1.1,2.7,2.26,4.47,2.37c1.27,0.07,2.21-0.5,2.23-1.28c0.02-0.78-0.82-1.69-1.99-2.26
							c-0.78-0.39-1.67-0.62-2.54-0.85c-0.98-0.26-1.97-0.52-2.95-0.79c-0.79-0.21-2.13-0.84-2.85-0.7
							c0.08,0.27,0.44,0.41,0.75,0.61c0.44,0.29,0.81,0.63,1.14,0.96C245.51,175.08,246.01,175.74,246.62,176.39z"/>
						<path class="st5" d="M249.98,176.87c0.09,0.11,0.18,0.22,0.27,0.34c0.44,0.54,1.64,0.79,2.2,0.52
							c0.41-0.2,0.38-0.68,0.01-1.05c-0.35-0.36-1.12-0.61-1.65-0.86c-0.72-0.34-1.55-0.59-2.32-0.84c0.18,0.06,0.7,0.9,0.79,1.02
							C249.52,176.28,249.75,176.58,249.98,176.87z"/>
					</g>
					<g>
						<path class="st2" d="M237.06,179.48c0.51,1.14,1.66,2.48,3.46,2.93c1.3,0.33,2.59,0.04,3.01-0.61
							c0.43-0.65,0.03-1.6-0.91-2.33c-0.62-0.49-1.43-0.88-2.23-1.25c-0.9-0.43-1.8-0.86-2.7-1.28c-0.72-0.34-1.8-1.16-2.63-1.19
							c-0.06,0.25,0.25,0.44,0.47,0.67c0.32,0.34,0.52,0.7,0.7,1.05C236.58,178.14,236.76,178.81,237.06,179.48z"/>
						<path class="st5" d="M240.29,180.26c0.03,0.11,0.07,0.23,0.1,0.34c0.17,0.54,1.31,1.01,2.04,0.9
							c0.54-0.08,0.76-0.49,0.57-0.88c-0.19-0.38-0.85-0.76-1.28-1.08c-0.57-0.44-1.31-0.83-2-1.2c0.16,0.09,0.25,0.9,0.29,1.03
							C240.12,179.67,240.2,179.97,240.29,180.26z"/>
					</g>
					<g>
						<path class="st2" d="M225.56,179.96c0.1,1.1,0.81,2.48,2.53,3.16c1.23,0.49,2.69,0.43,3.39-0.1c0.7-0.52,0.63-1.44-0.07-2.23
							c-0.47-0.54-1.17-1.01-1.87-1.46c-0.78-0.52-1.57-1.04-2.35-1.56c-0.63-0.41-1.45-1.31-2.31-1.47
							c-0.16,0.21,0.1,0.43,0.24,0.68c0.21,0.35,0.28,0.71,0.34,1.05C225.57,178.68,225.5,179.31,225.56,179.96z"/>
						<path class="st5" d="M228.43,181.1c0.01,0.11,0.03,0.22,0.05,0.34c0.08,0.53,1.16,1.07,1.93,1.01
							c0.57-0.04,0.88-0.42,0.75-0.8c-0.12-0.37-0.74-0.79-1.11-1.12c-0.51-0.46-1.2-0.89-1.84-1.29c0.15,0.09,0.09,0.89,0.11,1.01
							C228.36,180.53,228.39,180.81,228.43,181.1z"/>
					</g>
					<g>
						<path class="st2" d="M198.83,177.4c-1.04,0.68-1.77,1.77-0.77,2.87c0.71,0.79,2.23,1.36,3.46,1.34
							c1.23-0.02,2.1-0.57,2.24-1.32c0.09-0.5-0.12-1.07-0.33-1.62c-0.24-0.62-0.48-1.25-0.71-1.87c-0.19-0.5-0.08-1.36-0.77-1.8
							c-0.38,0.06-0.35,0.29-0.46,0.49c-0.16,0.29-0.46,0.53-0.76,0.75C200.16,176.66,199.45,177,198.83,177.4z"/>
						<path class="st5" d="M200.5,179.29c-0.09,0.08-0.19,0.15-0.28,0.23c-0.44,0.36,0.13,1.11,0.96,1.38
							c0.61,0.19,1.28,0.08,1.54-0.2c0.24-0.28,0.02-0.78-0.03-1.13c-0.06-0.48-0.34-1.02-0.58-1.51c0.06,0.11-0.77,0.59-0.87,0.66
							C200.99,178.91,200.74,179.1,200.5,179.29z"/>
					</g>
					<g>
						<path class="st2" d="M213.61,179.31c-0.44,0.97-0.37,2.29,1.11,3.21c1.06,0.66,2.63,0.89,3.61,0.58
							c0.99-0.32,1.36-1.11,1.02-1.93c-0.23-0.55-0.74-1.09-1.25-1.62c-0.57-0.6-1.14-1.2-1.71-1.8c-0.46-0.48-0.88-1.41-1.71-1.71
							c-0.28,0.15-0.11,0.39-0.08,0.63c0.04,0.34-0.05,0.66-0.16,0.97C214.24,178.22,213.86,178.75,213.61,179.31z"/>
						<path class="st5" d="M216.26,180.97c-0.05,0.1-0.1,0.19-0.16,0.28c-0.25,0.45,0.56,1.15,1.41,1.3
							c0.62,0.11,1.18-0.12,1.28-0.46c0.11-0.33-0.29-0.82-0.48-1.18c-0.25-0.5-0.72-1.01-1.14-1.49c0.1,0.11-0.44,0.74-0.5,0.84
							C216.55,180.49,216.4,180.73,216.26,180.97z"/>
					</g>
					<g>
						<path class="st2" d="M185.26,170.62c-1.7,0.04-3.47,0.45-3.51,1.53c-0.03,0.77,0.96,1.7,2.21,2.16
							c1.26,0.45,2.67,0.43,3.52,0.01c0.57-0.28,0.89-0.72,1.2-1.15c0.35-0.48,0.71-0.97,1.06-1.45c0.28-0.39,1.22-0.89,0.94-1.43
							c-0.44-0.11-0.63,0.05-0.93,0.14c-0.44,0.12-0.96,0.16-1.47,0.19C187.29,170.65,186.25,170.59,185.26,170.62z"/>
						<path class="st5" d="M185.77,172.38c-0.16,0.02-0.32,0.05-0.47,0.07c-0.75,0.12-0.76,0.84-0.12,1.3
							c0.47,0.33,1.27,0.47,1.75,0.35c0.48-0.12,0.65-0.55,0.89-0.82c0.32-0.37,0.46-0.84,0.61-1.27c-0.03,0.1-1.27,0.17-1.44,0.2
							C186.59,172.26,186.18,172.32,185.77,172.38z"/>
					</g>
					<g>
						<path class="st2" d="M177.52,162.85c-1.81-0.34-3.9-0.37-4.52,0.52c-0.45,0.64,0.08,1.64,1.16,2.29
							c1.08,0.65,2.58,0.94,3.7,0.77c0.76-0.12,1.33-0.41,1.89-0.71c0.63-0.33,1.27-0.66,1.9-0.99c0.51-0.27,1.76-0.48,1.77-1
							c-0.4-0.19-0.69-0.09-1.06-0.09c-0.52,0.01-1.1-0.07-1.65-0.16C179.65,163.32,178.59,163.04,177.52,162.85z"/>
						<path class="st5" d="M176.32,164.55c-0.18-0.03-0.36-0.07-0.54-0.11c-0.87-0.17-1.5,0.32-1.23,0.85
							c0.2,0.39,0.9,0.75,1.51,0.83c0.6,0.08,1.13-0.16,1.6-0.27c0.65-0.14,1.2-0.42,1.72-0.67c-0.12,0.06-1.45-0.31-1.64-0.35
							C177.26,164.75,176.79,164.65,176.32,164.55z"/>
					</g>
				</g>
				<g>
					<g>
						<path class="st2" d="M208.53,132.13c1.66-0.11,3.82,0.13,5.1,1.15c0.93,0.73,1.06,1.7,0.4,2.24
							c-0.67,0.54-2.03,0.64-3.33,0.31c-0.87-0.22-1.68-0.61-2.47-0.98c-0.9-0.43-1.79-0.86-2.69-1.29
							c-0.72-0.35-2.18-0.74-2.55-1.28c0.29-0.14,0.66-0.01,1.04,0.05c0.55,0.08,1.1,0.07,1.62,0.05
							C206.64,132.34,207.56,132.2,208.53,132.13z"/>
						<path class="st5" d="M211.08,132.81c0.17,0,0.35,0,0.52,0c0.83,0,1.74,0.66,1.73,1.16c-0.01,0.37-0.56,0.6-1.16,0.56
							c-0.59-0.05-1.27-0.41-1.82-0.62c-0.75-0.29-1.47-0.7-2.15-1.07c0.15,0.09,1.37-0.02,1.55-0.02
							C210.19,132.82,210.64,132.81,211.08,132.81z"/>
					</g>
					<g>
						<path class="st2" d="M214.49,126.62c1.66-0.11,3.82,0.13,5.11,1.15c0.92,0.73,1.06,1.7,0.4,2.24
							c-0.67,0.54-2.04,0.64-3.33,0.31c-0.87-0.22-1.68-0.61-2.47-0.99c-0.9-0.43-1.79-0.86-2.69-1.29
							c-0.72-0.34-2.18-0.74-2.55-1.28c0.29-0.14,0.66-0.01,1.05,0.05c0.55,0.08,1.1,0.07,1.62,0.05
							C212.6,126.83,213.52,126.69,214.49,126.62z"/>
						<g>
							<path class="st5" d="M216.66,127.15c0.17,0,0.35,0,0.52,0c0.83,0,1.74,0.66,1.73,1.16c-0.01,0.37-0.56,0.6-1.16,0.56
								c-0.59-0.05-1.27-0.41-1.82-0.62c-0.75-0.29-1.47-0.7-2.15-1.07c0.15,0.09,1.36-0.02,1.55-0.02
								C215.76,127.16,216.21,127.15,216.66,127.15z"/>
						</g>
					</g>
					<g>
						<path class="st2" d="M215.7,119.57c1.45-0.36,3.49-0.43,5.03,0.45c1.11,0.63,1.59,1.62,1.19,2.29
							c-0.4,0.66-1.6,0.97-2.89,0.82c-0.87-0.1-1.74-0.39-2.6-0.67c-0.97-0.32-1.94-0.63-2.91-0.95c-0.78-0.25-2.24-0.45-2.77-0.96
							c0.21-0.19,0.59-0.11,0.96-0.11c0.53,0,1.02-0.09,1.48-0.18C214.06,120.07,214.84,119.79,215.7,119.57z"/>
						<path class="st5" d="M218.46,119.77c0.16-0.02,0.32-0.04,0.48-0.06c0.76-0.09,1.8,0.48,1.94,1c0.1,0.39-0.34,0.7-0.91,0.72
							c-0.56,0.02-1.3-0.27-1.87-0.43c-0.78-0.21-1.57-0.55-2.31-0.86c0.17,0.07,1.26-0.18,1.43-0.2
							C217.64,119.88,218.05,119.83,218.46,119.77z"/>
					</g>
					<g>
						<path class="st2" d="M208.27,111.31c0.55-0.92,1.76-1.77,3.57-1.49c1.3,0.21,2.56,1.02,2.96,1.84
							c0.39,0.82-0.05,1.6-1.01,1.94c-0.64,0.23-1.46,0.28-2.27,0.33c-0.91,0.05-1.82,0.11-2.73,0.16c-0.73,0.04-1.83,0.41-2.66,0.1
							c-0.05-0.27,0.27-0.33,0.5-0.47c0.33-0.21,0.55-0.48,0.74-0.76C207.74,112.44,207.94,111.85,208.27,111.31z"/>
						<path class="st5" d="M210.06,110.5c0.06-0.09,0.13-0.18,0.2-0.27c0.33-0.42,1.52-0.3,2.16,0.16c0.47,0.34,0.56,0.83,0.27,1.09
							c-0.28,0.26-1.02,0.29-1.5,0.38c-0.66,0.13-1.47,0.13-2.21,0.14c0.17,0,0.51-0.71,0.58-0.81
							C209.72,110.96,209.89,110.73,210.06,110.5z"/>
					</g>
					<g>
						<path class="st2" d="M195.62,107.22c-0.62-1.14-0.79-2.47,0.57-2.93c0.98-0.33,2.55-0.04,3.62,0.62
							c1.07,0.65,1.6,1.6,1.4,2.33c-0.14,0.49-0.57,0.88-0.99,1.25c-0.48,0.43-0.96,0.85-1.44,1.27c-0.38,0.34-0.66,1.16-1.46,1.19
							c-0.31-0.25-0.18-0.44-0.2-0.68c-0.02-0.34-0.17-0.7-0.34-1.05C196.47,108.55,195.99,107.89,195.62,107.22z"/>
						<path class="st5" d="M197.82,106.12c-0.08-0.11-0.15-0.23-0.23-0.34c-0.36-0.54,0.32-1.01,1.16-0.89
							c0.62,0.09,1.25,0.5,1.44,0.89c0.19,0.38-0.11,0.75-0.22,1.07c-0.14,0.44-0.51,0.82-0.82,1.19c0.07-0.09-0.64-0.9-0.72-1.03
							C198.22,106.7,198.02,106.41,197.82,106.12z"/>
					</g>
					<g>
						<path class="st2" d="M183.31,106.58c-1.13-1.08-1.97-2.45-1.06-3.21c0.65-0.55,2.14-0.57,3.38-0.11
							c1.25,0.46,2.2,1.35,2.41,2.16c0.14,0.54-0.02,1.04-0.18,1.52c-0.18,0.55-0.36,1.1-0.54,1.65c-0.14,0.44,0.06,1.35-0.6,1.55
							c-0.39-0.19-0.38-0.42-0.52-0.67c-0.19-0.35-0.52-0.7-0.84-1.04C184.73,107.81,183.97,107.21,183.31,106.58z"/>
						<path class="st5" d="M184.99,105.25c-0.13-0.1-0.25-0.21-0.37-0.31c-0.59-0.5-0.27-1.13,0.5-1.19
							c0.57-0.04,1.32,0.26,1.68,0.63c0.36,0.36,0.31,0.82,0.38,1.18c0.11,0.49,0.02,0.97-0.06,1.43c0.02-0.1-1.02-0.82-1.15-0.93
							C185.64,105.78,185.31,105.52,184.99,105.25z"/>
					</g>
					<g>
						<path class="st2" d="M172.92,108.55c-1.41-0.96-2.69-2.27-2.16-3.2c0.38-0.67,1.71-0.92,3.01-0.62
							c1.3,0.3,2.49,1.09,2.98,1.91c0.33,0.55,0.37,1.1,0.41,1.62c0.04,0.6,0.09,1.2,0.13,1.81c0.03,0.48,0.56,1.41,0.04,1.72
							c-0.43-0.15-0.5-0.39-0.72-0.62c-0.3-0.34-0.73-0.66-1.15-0.96C174.66,109.63,173.75,109.11,172.92,108.55z"/>
						<path class="st5" d="M173.8,106.99c-0.14-0.1-0.28-0.19-0.42-0.29c-0.66-0.47-0.47-1.14,0.26-1.26
							c0.53-0.08,1.31,0.17,1.72,0.52c0.41,0.34,0.44,0.82,0.59,1.18c0.2,0.5,0.19,1,0.2,1.48c0-0.11-1.13-0.77-1.28-0.88
							C174.52,107.49,174.16,107.24,173.8,106.99z"/>
					</g>
					<g>
						<path class="st2" d="M153.77,116.26c-1.82-0.36-3.91-1.13-4.57-2.28c-0.48-0.82,0.04-1.61,1.1-1.85
							c1.07-0.24,2.57,0.05,3.7,0.66c0.76,0.41,1.35,0.93,1.92,1.44c0.65,0.58,1.3,1.16,1.94,1.74c0.52,0.46,1.78,1.16,1.8,1.68
							c-0.4,0.03-0.69-0.17-1.06-0.32c-0.52-0.21-1.1-0.36-1.66-0.48C155.89,116.61,154.83,116.47,153.77,116.26z"/>
						<path class="st5" d="M152.6,114.31c-0.18-0.04-0.36-0.09-0.54-0.13c-0.87-0.21-1.41-0.97-1.07-1.36
							c0.25-0.29,0.98-0.34,1.58-0.15c0.59,0.19,1.07,0.65,1.52,0.96c0.6,0.42,1.09,0.93,1.56,1.4c-0.11-0.11-1.45-0.34-1.64-0.39
							C153.53,114.54,153.07,114.43,152.6,114.31z"/>
					</g>
					<g>
						<path class="st2" d="M163.67,111.58c-1.68-0.73-3.43-1.87-3.43-2.95c0-0.78,1.02-1.3,2.28-1.24c1.26,0.06,2.67,0.66,3.5,1.43
							c0.55,0.51,0.86,1.08,1.15,1.63c0.33,0.62,0.67,1.25,1,1.88c0.27,0.5,1.17,1.38,0.88,1.8c-0.44-0.07-0.62-0.31-0.92-0.52
							c-0.43-0.29-0.95-0.55-1.46-0.79C165.69,112.37,164.66,112,163.67,111.58z"/>
						<path class="st5" d="M163.66,109.62c-0.17-0.07-0.35-0.14-0.52-0.2c-0.82-0.33-1.09-1.09-0.57-1.38
							c0.38-0.22,1.16-0.14,1.72,0.12c0.54,0.26,0.86,0.76,1.2,1.1c0.47,0.47,0.77,1,1.08,1.5c-0.07-0.11-1.38-0.53-1.57-0.61
							C164.56,109.97,164.11,109.8,163.66,109.62z"/>
					</g>
					<g>
						<path class="st2" d="M151.49,124.82c-1.49,0.32-3.55,0.34-5.06-0.57c-1.08-0.65-1.51-1.64-1.06-2.29
							c0.44-0.65,1.67-0.92,2.97-0.74c0.87,0.12,1.74,0.43,2.59,0.72c0.96,0.34,1.92,0.68,2.88,1.02c0.77,0.27,2.24,0.5,2.74,1.02
							c-0.22,0.18-0.6,0.09-0.97,0.08c-0.53-0.01-1.04,0.06-1.51,0.15C153.17,124.37,152.37,124.63,151.49,124.82z"/>
						<path class="st5" d="M149.52,123.22c-0.16,0.01-0.33,0.02-0.49,0.04c-0.79,0.06-1.79-0.55-1.87-1.07
							c-0.06-0.38,0.43-0.66,1.01-0.66c0.57,0,1.3,0.33,1.86,0.51c0.77,0.24,1.54,0.62,2.25,0.95c-0.17-0.08-1.31,0.12-1.49,0.13
							C150.38,123.15,149.95,123.18,149.52,123.22z"/>
					</g>
					<g>
						<path class="st2" d="M155.52,133c-1.08,0.66-2.8,1.12-4.55,0.49c-1.26-0.45-2.15-1.4-2.13-2.18c0.03-0.77,0.91-1.33,2.1-1.41
							c0.8-0.06,1.69,0.07,2.56,0.2c0.99,0.15,1.98,0.3,2.96,0.45c0.79,0.12,2.15,0.04,2.85,0.48c-0.09,0.24-0.46,0.22-0.77,0.29
							c-0.45,0.1-0.84,0.29-1.19,0.48C156.69,132.17,156.16,132.62,155.52,133z"/>
						<path class="st5" d="M152.18,131.81c-0.1,0.07-0.21,0.14-0.31,0.21c-0.5,0.32-1.7,0.04-2.2-0.47
							c-0.37-0.37-0.27-0.82,0.14-1.02c0.4-0.19,1.18-0.1,1.72-0.11c0.74-0.01,1.58,0.11,2.37,0.21c-0.18-0.02-0.81,0.56-0.92,0.64
							C152.71,131.44,152.44,131.63,152.18,131.81z"/>
					</g>
				</g>
			</g>
		</g>
	</g>
</g>
</svg>
