<?xml version="1.0" encoding="utf-8"?>
<!-- Generator: Adobe Illustrator 25.2.0, SVG Export Plug-In . SVG Version: 6.00 Build 0)  -->
<svg version="1.1" id="Lager_1" xmlns="http://www.w3.org/2000/svg" xmlns:xlink="http://www.w3.org/1999/xlink" x="0px" y="0px"
	 viewBox="0 0 283.46 283.46" style="enable-background:new 0 0 283.46 283.46;" xml:space="preserve">
<style type="text/css">
	.st0{fill:#FCC00D;}
	.st1{fill:#FCBF2F;}
	.st2{fill:#EF9A06;}
	.st3{fill:#D89C46;}
</style>
<path class="st0" d="M133.47,99.06v-0.5c0,0.22-0.05,0.44-0.05,0.72c0,0.33,0,0.65,0.11,0.98
	C133.47,99.88,133.47,99.44,133.47,99.06z M168.32,93.74l-8.66-4.38l-6.13-3.13l-4.88,2.57l-14.47,7.67
	c-0.17,0.28-0.27,0.55-0.33,0.82c0-0.28,0.11-0.5,0.22-0.77L1.4,166.84v4.72l110.7,63.73l152.12-88.17v-4.71L168.32,93.74z
	 M125.09,142.29c5.53-2.52,13.42-2.09,17.76,0.99c1.48,1.1,2.3,2.36,2.52,3.62c-0.38,1.81-2.03,3.56-4.82,4.82
	c-5.48,2.52-13.42,2.08-17.7-0.99c-1.59-1.1-2.41-2.41-2.52-3.73C120.76,145.25,122.34,143.55,125.09,142.29z M149.58,122.56
	c4.66-2.08,11.34-1.76,14.96,0.82c1.26,0.93,1.92,1.92,2.14,3.02v0.05c-0.38,1.48-1.7,2.96-4.05,4.05
	c-4.66,2.09-11.34,1.75-14.96-0.82c-1.26-0.93-1.97-1.97-2.14-3.07C145.91,125.08,147.28,123.6,149.58,122.56z M185.69,115.06
	c5.48-2.52,13.42-2.08,17.7,0.98c1.54,1.1,2.3,2.25,2.58,3.51v0.06c-0.44,1.81-2.03,3.61-4.82,4.88
	c-5.53,2.52-13.48,2.08-17.75-0.99c-1.48-1.04-2.36-2.3-2.52-3.62C181.25,118.07,182.9,116.32,185.69,115.06z M199.94,150.35
	c0.54,0.38,0.99,0.77,1.42,1.2c0.11,0.11,0.22,0.22,0.33,0.33c0.22,0.22,0.38,0.38,0.49,0.6c0.17,0.22,0.27,0.39,0.44,0.6
	c0.55,0.77,0.88,1.59,1.1,2.41c0.06,0.05,0,0.05,0,0.11c-0.6,2.69-3.01,5.31-7.12,7.18c-8.17,3.73-19.9,3.07-26.2-1.42
	c-2.24-1.59-3.4-3.4-3.73-5.32v-0.06c0.17-0.66,0.44-1.31,0.82-1.97c0.39-0.66,0.88-1.27,1.48-1.87c1.15-1.21,2.79-2.3,4.77-3.23
	C181.91,145.2,193.64,145.85,199.94,150.35z M149.8,183.01c5.54-2.52,13.48-2.08,17.76,0.93c1.48,1.1,2.3,2.25,2.58,3.51v0.06
	c-0.44,1.81-2.03,3.61-4.82,4.87c-5.54,2.52-13.48,2.08-17.76-0.98c-1.48-1.04-2.31-2.3-2.52-3.56
	C145.42,185.96,147.06,184.21,149.8,183.01z M100.7,168.43c8.11-3.73,19.84-3.07,26.2,1.42c2.19,1.59,3.4,3.45,3.72,5.31
	c-0.6,2.69-2.96,5.32-7.07,7.13c-8.16,3.73-19.89,3.07-26.19-1.42c-2.19-1.59-3.45-3.4-3.78-5.31
	C94.18,172.87,96.59,170.29,100.7,168.43z M104.37,204.22c5.53-2.52,13.48-2.08,17.76,0.99c1.48,1.04,2.3,2.19,2.57,3.51v0.05
	c-0.44,1.81-2.03,3.62-4.82,4.88c-5.54,2.52-13.48,2.09-17.76-0.98c-1.48-1.04-2.35-2.31-2.52-3.62
	C99.99,207.23,101.63,205.47,104.37,204.22z M219.78,135.17c5.54-2.52,13.49-2.08,17.76,0.99c1.54,1.04,2.3,2.24,2.58,3.5v0.06
	c-0.44,1.81-2.03,3.56-4.82,4.82c-5.54,2.52-13.48,2.08-17.75-0.98c-1.48-1.04-2.3-2.3-2.52-3.57
	C215.39,138.18,217.04,136.43,219.78,135.17z M134.35,98.5c0.38-0.65,0.87-1.26,1.48-1.86c1.15-1.21,2.79-2.3,4.77-3.23
	c8.17-3.72,19.89-3.07,26.2,1.42c2.24,1.59,3.45,3.45,3.78,5.32c-0.6,2.68-3.01,5.32-7.07,7.12c-8.17,3.73-19.89,3.07-26.25-1.42
	c-2.24-1.59-3.4-3.4-3.73-5.31v-0.06C133.69,99.82,133.96,99.16,134.35,98.5z M113.64,129.63c-4.66,2.14-11.35,1.75-14.91-0.82
	c-1.26-0.93-1.92-1.92-2.13-3.01v-0.05c0.11-0.38,0.27-0.77,0.49-1.15c0.22-0.33,0.49-0.72,0.82-1.04c0.66-0.71,1.54-1.31,2.68-1.86
	c4.66-2.08,11.35-1.7,14.97,0.88c1.26,0.88,1.92,1.92,2.13,3.01C117.3,127.11,115.93,128.59,113.64,129.63z M72.7,155.39
	c0.44-1.53,1.75-2.96,4.05-4c4.66-2.14,11.35-1.75,14.91,0.82c1.26,0.88,1.97,1.92,2.13,3.01c-0.33,1.53-1.7,3.01-4,4.06
	c-4.66,2.14-11.34,1.75-14.96-0.82c-1.26-0.93-1.92-1.92-2.14-3.01V155.39z M64.92,183.01c5.54-2.52,13.48-2.08,17.76,0.93
	c1.48,1.1,2.3,2.35,2.52,3.62c-0.38,1.81-2.03,3.56-4.82,4.82c-5.48,2.52-13.43,2.08-17.7-0.98c-1.53-1.1-2.36-2.36-2.52-3.68
	C60.58,185.91,62.23,184.21,64.92,183.01z M32.7,156.43c8.16-3.68,19.89-3.07,26.19,1.48c2.14,1.48,3.34,3.29,3.78,5.15
	c0.05,0.05,0,0.05,0,0.11c-0.6,2.69-3.01,5.26-7.13,7.18c-8.17,3.73-19.89,3.07-26.19-1.48c-2.25-1.59-3.4-3.45-3.73-5.31
	C26.23,160.87,28.64,158.29,32.7,156.43z"/>
<path class="st1" d="M133.47,99.06v-0.5c0,0.22-0.05,0.44-0.05,0.72c0,0.33,0,0.65,0.11,0.98
	C133.47,99.88,133.47,99.44,133.47,99.06z M153.53,78.72L1.4,166.84l110.7,63.73l152.12-88.17L153.53,78.72z M96.59,125.74
	c0.11-0.38,0.27-0.77,0.49-1.15c0.22-0.33,0.49-0.72,0.82-1.04c0.66-0.71,1.54-1.31,2.68-1.86c4.66-2.08,11.35-1.7,14.97,0.88
	c1.26,0.88,1.92,1.92,2.13,3.01c-0.38,1.53-1.75,3.01-4.05,4.06c-4.66,2.14-11.35,1.75-14.91-0.82c-1.26-0.93-1.92-1.92-2.13-3.01
	V125.74z M135.83,96.64c1.15-1.21,2.79-2.3,4.77-3.23c8.17-3.72,19.89-3.07,26.2,1.42c2.24,1.59,3.45,3.45,3.78,5.32
	c-0.6,2.68-3.01,5.32-7.07,7.12c-8.17,3.73-19.89,3.07-26.25-1.42c-2.24-1.59-3.4-3.4-3.73-5.31v-0.06
	c0.16-0.66,0.44-1.32,0.82-1.98C134.73,97.85,135.22,97.25,135.83,96.64z M149.58,122.56c4.66-2.08,11.34-1.76,14.96,0.82
	c1.26,0.93,1.92,1.92,2.14,3.02v0.05c-0.38,1.48-1.7,2.96-4.05,4.05c-4.66,2.09-11.34,1.75-14.96-0.82
	c-1.26-0.93-1.97-1.97-2.14-3.07C145.91,125.08,147.28,123.6,149.58,122.56z M134.18,96.48c-0.17,0.28-0.27,0.55-0.33,0.82
	c0-0.28,0.11-0.5,0.22-0.77L134.18,96.48z M29.35,168.87c-2.25-1.59-3.4-3.45-3.73-5.31c0.61-2.69,3.02-5.26,7.07-7.12
	c8.16-3.68,19.89-3.07,26.19,1.48c2.14,1.48,3.34,3.29,3.78,5.15c0.05,0.05,0,0.05,0,0.11c-0.6,2.69-3.01,5.26-7.13,7.18
	C47.38,174.08,35.66,173.42,29.35,168.87z M80.37,192.38c-5.48,2.52-13.43,2.08-17.7-0.98c-1.53-1.1-2.36-2.36-2.52-3.68
	c0.44-1.81,2.08-3.51,4.77-4.71c5.54-2.52,13.48-2.08,17.76,0.93c1.48,1.1,2.3,2.35,2.52,3.62
	C84.81,189.36,83.16,191.11,80.37,192.38z M89.8,159.28c-4.66,2.14-11.34,1.75-14.96-0.82c-1.26-0.93-1.92-1.92-2.14-3.01v-0.06
	c0.44-1.53,1.75-2.96,4.05-4c4.66-2.14,11.35-1.75,14.91,0.82c1.26,0.88,1.97,1.92,2.13,3.01C93.47,156.76,92.1,158.24,89.8,159.28z
	 M124.7,208.76c-0.44,1.81-2.03,3.62-4.82,4.88c-5.54,2.52-13.48,2.09-17.76-0.98c-1.48-1.04-2.35-2.31-2.52-3.62
	c0.38-1.81,2.03-3.57,4.77-4.82c5.53-2.52,13.48-2.08,17.76,0.99c1.48,1.04,2.3,2.19,2.57,3.51V208.76z M123.55,182.29
	c-8.16,3.73-19.89,3.07-26.19-1.42c-2.19-1.59-3.45-3.4-3.78-5.31c0.6-2.69,3.02-5.27,7.12-7.13c8.11-3.73,19.84-3.07,26.2,1.42
	c2.19,1.59,3.4,3.45,3.72,5.31C130.02,177.86,127.66,180.48,123.55,182.29z M140.54,151.72c-5.48,2.52-13.42,2.08-17.7-0.99
	c-1.59-1.1-2.41-2.41-2.52-3.73c0.44-1.75,2.03-3.45,4.77-4.71c5.53-2.52,13.42-2.09,17.76,0.99c1.48,1.1,2.3,2.36,2.52,3.62
	C144.98,148.7,143.33,150.46,140.54,151.72z M170.13,187.5c-0.44,1.81-2.03,3.61-4.82,4.87c-5.54,2.52-13.48,2.08-17.76-0.98
	c-1.48-1.04-2.31-2.3-2.52-3.56c0.39-1.87,2.03-3.62,4.77-4.82c5.54-2.52,13.48-2.08,17.76,0.93c1.48,1.1,2.3,2.25,2.58,3.51V187.5z
	 M203.72,155.61c-0.6,2.69-3.01,5.31-7.12,7.18c-8.17,3.73-19.9,3.07-26.2-1.42c-2.24-1.59-3.4-3.4-3.73-5.32v-0.06
	c0.17-0.66,0.44-1.31,0.82-1.97c0.39-0.66,0.88-1.27,1.48-1.87c1.15-1.21,2.79-2.3,4.77-3.23c8.17-3.72,19.89-3.07,26.2,1.43
	c0.54,0.38,0.99,0.77,1.42,1.2c0.11,0.11,0.22,0.22,0.33,0.33c0.22,0.22,0.38,0.38,0.49,0.6c0.17,0.22,0.27,0.39,0.44,0.6
	c0.55,0.77,0.88,1.59,1.1,2.41C203.78,155.55,203.72,155.55,203.72,155.61z M205.97,119.61c-0.44,1.81-2.03,3.61-4.82,4.88
	c-5.53,2.52-13.48,2.08-17.75-0.99c-1.48-1.04-2.36-2.3-2.52-3.62c0.38-1.81,2.03-3.56,4.82-4.82c5.48-2.52,13.42-2.08,17.7,0.98
	c1.54,1.1,2.3,2.25,2.58,3.51V119.61z M240.11,139.71c-0.44,1.81-2.03,3.56-4.82,4.82c-5.54,2.52-13.48,2.08-17.75-0.98
	c-1.48-1.04-2.3-2.3-2.52-3.57c0.38-1.81,2.03-3.56,4.77-4.82c5.54-2.52,13.49-2.08,17.76,0.99c1.54,1.04,2.3,2.24,2.58,3.5V139.71z
	"/>
<polygon class="st2" points="112.11,230.57 112.11,235.29 1.39,171.57 1.39,166.86 "/>
<g>
	<path class="st3" d="M170.73,98.84c0,0.44-0.05,0.88-0.16,1.31c-0.33-1.86-1.53-3.72-3.78-5.32c-6.3-4.49-18.03-5.15-26.2-1.42
		c-4.05,1.86-6.47,4.44-7.07,7.13c-0.27-1.37-0.06-2.74,0.66-4.06l-0.11,0.06c0.28-0.55,0.66-1.15,1.1-1.7
		c1.26-1.42,3.07-2.79,5.42-3.89c2.41-1.1,5.21-1.81,8.06-2.14c3.73-0.49,7.56-0.27,11.01,0.55c2.68,0.6,5.15,1.64,7.13,3.07
		c0.54,0.38,1.1,0.82,1.53,1.31C169.91,95.27,170.73,97.03,170.73,98.84z"/>
	<path class="st2" d="M170.73,98.84c0,0.44-0.05,0.88-0.16,1.31c-0.33-1.86-1.53-3.72-3.78-5.32c-6.3-4.49-18.03-5.15-26.2-1.42
		c-4.05,1.86-6.47,4.44-7.07,7.13c-0.27-1.37-0.06-2.74,0.66-4.06c0.22-0.55,0.6-1.1,0.99-1.64c1.26-1.42,3.07-2.79,5.42-3.89
		c2.41-1.1,5.21-1.81,8.06-2.14c3.73-0.49,7.56-0.27,11.01,0.55c2.68,0.6,5.15,1.64,7.13,3.07c0.54,0.38,1.1,0.82,1.53,1.31
		C169.91,95.27,170.73,97.03,170.73,98.84z"/>
</g>
<g>
	<path class="st3" d="M203.72,155.5c0.06,0.05,0,0.05,0,0.11c-0.38-1.86-1.59-3.67-3.78-5.26c-6.3-4.49-18.03-5.15-26.2-1.43
		c-4.05,1.87-6.47,4.44-7.07,7.13c-0.22-1.15-0.11-2.36,0.33-3.51c0.27-0.71,0.77-1.48,1.32-2.19c0.33-0.33,0.65-0.72,1.04-1.04
		c1.15-1.04,2.57-2.03,4.38-2.85c8.17-3.67,19.89-3.07,26.2,1.48c0.66,0.44,1.2,0.93,1.7,1.48c0.27,0.22,0.49,0.5,0.71,0.77
		c0.22,0.28,0.38,0.55,0.55,0.77C203.78,152.43,204.05,153.96,203.72,155.5z"/>
	<path class="st2" d="M203.72,155.5c0.06,0.05,0,0.05,0,0.11c-0.38-1.86-1.59-3.67-3.78-5.26c-6.3-4.49-18.03-5.15-26.2-1.43
		c-4.05,1.87-6.47,4.44-7.07,7.13c-0.22-1.15-0.11-2.36,0.33-3.51c0.33-0.71,0.77-1.48,1.32-2.19c0.33-0.33,0.65-0.72,1.04-1.04
		c1.1-1.04,2.57-2.03,4.38-2.85c8.17-3.67,19.89-3.07,26.2,1.48c0.66,0.44,1.2,0.93,1.7,1.48c0.27,0.22,0.49,0.5,0.71,0.77
		c0.22,0.28,0.38,0.55,0.55,0.77C203.78,152.43,204.05,153.96,203.72,155.5z"/>
</g>
<g>
	<path class="st3" d="M130.78,173.86c0,0.44-0.05,0.88-0.17,1.31c-0.33-1.86-1.53-3.73-3.72-5.31c-6.36-4.5-18.08-5.15-26.2-1.42
		c-4.11,1.86-6.52,4.44-7.12,7.13c-0.05-0.39-0.11-0.77-0.11-1.1c0-1.59,0.6-3.12,1.81-4.6c0.33-0.38,0.66-0.71,1.04-1.04
		c0.38-0.38,0.77-0.71,1.26-1.04c0.88-0.66,1.92-1.26,3.12-1.81c8.11-3.67,19.84-3.07,26.2,1.48
		C129.53,169.31,130.78,171.56,130.78,173.86z"/>
	<path class="st2" d="M130.78,173.86c0,0.44-0.05,0.88-0.17,1.31c-0.33-1.86-1.53-3.73-3.72-5.31c-6.36-4.5-18.08-5.15-26.2-1.42
		c-4.11,1.86-6.52,4.44-7.12,7.13c-0.05-0.39-0.11-0.77-0.11-1.1c0-1.59,0.6-3.12,1.81-4.6c0.33-0.38,0.66-0.71,1.04-1.04
		c0.38-0.38,0.77-0.71,1.26-1.04c0.88-0.66,1.92-1.26,3.12-1.81c8.11-3.67,19.84-3.07,26.2,1.48
		C129.53,169.31,130.78,171.56,130.78,173.86z"/>
</g>
<g>
	<path class="st3" d="M62.67,163.06c0.05,0.05,0,0.05,0,0.11c-0.39-1.92-1.59-3.73-3.78-5.26c-6.3-4.55-18.03-5.15-26.19-1.48
		c-4.05,1.86-6.46,4.44-7.07,7.12c-0.27-1.54,0-3.07,0.88-4.55c0-0.05,0-0.05,0.05-0.05c0.22-0.38,0.44-0.77,0.77-1.1
		c1.21-1.42,2.96-2.74,5.37-3.83c8.16-3.73,19.89-3.07,26.19,1.42c0.66,0.44,1.2,0.93,1.7,1.48c0.28,0.27,0.44,0.49,0.72,0.77
		c0.22,0.28,0.38,0.55,0.55,0.82C62.72,159.99,63,161.52,62.67,163.06z"/>
	<path class="st2" d="M62.71,160.76c0.13,0.76,0.12,1.53-0.04,2.3c0.05,0.05,0,0.05,0,0.11c-0.39-1.92-1.59-3.73-3.78-5.26
		c-6.3-4.55-18.03-5.15-26.19-1.48c-4.05,1.86-6.46,4.44-7.07,7.12c-0.27-1.54,0-3.07,0.88-4.55c0-0.05,0-0.05,0.05-0.05
		c0.22-0.38,0.44-0.77,0.77-1.1c1.21-1.42,2.96-2.74,5.37-3.83c8.16-3.73,19.89-3.07,26.19,1.42c0.66,0.44,1.2,0.93,1.7,1.48
		c0.28,0.27,0.44,0.49,0.72,0.77c0.22,0.28,0.38,0.55,0.55,0.82C62.29,159.23,62.57,159.99,62.71,160.76z"/>
</g>
<g>
	<path class="st3" d="M240.11,139.66c-0.27-1.26-1.04-2.46-2.58-3.5c-4.27-3.07-12.22-3.51-17.76-0.99
		c-2.74,1.26-4.38,3.01-4.77,4.82c-0.11-0.55-0.11-1.04,0-1.59c0.16-0.77,0.55-1.59,1.15-2.3c0.22-0.22,0.44-0.49,0.71-0.72
		c0.71-0.71,1.7-1.31,2.9-1.86c5.54-2.52,13.49-2.08,17.76,0.93c0.88,0.66,1.59,1.37,2.03,2.14
		C240.11,137.58,240.33,138.62,240.11,139.66z"/>
	<path class="st2" d="M240.11,139.66c-0.27-1.26-1.04-2.46-2.58-3.5c-4.27-3.07-12.22-3.51-17.76-0.99
		c-2.74,1.26-4.38,3.01-4.77,4.82c-0.11-0.55-0.11-1.04,0-1.59c0.16-0.77,0.55-1.53,1.15-2.3c0.22-0.22,0.44-0.49,0.71-0.72
		c0.71-0.71,1.7-1.31,2.9-1.86c5.54-2.52,13.49-2.08,17.76,0.93c0.88,0.66,1.59,1.37,2.03,2.14
		C240.17,137.58,240.33,138.62,240.11,139.66z"/>
</g>
<g>
	<path class="st3" d="M145.47,146.07c0,0.28-0.06,0.55-0.11,0.82c-0.22-1.26-1.04-2.52-2.52-3.62c-4.33-3.07-12.22-3.51-17.76-0.99
		c-2.74,1.26-4.33,2.96-4.77,4.71c-0.11-0.16-0.11-0.39-0.11-0.55c-0.06-2.14,1.59-4.33,4.88-5.81c5.53-2.52,13.42-2.09,17.76,0.99
		C144.65,142.95,145.47,144.48,145.47,146.07z"/>
	<path class="st2" d="M145.47,146.07c0,0.28-0.06,0.55-0.11,0.82c-0.22-1.26-1.04-2.52-2.52-3.62c-4.33-3.07-12.22-3.51-17.76-0.99
		c-2.74,1.26-4.33,2.96-4.77,4.71c-0.06,0.05-0.06,0.05-0.06,0.11c-0.05-0.22-0.05-0.44-0.05-0.66c-0.06-2.14,1.59-4.33,4.88-5.81
		c5.53-2.52,13.42-2.09,17.76,0.99C144.65,142.95,145.47,144.48,145.47,146.07z"/>
</g>
<g>
	<path class="st3" d="M170.13,187.45v0.06c-0.28-1.26-1.1-2.47-2.58-3.56c-4.27-3.01-12.22-3.45-17.76-0.93
		c-2.74,1.21-4.38,2.96-4.77,4.82c-0.27-1.32,0.11-2.63,1.15-3.89c0.22-0.22,0.44-0.49,0.71-0.72c0.72-0.71,1.7-1.37,2.91-1.92
		c5.54-2.46,13.48-2.03,17.76,0.99c0.44,0.33,0.82,0.66,1.21,1.04c0.66,0.66,1.04,1.42,1.26,2.14
		C170.24,186.13,170.24,186.79,170.13,187.45z"/>
	<path class="st2" d="M170.13,187.45v0.06c-0.28-1.26-1.1-2.47-2.58-3.56c-4.27-3.01-12.22-3.45-17.76-0.93
		c-2.74,1.21-4.38,2.96-4.77,4.82c-0.22-1.32,0.17-2.69,1.15-3.89c0.22-0.22,0.44-0.49,0.71-0.72c0.72-0.71,1.7-1.37,2.91-1.92
		c5.54-2.46,13.48-2.03,17.76,0.99c0.44,0.33,0.82,0.66,1.21,1.04c0.66,0.66,1.1,1.42,1.26,2.14
		C170.24,186.13,170.3,186.79,170.13,187.45z"/>
</g>
<g>
	<path class="st3" d="M205.97,119.55v0.06c-0.27-1.26-1.04-2.47-2.58-3.57c-4.27-3.07-12.22-3.5-17.7-0.98
		c-2.79,1.26-4.44,3.01-4.82,4.82c-0.27-1.31,0.11-2.63,1.15-3.84c0.82-0.98,2.03-1.91,3.67-2.63c5.48-2.52,13.42-2.09,17.7,0.99
		c1.32,0.93,2.14,2.03,2.47,3.18C206.08,118.24,206.08,118.89,205.97,119.55z"/>
	<path class="st2" d="M205.97,119.55v0.06c-0.27-1.26-1.04-2.47-2.58-3.57c-4.27-3.07-12.22-3.5-17.7-0.98
		c-2.79,1.26-4.44,3.01-4.82,4.82c-0.22-1.31,0.16-2.63,1.15-3.84c0.82-0.98,2.03-1.91,3.67-2.63c5.48-2.52,13.42-2.09,17.7,0.99
		c1.32,0.93,2.14,2.03,2.47,3.18C206.08,118.24,206.14,118.89,205.97,119.55z"/>
</g>
<g>
	<path class="st3" d="M85.3,186.63c0,0.33-0.05,0.6-0.11,0.93c-0.22-1.26-1.04-2.52-2.52-3.62c-4.27-3.01-12.22-3.45-17.76-0.93
		c-2.69,1.21-4.33,2.9-4.77,4.71c-0.11-0.22-0.11-0.44-0.11-0.65c0-2.14,1.64-4.28,4.87-5.76c5.54-2.46,13.48-2.03,17.76,0.99
		C84.42,183.56,85.3,185.09,85.3,186.63z"/>
	<path class="st2" d="M85.3,186.63c0,0.33-0.05,0.6-0.11,0.93c-0.22-1.26-1.04-2.52-2.52-3.62c-4.27-3.01-12.22-3.45-17.76-0.93
		c-2.69,1.21-4.33,2.9-4.77,4.71c-0.06,0.06-0.06,0.06-0.06,0.11c-0.05-0.28-0.05-0.49-0.05-0.77c0-2.14,1.64-4.28,4.87-5.76
		c5.54-2.46,13.48-2.03,17.76,0.99C84.42,183.56,85.3,185.09,85.3,186.63z"/>
</g>
<g>
	<path class="st3" d="M124.7,208.71v0.05c-0.28-1.31-1.1-2.52-2.57-3.56c-4.28-3.07-12.22-3.51-17.76-0.99
		c-2.74,1.26-4.39,3.01-4.77,4.82c-0.28-1.32,0.11-2.63,1.15-3.84c0.22-0.28,0.44-0.49,0.71-0.71c0.71-0.71,1.7-1.37,2.91-1.92
		c5.53-2.52,13.48-2.08,17.76,0.99c0.44,0.33,0.82,0.66,1.21,1.04c0.66,0.65,1.04,1.42,1.26,2.13
		C124.81,207.4,124.81,208.05,124.7,208.71z"/>
	<path class="st2" d="M124.7,208.71v0.05c-0.28-1.31-1.1-2.52-2.57-3.56c-4.28-3.07-12.22-3.51-17.76-0.99
		c-2.74,1.26-4.39,3.01-4.77,4.82c-0.22-1.32,0.17-2.63,1.15-3.84c0.22-0.28,0.44-0.49,0.71-0.71c0.71-0.71,1.7-1.37,2.91-1.92
		c5.53-2.52,13.48-2.08,17.76,0.99c0.44,0.33,0.82,0.66,1.21,1.04c0.66,0.65,1.09,1.37,1.26,2.13
		C124.81,207.4,124.87,208.05,124.7,208.71z"/>
</g>
<g>
	<path class="st3" d="M166.68,126.4c-0.22-1.1-0.88-2.08-2.14-3.02c-3.62-2.58-10.3-2.9-14.96-0.82c-2.3,1.04-3.67,2.52-4.06,4.05
		c-0.22-1.32,0.33-2.63,1.53-3.78c0.44-0.44,0.93-0.82,1.53-1.15c0.33-0.17,0.66-0.33,0.99-0.49c4.66-2.14,11.34-1.76,14.96,0.82
		c0.38,0.27,0.71,0.55,0.99,0.88C166.57,123.99,166.9,125.19,166.68,126.4z"/>
	<path class="st2" d="M166.68,126.4c-0.22-1.1-0.88-2.08-2.14-3.02c-3.62-2.58-10.3-2.9-14.96-0.82c-2.3,1.04-3.67,2.52-4.06,4.05
		c-0.22-1.32,0.33-2.63,1.53-3.78c0.44-0.44,0.93-0.82,1.53-1.15c0.33-0.17,0.66-0.33,0.99-0.49c4.66-2.14,11.34-1.76,14.96,0.82
		c0.38,0.27,0.71,0.55,0.99,0.88C166.57,123.99,166.9,125.19,166.68,126.4z"/>
</g>
<g>
	<path class="st3" d="M93.9,154.29v0.16c0,0.28-0.05,0.5-0.11,0.77c-0.16-1.1-0.87-2.14-2.13-3.01c-3.56-2.58-10.25-2.96-14.91-0.82
		c-2.3,1.04-3.62,2.47-4.05,4c-0.33-2.03,1.04-4.06,4.05-5.42c4.66-2.08,11.35-1.7,14.91,0.82c0.77,0.54,1.31,1.15,1.7,1.75
		C93.69,153.09,93.9,153.69,93.9,154.29z"/>
	<path class="st2" d="M93.9,154.29v0.16c0,0.28-0.05,0.5-0.11,0.77c-0.16-1.1-0.87-2.14-2.13-3.01c-3.56-2.58-10.25-2.96-14.91-0.82
		c-2.3,1.04-3.62,2.47-4.05,4c-0.33-2.03,1.04-4.06,4.05-5.42c4.66-2.08,11.35-1.7,14.91,0.82c0.77,0.54,1.31,1.15,1.7,1.75
		C93.69,153.09,93.9,153.69,93.9,154.29z"/>
</g>
<g>
	<path class="st3" d="M117.69,125.58c-0.22-1.09-0.87-2.14-2.13-3.01c-3.62-2.58-10.31-2.96-14.97-0.88c-2.3,1.1-3.67,2.57-4,4.11
		c-0.11-0.65-0.05-1.37,0.22-2.03c0.22-0.6,0.66-1.26,1.32-1.81c0.44-0.44,0.93-0.82,1.53-1.15c0.27-0.16,0.6-0.33,0.93-0.49
		c4.66-2.08,11.35-1.75,14.97,0.82c0.38,0.28,0.71,0.55,0.98,0.88c0.55,0.55,0.94,1.15,1.1,1.81c0,0,0,0,0,0.05
		C117.8,124.43,117.8,125.03,117.69,125.58z"/>
	<path class="st2" d="M117.69,125.58c-0.22-1.09-0.87-2.14-2.13-3.01c-3.62-2.58-10.31-2.96-14.97-0.88c-2.3,1.1-3.67,2.57-4,4.11
		c-0.11-0.65-0.05-1.37,0.22-2.03c0.22-0.6,0.66-1.26,1.32-1.81c0.44-0.44,0.93-0.82,1.53-1.15c0.27-0.16,0.6-0.33,0.93-0.49
		c4.66-2.08,11.35-1.75,14.97,0.82c0.38,0.28,0.71,0.55,0.98,0.88c0.55,0.55,0.88,1.15,1.1,1.81c0,0,0,0,0,0.05
		C117.8,124.43,117.8,125.03,117.69,125.58z"/>
</g>
<path class="st0" d="M152.71,92.05v-0.49c0,0.22-0.05,0.44-0.05,0.71c0,0.33,0,0.66,0.11,0.99
	C152.71,92.87,152.71,92.43,152.71,92.05z M187.56,86.74l-8.66-4.39l-6.14-3.12l-4.88,2.58l-14.47,7.67
	c-0.17,0.27-0.27,0.55-0.33,0.82c0-0.27,0.11-0.49,0.22-0.77L20.64,159.83v4.71l110.7,63.73l152.12-88.17v-4.71L187.56,86.74z
	 M144.33,135.29c5.53-2.52,13.42-2.08,17.76,0.99c1.48,1.09,2.3,2.36,2.52,3.62c-0.38,1.81-2.03,3.56-4.82,4.82
	c-5.48,2.52-13.42,2.08-17.7-0.99c-1.59-1.1-2.41-2.41-2.52-3.73C140,138.25,141.59,136.55,144.33,135.29z M168.82,115.56
	c4.66-2.08,11.34-1.75,14.96,0.82c1.26,0.93,1.92,1.92,2.14,3.01v0.06c-0.38,1.48-1.7,2.96-4.05,4.05
	c-4.66,2.08-11.34,1.75-14.96-0.82c-1.26-0.93-1.98-1.97-2.14-3.07C165.15,118.08,166.52,116.6,168.82,115.56z M204.94,108.05
	c5.48-2.52,13.42-2.08,17.7,0.99c1.54,1.09,2.3,2.25,2.58,3.51v0.06c-0.44,1.81-2.03,3.62-4.82,4.87
	c-5.53,2.52-13.48,2.08-17.75-0.99c-1.48-1.04-2.35-2.3-2.52-3.62C200.5,111.07,202.14,109.31,204.94,108.05z M219.18,143.34
	c0.55,0.38,0.99,0.77,1.42,1.21c0.11,0.11,0.22,0.22,0.33,0.33c0.22,0.22,0.38,0.38,0.49,0.6c0.17,0.22,0.27,0.38,0.44,0.6
	c0.55,0.77,0.88,1.59,1.1,2.41c0.06,0.05,0,0.05,0,0.11c-0.6,2.69-3.01,5.32-7.12,7.18c-8.17,3.73-19.89,3.07-26.19-1.42
	c-2.24-1.59-3.4-3.4-3.73-5.32v-0.05c0.17-0.66,0.44-1.32,0.82-1.98c0.39-0.65,0.88-1.26,1.48-1.86c1.15-1.21,2.79-2.3,4.77-3.23
	C201.15,138.19,212.88,138.85,219.18,143.34z M169.04,176c5.54-2.52,13.48-2.09,17.76,0.93c1.48,1.1,2.3,2.25,2.58,3.51v0.06
	c-0.44,1.81-2.03,3.62-4.82,4.88c-5.54,2.52-13.48,2.08-17.76-0.99c-1.48-1.04-2.3-2.31-2.52-3.56
	C164.66,178.96,166.3,177.21,169.04,176z M119.94,161.43c8.11-3.73,19.84-3.07,26.2,1.42c2.19,1.59,3.4,3.45,3.72,5.32
	c-0.6,2.68-2.96,5.32-7.07,7.12c-8.17,3.72-19.9,3.07-26.2-1.42c-2.19-1.59-3.45-3.4-3.78-5.32
	C113.42,165.87,115.83,163.29,119.94,161.43z M123.61,197.21c5.53-2.52,13.48-2.08,17.76,0.99c1.48,1.04,2.3,2.19,2.57,3.51v0.05
	c-0.44,1.81-2.03,3.62-4.82,4.88c-5.54,2.52-13.48,2.08-17.76-0.99c-1.48-1.04-2.36-2.3-2.52-3.62
	C119.23,200.22,120.87,198.47,123.61,197.21z M239.02,128.16c5.53-2.52,13.48-2.09,17.75,0.99c1.54,1.04,2.3,2.25,2.58,3.51v0.05
	c-0.44,1.81-2.03,3.56-4.82,4.82c-5.54,2.53-13.48,2.09-17.76-0.99c-1.48-1.04-2.3-2.3-2.52-3.56
	C234.64,131.17,236.28,129.42,239.02,128.16z M153.59,91.5c0.39-0.66,0.88-1.26,1.48-1.86c1.15-1.21,2.79-2.3,4.77-3.23
	c8.17-3.73,19.89-3.07,26.19,1.42c2.25,1.59,3.45,3.45,3.78,5.32c-0.6,2.68-3.01,5.31-7.07,7.12c-8.17,3.73-19.89,3.07-26.25-1.42
	c-2.24-1.59-3.4-3.4-3.73-5.31v-0.05C152.93,92.82,153.2,92.16,153.59,91.5z M132.87,122.63c-4.66,2.13-11.34,1.75-14.91-0.82
	c-1.26-0.93-1.92-1.92-2.13-3.01v-0.06c0.11-0.38,0.27-0.77,0.49-1.15c0.22-0.33,0.49-0.71,0.82-1.04c0.66-0.71,1.53-1.32,2.69-1.86
	c4.66-2.08,11.34-1.7,14.96,0.88c1.26,0.88,1.92,1.92,2.14,3.01C136.55,120.11,135.18,121.58,132.87,122.63z M91.94,148.38
	c0.44-1.53,1.75-2.96,4.05-4c4.66-2.14,11.34-1.75,14.91,0.82c1.26,0.88,1.97,1.92,2.13,3.01c-0.33,1.54-1.7,3.02-4,4.06
	c-4.65,2.14-11.34,1.75-14.96-0.82c-1.26-0.93-1.92-1.92-2.13-3.01V148.38z M84.16,176c5.53-2.52,13.48-2.09,17.76,0.93
	c1.48,1.1,2.3,2.36,2.52,3.62c-0.38,1.81-2.03,3.56-4.82,4.82c-5.48,2.52-13.42,2.08-17.7-0.99c-1.53-1.1-2.35-2.36-2.52-3.67
	C79.83,178.91,81.47,177.21,84.16,176z M51.94,149.43c8.17-3.67,19.89-3.07,26.19,1.48c2.14,1.48,3.34,3.29,3.78,5.15
	c0.06,0.05,0,0.05,0,0.11c-0.6,2.69-3.01,5.26-7.12,7.18c-8.17,3.72-19.89,3.07-26.19-1.48c-2.25-1.59-3.4-3.45-3.73-5.32
	C45.47,153.87,47.88,151.29,51.94,149.43z"/>
<path class="st0" d="M152.71,92.05v-0.49c0,0.22-0.05,0.44-0.05,0.71c0,0.33,0,0.66,0.11,0.99
	C152.71,92.87,152.71,92.43,152.71,92.05z M172.77,71.72L20.64,159.83l110.7,63.73l152.12-88.17L172.77,71.72z M115.83,118.74
	c0.11-0.38,0.27-0.77,0.49-1.15c0.22-0.33,0.49-0.71,0.82-1.04c0.66-0.71,1.53-1.32,2.69-1.86c4.66-2.08,11.34-1.7,14.96,0.88
	c1.26,0.88,1.92,1.92,2.14,3.01c-0.38,1.53-1.76,3.01-4.06,4.05c-4.66,2.13-11.34,1.75-14.91-0.82c-1.26-0.93-1.92-1.92-2.13-3.01
	V118.74z M155.07,89.64c1.15-1.21,2.79-2.3,4.77-3.23c8.17-3.73,19.89-3.07,26.19,1.42c2.25,1.59,3.45,3.45,3.78,5.32
	c-0.6,2.68-3.01,5.31-7.07,7.12c-8.17,3.73-19.89,3.07-26.25-1.42c-2.24-1.59-3.4-3.4-3.73-5.31v-0.05
	c0.16-0.66,0.44-1.32,0.82-1.97C153.97,90.84,154.47,90.24,155.07,89.64z M168.82,115.56c4.66-2.08,11.34-1.75,14.96,0.82
	c1.26,0.93,1.92,1.92,2.14,3.01v0.06c-0.38,1.48-1.7,2.96-4.05,4.05c-4.66,2.08-11.34,1.75-14.96-0.82
	c-1.26-0.93-1.98-1.97-2.14-3.07C165.15,118.08,166.52,116.6,168.82,115.56z M153.42,89.48c-0.17,0.27-0.27,0.55-0.33,0.82
	c0-0.27,0.11-0.49,0.22-0.77L153.42,89.48z M48.59,161.87c-2.25-1.59-3.4-3.45-3.73-5.32c0.61-2.68,3.02-5.26,7.07-7.12
	c8.17-3.67,19.89-3.07,26.19,1.48c2.14,1.48,3.34,3.29,3.78,5.15c0.06,0.05,0,0.05,0,0.11c-0.6,2.69-3.01,5.26-7.12,7.18
	C66.62,167.07,54.89,166.41,48.59,161.87z M99.61,185.37c-5.48,2.52-13.42,2.08-17.7-0.99c-1.53-1.1-2.35-2.36-2.52-3.67
	c0.44-1.81,2.08-3.51,4.77-4.71c5.53-2.52,13.48-2.09,17.76,0.93c1.48,1.1,2.3,2.36,2.52,3.62
	C104.05,182.36,102.41,184.11,99.61,185.37z M109.03,152.28c-4.65,2.14-11.34,1.75-14.96-0.82c-1.26-0.93-1.92-1.92-2.13-3.01v-0.06
	c0.44-1.53,1.75-2.96,4.05-4c4.66-2.14,11.34-1.75,14.91,0.82c1.26,0.88,1.97,1.92,2.13,3.01
	C112.71,149.75,111.34,151.24,109.03,152.28z M143.94,201.76c-0.44,1.81-2.03,3.62-4.82,4.88c-5.54,2.52-13.48,2.08-17.76-0.99
	c-1.48-1.04-2.36-2.3-2.52-3.62c0.38-1.81,2.03-3.56,4.77-4.82c5.53-2.52,13.48-2.08,17.76,0.99c1.48,1.04,2.3,2.19,2.57,3.51
	V201.76z M142.8,175.29c-8.17,3.72-19.9,3.07-26.2-1.42c-2.19-1.59-3.45-3.4-3.78-5.32c0.6-2.68,3.01-5.26,7.12-7.12
	c8.11-3.73,19.84-3.07,26.2,1.42c2.19,1.59,3.4,3.45,3.72,5.32C149.26,170.85,146.9,173.48,142.8,175.29z M159.78,144.71
	c-5.48,2.52-13.42,2.08-17.7-0.99c-1.59-1.1-2.41-2.41-2.52-3.73c0.44-1.75,2.03-3.45,4.77-4.71c5.53-2.52,13.42-2.08,17.76,0.99
	c1.48,1.09,2.3,2.36,2.52,3.62C164.22,141.7,162.58,143.45,159.78,144.71z M189.37,180.49c-0.44,1.81-2.03,3.62-4.82,4.88
	c-5.54,2.52-13.48,2.08-17.76-0.99c-1.48-1.04-2.3-2.31-2.52-3.56c0.39-1.86,2.03-3.62,4.77-4.82c5.54-2.52,13.48-2.09,17.76,0.93
	c1.48,1.1,2.3,2.25,2.58,3.51V180.49z M222.96,148.6c-0.6,2.69-3.01,5.32-7.12,7.18c-8.17,3.73-19.89,3.07-26.19-1.42
	c-2.24-1.59-3.4-3.4-3.73-5.32v-0.05c0.17-0.66,0.44-1.32,0.82-1.98c0.39-0.65,0.88-1.26,1.48-1.86c1.15-1.21,2.79-2.3,4.77-3.23
	c8.17-3.73,19.89-3.07,26.19,1.42c0.55,0.38,0.99,0.77,1.42,1.21c0.11,0.11,0.22,0.22,0.33,0.33c0.22,0.22,0.38,0.38,0.49,0.6
	c0.17,0.22,0.27,0.38,0.44,0.6c0.55,0.77,0.88,1.59,1.1,2.41C223.02,148.55,222.96,148.55,222.96,148.6z M225.21,112.6
	c-0.44,1.81-2.03,3.62-4.82,4.87c-5.53,2.52-13.48,2.08-17.75-0.99c-1.48-1.04-2.35-2.3-2.52-3.62c0.38-1.81,2.03-3.56,4.82-4.82
	c5.48-2.52,13.42-2.08,17.7,0.99c1.54,1.09,2.3,2.25,2.58,3.51V112.6z M259.35,132.71c-0.44,1.81-2.03,3.56-4.82,4.82
	c-5.54,2.53-13.48,2.09-17.76-0.99c-1.48-1.04-2.3-2.3-2.52-3.56c0.38-1.81,2.03-3.56,4.77-4.82c5.53-2.52,13.48-2.09,17.75,0.99
	c1.54,1.04,2.3,2.25,2.58,3.51V132.71z"/>
<polygon class="st2" points="131.35,223.56 131.35,228.28 20.63,164.57 20.63,159.85 "/>
<g>
	<path class="st3" d="M189.97,91.83c0,0.44-0.05,0.87-0.16,1.32c-0.33-1.87-1.53-3.73-3.78-5.32c-6.3-4.49-18.03-5.15-26.19-1.42
		c-4.05,1.87-6.47,4.44-7.07,7.13c-0.27-1.37-0.06-2.74,0.66-4.05l-0.11,0.05c0.27-0.55,0.66-1.15,1.1-1.7
		c1.26-1.42,3.07-2.79,5.42-3.89c2.41-1.1,5.21-1.81,8.05-2.14c3.73-0.49,7.56-0.28,11.01,0.55c2.68,0.6,5.15,1.64,7.13,3.07
		c0.55,0.39,1.09,0.82,1.53,1.32C189.15,88.27,189.97,90.02,189.97,91.83z"/>
	<path class="st2" d="M189.97,91.83c0,0.44-0.05,0.87-0.16,1.32c-0.33-1.87-1.53-3.73-3.78-5.32c-6.3-4.49-18.03-5.15-26.19-1.42
		c-4.05,1.87-6.47,4.44-7.07,7.13c-0.27-1.37-0.06-2.74,0.66-4.05c0.22-0.55,0.6-1.09,0.99-1.65c1.26-1.42,3.07-2.79,5.42-3.89
		c2.41-1.1,5.21-1.81,8.05-2.14c3.73-0.49,7.56-0.28,11.01,0.55c2.68,0.6,5.15,1.64,7.13,3.07c0.55,0.39,1.09,0.82,1.53,1.32
		C189.15,88.27,189.97,90.02,189.97,91.83z"/>
</g>
<g>
	<path class="st3" d="M222.96,148.49c0.06,0.05,0,0.05,0,0.11c-0.38-1.86-1.59-3.67-3.78-5.26c-6.3-4.5-18.03-5.15-26.19-1.42
		c-4.05,1.86-6.46,4.44-7.07,7.12c-0.22-1.15-0.11-2.36,0.33-3.51c0.28-0.71,0.77-1.48,1.32-2.19c0.33-0.33,0.66-0.71,1.04-1.04
		c1.15-1.04,2.57-2.03,4.38-2.85c8.17-3.67,19.89-3.07,26.19,1.48c0.66,0.44,1.21,0.93,1.7,1.48c0.28,0.22,0.49,0.5,0.71,0.77
		c0.22,0.27,0.38,0.55,0.54,0.77C223.02,145.42,223.29,146.96,222.96,148.49z"/>
	<path class="st2" d="M222.96,148.49c0.06,0.05,0,0.05,0,0.11c-0.38-1.86-1.59-3.67-3.78-5.26c-6.3-4.5-18.03-5.15-26.19-1.42
		c-4.05,1.86-6.46,4.44-7.07,7.12c-0.22-1.15-0.11-2.36,0.33-3.51c0.33-0.71,0.77-1.48,1.32-2.19c0.33-0.33,0.66-0.71,1.04-1.04
		c1.1-1.04,2.57-2.03,4.38-2.85c8.17-3.67,19.89-3.07,26.19,1.48c0.66,0.44,1.21,0.93,1.7,1.48c0.28,0.22,0.49,0.5,0.71,0.77
		c0.22,0.27,0.38,0.55,0.54,0.77C223.02,145.42,223.29,146.96,222.96,148.49z"/>
</g>
<g>
	<path class="st3" d="M150.02,166.85c0,0.44-0.05,0.87-0.16,1.31c-0.33-1.87-1.53-3.73-3.72-5.32c-6.36-4.49-18.09-5.15-26.2-1.42
		c-4.11,1.86-6.52,4.44-7.12,7.12c-0.06-0.38-0.11-0.77-0.11-1.1c0-1.59,0.6-3.13,1.81-4.6c0.33-0.38,0.66-0.71,1.04-1.04
		c0.39-0.38,0.77-0.71,1.26-1.04c0.88-0.66,1.92-1.26,3.12-1.81c8.11-3.67,19.84-3.07,26.2,1.48
		C148.76,162.3,150.02,164.55,150.02,166.85z"/>
	<path class="st2" d="M150.02,166.85c0,0.44-0.05,0.87-0.16,1.31c-0.33-1.87-1.53-3.73-3.72-5.32c-6.36-4.49-18.09-5.15-26.2-1.42
		c-4.11,1.86-6.52,4.44-7.12,7.12c-0.06-0.38-0.11-0.77-0.11-1.1c0-1.59,0.6-3.13,1.81-4.6c0.33-0.38,0.66-0.71,1.04-1.04
		c0.39-0.38,0.77-0.71,1.26-1.04c0.88-0.66,1.92-1.26,3.12-1.81c8.11-3.67,19.84-3.07,26.2,1.48
		C148.76,162.3,150.02,164.55,150.02,166.85z"/>
</g>
<g>
	<path class="st3" d="M81.91,156.06c0.06,0.05,0,0.05,0,0.11c-0.38-1.92-1.59-3.73-3.78-5.26c-6.3-4.55-18.03-5.15-26.19-1.48
		c-4.05,1.86-6.46,4.44-7.07,7.12c-0.27-1.53,0-3.07,0.88-4.55c0-0.05,0-0.05,0.06-0.05c0.22-0.38,0.44-0.77,0.77-1.09
		c1.21-1.42,2.96-2.74,5.37-3.84c8.17-3.73,19.89-3.07,26.19,1.43c0.65,0.44,1.21,0.93,1.7,1.48c0.28,0.27,0.44,0.49,0.72,0.77
		c0.22,0.27,0.38,0.55,0.55,0.82C81.97,152.98,82.24,154.52,81.91,156.06z"/>
	<path class="st2" d="M81.95,153.76c0.13,0.76,0.12,1.53-0.04,2.3c0.06,0.05,0,0.05,0,0.11c-0.38-1.92-1.59-3.73-3.78-5.26
		c-6.3-4.55-18.03-5.15-26.19-1.48c-4.05,1.86-6.46,4.44-7.07,7.12c-0.27-1.53,0-3.07,0.88-4.55c0-0.05,0-0.05,0.06-0.05
		c0.22-0.38,0.44-0.77,0.77-1.09c1.21-1.42,2.96-2.74,5.37-3.84c8.17-3.73,19.89-3.07,26.19,1.43c0.65,0.44,1.21,0.93,1.7,1.48
		c0.28,0.27,0.44,0.49,0.72,0.77c0.22,0.27,0.38,0.55,0.55,0.82C81.53,152.22,81.82,152.98,81.95,153.76z"/>
</g>
<g>
	<path class="st3" d="M259.35,132.66c-0.27-1.26-1.04-2.47-2.58-3.51c-4.27-3.07-12.22-3.51-17.75-0.99
		c-2.74,1.26-4.38,3.01-4.77,4.82c-0.11-0.55-0.11-1.04,0-1.59c0.16-0.77,0.55-1.59,1.15-2.31c0.22-0.22,0.44-0.49,0.71-0.71
		c0.71-0.72,1.7-1.32,2.9-1.87c5.53-2.52,13.48-2.08,17.75,0.93c0.88,0.66,1.59,1.37,2.03,2.13
		C259.35,130.57,259.57,131.62,259.35,132.66z"/>
	<path class="st2" d="M259.35,132.66c-0.27-1.26-1.04-2.47-2.58-3.51c-4.27-3.07-12.22-3.51-17.75-0.99
		c-2.74,1.26-4.38,3.01-4.77,4.82c-0.11-0.55-0.11-1.04,0-1.59c0.16-0.77,0.55-1.54,1.15-2.31c0.22-0.22,0.44-0.49,0.71-0.71
		c0.71-0.72,1.7-1.32,2.9-1.87c5.53-2.52,13.48-2.08,17.75,0.93c0.88,0.66,1.59,1.37,2.03,2.13
		C259.41,130.57,259.57,131.62,259.35,132.66z"/>
</g>
<g>
	<path class="st3" d="M164.71,139.07c0,0.27-0.05,0.55-0.11,0.82c-0.22-1.26-1.04-2.52-2.52-3.62c-4.33-3.07-12.22-3.51-17.76-0.99
		c-2.74,1.26-4.33,2.96-4.77,4.71c-0.11-0.16-0.11-0.38-0.11-0.55c-0.05-2.14,1.59-4.33,4.88-5.81c5.53-2.53,13.42-2.08,17.76,0.99
		C163.89,135.94,164.71,137.48,164.71,139.07z"/>
	<path class="st2" d="M164.71,139.07c0,0.27-0.05,0.55-0.11,0.82c-0.22-1.26-1.04-2.52-2.52-3.62c-4.33-3.07-12.22-3.51-17.76-0.99
		c-2.74,1.26-4.33,2.96-4.77,4.71c-0.06,0.06-0.06,0.06-0.06,0.11c-0.06-0.22-0.06-0.44-0.06-0.66c-0.05-2.14,1.59-4.33,4.88-5.81
		c5.53-2.53,13.42-2.08,17.76,0.99C163.89,135.94,164.71,137.48,164.71,139.07z"/>
</g>
<g>
	<path class="st3" d="M189.37,180.44v0.06c-0.28-1.26-1.1-2.46-2.58-3.56c-4.27-3.01-12.22-3.45-17.76-0.93
		c-2.74,1.21-4.38,2.96-4.77,4.82c-0.27-1.32,0.11-2.63,1.15-3.89c0.22-0.22,0.44-0.49,0.71-0.71c0.72-0.72,1.7-1.37,2.91-1.92
		c5.54-2.47,13.48-2.03,17.76,0.99c0.44,0.33,0.82,0.66,1.21,1.04c0.66,0.66,1.04,1.42,1.26,2.14
		C189.48,179.12,189.48,179.79,189.37,180.44z"/>
	<path class="st2" d="M189.37,180.44v0.06c-0.28-1.26-1.1-2.46-2.58-3.56c-4.27-3.01-12.22-3.45-17.76-0.93
		c-2.74,1.21-4.38,2.96-4.77,4.82c-0.22-1.32,0.17-2.69,1.15-3.89c0.22-0.22,0.44-0.49,0.71-0.71c0.72-0.72,1.7-1.37,2.91-1.92
		c5.54-2.47,13.48-2.03,17.76,0.99c0.44,0.33,0.82,0.66,1.21,1.04c0.66,0.66,1.1,1.42,1.26,2.14
		C189.48,179.12,189.54,179.79,189.37,180.44z"/>
</g>
<g>
	<path class="st3" d="M225.21,112.54v0.06c-0.27-1.26-1.04-2.47-2.58-3.56c-4.27-3.07-12.22-3.51-17.7-0.99
		c-2.79,1.26-4.44,3.01-4.82,4.82c-0.27-1.32,0.11-2.63,1.15-3.83c0.82-0.99,2.03-1.92,3.67-2.63c5.48-2.52,13.42-2.08,17.7,0.99
		c1.31,0.93,2.14,2.03,2.47,3.18C225.32,111.23,225.32,111.89,225.21,112.54z"/>
	<path class="st2" d="M225.21,112.54v0.06c-0.27-1.26-1.04-2.47-2.58-3.56c-4.27-3.07-12.22-3.51-17.7-0.99
		c-2.79,1.26-4.44,3.01-4.82,4.82c-0.22-1.32,0.17-2.63,1.15-3.83c0.82-0.99,2.03-1.92,3.67-2.63c5.48-2.52,13.42-2.08,17.7,0.99
		c1.31,0.93,2.14,2.03,2.47,3.18C225.32,111.23,225.37,111.89,225.21,112.54z"/>
</g>
<g>
	<path class="st3" d="M104.54,179.62c0,0.33-0.05,0.6-0.11,0.93c-0.22-1.26-1.04-2.52-2.52-3.62c-4.27-3.01-12.22-3.45-17.76-0.93
		c-2.69,1.21-4.33,2.9-4.77,4.71c-0.11-0.22-0.11-0.44-0.11-0.66c0-2.14,1.64-4.27,4.87-5.76c5.53-2.47,13.48-2.03,17.76,0.99
		C103.67,176.55,104.54,178.09,104.54,179.62z"/>
	<path class="st2" d="M104.54,179.62c0,0.33-0.05,0.6-0.11,0.93c-0.22-1.26-1.04-2.52-2.52-3.62c-4.27-3.01-12.22-3.45-17.76-0.93
		c-2.69,1.21-4.33,2.9-4.77,4.71c-0.05,0.06-0.05,0.06-0.05,0.11c-0.05-0.28-0.05-0.5-0.05-0.77c0-2.14,1.64-4.27,4.87-5.76
		c5.53-2.47,13.48-2.03,17.76,0.99C103.67,176.55,104.54,178.09,104.54,179.62z"/>
</g>
<g>
	<path class="st3" d="M143.94,201.7v0.05c-0.28-1.32-1.1-2.52-2.57-3.56c-4.28-3.07-12.22-3.51-17.76-0.99
		c-2.74,1.26-4.38,3.01-4.77,4.82c-0.28-1.32,0.11-2.63,1.15-3.84c0.22-0.27,0.44-0.49,0.71-0.71c0.71-0.71,1.7-1.37,2.9-1.92
		c5.53-2.52,13.48-2.09,17.76,0.99c0.44,0.33,0.82,0.65,1.2,1.04c0.66,0.66,1.04,1.42,1.26,2.14
		C144.05,200.39,144.05,201.04,143.94,201.7z"/>
	<path class="st2" d="M143.94,201.7v0.05c-0.28-1.32-1.1-2.52-2.57-3.56c-4.28-3.07-12.22-3.51-17.76-0.99
		c-2.74,1.26-4.38,3.01-4.77,4.82c-0.22-1.32,0.16-2.63,1.15-3.84c0.22-0.27,0.44-0.49,0.71-0.71c0.71-0.71,1.7-1.37,2.9-1.92
		c5.53-2.52,13.48-2.09,17.76,0.99c0.44,0.33,0.82,0.65,1.2,1.04c0.66,0.66,1.1,1.37,1.26,2.14
		C144.05,200.39,144.11,201.04,143.94,201.7z"/>
</g>
<g>
	<path class="st3" d="M185.92,119.39c-0.22-1.1-0.88-2.08-2.14-3.01c-3.62-2.58-10.3-2.91-14.96-0.82c-2.3,1.04-3.67,2.52-4.05,4.05
		c-0.22-1.32,0.33-2.63,1.53-3.78c0.44-0.44,0.93-0.82,1.54-1.15c0.33-0.17,0.66-0.33,0.99-0.49c4.66-2.14,11.34-1.75,14.96,0.82
		c0.39,0.27,0.71,0.55,0.99,0.88C185.81,116.98,186.14,118.19,185.92,119.39z"/>
	<path class="st2" d="M185.92,119.39c-0.22-1.1-0.88-2.08-2.14-3.01c-3.62-2.58-10.3-2.91-14.96-0.82c-2.3,1.04-3.67,2.52-4.05,4.05
		c-0.22-1.32,0.33-2.63,1.53-3.78c0.44-0.44,0.93-0.82,1.54-1.15c0.33-0.17,0.66-0.33,0.99-0.49c4.66-2.14,11.34-1.75,14.96,0.82
		c0.39,0.27,0.71,0.55,0.99,0.88C185.81,116.98,186.14,118.19,185.92,119.39z"/>
</g>
<g>
	<path class="st3" d="M113.15,147.29v0.17c0,0.27-0.05,0.49-0.11,0.76c-0.16-1.1-0.88-2.13-2.13-3.01
		c-3.56-2.58-10.25-2.96-14.91-0.82c-2.3,1.04-3.62,2.47-4.05,4c-0.33-2.03,1.04-4.05,4.05-5.42c4.66-2.08,11.34-1.7,14.91,0.82
		c0.77,0.55,1.31,1.15,1.7,1.75C112.93,146.08,113.15,146.68,113.15,147.29z"/>
	<path class="st2" d="M113.15,147.29v0.17c0,0.27-0.05,0.49-0.11,0.76c-0.16-1.1-0.88-2.13-2.13-3.01
		c-3.56-2.58-10.25-2.96-14.91-0.82c-2.3,1.04-3.62,2.47-4.05,4c-0.33-2.03,1.04-4.05,4.05-5.42c4.66-2.08,11.34-1.7,14.91,0.82
		c0.77,0.55,1.31,1.15,1.7,1.75C112.93,146.08,113.15,146.68,113.15,147.29z"/>
</g>
<g>
	<path class="st3" d="M136.93,118.57c-0.22-1.1-0.88-2.14-2.14-3.01c-3.62-2.58-10.31-2.96-14.96-0.88c-2.3,1.1-3.67,2.57-4,4.11
		c-0.11-0.66-0.05-1.37,0.22-2.03c0.22-0.6,0.66-1.26,1.32-1.81c0.44-0.44,0.93-0.82,1.53-1.15c0.28-0.17,0.6-0.33,0.93-0.5
		c4.66-2.08,11.34-1.75,14.96,0.82c0.38,0.27,0.71,0.55,0.99,0.88c0.55,0.55,0.93,1.15,1.1,1.81c0,0,0,0,0,0.06
		C137.04,117.42,137.04,118.03,136.93,118.57z"/>
	<path class="st2" d="M136.93,118.57c-0.22-1.1-0.88-2.14-2.14-3.01c-3.62-2.58-10.31-2.96-14.96-0.88c-2.3,1.1-3.67,2.57-4,4.11
		c-0.11-0.66-0.05-1.37,0.22-2.03c0.22-0.6,0.66-1.26,1.32-1.81c0.44-0.44,0.93-0.82,1.53-1.15c0.28-0.17,0.6-0.33,0.93-0.5
		c4.66-2.08,11.34-1.75,14.96,0.82c0.38,0.27,0.71,0.55,0.99,0.88c0.55,0.55,0.88,1.15,1.1,1.81c0,0,0,0,0,0.06
		C137.04,117.42,137.04,118.03,136.93,118.57z"/>
</g>
<path class="st0" d="M132.08,68.67v-0.49c0,0.22-0.06,0.44-0.06,0.71c0,0.33,0,0.66,0.11,0.99
	C132.08,69.49,132.08,69.05,132.08,68.67z M166.93,63.35l-8.66-4.38l-6.14-3.12l-4.88,2.58l-14.46,7.67
	c-0.17,0.27-0.28,0.55-0.33,0.82c0-0.28,0.11-0.5,0.22-0.77L0.01,136.45v4.71l110.7,63.73l152.12-88.17v-4.71L166.93,63.35z
	 M123.69,111.9c5.53-2.52,13.43-2.08,17.75,0.98c1.48,1.1,2.3,2.36,2.52,3.62c-0.38,1.81-2.03,3.56-4.82,4.82
	c-5.48,2.52-13.42,2.08-17.7-0.99c-1.59-1.1-2.41-2.41-2.52-3.73C119.37,114.86,120.95,113.17,123.69,111.9z M148.19,92.17
	c4.66-2.08,11.34-1.75,14.96,0.83c1.26,0.93,1.92,1.92,2.14,3.01v0.05c-0.39,1.48-1.7,2.96-4.06,4.05
	c-4.66,2.09-11.34,1.76-14.96-0.82c-1.26-0.93-1.97-1.97-2.14-3.07C144.52,94.69,145.89,93.22,148.19,92.17z M184.3,84.67
	c5.48-2.52,13.42-2.09,17.7,0.99c1.53,1.1,2.3,2.25,2.58,3.51v0.06c-0.44,1.81-2.03,3.62-4.82,4.87
	c-5.53,2.52-13.48,2.08-17.76-0.99c-1.48-1.04-2.35-2.3-2.52-3.62C179.86,87.68,181.51,85.93,184.3,84.67z M198.55,119.96
	c0.55,0.38,0.99,0.77,1.42,1.21c0.11,0.11,0.22,0.22,0.33,0.33c0.22,0.22,0.38,0.38,0.49,0.6c0.16,0.22,0.27,0.38,0.44,0.6
	c0.55,0.77,0.88,1.59,1.1,2.41c0.05,0.06,0,0.06,0,0.11c-0.6,2.69-3.01,5.32-7.12,7.18c-8.17,3.73-19.89,3.07-26.19-1.42
	c-2.24-1.59-3.4-3.4-3.73-5.32v-0.05c0.17-0.66,0.44-1.31,0.82-1.97c0.38-0.66,0.88-1.26,1.48-1.86c1.15-1.21,2.8-2.3,4.77-3.23
	C180.52,114.81,192.25,115.46,198.55,119.96z M148.41,152.62c5.54-2.52,13.48-2.08,17.76,0.94c1.48,1.1,2.3,2.24,2.57,3.5v0.05
	c-0.44,1.81-2.03,3.62-4.82,4.88c-5.54,2.52-13.49,2.08-17.76-0.99c-1.48-1.04-2.31-2.31-2.52-3.56
	C144.02,155.58,145.67,153.82,148.41,152.62z M99.31,138.04c8.11-3.73,19.84-3.07,26.2,1.42c2.19,1.59,3.4,3.45,3.73,5.32
	c-0.6,2.69-2.96,5.31-7.07,7.12c-8.17,3.73-19.89,3.07-26.2-1.42c-2.19-1.59-3.45-3.4-3.78-5.32
	C92.78,142.48,95.2,139.9,99.31,138.04z M102.98,173.83c5.54-2.53,13.48-2.09,17.76,0.98c1.48,1.04,2.3,2.2,2.57,3.51v0.06
	c-0.44,1.81-2.03,3.62-4.82,4.88c-5.53,2.52-13.48,2.08-17.75-0.99c-1.48-1.04-2.36-2.31-2.52-3.62
	C98.6,176.84,100.24,175.09,102.98,173.83z M218.39,104.78c5.54-2.52,13.48-2.08,17.76,0.99c1.53,1.05,2.3,2.25,2.58,3.51v0.05
	c-0.44,1.81-2.03,3.56-4.82,4.82c-5.54,2.52-13.49,2.08-17.76-0.99c-1.48-1.04-2.3-2.31-2.52-3.57
	C214,107.79,215.65,106.04,218.39,104.78z M132.95,68.12c0.38-0.66,0.88-1.26,1.48-1.86c1.15-1.21,2.8-2.3,4.77-3.23
	c8.17-3.73,19.9-3.07,26.2,1.42c2.24,1.59,3.45,3.45,3.78,5.32c-0.6,2.69-3.01,5.32-7.06,7.12c-8.17,3.73-19.89,3.07-26.25-1.42
	c-2.24-1.59-3.39-3.4-3.72-5.31v-0.05C132.3,69.43,132.57,68.78,132.95,68.12z M112.24,99.24c-4.65,2.14-11.34,1.75-14.91-0.82
	c-1.26-0.93-1.92-1.92-2.14-3.01v-0.06c0.11-0.38,0.27-0.76,0.49-1.15c0.22-0.33,0.49-0.71,0.82-1.04c0.66-0.71,1.53-1.32,2.68-1.86
	c4.66-2.08,11.34-1.7,14.96,0.87c1.26,0.88,1.91,1.92,2.13,3.01C115.91,96.72,114.54,98.2,112.24,99.24z M71.31,125
	c0.44-1.54,1.75-2.96,4.06-4c4.65-2.14,11.34-1.75,14.9,0.82c1.26,0.88,1.97,1.92,2.14,3.02c-0.33,1.53-1.7,3.01-4,4.05
	c-4.66,2.14-11.35,1.76-14.96-0.82c-1.26-0.93-1.92-1.92-2.14-3.01V125z M63.52,152.62c5.53-2.52,13.48-2.08,17.75,0.94
	c1.48,1.1,2.31,2.35,2.52,3.61c-0.39,1.81-2.03,3.56-4.82,4.82c-5.48,2.52-13.43,2.08-17.7-0.99c-1.54-1.1-2.36-2.36-2.52-3.67
	C59.19,155.52,60.84,153.82,63.52,152.62z M31.3,126.04c8.17-3.67,19.89-3.07,26.19,1.48c2.14,1.48,3.34,3.29,3.78,5.15
	c0.05,0.05,0,0.05,0,0.11c-0.6,2.69-3.01,5.26-7.13,7.18c-8.16,3.73-19.89,3.07-26.19-1.48c-2.25-1.59-3.4-3.45-3.73-5.32
	C24.84,130.48,27.25,127.9,31.3,126.04z"/>
<path class="st0" d="M132.08,68.67v-0.49c0,0.22-0.06,0.44-0.06,0.71c0,0.33,0,0.66,0.11,0.99
	C132.08,69.49,132.08,69.05,132.08,68.67z M152.13,48.33L0.01,136.45l110.7,63.73l152.12-88.17L152.13,48.33z M95.2,95.35
	c0.11-0.38,0.27-0.76,0.49-1.15c0.22-0.33,0.49-0.71,0.82-1.04c0.66-0.71,1.53-1.32,2.68-1.86c4.66-2.08,11.34-1.7,14.96,0.87
	c1.26,0.88,1.91,1.92,2.13,3.01c-0.38,1.54-1.75,3.02-4.05,4.06c-4.65,2.14-11.34,1.75-14.91-0.82c-1.26-0.93-1.92-1.92-2.14-3.01
	V95.35z M134.43,66.26c1.15-1.21,2.8-2.3,4.77-3.23c8.17-3.73,19.9-3.07,26.2,1.42c2.24,1.59,3.45,3.45,3.78,5.32
	c-0.6,2.69-3.01,5.32-7.06,7.12c-8.17,3.73-19.89,3.07-26.25-1.42c-2.24-1.59-3.39-3.4-3.72-5.31v-0.05
	c0.16-0.66,0.44-1.32,0.82-1.98C133.34,67.46,133.83,66.86,134.43,66.26z M148.19,92.17c4.66-2.08,11.34-1.75,14.96,0.83
	c1.26,0.93,1.92,1.92,2.14,3.01v0.05c-0.39,1.48-1.7,2.96-4.06,4.05c-4.66,2.09-11.34,1.76-14.96-0.82
	c-1.26-0.93-1.97-1.97-2.14-3.07C144.52,94.69,145.89,93.22,148.19,92.17z M132.79,66.09c-0.17,0.27-0.28,0.55-0.33,0.82
	c0-0.28,0.11-0.5,0.22-0.77L132.79,66.09z M27.96,138.48c-2.25-1.59-3.4-3.45-3.73-5.32c0.6-2.69,3.01-5.26,7.07-7.12
	c8.17-3.67,19.89-3.07,26.19,1.48c2.14,1.48,3.34,3.29,3.78,5.15c0.05,0.05,0,0.05,0,0.11c-0.6,2.69-3.01,5.26-7.13,7.18
	C45.99,143.69,34.26,143.03,27.96,138.48z M78.98,161.99c-5.48,2.52-13.43,2.08-17.7-0.99c-1.54-1.1-2.36-2.36-2.52-3.67
	c0.44-1.81,2.08-3.51,4.77-4.72c5.53-2.52,13.48-2.08,17.75,0.94c1.48,1.1,2.31,2.35,2.52,3.61
	C83.41,158.98,81.77,160.73,78.98,161.99z M88.41,128.89c-4.66,2.14-11.35,1.76-14.96-0.82c-1.26-0.93-1.92-1.92-2.14-3.01V125
	c0.44-1.54,1.75-2.96,4.06-4c4.65-2.14,11.34-1.75,14.9,0.82c1.26,0.88,1.97,1.92,2.14,3.02C92.08,126.37,90.7,127.85,88.41,128.89z
	 M123.31,178.37c-0.44,1.81-2.03,3.62-4.82,4.88c-5.53,2.52-13.48,2.08-17.75-0.99c-1.48-1.04-2.36-2.31-2.52-3.62
	c0.38-1.81,2.03-3.56,4.77-4.82c5.54-2.53,13.48-2.09,17.76,0.98c1.48,1.04,2.3,2.2,2.57,3.51V178.37z M122.16,151.91
	c-8.17,3.73-19.89,3.07-26.2-1.42c-2.19-1.59-3.45-3.4-3.78-5.32c0.6-2.69,3.01-5.26,7.12-7.12c8.11-3.73,19.84-3.07,26.2,1.42
	c2.19,1.59,3.4,3.45,3.73,5.32C128.63,147.47,126.27,150.1,122.16,151.91z M139.15,121.33c-5.48,2.52-13.42,2.08-17.7-0.99
	c-1.59-1.1-2.41-2.41-2.52-3.73c0.44-1.75,2.03-3.45,4.77-4.71c5.53-2.52,13.43-2.08,17.75,0.98c1.48,1.1,2.3,2.36,2.52,3.62
	C143.59,118.31,141.94,120.07,139.15,121.33z M168.74,157.11c-0.44,1.81-2.03,3.62-4.82,4.88c-5.54,2.52-13.49,2.08-17.76-0.99
	c-1.48-1.04-2.31-2.31-2.52-3.56c0.38-1.86,2.03-3.62,4.77-4.82c5.54-2.52,13.48-2.08,17.76,0.94c1.48,1.1,2.3,2.24,2.57,3.5V157.11
	z M202.33,125.22c-0.6,2.69-3.01,5.32-7.12,7.18c-8.17,3.73-19.89,3.07-26.19-1.42c-2.24-1.59-3.4-3.4-3.73-5.32v-0.05
	c0.17-0.66,0.44-1.31,0.82-1.97c0.38-0.66,0.88-1.26,1.48-1.86c1.15-1.21,2.8-2.3,4.77-3.23c8.16-3.73,19.89-3.07,26.19,1.42
	c0.55,0.38,0.99,0.77,1.42,1.21c0.11,0.11,0.22,0.22,0.33,0.33c0.22,0.22,0.38,0.38,0.49,0.6c0.16,0.22,0.27,0.38,0.44,0.6
	c0.55,0.77,0.88,1.59,1.1,2.41C202.38,125.17,202.33,125.17,202.33,125.22z M204.58,89.22c-0.44,1.81-2.03,3.62-4.82,4.87
	c-5.53,2.52-13.48,2.08-17.76-0.99c-1.48-1.04-2.35-2.3-2.52-3.62c0.38-1.81,2.03-3.56,4.82-4.82c5.48-2.52,13.42-2.09,17.7,0.99
	c1.53,1.1,2.3,2.25,2.58,3.51V89.22z M238.72,109.33c-0.44,1.81-2.03,3.56-4.82,4.82c-5.54,2.52-13.49,2.08-17.76-0.99
	c-1.48-1.04-2.3-2.31-2.52-3.57c0.38-1.81,2.03-3.56,4.77-4.82c5.54-2.52,13.48-2.08,17.76,0.99c1.53,1.05,2.3,2.25,2.58,3.51
	V109.33z"/>
<polygon class="st2" points="110.72,200.18 110.72,204.9 0,141.19 0,136.47 "/>
<g>
	<path class="st3" d="M169.34,68.45c0,0.44-0.05,0.88-0.17,1.31c-0.32-1.86-1.53-3.73-3.78-5.32c-6.3-4.49-18.03-5.15-26.2-1.42
		c-4.05,1.86-6.46,4.44-7.07,7.13c-0.28-1.37-0.06-2.74,0.66-4.06l-0.11,0.05c0.28-0.54,0.66-1.15,1.1-1.7
		c1.27-1.42,3.07-2.79,5.42-3.89c2.41-1.1,5.21-1.81,8.06-2.14c3.73-0.49,7.56-0.27,11.01,0.55c2.69,0.6,5.15,1.64,7.13,3.07
		c0.55,0.38,1.1,0.82,1.54,1.31C168.52,64.88,169.34,66.64,169.34,68.45z"/>
	<path class="st2" d="M169.34,68.45c0,0.44-0.05,0.88-0.17,1.31c-0.32-1.86-1.53-3.73-3.78-5.32c-6.3-4.49-18.03-5.15-26.2-1.42
		c-4.05,1.86-6.46,4.44-7.07,7.13c-0.28-1.37-0.06-2.74,0.66-4.06c0.22-0.55,0.6-1.1,0.98-1.64c1.27-1.42,3.07-2.79,5.42-3.89
		c2.41-1.1,5.21-1.81,8.06-2.14c3.73-0.49,7.56-0.27,11.01,0.55c2.69,0.6,5.15,1.64,7.13,3.07c0.55,0.38,1.1,0.82,1.54,1.31
		C168.52,64.88,169.34,66.64,169.34,68.45z"/>
</g>
<g>
	<path class="st3" d="M202.33,125.11c0.05,0.06,0,0.06,0,0.11c-0.38-1.86-1.59-3.67-3.78-5.26c-6.3-4.5-18.03-5.15-26.19-1.42
		c-4.05,1.86-6.47,4.44-7.07,7.12c-0.22-1.15-0.11-2.36,0.33-3.51c0.27-0.71,0.77-1.48,1.32-2.19c0.33-0.33,0.65-0.71,1.04-1.04
		c1.15-1.04,2.58-2.03,4.39-2.85c8.16-3.67,19.89-3.07,26.19,1.48c0.66,0.44,1.21,0.93,1.7,1.48c0.27,0.22,0.49,0.5,0.71,0.77
		c0.22,0.28,0.38,0.55,0.55,0.77C202.38,122.04,202.66,123.57,202.33,125.11z"/>
	<path class="st2" d="M202.33,125.11c0.05,0.06,0,0.06,0,0.11c-0.38-1.86-1.59-3.67-3.78-5.26c-6.3-4.5-18.03-5.15-26.19-1.42
		c-4.05,1.86-6.47,4.44-7.07,7.12c-0.22-1.15-0.11-2.36,0.33-3.51c0.33-0.71,0.77-1.48,1.32-2.19c0.33-0.33,0.65-0.71,1.04-1.04
		c1.1-1.04,2.58-2.03,4.39-2.85c8.16-3.67,19.89-3.07,26.19,1.48c0.66,0.44,1.21,0.93,1.7,1.48c0.27,0.22,0.49,0.5,0.71,0.77
		c0.22,0.28,0.38,0.55,0.55,0.77C202.38,122.04,202.66,123.57,202.33,125.11z"/>
</g>
<g>
	<path class="st3" d="M129.39,143.47c0,0.44-0.05,0.87-0.16,1.31c-0.33-1.87-1.54-3.73-3.73-5.32c-6.36-4.5-18.08-5.15-26.2-1.42
		c-4.11,1.86-6.52,4.44-7.12,7.12c-0.05-0.38-0.11-0.77-0.11-1.1c0-1.59,0.6-3.12,1.81-4.6c0.33-0.38,0.66-0.71,1.04-1.04
		c0.38-0.38,0.77-0.71,1.26-1.04c0.88-0.66,1.92-1.26,3.12-1.81c8.11-3.67,19.84-3.07,26.2,1.48
		C128.13,138.92,129.39,141.16,129.39,143.47z"/>
	<path class="st2" d="M129.39,143.47c0,0.44-0.05,0.87-0.16,1.31c-0.33-1.87-1.54-3.73-3.73-5.32c-6.36-4.5-18.08-5.15-26.2-1.42
		c-4.11,1.86-6.52,4.44-7.12,7.12c-0.05-0.38-0.11-0.77-0.11-1.1c0-1.59,0.6-3.12,1.81-4.6c0.33-0.38,0.66-0.71,1.04-1.04
		c0.38-0.38,0.77-0.71,1.26-1.04c0.88-0.66,1.92-1.26,3.12-1.81c8.11-3.67,19.84-3.07,26.2,1.48
		C128.13,138.92,129.39,141.16,129.39,143.47z"/>
</g>
<g>
	<path class="st3" d="M61.28,132.67c0.05,0.05,0,0.05,0,0.11c-0.39-1.92-1.59-3.73-3.78-5.26c-6.31-4.55-18.03-5.15-26.19-1.48
		c-4.06,1.86-6.47,4.44-7.07,7.12c-0.27-1.53,0-3.07,0.88-4.55c0-0.05,0-0.05,0.06-0.05c0.22-0.38,0.44-0.77,0.76-1.09
		c1.21-1.42,2.96-2.74,5.37-3.84c8.17-3.73,19.89-3.07,26.19,1.43c0.66,0.44,1.21,0.94,1.7,1.48c0.27,0.27,0.44,0.49,0.71,0.77
		c0.22,0.28,0.38,0.55,0.55,0.82C61.33,129.6,61.61,131.14,61.28,132.67z"/>
	<path class="st2" d="M61.32,130.37c0.14,0.76,0.13,1.53-0.04,2.3c0.05,0.05,0,0.05,0,0.11c-0.39-1.92-1.59-3.73-3.78-5.26
		c-6.31-4.55-18.03-5.15-26.19-1.48c-4.06,1.86-6.47,4.44-7.07,7.12c-0.27-1.53,0-3.07,0.88-4.55c0-0.05,0-0.05,0.06-0.05
		c0.22-0.38,0.44-0.77,0.76-1.09c1.21-1.42,2.96-2.74,5.37-3.84c8.17-3.73,19.89-3.07,26.19,1.43c0.66,0.44,1.21,0.94,1.7,1.48
		c0.27,0.27,0.44,0.49,0.71,0.77c0.22,0.28,0.38,0.55,0.55,0.82C60.9,128.84,61.18,129.6,61.32,130.37z"/>
</g>
<g>
	<path class="st3" d="M238.72,109.27c-0.28-1.26-1.04-2.46-2.58-3.51c-4.27-3.07-12.22-3.51-17.76-0.99
		c-2.74,1.26-4.38,3.01-4.77,4.82c-0.11-0.54-0.11-1.04,0-1.59c0.17-0.77,0.55-1.59,1.15-2.3c0.22-0.22,0.44-0.49,0.71-0.71
		c0.72-0.71,1.7-1.31,2.91-1.86c5.54-2.52,13.48-2.08,17.76,0.93c0.88,0.66,1.59,1.37,2.03,2.13
		C238.72,107.19,238.94,108.23,238.72,109.27z"/>
	<path class="st2" d="M238.72,109.27c-0.28-1.26-1.04-2.46-2.58-3.51c-4.27-3.07-12.22-3.51-17.76-0.99
		c-2.74,1.26-4.38,3.01-4.77,4.82c-0.11-0.54-0.11-1.04,0-1.59c0.17-0.77,0.55-1.53,1.15-2.3c0.22-0.22,0.44-0.49,0.71-0.71
		c0.72-0.71,1.7-1.31,2.91-1.86c5.54-2.52,13.48-2.08,17.76,0.93c0.88,0.66,1.59,1.37,2.03,2.13
		C238.77,107.19,238.94,108.23,238.72,109.27z"/>
</g>
<g>
	<path class="st3" d="M144.08,115.68c0,0.27-0.06,0.55-0.11,0.82c-0.22-1.26-1.04-2.52-2.52-3.62c-4.33-3.07-12.22-3.5-17.75-0.98
		c-2.74,1.26-4.33,2.96-4.77,4.71c-0.11-0.16-0.11-0.38-0.11-0.55c-0.05-2.14,1.59-4.33,4.88-5.81c5.53-2.52,13.43-2.09,17.75,0.99
		C143.26,112.56,144.08,114.09,144.08,115.68z"/>
	<path class="st2" d="M144.08,115.68c0,0.27-0.06,0.55-0.11,0.82c-0.22-1.26-1.04-2.52-2.52-3.62c-4.33-3.07-12.22-3.5-17.75-0.98
		c-2.74,1.26-4.33,2.96-4.77,4.71c-0.06,0.06-0.06,0.06-0.06,0.11c-0.06-0.22-0.06-0.44-0.06-0.66c-0.05-2.14,1.59-4.33,4.88-5.81
		c5.53-2.52,13.43-2.09,17.75,0.99C143.26,112.56,144.08,114.09,144.08,115.68z"/>
</g>
<g>
	<path class="st3" d="M168.74,157.06v0.05c-0.27-1.26-1.1-2.46-2.57-3.56c-4.27-3.02-12.22-3.46-17.76-0.94
		c-2.74,1.21-4.39,2.96-4.77,4.82c-0.28-1.31,0.11-2.63,1.15-3.89c0.22-0.22,0.44-0.49,0.71-0.72c0.71-0.71,1.7-1.37,2.91-1.92
		c5.54-2.46,13.48-2.03,17.76,0.99c0.44,0.33,0.82,0.66,1.2,1.04c0.66,0.66,1.04,1.42,1.26,2.14
		C168.85,155.74,168.85,156.4,168.74,157.06z"/>
	<path class="st2" d="M168.74,157.06v0.05c-0.27-1.26-1.1-2.46-2.57-3.56c-4.27-3.02-12.22-3.46-17.76-0.94
		c-2.74,1.21-4.39,2.96-4.77,4.82c-0.22-1.31,0.17-2.68,1.15-3.89c0.22-0.22,0.44-0.49,0.71-0.72c0.71-0.71,1.7-1.37,2.91-1.92
		c5.54-2.46,13.48-2.03,17.76,0.99c0.44,0.33,0.82,0.66,1.2,1.04c0.66,0.66,1.1,1.42,1.26,2.14
		C168.85,155.74,168.9,156.4,168.74,157.06z"/>
</g>
<g>
	<path class="st3" d="M204.58,89.16v0.06c-0.28-1.26-1.04-2.47-2.58-3.56c-4.27-3.07-12.22-3.51-17.7-0.99
		c-2.8,1.26-4.44,3.01-4.82,4.82c-0.28-1.32,0.11-2.63,1.15-3.84c0.82-0.99,2.03-1.92,3.67-2.63c5.48-2.53,13.42-2.08,17.7,0.98
		c1.31,0.94,2.13,2.03,2.46,3.18C204.68,87.85,204.68,88.5,204.58,89.16z"/>
	<path class="st2" d="M204.58,89.16v0.06c-0.28-1.26-1.04-2.47-2.58-3.56c-4.27-3.07-12.22-3.51-17.7-0.99
		c-2.8,1.26-4.44,3.01-4.82,4.82c-0.22-1.32,0.17-2.63,1.15-3.84c0.82-0.99,2.03-1.92,3.67-2.63c5.48-2.53,13.42-2.08,17.7,0.98
		c1.31,0.94,2.13,2.03,2.46,3.18C204.68,87.85,204.74,88.5,204.58,89.16z"/>
</g>
<g>
	<path class="st3" d="M83.91,156.24c0,0.33-0.05,0.6-0.11,0.93c-0.22-1.26-1.04-2.52-2.52-3.61c-4.27-3.02-12.22-3.46-17.75-0.94
		c-2.69,1.21-4.33,2.91-4.77,4.72c-0.11-0.22-0.11-0.44-0.11-0.66c0-2.14,1.64-4.27,4.88-5.76c5.53-2.46,13.48-2.03,17.75,0.99
		C83.03,153.17,83.91,154.7,83.91,156.24z"/>
	<path class="st2" d="M83.91,156.24c0,0.33-0.05,0.6-0.11,0.93c-0.22-1.26-1.04-2.52-2.52-3.61c-4.27-3.02-12.22-3.46-17.75-0.94
		c-2.69,1.21-4.33,2.91-4.77,4.72c-0.05,0.05-0.05,0.05-0.05,0.11c-0.06-0.27-0.06-0.49-0.06-0.77c0-2.14,1.64-4.27,4.88-5.76
		c5.53-2.46,13.48-2.03,17.75,0.99C83.03,153.17,83.91,154.7,83.91,156.24z"/>
</g>
<g>
	<path class="st3" d="M123.31,178.32v0.06c-0.27-1.31-1.09-2.52-2.57-3.56c-4.27-3.07-12.22-3.51-17.76-0.98
		c-2.74,1.26-4.38,3.01-4.77,4.82c-0.27-1.31,0.11-2.63,1.15-3.84c0.22-0.27,0.44-0.49,0.72-0.71c0.71-0.72,1.7-1.37,2.9-1.92
		c5.54-2.52,13.48-2.09,17.76,0.98c0.44,0.33,0.82,0.66,1.21,1.04c0.65,0.66,1.04,1.42,1.26,2.14
		C123.42,177.01,123.42,177.66,123.31,178.32z"/>
	<path class="st2" d="M123.31,178.32v0.06c-0.27-1.31-1.09-2.52-2.57-3.56c-4.27-3.07-12.22-3.51-17.76-0.98
		c-2.74,1.26-4.38,3.01-4.77,4.82c-0.22-1.31,0.17-2.63,1.15-3.84c0.22-0.27,0.44-0.49,0.72-0.71c0.71-0.72,1.7-1.37,2.9-1.92
		c5.54-2.52,13.48-2.09,17.76,0.98c0.44,0.33,0.82,0.66,1.21,1.04c0.65,0.66,1.09,1.37,1.26,2.14
		C123.42,177.01,123.48,177.66,123.31,178.32z"/>
</g>
<g>
	<path class="st3" d="M165.29,96.01c-0.22-1.1-0.88-2.08-2.14-3.01c-3.62-2.58-10.3-2.91-14.96-0.83c-2.3,1.04-3.67,2.52-4.05,4.06
		c-0.22-1.32,0.33-2.63,1.53-3.78c0.44-0.44,0.93-0.82,1.53-1.15c0.33-0.17,0.66-0.33,0.99-0.49c4.66-2.14,11.34-1.76,14.96,0.82
		c0.39,0.27,0.72,0.54,0.99,0.88C165.18,93.6,165.51,94.81,165.29,96.01z"/>
	<path class="st2" d="M165.29,96.01c-0.22-1.1-0.88-2.08-2.14-3.01c-3.62-2.58-10.3-2.91-14.96-0.83c-2.3,1.04-3.67,2.52-4.05,4.06
		c-0.22-1.32,0.33-2.63,1.53-3.78c0.44-0.44,0.93-0.82,1.53-1.15c0.33-0.17,0.66-0.33,0.99-0.49c4.66-2.14,11.34-1.76,14.96,0.82
		c0.39,0.27,0.72,0.54,0.99,0.88C165.18,93.6,165.51,94.81,165.29,96.01z"/>
</g>
<g>
	<path class="st3" d="M92.51,123.9v0.16c0,0.28-0.06,0.5-0.11,0.77c-0.17-1.1-0.88-2.14-2.14-3.02c-3.56-2.58-10.25-2.96-14.9-0.82
		c-2.3,1.04-3.62,2.47-4.06,4c-0.33-2.03,1.04-4.06,4.06-5.42c4.65-2.09,11.34-1.7,14.9,0.82c0.77,0.55,1.32,1.15,1.7,1.75
		C92.29,122.7,92.51,123.3,92.51,123.9z"/>
	<path class="st2" d="M92.51,123.9v0.16c0,0.28-0.06,0.5-0.11,0.77c-0.17-1.1-0.88-2.14-2.14-3.02c-3.56-2.58-10.25-2.96-14.9-0.82
		c-2.3,1.04-3.62,2.47-4.06,4c-0.33-2.03,1.04-4.06,4.06-5.42c4.65-2.09,11.34-1.7,14.9,0.82c0.77,0.55,1.32,1.15,1.7,1.75
		C92.29,122.7,92.51,123.3,92.51,123.9z"/>
</g>
<g>
	<path class="st3" d="M116.3,95.19c-0.22-1.09-0.88-2.13-2.13-3.01c-3.62-2.57-10.31-2.95-14.96-0.87c-2.3,1.1-3.67,2.57-4,4.11
		c-0.11-0.66-0.06-1.37,0.22-2.03c0.22-0.6,0.65-1.26,1.32-1.81c0.44-0.44,0.93-0.82,1.53-1.15c0.27-0.16,0.6-0.33,0.93-0.49
		c4.66-2.08,11.34-1.75,14.96,0.82c0.38,0.28,0.71,0.55,0.98,0.88c0.55,0.54,0.93,1.15,1.1,1.81c0,0,0,0,0,0.06
		C116.4,94.04,116.4,94.64,116.3,95.19z"/>
	<path class="st2" d="M116.3,95.19c-0.22-1.09-0.88-2.13-2.13-3.01c-3.62-2.57-10.31-2.95-14.96-0.87c-2.3,1.1-3.67,2.57-4,4.11
		c-0.11-0.66-0.06-1.37,0.22-2.03c0.22-0.6,0.65-1.26,1.32-1.81c0.44-0.44,0.93-0.82,1.53-1.15c0.27-0.16,0.6-0.33,0.93-0.49
		c4.66-2.08,11.34-1.75,14.96,0.82c0.38,0.28,0.71,0.55,0.98,0.88c0.55,0.54,0.88,1.15,1.1,1.81c0,0,0,0,0,0.06
		C116.4,94.04,116.4,94.64,116.3,95.19z"/>
</g>
</svg>
