<?xml version="1.0" encoding="utf-8"?>
<!-- Generator: Adobe Illustrator 25.2.0, SVG Export Plug-In . SVG Version: 6.00 Build 0)  -->
<svg version="1.1" id="Lager_1" xmlns="http://www.w3.org/2000/svg" xmlns:xlink="http://www.w3.org/1999/xlink" x="0px" y="0px"
	 viewBox="0 0 283.46 283.46" style="enable-background:new 0 0 283.46 283.46;" xml:space="preserve">
<style type="text/css">
	.st0{fill:#CD5016;}
	.st1{fill:#EC651C;}
	.st2{fill:#ED6E24;}
	.st3{fill:#EF7C35;}
	.st4{fill:#F7B082;}
</style>
<g>
	<g>
		<g>
			<g>
				<g>
					<g>
						<g>
							<g>
								<path class="st0" d="M203.76,156.27c-26.83,13.47-57.34,17.23-86.03,26.1c-6.03,1.86-12.21,4.09-16.65,8.57
									c-5.69,5.73-7.63,14.19-12.43,20.68c-2.64,6.1-5.28,12.21-7.92,18.31c-0.33,0.76-0.72,1.84-1.21,2.48
									c-0.49,0.64-1.62,1.02-2.36,1.18c-0.09,0.02-0.19,0.04-0.26,0.1c-0.07,0.06-0.09,0.19,0.08,0.28c0.3,0.07,0.6,0.13,0.9,0.19
									c1.32,0.29,2.66-0.08,3.93-0.51c1.06-0.36,2.07-0.87,3-1.5c1.8-1.23,3.17-3,4.28-4.85c1.14-1.91,2.43-3.73,3.78-5.5
									c6.59-8.7,14.15-15.65,22.61-22.51c4.91-3.98,10.38-7.29,16.18-9.81c8.14-3.53,16.86-5.46,25.52-7.36
									c5.94-1.3,12-2.4,17.94-3.68c5.37-1.15,10.6-3.17,15.92-4.57c2.05-0.54,4.1-1.12,6.09-1.84c1.02-0.37,2-0.8,3.01-1.21
									c0.84-0.33,1.72-0.47,2.55-0.9c5.62-2.91,10.53-6.85,14.94-11.36c1.13-1.16,2.21-2.36,3.23-3.61
									c0.96-1.18,2.07-2.27,2.63-3.7c0.78-2.01,1.7-3.94,2.12-6.08c0.37-1.91,0.37-3.93-0.25-5.77c-0.82,0.62-1.28,1.48-1.89,2.25
									c-0.72,0.92-1.52,1.78-2.33,2.62c-1.65,1.69-3.43,3.24-5.31,4.67C212.06,151.8,207.96,154.15,203.76,156.27z"/>
								<path class="st1" d="M224.5,141.12l-78.88-46.28l-1.17,2.48c-4.37,9.22-13.23,17.2-24.96,22.47
									c-10.41,4.68-22,6.99-33.2,9.23l-0.93,0.19c-10.53,2.1-23.64,4.71-35.12,10.29c-5.67,2.75-11.01,6.24-15.95,9.6
									c-4.35,2.96-8.93,6.19-12.89,10.19c-4.06,4.09-7.3,8.81-10.44,13.38l-8.86,12.89l-1.07-1.85v2.8c0,2.23,1.18,4.3,3.11,5.43
									l69.71,40.91c3.83,2.24,8.75,1.15,11.26-2.51l6.73-9.79c3.02-4.39,6.13-8.93,9.87-12.69c3.65-3.68,8-6.75,12.16-9.58
									c5.52-3.76,10.24-6.77,15.31-9.24c10.11-4.9,20.88-7.28,33.91-9.88l0.94-0.19c11.48-2.29,23.35-4.65,34.28-9.57
									c10.67-4.79,19.21-11.72,24.58-19.86c1.93-2.91,2.82-6.4,2.72-9.89l0,0L224.5,141.12z"/>
								<path class="st2" d="M225.6,140.15c-0.03,1.4-0.92,3.06-2.1,4.68c-0.28,0.44-0.6,0.89-0.95,1.31
									c-0.7,0.89-1.4,1.72-2.07,2.45c-0.38,0.44-0.76,0.85-1.05,1.21c-0.03,0.03-0.03,0.03-0.06,0.06
									c-2.49,2.9-5.32,5.48-8.37,7.77c-0.44,0.37-0.92,0.7-1.37,1.02c-0.95,0.7-1.94,1.33-2.93,1.97
									c-0.51,0.32-1.02,0.64-1.56,0.96c-2.2,1.31-4.49,2.48-6.84,3.53c-1.78,0.8-3.6,1.53-5.41,2.2c-0.64,0.25-1.3,0.48-1.97,0.7
									c-1.34,0.48-2.71,0.93-4.08,1.34c-0.7,0.19-1.4,0.42-2.1,0.6c-5.48,1.56-11.02,2.77-16.49,3.89
									c-0.83,0.16-1.62,0.32-2.42,0.48c-0.61,0.13-1.18,0.23-1.78,0.35l-0.95,0.19c-0.67,0.13-1.31,0.25-1.94,0.42
									c-0.79,0.13-1.56,0.28-2.32,0.47c-8.12,1.66-15.35,3.35-22.13,5.83c-0.64,0.22-1.27,0.44-1.88,0.73
									c-1.24,0.44-2.45,0.95-3.66,1.53c-0.61,0.25-1.21,0.54-1.82,0.83c-0.06,0-0.1,0.03-0.16,0.06c-4.68,2.29-9.04,5-14.01,8.41
									c-0.41,0.29-0.83,0.57-1.27,0.86c-0.06,0.03-0.1,0.07-0.16,0.12c-0.95,0.64-1.94,1.28-2.9,1.98
									c-0.48,0.32-0.96,0.67-1.44,1.02c-2.71,1.98-5.35,4.07-7.67,6.43c-1.62,1.63-3.12,3.41-4.52,5.22
									c-0.32,0.41-0.67,0.86-0.98,1.27c-0.64,0.86-1.24,1.75-1.85,2.61c-0.32,0.44-0.64,0.85-0.92,1.3
									c-0.54,0.76-1.08,1.53-1.59,2.29c-1.18,1.69-2.32,3.38-3.5,5.1c-0.57,0.83-1.15,1.75-1.72,2.7
									c-0.29,0.45-0.54,0.9-0.83,1.34c-0.57,0.93-1.18,1.81-1.81,2.64c-0.35,0.45-0.67,0.83-1.05,1.21
									c-0.13,0.16-0.25,0.29-0.38,0.42c-4.17,4.04-9.71-1.69-13.34-3.82c-12.19-7.16-24.42-14.32-36.61-21.49
									c-6.02-3.53-12-7.04-18.02-10.57c-2.35-1.37-4.71-2.77-7.07-4.14c-1.85-1.08-5.7-2.58-6.34-4.68
									c-0.03-0.1-0.06-0.19-0.1-0.28c-0.16-0.83,0.03-1.78,0.45-2.74c0.22-0.48,0.44-0.92,0.73-1.41
									c0.54-0.89,1.21-1.78,1.85-2.61c0.35-0.45,0.67-0.86,0.99-1.27c0.67-0.8,1.24-1.53,1.66-2.1c1.4-2.07,2.8-4.11,4.23-6.18
									c0.38-0.55,0.77-1.11,1.15-1.66c0.29-0.45,0.61-0.86,0.92-1.31c0.57-0.89,1.21-1.76,1.85-2.64
									c0.32-0.41,0.64-0.83,0.95-1.27c1.69-2.26,3.53-4.46,5.54-6.5c1.97-1.97,4.08-3.76,6.21-5.41c0.48-0.35,0.92-0.7,1.37-1.02
									c0.95-0.7,1.91-1.41,2.86-2.04c0.48-0.35,0.95-0.7,1.43-1.02c0.35-0.22,0.67-0.48,1.02-0.7c4.01-2.74,8.28-5.54,12.77-7.96
									c0.54-0.32,1.08-0.61,1.65-0.86c0.51-0.28,1.02-0.54,1.53-0.8c0.64-0.32,1.31-0.61,1.95-0.92c0.6-0.26,1.21-0.52,1.81-0.77
									c6.91-2.93,14.2-4.9,21.08-6.43c0.76-0.19,1.53-0.35,2.29-0.51c1.59-0.35,3.15-0.67,4.65-0.96c0.8-0.19,1.59-0.35,2.36-0.51
									c0.32-0.07,0.67-0.12,0.99-0.19l0.95-0.19c5-0.99,10.06-2.01,15.03-3.25c0.73-0.16,1.47-0.35,2.2-0.54
									c1.46-0.38,2.9-0.76,4.3-1.21c0.7-0.19,1.37-0.38,2.04-0.64c3.28-1.02,6.5-2.2,9.62-3.59c1.18-0.51,2.32-1.09,3.47-1.69
									c0.54-0.26,1.08-0.54,1.63-0.86c1.08-0.6,2.13-1.21,3.15-1.88c0.51-0.32,0.99-0.64,1.46-0.99c2.26-1.53,4.43-3.24,6.4-5.12
									c0.83-0.8,1.66-1.59,2.39-2.45c0.38-0.38,0.73-0.8,1.08-1.21c0.7-0.8,1.34-1.66,1.98-2.51c0.06-0.1,0.13-0.16,0.19-0.26
									c0.23-0.32,0.48-0.7,0.7-1.11c1.34-2.33,2.9-5.63,5.7-5.38c1.43,0.13,3.12,1.56,4.36,2.26c3.06,1.81,6.11,3.59,9.17,5.38
									l24.55,14.42c7.32,4.27,14.61,8.56,21.9,12.83c3.66,2.17,7.32,4.3,10.95,6.43C221.04,134.8,225.72,136.55,225.6,140.15z"/>
							</g>
						</g>
					</g>
					<path class="st3" d="M155.36,105.22c-0.75-0.29-1.56-0.57-2.35-0.41c-1.18,0.23-1.95,1.33-2.65,2.31
						c-7.97,11.14-21.87,16.48-35.38,18.77c-17.59,2.97-35.89,2.29-52.51,9.46c-14.81,6.38-27.67,16.99-37.57,29.65
						c-2.69,3.44-5.21,7.06-6.92,11.08c-1.14,2.68-3.75,7.98-2.02,10.7c1.85,2.92,8.24,5.4,11.2,7.13
						c8.08,4.76,16.39,9.11,24.48,13.86c6.92,4.06,13.86,8.13,20.38,12.82c5.58-2.31,8.7-8.1,12.15-13.05
						c4.73-6.78,10.73-12.55,16.7-18.28c7.2-6.91,14.68-13.99,24-17.56c8.47-3.24,17.75-3.3,26.79-4.03
						c11.61-0.95,23.25-3.11,33.84-7.96c10.59-4.85,20.1-12.58,25.67-22.81C190.15,132.29,175.41,113.04,155.36,105.22z"/>
				</g>
			</g>
		</g>
		<path class="st4" d="M53.03,188.4c-4.55-2.9-9.4-5.37-14.51-7.12c-4.47-1.53-9.63-3.17-14.31-3.93c-0.93-0.15-1.88-0.13-2.82-0.11
			c-2.32,0.05-4.63,0.14-6.94,0.27c0.48-0.03,2.42,1.61,3.01,1.89c1.09,0.52,2.17,0.92,3.35,1.09c2.76,0.41,5.57,0.69,8.36,1.2
			c1.21,0.23,2.42,0.45,3.58,0.86c0.94,0.33,1.83,0.77,2.73,1.22c8.15,4.07,16.19,8.92,23.73,14.14c3.91,2.7,7.79,5.47,11.85,7.96
			c2.01,1.22,4.06,2.38,6.18,3.42c1.93,0.95,4.8,1.46,6.5,2.67C73.25,204.43,63.91,195.34,53.03,188.4z"/>
		<path class="st4" d="M77.14,178.19c-2.86-1.6-6.09-2.39-9.31-2.97c-5.57-1.01-11.24-1.5-16.71-2.92c-7.76-2-14.9-5.82-21.95-9.63
			c0.73,0.39,1.58,2.17,2.12,2.9c4.22,5.78,10.76,7.92,17.57,9.09c3.29,0.57,6.61,0.96,9.91,1.43c8.74,1.23,17.96,3.31,24.15,9.6
			c2.83,2.88,4.82,6.45,6.77,9.96C87,188.85,83.52,181.78,77.14,178.19z"/>
		<path class="st4" d="M93.35,170.8c-8.12-5.78-17.84-8.85-27.5-11.3c-9.67-2.45-19.53-4.38-28.72-8.25l-1.42-0.61
			c-0.18,0.91,0.67,1.67,1.45,2.18c15.85,10.46,37.49,8.75,53.21,19.4c3.82,2.59,7.14,5.82,10.45,9.04
			c2.58,2.51,5.16,5.02,7.73,7.52C105.09,181.65,99.81,175.4,93.35,170.8z"/>
		<path class="st4" d="M60.55,143.98c2.99,0.11,6.02-0.04,9.09,0.36c6,0.77,11.85,2.63,17.24,5.37c8.1,4.12,15.15,10.18,20.78,17.31
			c3.67,4.66,6.9,9.91,11.91,13.09c-2.29-2.45-3.9-5.43-5.7-8.26c-6.63-10.43-16.09-19.07-27.21-24.47
			c-11.12-5.39-23.87-7.45-36.07-5.52c0.89,0.33,1.82,0.55,2.72,0.88C55.7,143.62,58.12,143.88,60.55,143.98z"/>
		<path class="st4" d="M124.78,161.52c-2.85-1.59-5.67-3.26-8.18-5.35c-2.41-2.02-4.49-4.4-6.62-6.72
			c-2.26-2.47-4.34-5.22-7.14-7.05c-2.85-1.86-5.84-3.51-8.94-4.93c-3.1-1.42-6.3-2.6-9.58-3.55c-3.09-0.89-6.71-0.95-9.68-2.03
			c7.49,2.73,15.01,5.47,22.17,8.97c1.62,0.79,3.24,1.63,4.65,2.75c1.55,1.22,2.69,2.75,3.96,4.24c1.01,1.19,2.28,1.99,3.42,3.07
			c2.79,2.65,5.39,5.53,8.46,7.89c5.73,4.41,12.73,6.76,19.6,9.04C132.8,165.87,128.76,163.75,124.78,161.52z"/>
		<path class="st4" d="M107.23,129.73c-0.42-0.18-0.84-0.35-1.27-0.5c-1.54-0.57-3.26-1.06-4.92-1.08c-1.26-0.02-2.6,0.08-3.8-0.45
			c19.38,8.56,34.32,24.86,52.9,35.03c2.11,1.16,4.57,2.25,6.84,1.45c-8.94-3.1-16.33-9.25-23.28-15.49
			c-2.69-2.43-5.36-4.9-8.08-7.3c-2.67-2.35-5.78-4.12-8.76-6.04c-0.68-0.44-1.37-0.89-2.05-1.32
			C112.38,132.45,109.91,130.87,107.23,129.73z"/>
		<path class="st4" d="M136.27,132.62c-0.3-0.27-0.59-0.56-0.86-0.86c-0.74-0.82-1.25-1.79-2.02-2.61
			c-2.13-2.28-4.04-4.78-6.31-6.92c-1.05-0.99-2.07-2.01-3.09-3.03c-0.68-0.69-2.51-1.94-2.81-2.85c1.12,3.44,3.25,6.08,5.32,8.96
			c1.87,2.61,4.62,4.79,6.93,7.02c2.67,2.58,5.36,5.13,8.07,7.65c2.62,2.43,5.28,4.86,8.27,6.84c3.02,2,6.41,3.17,9.53,5
			c3.6,2.12,7.44,3.8,11.25,5.51c1.74,0.78,3.33,1.46,5.14,1.93c0.97,0.25,1.89,0.68,2.86,0.94c0.64,0.16,2.52,0.1,2.96,0.43
			c-5.68-4.36-12.95-6.67-19.48-9.55c-1.86-0.82-3.74-1.65-5.51-2.65c-1.86-1.05-3.6-2.29-5.3-3.57c-4.12-3.08-8.03-6.43-11.94-9.77
			C138.31,134.27,137.22,133.49,136.27,132.62z"/>
		<path class="st4" d="M183.72,144.66c-3.05-1.49-6.1-2.98-9.03-4.69c-2.45-1.44-4.82-3.03-7.15-4.66
			c-4.22-2.97-8.34-6.08-12.46-9.19c-4.53-3.42-9.05-6.84-13.58-10.26c-1.1-0.82-2.2-1.65-3.3-2.49c-0.77-0.58-1.45-1.27-2.25-1.81
			c-0.66-0.45-1.73-0.98-1.93-1.89c0.34,1.56,1.33,3.11,2.41,4.25c1.22,1.3,2.42,2.22,3.93,3.17c4.39,2.74,8.03,6.46,11.98,9.77
			c3.71,3.11,7.71,5.87,11.71,8.61c5.96,4.1,11.93,8.21,18.21,11.81c6.42,3.68,13.44,6.89,20.84,6.85
			C196.64,150.97,190.18,147.81,183.72,144.66z"/>
		<path class="st4" d="M185.39,131.24c-4.34-2.33-8.68-4.65-12.98-7.05c-2.99-1.67-5.63-3.42-8.24-5.63
			c-2.77-2.35-5.54-4.7-8.31-7.06c-4.04-3.43-8.08-6.86-12.12-10.28c1.1,2.61,2.13,4.52,4.06,6.61c1.91,2.08,4.1,3.87,6.29,5.64
			c1.07,0.87,2.15,1.75,3.22,2.62c3.36,2.73,6.94,4.64,10.6,6.9c5.89,3.63,12.05,6.82,18.2,10c3.02,1.57,6.04,3.14,9.06,4.7
			c5.87,3.04,12.04,6.17,18.66,6.16C203.81,141.1,194.55,136.15,185.39,131.24z"/>
	</g>
	<g>
		<g>
			<g>
				<g>
					<g>
						<g>
							<g>
								<path class="st0" d="M79.71,120.94c26.83,13.47,57.34,17.23,86.02,26.1c6.03,1.86,12.21,4.1,16.66,8.57
									c5.69,5.73,7.63,14.19,12.43,20.68c2.64,6.1,5.28,12.21,7.92,18.32c0.33,0.76,0.72,1.84,1.22,2.48
									c0.49,0.64,1.61,1.01,2.36,1.17c0.09,0.02,0.19,0.04,0.26,0.1c0.07,0.06,0.09,0.19-0.08,0.28c-0.3,0.06-0.59,0.13-0.89,0.19
									c-1.33,0.29-2.66-0.08-3.93-0.51c-1.06-0.36-2.07-0.87-3-1.5c-1.8-1.23-3.17-3-4.27-4.85c-1.14-1.91-2.43-3.73-3.78-5.5
									c-6.59-8.71-14.15-15.65-22.61-22.51c-4.92-3.99-10.38-7.29-16.18-9.81c-8.14-3.53-16.86-5.46-25.52-7.36
									c-5.94-1.29-11.99-2.4-17.94-3.68c-5.37-1.15-10.59-3.16-15.92-4.57c-2.05-0.54-4.09-1.12-6.09-1.84
									c-1.02-0.36-2-0.8-3.01-1.2c-0.85-0.34-1.72-0.47-2.55-0.91c-5.62-2.9-10.53-6.84-14.94-11.36
									c-1.13-1.16-2.21-2.36-3.23-3.62c-0.96-1.18-2.07-2.26-2.63-3.7c-0.78-2.01-1.7-3.93-2.12-6.07
									c-0.37-1.91-0.38-3.93,0.25-5.77c0.81,0.62,1.28,1.48,1.89,2.25c0.73,0.91,1.52,1.78,2.33,2.62
									c1.65,1.69,3.43,3.25,5.32,4.68C71.4,116.47,75.51,118.83,79.71,120.94z"/>
								<path class="st1" d="M58.96,105.79l78.88-46.28l1.18,2.48c4.36,9.21,13.23,17.2,24.95,22.47c10.42,4.68,22,6.99,33.2,9.22
									l0.93,0.18c10.53,2.11,23.64,4.72,35.12,10.29c5.67,2.75,11.02,6.24,15.95,9.6c4.35,2.97,8.93,6.2,12.89,10.19
									c4.06,4.09,7.3,8.81,10.44,13.38l8.86,12.9l1.08-1.85v2.8c0,2.23-1.18,4.3-3.11,5.43l-69.71,40.9
									c-3.83,2.25-8.75,1.16-11.27-2.5l-6.73-9.8c-3.01-4.38-6.13-8.92-9.86-12.69c-3.65-3.68-8.01-6.75-12.16-9.57
									c-5.52-3.77-10.24-6.78-15.31-9.24c-10.1-4.9-20.88-7.28-33.91-9.89l-0.93-0.18c-11.48-2.29-23.34-4.65-34.28-9.57
									c-10.67-4.79-19.21-11.72-24.58-19.85c-1.93-2.92-2.82-6.41-2.72-9.9l0,0L58.96,105.79z"/>
								<path class="st2" d="M57.87,104.81c0.03,1.4,0.92,3.06,2.1,4.68c0.29,0.45,0.61,0.9,0.95,1.31c0.7,0.89,1.4,1.72,2.07,2.45
									c0.38,0.45,0.77,0.86,1.05,1.21c0.03,0.03,0.03,0.03,0.06,0.06c2.48,2.9,5.32,5.48,8.37,7.77c0.45,0.38,0.92,0.7,1.37,1.02
									c0.95,0.7,1.94,1.33,2.93,1.98c0.51,0.32,1.02,0.64,1.56,0.95c2.2,1.3,4.49,2.49,6.84,3.54c1.78,0.79,3.6,1.52,5.41,2.19
									c0.64,0.25,1.31,0.47,1.97,0.7c1.34,0.48,2.71,0.92,4.07,1.34c0.7,0.19,1.4,0.41,2.1,0.6c5.48,1.56,11.02,2.77,16.49,3.88
									c0.83,0.16,1.62,0.32,2.42,0.48c0.6,0.13,1.18,0.22,1.78,0.35l0.95,0.19c0.67,0.13,1.31,0.25,1.94,0.41
									c0.8,0.13,1.56,0.29,2.32,0.48c8.12,1.65,15.35,3.34,22.13,5.82c0.64,0.22,1.27,0.45,1.88,0.73
									c1.24,0.45,2.45,0.96,3.66,1.53c0.61,0.25,1.21,0.54,1.82,0.82c0.06,0,0.09,0.03,0.16,0.07c4.68,2.29,9.04,5,14.01,8.41
									c0.42,0.29,0.83,0.58,1.27,0.86c0.06,0.03,0.1,0.07,0.16,0.13c0.95,0.64,1.94,1.27,2.9,1.97c0.48,0.32,0.95,0.67,1.43,1.02
									c2.71,1.98,5.35,4.08,7.67,6.43c1.62,1.62,3.12,3.41,4.52,5.22c0.32,0.41,0.67,0.86,0.98,1.27
									c0.64,0.86,1.24,1.76,1.85,2.61c0.32,0.45,0.64,0.86,0.93,1.31c0.54,0.76,1.08,1.53,1.59,2.3c1.18,1.68,2.32,3.37,3.5,5.09
									c0.57,0.83,1.15,1.76,1.72,2.71c0.29,0.45,0.54,0.9,0.83,1.34c0.57,0.92,1.18,1.82,1.82,2.64c0.35,0.45,0.67,0.82,1.05,1.21
									c0.13,0.16,0.25,0.28,0.38,0.41c4.17,4.04,9.71-1.68,13.34-3.82c12.2-7.16,24.42-14.33,36.61-21.49
									c6.02-3.53,12.01-7.04,18.02-10.57c2.36-1.37,4.71-2.77,7.07-4.14c1.85-1.08,5.7-2.58,6.34-4.68
									c0.03-0.1,0.06-0.19,0.1-0.29c0.15-0.82-0.04-1.78-0.45-2.73c-0.22-0.48-0.44-0.93-0.73-1.41
									c-0.54-0.89-1.21-1.78-1.84-2.61c-0.35-0.44-0.67-0.86-0.99-1.27c-0.67-0.8-1.24-1.53-1.65-2.1
									c-1.4-2.07-2.81-4.11-4.24-6.18c-0.38-0.54-0.76-1.11-1.15-1.66c-0.28-0.44-0.6-0.86-0.92-1.31
									c-0.57-0.89-1.21-1.75-1.85-2.64c-0.32-0.41-0.64-0.82-0.96-1.27c-1.68-2.26-3.53-4.45-5.54-6.49
									c-1.98-1.98-4.07-3.76-6.21-5.41c-0.48-0.36-0.92-0.7-1.37-1.02c-0.95-0.7-1.91-1.4-2.86-2.04
									c-0.48-0.35-0.95-0.69-1.43-1.01c-0.35-0.22-0.67-0.48-1.02-0.7c-4.01-2.73-8.28-5.54-12.77-7.96
									c-0.54-0.32-1.08-0.61-1.66-0.86c-0.51-0.28-1.02-0.54-1.53-0.79c-0.64-0.32-1.31-0.6-1.94-0.93
									c-0.61-0.25-1.21-0.51-1.82-0.76c-6.91-2.93-14.2-4.9-21.08-6.43c-0.77-0.19-1.53-0.35-2.29-0.51
									c-1.59-0.35-3.15-0.66-4.65-0.95c-0.79-0.19-1.59-0.35-2.35-0.51c-0.32-0.07-0.67-0.13-0.99-0.19l-0.96-0.19
									c-5-0.98-10.06-2-15.03-3.24c-0.73-0.16-1.46-0.35-2.19-0.54c-1.46-0.39-2.9-0.76-4.3-1.21c-0.7-0.19-1.37-0.38-2.04-0.64
									c-3.28-1.01-6.5-2.19-9.61-3.59c-1.18-0.51-2.33-1.08-3.47-1.68c-0.54-0.26-1.08-0.54-1.62-0.86
									c-1.09-0.61-2.13-1.21-3.15-1.88c-0.51-0.32-0.99-0.64-1.47-0.99c-2.26-1.53-4.42-3.25-6.4-5.13
									c-0.83-0.8-1.66-1.59-2.39-2.45c-0.38-0.38-0.73-0.8-1.08-1.21c-0.7-0.8-1.34-1.66-1.97-2.51c-0.07-0.1-0.13-0.16-0.19-0.26
									c-0.22-0.32-0.48-0.69-0.7-1.11c-1.33-2.33-2.89-5.64-5.7-5.38c-1.43,0.13-3.12,1.56-4.36,2.26
									c-3.06,1.81-6.12,3.59-9.17,5.38L97.76,78.74C90.44,83,83.15,87.3,75.86,91.57c-3.66,2.16-7.32,4.3-10.95,6.44
									C62.42,99.46,57.74,101.21,57.87,104.81z"/>
							</g>
						</g>
					</g>
					<path class="st3" d="M128.1,69.89c0.75-0.3,1.56-0.57,2.35-0.42c1.18,0.23,1.95,1.33,2.65,2.3
						c7.97,11.15,21.87,16.49,35.38,18.77c17.59,2.97,35.89,2.3,52.51,9.45c14.8,6.38,27.67,16.99,37.57,29.64
						c2.69,3.44,5.21,7.07,6.92,11.08c1.14,2.69,3.74,7.98,2.02,10.71c-1.85,2.92-8.25,5.39-11.2,7.13
						c-8.09,4.75-16.39,9.11-24.48,13.86c-6.93,4.06-13.86,8.13-20.38,12.82c-5.58-2.31-8.7-8.09-12.15-13.05
						c-4.73-6.78-10.73-12.55-16.69-18.27c-7.2-6.92-14.68-14-24-17.56c-8.47-3.24-17.75-3.31-26.79-4.04
						c-11.61-0.94-23.25-3.1-33.84-7.95c-10.59-4.86-20.11-12.58-25.67-22.81C93.31,96.96,108.05,77.71,128.1,69.89z"/>
				</g>
			</g>
		</g>
		<path class="st4" d="M230.44,153.06c4.55-2.9,9.4-5.36,14.51-7.11c4.46-1.53,9.63-3.17,14.3-3.93c0.93-0.15,1.88-0.14,2.82-0.11
			c2.31,0.05,4.63,0.14,6.94,0.26c-0.48-0.03-2.42,1.62-3.01,1.9c-1.09,0.51-2.17,0.91-3.35,1.09c-2.76,0.41-5.57,0.68-8.36,1.2
			c-1.2,0.22-2.42,0.45-3.58,0.85c-0.94,0.33-1.83,0.78-2.73,1.22c-8.15,4.07-16.19,8.92-23.73,14.14
			c-3.91,2.7-7.79,5.47-11.86,7.95c-2.01,1.23-4.06,2.39-6.17,3.42c-1.93,0.94-4.8,1.46-6.5,2.67
			C210.22,169.1,219.55,160,230.44,153.06z"/>
		<path class="st4" d="M206.32,142.86c2.85-1.6,6.09-2.38,9.31-2.97c5.57-1.01,11.24-1.5,16.71-2.92
			c7.75-2.01,14.89-5.83,21.94-9.64c-0.72,0.39-1.58,2.17-2.12,2.9c-4.23,5.78-10.76,7.92-17.57,9.09
			c-3.29,0.57-6.61,0.96-9.92,1.43c-8.74,1.24-17.96,3.31-24.15,9.6c-2.82,2.88-4.82,6.44-6.77,9.96
			C196.46,153.52,199.95,146.45,206.32,142.86z"/>
		<path class="st4" d="M190.11,135.47c8.12-5.78,17.84-8.85,27.51-11.3c9.67-2.45,19.53-4.38,28.71-8.25l1.43-0.61
			c0.18,0.91-0.67,1.67-1.45,2.18c-15.85,10.46-37.49,8.75-53.21,19.4c-3.82,2.59-7.14,5.82-10.45,9.04
			c-2.58,2.51-5.16,5.02-7.73,7.53C178.37,146.32,183.65,140.06,190.11,135.47z"/>
		<path class="st4" d="M222.91,108.64c-2.99,0.11-6.02-0.03-9.09,0.36c-6,0.78-11.85,2.63-17.24,5.37
			c-8.1,4.11-15.15,10.18-20.78,17.31c-3.67,4.66-6.9,9.91-11.91,13.09c2.28-2.45,3.9-5.43,5.7-8.26
			c6.63-10.42,16.09-19.08,27.21-24.47c11.12-5.38,23.87-7.44,36.08-5.52c-0.89,0.33-1.83,0.55-2.72,0.88
			C227.76,108.28,225.35,108.55,222.91,108.64z"/>
		<path class="st4" d="M158.68,126.19c2.85-1.59,5.68-3.26,8.18-5.35c2.42-2.02,4.49-4.4,6.62-6.73c2.26-2.47,4.35-5.22,7.15-7.05
			c2.85-1.87,5.84-3.51,8.94-4.93c3.1-1.42,6.3-2.6,9.58-3.54c3.09-0.89,6.71-0.95,9.68-2.03c-7.49,2.73-15.01,5.47-22.17,8.97
			c-1.62,0.79-3.24,1.63-4.65,2.75c-1.55,1.23-2.69,2.75-3.96,4.24c-1.01,1.19-2.28,1.99-3.42,3.07c-2.8,2.66-5.4,5.53-8.46,7.9
			c-5.73,4.41-12.74,6.76-19.6,9.05C150.66,130.53,154.7,128.41,158.68,126.19z"/>
		<path class="st4" d="M176.23,94.4c0.42-0.18,0.84-0.35,1.27-0.5c1.54-0.57,3.26-1.06,4.92-1.08c1.26-0.01,2.6,0.08,3.8-0.45
			c-19.38,8.56-34.32,24.86-52.9,35.03c-2.11,1.16-4.57,2.26-6.84,1.47c8.94-3.12,16.34-9.25,23.28-15.5c2.7-2.43,5.36-4.9,8.08-7.3
			c2.67-2.35,5.78-4.12,8.76-6.04c0.68-0.44,1.37-0.89,2.05-1.33C171.08,97.12,173.55,95.54,176.23,94.4z"/>
		<path class="st4" d="M147.19,97.29c0.3-0.28,0.59-0.57,0.86-0.87c0.74-0.82,1.25-1.79,2.02-2.61c2.13-2.28,4.04-4.77,6.31-6.92
			c1.05-1,2.07-2.01,3.1-3.03c0.68-0.69,2.51-1.94,2.8-2.85c-1.13,3.44-3.25,6.07-5.32,8.96c-1.87,2.62-4.63,4.8-6.93,7.02
			c-2.67,2.58-5.36,5.12-8.08,7.65c-2.62,2.43-5.28,4.86-8.27,6.84c-3.02,2-6.41,3.18-9.52,5.01c-3.61,2.12-7.44,3.79-11.25,5.51
			c-1.73,0.78-3.33,1.46-5.14,1.93c-0.97,0.25-1.89,0.68-2.86,0.94c-0.63,0.16-2.52,0.1-2.96,0.44c5.68-4.36,12.95-6.68,19.48-9.56
			c1.87-0.82,3.74-1.64,5.52-2.65c1.85-1.05,3.6-2.28,5.3-3.57c4.11-3.09,8.03-6.43,11.94-9.77
			C145.15,98.94,146.24,98.16,147.19,97.29z"/>
		<path class="st4" d="M99.74,109.33c3.05-1.49,6.1-2.98,9.03-4.7c2.45-1.43,4.81-3.03,7.14-4.66c4.23-2.97,8.34-6.08,12.47-9.19
			c4.52-3.43,9.05-6.84,13.58-10.26c1.1-0.83,2.2-1.66,3.3-2.49c0.77-0.58,1.45-1.26,2.25-1.81c0.66-0.46,1.73-0.98,1.93-1.89
			c-0.34,1.56-1.34,3.11-2.41,4.25c-1.23,1.3-2.42,2.23-3.93,3.17c-4.39,2.74-8.03,6.47-11.98,9.78c-3.72,3.1-7.71,5.86-11.71,8.61
			c-5.96,4.1-11.93,8.22-18.22,11.82c-6.42,3.68-13.44,6.88-20.84,6.85C86.82,115.63,93.28,112.48,99.74,109.33z"/>
		<path class="st4" d="M98.08,95.91c4.34-2.33,8.68-4.65,12.98-7.05c2.99-1.67,5.63-3.42,8.23-5.63c2.77-2.35,5.54-4.7,8.31-7.05
			c4.04-3.43,8.08-6.86,12.12-10.28c-1.09,2.61-2.13,4.52-4.06,6.61c-1.91,2.08-4.1,3.86-6.29,5.64c-1.07,0.87-2.15,1.74-3.22,2.62
			c-3.36,2.73-6.94,4.64-10.6,6.89c-5.89,3.64-12.05,6.83-18.2,10.01c-3.02,1.57-6.04,3.13-9.06,4.7
			c-5.88,3.04-12.05,6.16-18.67,6.16C79.66,105.76,88.92,100.82,98.08,95.91z"/>
	</g>
</g>
</svg>
