<?xml version="1.0" encoding="utf-8"?>
<!-- Generator: Adobe Illustrator 25.2.0, SVG Export Plug-In . SVG Version: 6.00 Build 0)  -->
<svg version="1.1" id="Lager_1" xmlns="http://www.w3.org/2000/svg" xmlns:xlink="http://www.w3.org/1999/xlink" x="0px" y="0px"
	 viewBox="0 0 283.46 283.46" style="enable-background:new 0 0 283.46 283.46;" xml:space="preserve">
<style type="text/css">
	.st0{fill:#F6DAB3;}
	.st1{fill:#F3D9B7;}
	.st2{fill:#FEE9CC;}
	.st3{fill:#FEEEDA;}
	.st4{fill:#FFF8EE;}
	.st5{fill:#FFF2E0;}
</style>
<g>
	<g>
		<g>
			<path class="st0" d="M23.35,109.57c3.79-3.27,7.74-6.34,11.83-9.22c4.89-3.43,9.99-6.45,15.73-8.19
				c6.01-1.82,13.33-0.46,19.51,0.3c13.74,1.7,27.19,5.12,40.55,8.64c7.81,2.06,15.61,4.14,23.4,6.26
				c13.61,3.7,27.28,7.57,40.16,13.43c6.36,2.88,12.51,6.26,18.22,10.29c0.88,0.63,1.76,1.44,2.67,1.99
				c0.8,0.48,1.73,0.37,2.65,0.28c2.13-0.22,4.25-0.94,6.4-0.56c0.27,0.05,0.54,0.12,0.75,0.29c0.29,0.24,0.41,0.62,0.51,0.99
				c0.21,0.82,0.37,1.65,0.48,2.49c0.42,3.25,0.13,6.53-0.31,9.75c-0.37,2.68-0.36,5.27-1.37,7.85c-1.94,4.92-5.94,8.75-9.95,12.05
				c-3.75,3.09-7.56,6.1-11.43,9.03c-26.36,19.98-55.39,36.42-86.1,48.72c-8.6,3.45-17.76,3.72-26.81,1.99
				c-8.7-1.66-15.59-7.91-22.47-13.04c-12.08-9-23.63-18.84-33.18-30.55c-6.4-7.85-12.35-16.73-14.01-26.96
				c-1.25-7.72-0.45-15.72,2.4-23.02c1.44-3.69,3.38-7.18,5.74-10.35c1.89-2.54,4.54-4.41,7.13-6.17
				C18.6,113.96,20.81,111.75,23.35,109.57z"/>
			<path class="st1" d="M194.58,153.64c-3.7,3.01-7.55,6.07-11.44,9.02c-26.42,20.02-55.38,36.43-86.09,48.74
				c-5.05,1.99-10.49,3.02-16.25,3.02c-3.41,0-6.95-0.36-10.57-1.04c-7.35-1.43-13.39-6.07-19.27-10.6
				c-1.07-0.83-2.15-1.63-3.22-2.46c-14.39-10.72-24.95-20.42-33.17-30.55c-0.59-0.72-1.19-1.43-1.78-2.15
				c-2.94-3.46-5.76-6.75-7.31-11.96c-1.67-5.56-2.46-11-2.35-16.17c0.08-3.7,0.64-7.35,1.67-10.93c1.79-6.35,5.08-12.39,9.61-17.56
				c1.47-1.67,3.06-3.22,4.69-4.73c2.5-2.3,5.2-4.41,7.91-6.56c3.45-2.66,6.87-5.24,10.6-7.31c11.6-6.4,25.07-7.15,34.17-7.15
				c1.63,0,3.22,0.04,4.81,0.08c17.64,0.48,35.48,3.38,57.76,9.45c13.94,3.78,27.49,7.67,40.16,13.43
				c6.91,3.1,12.87,6.47,18.23,10.29c5.56,3.93,11.6,8.58,12.6,13.78C207.18,141.79,200.94,148.43,194.58,153.64z"/>
			<path class="st2" d="M80.79,210.43c-3.14,0-6.44-0.32-9.81-0.97c-6.41-1.22-12.08-5.59-17.56-9.82c-1.1-0.84-2.19-1.68-3.28-2.5
				C36,186.6,25.68,177.11,17.66,167.27c-3.48-4.28-6.76-7.39-8.37-12.75c-1.46-4.84-2.29-9.89-2.19-14.96
				c0.2-9.67,4.09-18.82,10.32-25.93c3.56-4.05,7.79-7.44,12.04-10.75c3.23-2.52,6.51-5.01,10.1-7c11.07-6.12,24.27-6.91,36.91-6.57
				c19.71,0.52,37.93,4.17,56.85,9.32c13.78,3.75,27.18,7.58,39.57,13.2c6.65,3.02,12.4,6.27,17.56,9.93
				c3.33,2.35,10.24,7.23,11.01,11.28c1.15,6.02-1.57,11.09-9.4,17.53c-3.68,3.03-7.48,6.03-11.31,8.94
				c-26.13,19.82-54.79,36.03-85.18,48.19C91.03,209.51,86.05,210.43,80.79,210.43z"/>
			<g>
				<path class="st3" d="M20.62,149.51c0.39,1.18,0.82,2.34,1.25,3.49c2.43,6.34,5.51,12.44,9.17,18.16
					c1.63,2.57,3.41,5.75,5.57,7.85c2.29,2.25,6.37,3.17,9.45,3.3c2.41,0.11,4.88-0.25,7.07-1.26c3.62-1.68,6.2-4.95,8.7-8.06
					c7.16-8.9,14.98-17.46,24.58-23.64c3.73-2.4,7.71-4.43,11.2-7.16c3.49-2.73,6.54-6.31,7.56-10.63
					c1.56-6.7-2.09-13.55-6.65-18.71c-9.26-10.46-23.07-15.94-36.94-14.49c-6.23,0.66-12.54,1.44-18.59,3.1
					c-5.85,1.6-12.18,4.3-16.67,8.5c-5.59,5.24-8.41,12.98-8.75,20.63C17.27,137.02,18.57,143.4,20.62,149.51z"/>
			</g>
			<path class="st2" d="M180.47,137c-1-4.39-4.65-7.63-8.27-10.3c-7.2-5.3-14.08-10.38-22.33-14.09
				c-10.71-4.82-21.68-9.03-32.86-12.62c-5.88-1.89-12.52-3.56-18.01-0.74c-1.22,0.63-2.38,1.52-2.88,2.79
				c-1,2.56,1.02,5.27,3.08,7.08c5.03,4.42,11.19,7.56,15.6,12.6c4.41,5.03,6.54,13.15,2.25,18.29c-1.35,1.63-3.19,2.76-5.04,3.78
				c-7.5,4.16-15.67,6.93-23.46,10.53c-7.78,3.6-15.38,8.2-20.49,15.09c-2.82,3.8-4.84,8.45-4.39,13.16
				c0.62,6.49,5.95,11.84,12.09,14.03c6.14,2.19,12.92,1.7,19.3,0.36c12.62-2.68,24.31-8.56,35.6-14.82
				c11.71-6.49,23.18-13.45,34.11-21.18c5.86-4.14,11.81-8.81,14.63-15.41C180.55,142.87,181.12,139.85,180.47,137z"/>
			<path class="st1" d="M70.91,105.45c-0.33-0.55-1.11-0.87-1.66-0.54l-3.66,1.56c-1.25,1.25-2.52,2.53-3.28,4.12
				c-0.75,1.59-0.9,3.59,0.08,5.05c1.51-0.39,2.27-2.03,3.43-3.08c1.04-0.95,2.45-1.42,3.52-2.34c0.88-0.74,1.5-1.78,1.75-2.9
				C71.23,106.7,71.24,106,70.91,105.45z"/>
			<path class="st1" d="M95.02,114.37c-0.34-0.55-1.11-0.87-1.66-0.53l-3.66,1.57c-1.25,1.24-2.52,2.52-3.27,4.11
				c-0.75,1.59-0.9,3.59,0.08,5.05c1.51-0.39,2.27-2.03,3.43-3.08c1.05-0.95,2.45-1.42,3.53-2.34c0.88-0.75,1.49-1.78,1.75-2.9
				C95.34,115.61,95.35,114.92,95.02,114.37z"/>
			<path class="st1" d="M89.18,174.37c-0.34-0.55-1.11-0.87-1.66-0.53l-3.66,1.57c-1.25,1.25-2.52,2.52-3.28,4.12
				c-0.75,1.59-0.9,3.59,0.08,5.05c1.51-0.39,2.27-2.03,3.42-3.08c1.05-0.95,2.45-1.42,3.53-2.34c0.87-0.75,1.49-1.78,1.74-2.9
				C89.5,175.61,89.52,174.92,89.18,174.37z"/>
			<path class="st1" d="M117.98,163.49c-0.33-0.55-1.11-0.87-1.65-0.53l-3.67,1.56c-1.25,1.25-2.52,2.52-3.27,4.12
				c-0.75,1.59-0.9,3.59,0.08,5.05c1.51-0.39,2.27-2.03,3.43-3.08c1.04-0.95,2.45-1.42,3.53-2.34c0.88-0.74,1.49-1.78,1.75-2.9
				C118.3,164.74,118.32,164.04,117.98,163.49z"/>
			<path class="st1" d="M159.7,150.97c-0.33-0.55-1.11-0.87-1.66-0.53l-3.66,1.57c-1.25,1.25-2.52,2.52-3.28,4.12
				c-0.75,1.59-0.9,3.59,0.08,5.05c1.51-0.39,2.27-2.03,3.43-3.08c1.04-0.95,2.45-1.43,3.52-2.34c0.87-0.75,1.49-1.78,1.75-2.9
				C160.02,152.22,160.03,151.52,159.7,150.97z"/>
			<path class="st1" d="M134.54,114.84c-0.33-0.55-1.11-0.87-1.66-0.53l-3.66,1.56c-1.25,1.25-2.52,2.52-3.28,4.12
				c-0.75,1.59-0.9,3.59,0.08,5.05c1.51-0.39,2.27-2.03,3.42-3.08c1.05-0.95,2.45-1.42,3.53-2.34c0.87-0.74,1.49-1.78,1.75-2.9
				C134.85,116.09,134.87,115.39,134.54,114.84z"/>
			<path class="st1" d="M59.07,168.52c-0.34-0.55-1.11-0.87-1.66-0.54l-3.66,1.56c-1.25,1.25-2.52,2.52-3.28,4.12
				c-0.75,1.59-0.9,3.59,0.08,5.06c1.51-0.39,2.27-2.03,3.42-3.08c1.05-0.95,2.45-1.42,3.53-2.34c0.87-0.74,1.5-1.78,1.75-2.9
				C59.38,169.77,59.4,169.07,59.07,168.52z"/>
			<path class="st1" d="M59.07,145.49c-0.34-0.55-1.11-0.87-1.66-0.53l-3.66,1.57c-1.25,1.25-2.52,2.52-3.28,4.12
				c-0.75,1.59-0.9,3.59,0.08,5.06c1.51-0.39,2.27-2.03,3.42-3.08c1.05-0.95,2.45-1.43,3.53-2.34c0.87-0.74,1.5-1.78,1.75-2.9
				C59.38,146.74,59.4,146.05,59.07,145.49z"/>
			<path class="st1" d="M52.71,107.55c-2.23,0.76-4.13,2.42-5.17,4.53c-0.15,0.3-0.29,0.61-0.42,0.92
				c-0.25,0.59-0.51,1.18-0.76,1.77c0.71,0.19,1.47-0.14,2.06-0.59c0.59-0.46,1.05-1.04,1.64-1.51c0.64-0.5,1.41-0.82,2.07-1.3
				c0.67-0.48,1.24-1.2,1.22-2.02L52.71,107.55z"/>
			<path class="st1" d="M45.13,162.56c-2.23,0.76-4.13,2.42-5.17,4.52c-0.15,0.3-0.28,0.62-0.42,0.93
				c-0.25,0.59-0.51,1.18-0.76,1.76c0.72,0.19,1.48-0.14,2.06-0.6c0.58-0.46,1.05-1.04,1.64-1.5c0.65-0.5,1.41-0.82,2.07-1.3
				c0.67-0.48,1.24-1.19,1.22-2.01L45.13,162.56z"/>
			<path class="st1" d="M35.07,115.65c-2.23,0.76-4.13,2.42-5.18,4.53c-0.15,0.3-0.28,0.62-0.42,0.93
				c-0.25,0.59-0.51,1.17-0.76,1.76c0.72,0.19,1.47-0.14,2.05-0.59c0.58-0.46,1.05-1.05,1.63-1.5c0.65-0.5,1.41-0.82,2.08-1.3
				c0.66-0.48,1.24-1.2,1.21-2.02L35.07,115.65z"/>
			<path class="st1" d="M49.22,131.87c-2.23,0.76-4.13,2.42-5.17,4.53c-0.15,0.3-0.29,0.61-0.42,0.92
				c-0.25,0.59-0.51,1.18-0.76,1.76c0.71,0.19,1.47-0.14,2.06-0.59c0.58-0.46,1.05-1.04,1.63-1.5c0.65-0.5,1.41-0.83,2.08-1.31
				c0.66-0.48,1.23-1.2,1.21-2.01L49.22,131.87z"/>
			<path class="st1" d="M101.87,160.98c-2.23,0.76-4.13,2.42-5.17,4.53c-0.15,0.3-0.29,0.61-0.42,0.92
				c-0.25,0.59-0.51,1.18-0.76,1.76c0.71,0.19,1.47-0.14,2.06-0.59c0.58-0.46,1.05-1.05,1.64-1.5c0.64-0.5,1.41-0.82,2.07-1.3
				c0.67-0.48,1.24-1.2,1.22-2.01L101.87,160.98z"/>
			<path class="st1" d="M145.64,125.35c-2.23,0.76-4.13,2.43-5.17,4.53c-0.15,0.3-0.29,0.61-0.42,0.92
				c-0.25,0.58-0.51,1.17-0.76,1.76c0.72,0.2,1.48-0.14,2.06-0.59c0.58-0.46,1.05-1.05,1.63-1.5c0.65-0.5,1.41-0.82,2.07-1.3
				c0.66-0.48,1.24-1.2,1.21-2.02L145.64,125.35z"/>
			<path class="st1" d="M121.12,103.63c-2.23,0.76-4.13,2.42-5.17,4.53c-0.16,0.3-0.29,0.62-0.42,0.93
				c-0.25,0.58-0.51,1.17-0.76,1.76c0.72,0.19,1.47-0.14,2.06-0.59c0.58-0.46,1.05-1.05,1.63-1.5c0.65-0.5,1.41-0.82,2.07-1.3
				c0.66-0.48,1.23-1.2,1.22-2.02L121.12,103.63z"/>
			<path class="st1" d="M77.21,139.46c-2.23,0.76-4.13,2.42-5.18,4.53c-0.15,0.29-0.28,0.61-0.42,0.92
				c-0.25,0.59-0.51,1.18-0.76,1.76c0.72,0.19,1.47-0.14,2.06-0.59c0.58-0.46,1.05-1.05,1.63-1.5c0.65-0.5,1.41-0.82,2.07-1.31
				c0.66-0.48,1.23-1.2,1.21-2.02L77.21,139.46z"/>
			<path class="st1" d="M63.17,119.22l-0.19,2c-2.15,2.78-3.97,5.81-5.44,8.99c1.12-1.15,2.52-2,3.81-2.97
				c1.28-0.98,2.51-2.16,3.03-3.69C64.9,122.02,64.53,120.09,63.17,119.22z"/>
			<path class="st1" d="M123.89,172.26l-0.19,1.99c-2.15,2.78-3.98,5.81-5.44,9c1.12-1.16,2.52-2,3.81-2.98
				c1.28-0.98,2.51-2.16,3.03-3.69C125.62,175.06,125.25,173.12,123.89,172.26z"/>
			<path class="st1" d="M130.95,142.44l-0.19,2c-2.14,2.78-3.97,5.8-5.44,8.99c1.12-1.16,2.53-2,3.81-2.98
				c1.28-0.98,2.5-2.16,3.03-3.69C132.68,145.24,132.31,143.31,130.95,142.44z"/>
			<path class="st1" d="M167.39,130.66l-0.19,2c-2.14,2.78-3.97,5.8-5.44,8.99c1.12-1.16,2.52-2,3.81-2.98
				c1.28-0.97,2.5-2.15,3.03-3.68C169.12,133.47,168.75,131.53,167.39,130.66z"/>
			<path class="st1" d="M34.31,143.09l-0.19,2c-2.14,2.78-3.97,5.81-5.44,8.99c1.12-1.16,2.52-2,3.8-2.98
				c1.29-0.98,2.51-2.16,3.03-3.69C36.03,145.89,35.66,143.96,34.31,143.09z"/>
			<path class="st1" d="M70.24,155.2l-0.19,2c-2.15,2.78-3.97,5.8-5.44,8.99c1.12-1.16,2.53-2,3.81-2.98
				c1.28-0.98,2.5-2.16,3.03-3.68C71.97,158,71.6,156.07,70.24,155.2z"/>
			<path class="st1" d="M99.98,179.07l-0.19,2c-2.14,2.78-3.98,5.8-5.44,8.99c1.12-1.16,2.52-2,3.81-2.98
				c1.29-0.98,2.5-2.16,3.03-3.68C101.71,181.87,101.34,179.94,99.98,179.07z"/>
			<path class="st1" d="M141.38,155.67l-0.19,2c-2.15,2.78-3.97,5.8-5.44,8.99c1.12-1.16,2.52-2,3.8-2.98
				c1.29-0.98,2.5-2.16,3.03-3.69C143.11,158.47,142.74,156.54,141.38,155.67z"/>
			<path class="st1" d="M33.15,126.19l-2.08,1.53c-0.62,0.87-1.62,1.38-2.43,2.08c-2.15,1.86-2.89,4.94-2.71,7.78
				c0.46-1.9,1.49-3.65,2.91-4.99c1.62-1.51,3.75-2.52,4.94-4.39c0.25-0.4,0.46-0.87,0.38-1.32
				C34.09,126.42,33.58,126.02,33.15,126.19z"/>
			<path class="st1" d="M79.37,112.06l-2.08,1.53c-0.62,0.87-1.61,1.39-2.42,2.08c-2.16,1.86-2.89,4.94-2.71,7.78
				c0.47-1.9,1.49-3.66,2.92-4.99c1.62-1.51,3.75-2.52,4.94-4.39c0.25-0.4,0.46-0.86,0.37-1.33
				C80.31,112.28,79.81,111.89,79.37,112.06z"/>
		</g>
		<g>
			<path class="st0" d="M32.29,80.73c3.79-3.27,7.74-6.34,11.83-9.21c4.89-3.43,9.98-6.46,15.73-8.19
				c6.01-1.82,13.33-0.46,19.51,0.3c13.74,1.7,27.19,5.12,40.56,8.64c7.8,2.05,15.6,4.13,23.4,6.26
				c13.62,3.71,27.27,7.57,40.16,13.42c6.36,2.89,12.51,6.26,18.22,10.3c0.89,0.62,1.76,1.44,2.68,1.99
				c0.8,0.48,1.72,0.37,2.65,0.28c2.13-0.22,4.25-0.94,6.4-0.56c0.26,0.05,0.54,0.12,0.75,0.29c0.29,0.24,0.41,0.62,0.51,0.99
				c0.21,0.82,0.36,1.65,0.47,2.48c0.42,3.25,0.13,6.54-0.31,9.75c-0.37,2.69-0.35,5.27-1.37,7.85c-1.95,4.92-5.94,8.75-9.95,12.05
				c-3.75,3.09-7.56,6.1-11.43,9.03c-26.36,19.98-55.39,36.42-86.1,48.72c-8.6,3.44-17.76,3.71-26.81,1.99
				c-8.7-1.67-15.59-7.91-22.47-13.04c-12.08-9-23.64-18.84-33.18-30.55c-6.4-7.86-12.35-16.73-14.01-26.96
				c-1.25-7.72-0.45-15.73,2.4-23.02c1.44-3.69,3.38-7.18,5.74-10.35c1.89-2.54,4.54-4.41,7.13-6.18
				C27.54,85.12,29.76,82.91,32.29,80.73z"/>
			<path class="st1" d="M89.73,185.56c-3.4,0-6.95-0.35-10.56-1.04c-7.34-1.4-13.39-6.06-19.24-10.57
				c-1.09-0.83-2.16-1.66-3.24-2.47c-14.39-10.73-24.93-20.44-33.17-30.55c-0.6-0.74-1.2-1.46-1.79-2.15
				c-2.95-3.48-5.74-6.78-7.3-11.97c-1.67-5.56-2.46-10.99-2.36-16.18c0.21-10.29,4.23-20.4,11.3-28.48
				c3.74-4.26,8.09-7.76,12.59-11.26c3.44-2.68,6.85-5.26,10.62-7.34c11.57-6.39,25.04-7.13,34.17-7.13c1.59,0,3.19,0.02,4.77,0.07
				c17.65,0.47,35.47,3.39,57.79,9.46c13.92,3.78,27.48,7.67,40.16,13.42c6.89,3.13,12.84,6.5,18.22,10.3
				c5.58,3.94,11.62,8.58,12.62,13.78c1.81,9.5-4.44,16.12-10.79,21.34c-3.69,3.03-7.54,6.07-11.44,9.03
				c-26.41,20.03-55.38,36.42-86.09,48.72C100.96,184.54,95.5,185.56,89.73,185.56z"/>
			<path class="st2" d="M89.73,181.59c-3.14,0-6.44-0.33-9.81-0.97c-6.41-1.22-12.08-5.59-17.57-9.82c-1.1-0.84-2.19-1.69-3.28-2.5
				c-14.14-10.54-24.45-20.03-32.47-29.88c-3.48-4.28-6.76-7.39-8.37-12.75c-1.46-4.84-2.29-9.89-2.19-14.95
				c0.2-9.68,4.09-18.83,10.32-25.94c3.56-4.05,7.79-7.44,12.04-10.75c3.23-2.52,6.51-5.01,10.1-7c11.07-6.12,24.27-6.91,36.91-6.57
				c19.7,0.53,37.93,4.17,56.84,9.32c13.79,3.75,27.18,7.58,39.57,13.2c6.65,3.03,12.4,6.27,17.56,9.92
				c3.33,2.35,10.24,7.23,11.01,11.28c1.15,6.02-1.57,11.09-9.4,17.53c-3.68,3.03-7.48,6.03-11.31,8.93
				c-26.13,19.81-54.79,36.03-85.18,48.19C99.96,180.66,94.99,181.59,89.73,181.59z"/>
			<g>
				<path class="st4" d="M29.56,120.67c0.39,1.17,0.82,2.33,1.26,3.49c2.43,6.34,5.51,12.43,9.16,18.16
					c1.63,2.57,3.42,5.75,5.57,7.87c2.29,2.24,6.37,3.16,9.45,3.29c2.42,0.11,4.88-0.25,7.07-1.27c3.62-1.68,6.2-4.95,8.69-8.06
					c7.16-8.89,14.98-17.46,24.58-23.64c3.73-2.4,7.71-4.43,11.2-7.16c3.49-2.73,6.54-6.31,7.55-10.63
					c1.57-6.7-2.09-13.55-6.65-18.71C98.18,73.55,84.38,68.06,70.5,69.52c-6.23,0.65-12.54,1.44-18.59,3.09
					c-5.85,1.6-12.18,4.31-16.67,8.51c-5.59,5.23-8.41,12.98-8.75,20.62C26.2,108.17,27.5,114.55,29.56,120.67z"/>
			</g>
			<path class="st3" d="M189.41,108.15c-1-4.39-4.65-7.63-8.27-10.29c-7.2-5.3-14.08-10.38-22.33-14.1
				c-10.71-4.81-21.68-9.02-32.86-12.62c-5.88-1.89-12.52-3.55-18.01-0.73c-1.21,0.62-2.38,1.52-2.88,2.79
				c-1,2.56,1.02,5.27,3.08,7.08c5.03,4.43,11.18,7.56,15.6,12.61c4.41,5.03,6.54,13.15,2.25,18.3c-1.35,1.62-3.19,2.75-5.04,3.78
				c-7.5,4.15-15.67,6.93-23.46,10.53c-7.79,3.6-15.38,8.21-20.49,15.09c-2.82,3.8-4.84,8.45-4.39,13.16
				c0.62,6.49,5.95,11.84,12.09,14.03c6.14,2.19,12.92,1.71,19.3,0.36c12.62-2.68,24.32-8.57,35.6-14.82
				c11.71-6.49,23.18-13.45,34.11-21.18c5.86-4.15,11.81-8.81,14.63-15.42C189.48,114.03,190.06,111.01,189.41,108.15z"/>
			<path class="st1" d="M79.84,76.61c-0.33-0.55-1.11-0.87-1.66-0.54l-3.66,1.56c-1.25,1.25-2.52,2.52-3.28,4.12
				c-0.75,1.59-0.9,3.59,0.08,5.05c1.51-0.39,2.27-2.03,3.43-3.07c1.04-0.96,2.45-1.42,3.52-2.35c0.88-0.74,1.5-1.78,1.75-2.9
				C80.16,77.86,80.18,77.16,79.84,76.61z"/>
			<path class="st1" d="M103.96,85.52c-0.34-0.55-1.11-0.87-1.66-0.53l-3.66,1.56c-1.25,1.24-2.52,2.52-3.28,4.11
				c-0.75,1.59-0.9,3.59,0.08,5.05c1.51-0.39,2.27-2.03,3.42-3.08c1.05-0.95,2.45-1.42,3.53-2.34c0.88-0.75,1.5-1.78,1.75-2.9
				C104.28,86.77,104.29,86.08,103.96,85.52z"/>
			<path class="st1" d="M98.12,145.52c-0.34-0.55-1.11-0.87-1.66-0.53l-3.66,1.56c-1.26,1.25-2.53,2.53-3.28,4.12
				c-0.75,1.59-0.9,3.59,0.08,5.06c1.51-0.39,2.27-2.03,3.42-3.08c1.05-0.95,2.45-1.42,3.53-2.34c0.87-0.75,1.49-1.78,1.74-2.91
				C98.44,146.77,98.46,146.07,98.12,145.52z"/>
			<path class="st1" d="M126.92,134.64c-0.34-0.55-1.11-0.86-1.66-0.53l-3.67,1.56c-1.25,1.25-2.52,2.52-3.27,4.12
				c-0.75,1.59-0.9,3.59,0.08,5.05c1.51-0.39,2.27-2.03,3.42-3.08c1.05-0.95,2.45-1.42,3.53-2.34c0.88-0.75,1.49-1.78,1.75-2.91
				C127.24,135.9,127.26,135.2,126.92,134.64z"/>
			<path class="st1" d="M168.63,122.13c-0.33-0.55-1.1-0.87-1.66-0.53l-3.66,1.57c-1.25,1.24-2.52,2.52-3.27,4.11
				c-0.76,1.59-0.91,3.59,0.07,5.05c1.51-0.39,2.27-2.03,3.43-3.08c1.04-0.95,2.45-1.42,3.52-2.34c0.87-0.74,1.49-1.78,1.75-2.9
				C168.96,123.37,168.97,122.68,168.63,122.13z"/>
			<path class="st1" d="M143.47,86c-0.33-0.55-1.11-0.86-1.66-0.53l-3.66,1.56c-1.25,1.25-2.52,2.52-3.28,4.12
				c-0.75,1.59-0.9,3.59,0.08,5.05c1.51-0.39,2.27-2.03,3.42-3.08c1.05-0.95,2.45-1.42,3.53-2.34c0.87-0.75,1.49-1.78,1.75-2.91
				C143.79,87.25,143.8,86.55,143.47,86z"/>
			<path class="st1" d="M68,139.68c-0.33-0.55-1.11-0.87-1.66-0.54l-3.66,1.56c-1.25,1.25-2.52,2.53-3.28,4.12
				c-0.75,1.59-0.9,3.59,0.08,5.05c1.51-0.39,2.27-2.03,3.42-3.07c1.05-0.96,2.45-1.42,3.53-2.35c0.87-0.74,1.5-1.78,1.75-2.9
				C68.32,140.92,68.34,140.23,68,139.68z"/>
			<path class="st1" d="M68,116.65c-0.33-0.55-1.11-0.87-1.66-0.53l-3.66,1.56c-1.25,1.25-2.52,2.53-3.28,4.12
				c-0.75,1.59-0.9,3.59,0.08,5.05c1.51-0.39,2.27-2.03,3.42-3.08c1.05-0.95,2.45-1.42,3.53-2.34c0.87-0.74,1.5-1.78,1.75-2.9
				C68.32,117.9,68.34,117.2,68,116.65z"/>
			<path class="st1" d="M61.65,78.7c-2.23,0.76-4.13,2.42-5.18,4.53c-0.15,0.3-0.28,0.61-0.42,0.92c-0.26,0.59-0.51,1.18-0.76,1.76
				c0.72,0.19,1.48-0.13,2.06-0.59c0.58-0.46,1.05-1.04,1.64-1.5c0.64-0.5,1.41-0.82,2.07-1.3c0.67-0.48,1.24-1.2,1.22-2.02
				L61.65,78.7z"/>
			<path class="st1" d="M54.06,133.72c-2.22,0.76-4.13,2.43-5.18,4.53c-0.15,0.3-0.28,0.61-0.42,0.92c-0.25,0.59-0.5,1.18-0.76,1.76
				c0.72,0.19,1.47-0.14,2.05-0.59c0.59-0.45,1.06-1.04,1.64-1.5c0.65-0.5,1.41-0.82,2.07-1.31c0.66-0.48,1.24-1.19,1.22-2.01
				L54.06,133.72z"/>
			<path class="st1" d="M44.01,86.81c-2.23,0.76-4.13,2.42-5.18,4.52c-0.15,0.3-0.28,0.62-0.42,0.93c-0.25,0.59-0.51,1.18-0.76,1.77
				c0.72,0.19,1.48-0.14,2.06-0.59c0.58-0.46,1.05-1.05,1.63-1.51c0.65-0.5,1.42-0.81,2.08-1.3c0.66-0.48,1.23-1.2,1.21-2.02
				L44.01,86.81z"/>
			<path class="st1" d="M58.16,103.02c-2.23,0.76-4.13,2.43-5.18,4.53c-0.15,0.3-0.29,0.61-0.42,0.92
				c-0.25,0.59-0.51,1.18-0.76,1.76c0.71,0.19,1.47-0.14,2.06-0.6c0.58-0.46,1.05-1.04,1.63-1.5c0.65-0.5,1.41-0.82,2.07-1.3
				c0.67-0.48,1.24-1.2,1.21-2.02L58.16,103.02z"/>
			<path class="st1" d="M110.81,132.14c-2.23,0.76-4.13,2.43-5.18,4.53c-0.15,0.3-0.29,0.61-0.42,0.92
				c-0.25,0.59-0.51,1.18-0.76,1.76c0.72,0.2,1.47-0.14,2.06-0.59c0.58-0.46,1.05-1.04,1.64-1.5c0.64-0.5,1.41-0.82,2.07-1.3
				c0.67-0.48,1.24-1.2,1.22-2.01L110.81,132.14z"/>
			<path class="st1" d="M154.57,96.52c-2.23,0.76-4.13,2.42-5.18,4.53c-0.15,0.3-0.29,0.61-0.42,0.92
				c-0.25,0.59-0.51,1.18-0.76,1.76c0.71,0.2,1.47-0.13,2.06-0.59c0.58-0.46,1.05-1.05,1.63-1.5c0.65-0.5,1.41-0.82,2.07-1.3
				c0.66-0.48,1.24-1.2,1.21-2.02L154.57,96.52z"/>
			<path class="st1" d="M130.06,74.79c-2.22,0.76-4.13,2.42-5.17,4.53c-0.15,0.3-0.29,0.61-0.42,0.93
				c-0.25,0.59-0.51,1.17-0.76,1.76c0.72,0.19,1.47-0.14,2.06-0.59c0.58-0.46,1.05-1.05,1.63-1.5c0.65-0.5,1.41-0.82,2.07-1.3
				c0.66-0.48,1.24-1.2,1.21-2.02L130.06,74.79z"/>
			<path class="st1" d="M86.15,110.61c-2.23,0.76-4.13,2.42-5.19,4.53c-0.15,0.3-0.28,0.61-0.42,0.92
				c-0.25,0.59-0.51,1.18-0.76,1.76c0.72,0.19,1.48-0.13,2.06-0.59c0.58-0.46,1.05-1.05,1.63-1.5c0.65-0.5,1.41-0.82,2.08-1.3
				c0.66-0.48,1.24-1.2,1.21-2.02L86.15,110.61z"/>
			<path class="st1" d="M72.11,90.38l-0.19,2c-2.14,2.78-3.97,5.8-5.44,8.99c1.12-1.16,2.52-2,3.81-2.98
				c1.28-0.98,2.5-2.16,3.03-3.69C73.84,93.18,73.46,91.25,72.11,90.38z"/>
			<path class="st1" d="M132.83,143.41l-0.19,2c-2.15,2.78-3.98,5.8-5.44,8.99c1.12-1.16,2.52-2,3.81-2.98
				c1.29-0.98,2.5-2.16,3.03-3.69C134.55,146.21,134.18,144.28,132.83,143.41z"/>
			<path class="st1" d="M139.89,113.6l-0.19,1.99c-2.15,2.78-3.98,5.8-5.44,9c1.12-1.16,2.52-2,3.81-2.98
				c1.28-0.98,2.5-2.16,3.03-3.68C141.62,116.4,141.25,114.47,139.89,113.6z"/>
			<path class="st1" d="M176.33,101.82l-0.19,2c-2.14,2.78-3.97,5.8-5.44,8.99c1.12-1.16,2.53-2,3.81-2.98
				c1.28-0.98,2.5-2.16,3.03-3.69C178.06,104.62,177.69,102.69,176.33,101.82z"/>
			<path class="st1" d="M43.24,114.25l-0.19,2c-2.15,2.78-3.98,5.8-5.44,8.99c1.12-1.16,2.52-2,3.81-2.98
				c1.29-0.97,2.51-2.16,3.03-3.69C44.97,117.04,44.6,115.11,43.24,114.25z"/>
			<path class="st1" d="M79.18,126.36l-0.19,2c-2.15,2.78-3.97,5.8-5.44,8.99c1.13-1.16,2.53-2.01,3.81-2.98
				c1.28-0.98,2.51-2.16,3.03-3.69C80.91,129.16,80.54,127.23,79.18,126.36z"/>
			<path class="st1" d="M108.92,150.22l-0.19,2c-2.15,2.78-3.98,5.8-5.44,8.99c1.12-1.16,2.52-2,3.8-2.98
				c1.29-0.98,2.51-2.16,3.03-3.68C110.65,153.03,110.28,151.1,108.92,150.22z"/>
			<path class="st1" d="M150.32,126.83l-0.19,2c-2.15,2.78-3.97,5.8-5.44,9c1.12-1.16,2.52-2,3.8-2.98
				c1.29-0.97,2.51-2.15,3.04-3.69C152.05,129.63,151.68,127.7,150.32,126.83z"/>
			<path class="st1" d="M42.09,97.35l-2.08,1.53c-0.62,0.87-1.61,1.38-2.42,2.08c-2.16,1.85-2.9,4.94-2.71,7.78
				c0.46-1.9,1.49-3.66,2.91-4.99c1.62-1.51,3.75-2.52,4.94-4.39c0.25-0.4,0.46-0.87,0.38-1.33C43.02,97.58,42.52,97.18,42.09,97.35
				z"/>
			<path class="st1" d="M88.31,83.21l-2.08,1.53c-0.62,0.87-1.61,1.38-2.42,2.08c-2.16,1.85-2.89,4.93-2.71,7.78
				c0.46-1.9,1.49-3.65,2.92-4.99c1.62-1.51,3.75-2.52,4.93-4.39c0.25-0.39,0.47-0.86,0.38-1.32
				C89.25,83.44,88.75,83.04,88.31,83.21z"/>
		</g>
		<g>
			<path class="st0" d="M118.88,80.74c4.65-1.84,9.39-3.46,14.2-4.83c5.74-1.63,11.55-2.82,17.54-2.58
				c6.28,0.26,12.75,3.94,18.34,6.69c12.42,6.1,24,13.75,35.48,21.46c6.7,4.5,13.38,9.03,20.05,13.59
				c11.65,7.96,23.29,16.09,33.54,25.84c5.06,4.82,9.77,10.02,13.84,15.7c0.63,0.88,1.18,1.94,1.88,2.76
				c0.59,0.71,1.5,0.92,2.41,1.13c2.08,0.49,4.32,0.51,6.23,1.56c0.23,0.14,0.47,0.29,0.61,0.52c0.2,0.32,0.19,0.73,0.16,1.1
				c-0.08,0.84-0.2,1.67-0.38,2.51c-0.66,3.2-2.01,6.21-3.49,9.11c-1.23,2.42-2.06,4.86-3.86,6.96c-3.45,4.02-8.48,6.32-13.35,8.13
				c-4.56,1.69-9.15,3.28-13.77,4.78c-31.45,10.23-64.27,16.25-97.31,17.8c-9.25,0.44-17.99-2.31-25.97-6.92
				c-7.67-4.42-12.14-12.58-16.96-19.68c-8.45-12.46-16.15-25.55-21.32-39.74c-3.47-9.52-6.19-19.85-4.4-30.06
				c1.35-7.71,4.74-15,9.81-20.96c2.57-3.01,5.55-5.67,8.82-7.9c2.62-1.78,5.74-2.68,8.76-3.49
				C112.96,83.33,115.77,81.97,118.88,80.74z"/>
			<path class="st1" d="M138.77,198.62c-3.21-1.12-6.46-2.61-9.63-4.45c-6.48-3.72-10.67-10.12-14.71-16.3
				c-0.75-1.14-1.49-2.28-2.25-3.39c-10.08-14.86-16.86-27.49-21.32-39.73c-0.33-0.9-0.66-1.77-0.99-2.61
				c-1.65-4.26-3.2-8.28-2.97-13.7c0.24-5.8,1.28-11.2,3.08-16.06c3.57-9.65,10.68-17.89,20.01-23.2c4.93-2.8,10.18-4.68,15.59-6.51
				c4.13-1.4,8.2-2.73,12.44-3.46c13.03-2.24,26,1.47,34.62,4.47c1.5,0.52,3.01,1.06,4.49,1.63c16.52,6.23,32.39,14.84,51.49,27.88
				c11.92,8.14,23.45,16.25,33.54,25.85c5.48,5.22,10,10.35,13.83,15.7c3.98,5.55,8.16,11.92,7.4,17.15
				c-1.4,9.57-9.47,13.78-17.18,16.63c-4.48,1.65-9.12,3.26-13.77,4.78c-31.52,10.26-64.26,16.25-97.3,17.8
				C149.72,201.33,144.23,200.51,138.77,198.62z"/>
			<path class="st5" d="M140.07,194.86c-2.96-1.04-5.98-2.42-8.95-4.14c-5.66-3.25-9.58-9.24-13.38-15.04
				c-0.76-1.16-1.51-2.31-2.28-3.43c-9.9-14.59-16.53-26.94-20.89-38.87c-1.89-5.19-3.96-9.2-3.72-14.79
				c0.21-5.05,1.07-10.1,2.83-14.85c3.36-9.08,10.03-16.45,18.25-21.12c4.68-2.66,9.79-4.47,14.9-6.21c3.88-1.32,7.79-2.6,11.84-3.3
				c12.47-2.15,25.19,1.43,37.03,5.89c18.44,6.97,34.46,16.38,50.65,27.45c11.79,8.06,23.19,16.07,33.05,25.45
				c5.29,5.04,9.66,9.99,13.33,15.13c2.37,3.31,7.3,10.19,6.7,14.27c-0.88,6.05-5.12,9.96-14.63,13.47
				c-4.47,1.65-9.05,3.24-13.62,4.73c-31.18,10.15-63.57,16.07-96.26,17.6C150.05,197.34,145.04,196.59,140.07,194.86z"/>
			<g>
				<path class="st4" d="M103.2,117.58c-0.01,1.23,0,2.47,0.04,3.7c0.22,6.79,1.12,13.55,2.7,20.17c0.71,2.96,1.35,6.54,2.69,9.24
					c1.42,2.88,4.98,5.08,7.85,6.22c2.24,0.89,4.69,1.36,7.09,1.12c3.97-0.39,7.48-2.64,10.86-4.77
					c9.68-6.06,19.88-11.58,30.97-14.27c4.31-1.04,8.73-1.66,12.93-3.09c4.19-1.43,8.25-3.82,10.62-7.56
					c3.68-5.82,2.47-13.49-0.15-19.86c-5.32-12.92-16.56-22.63-30.14-25.8c-6.1-1.43-12.32-2.75-18.59-3.17
					c-6.04-0.41-12.91,0.07-18.53,2.57c-7,3.11-12.2,9.5-15.04,16.62C104.13,104.67,103.27,111.13,103.2,117.58z"/>
			</g>
			<path class="st4" d="M258.32,158.17c0.5-4.48-1.89-8.73-4.44-12.44c-5.06-7.36-9.9-14.43-16.48-20.63
				c-8.54-8.06-17.53-15.64-26.91-22.69c-4.94-3.72-10.66-7.46-16.78-6.6c-1.35,0.19-2.74,0.66-3.63,1.69
				c-1.79,2.09-0.76,5.31,0.59,7.71c3.3,5.82,8.09,10.81,10.6,17.02c2.52,6.21,1.88,14.57-3.86,18.02c-1.81,1.09-3.92,1.56-6,1.92
				c-8.44,1.47-17.08,1.41-25.61,2.25c-8.53,0.85-17.22,2.71-24.31,7.54c-3.91,2.66-7.34,6.39-8.46,10.99
				c-1.54,6.33,1.73,13.14,6.81,17.22c5.08,4.08,11.65,5.86,18.11,6.67c12.8,1.61,25.78-0.12,38.49-2.33
				c13.2-2.29,26.31-5.1,39.17-8.82c6.89-2,14.04-4.45,18.87-9.77C256.47,163.74,258,161.07,258.32,158.17z"/>
			<path class="st1" d="M165.16,92.44c-0.14-0.63-0.76-1.19-1.39-1.04l-3.97,0.27c-1.59,0.77-3.21,1.56-4.45,2.81
				c-1.24,1.26-2.03,3.1-1.58,4.8c1.55,0.13,2.81-1.17,4.24-1.78c1.3-0.55,2.79-0.54,4.1-1.05c1.07-0.42,2-1.2,2.6-2.17
				C165.05,93.73,165.29,93.07,165.16,92.44z"/>
			<path class="st1" d="M185.01,108.78c-0.13-0.63-0.77-1.19-1.39-1.05l-3.97,0.28c-1.59,0.76-3.21,1.56-4.45,2.81
				c-1.24,1.25-2.03,3.1-1.58,4.8c1.55,0.13,2.81-1.17,4.24-1.78c1.3-0.56,2.79-0.54,4.1-1.06c1.07-0.42,1.99-1.2,2.6-2.17
				C184.9,110.05,185.15,109.4,185.01,108.78z"/>
			<path class="st1" d="M159.83,163.54c-0.14-0.63-0.76-1.18-1.39-1.05l-3.97,0.27c-1.59,0.77-3.21,1.55-4.45,2.81
				c-1.23,1.26-2.03,3.1-1.58,4.8c1.55,0.13,2.81-1.17,4.24-1.78c1.3-0.55,2.79-0.54,4.1-1.05c1.07-0.42,2-1.2,2.6-2.17
				C159.72,164.82,159.96,164.17,159.83,163.54z"/>
			<path class="st1" d="M190.6,162.71c-0.14-0.63-0.76-1.19-1.39-1.05l-3.97,0.28c-1.59,0.76-3.21,1.55-4.45,2.81
				c-1.23,1.26-2.03,3.1-1.58,4.8c1.55,0.13,2.81-1.17,4.25-1.79c1.3-0.55,2.78-0.54,4.1-1.05c1.07-0.42,2-1.19,2.6-2.17
				C190.5,164,190.74,163.33,190.6,162.71z"/>
			<path class="st1" d="M234.12,164.56c-0.14-0.63-0.76-1.18-1.39-1.05l-3.97,0.27c-1.59,0.77-3.21,1.55-4.45,2.82
				c-1.23,1.26-2.03,3.1-1.58,4.8c1.55,0.13,2.81-1.17,4.25-1.78c1.3-0.55,2.78-0.54,4.1-1.06c1.06-0.42,1.99-1.19,2.59-2.17
				C234.01,165.84,234.25,165.19,234.12,164.56z"/>
			<path class="st1" d="M222.18,122.18c-0.13-0.63-0.76-1.19-1.39-1.05l-3.97,0.27c-1.59,0.77-3.21,1.55-4.45,2.81
				c-1.23,1.26-2.03,3.09-1.58,4.8c1.55,0.13,2.81-1.17,4.24-1.78c1.3-0.56,2.78-0.54,4.1-1.05c1.07-0.42,2-1.2,2.6-2.18
				C222.08,123.46,222.32,122.8,222.18,122.18z"/>
			<path class="st1" d="M133.29,148.14c-0.14-0.63-0.76-1.18-1.39-1.04l-3.97,0.27c-1.59,0.77-3.21,1.56-4.45,2.81
				c-1.24,1.26-2.03,3.1-1.58,4.81c1.55,0.13,2.82-1.17,4.25-1.78c1.3-0.55,2.78-0.54,4.1-1.05c1.07-0.42,2-1.2,2.6-2.17
				C133.19,149.42,133.42,148.77,133.29,148.14z"/>
			<path class="st1" d="M140.84,126.39c-0.14-0.63-0.76-1.18-1.39-1.04l-3.98,0.28c-1.58,0.76-3.2,1.55-4.44,2.81
				c-1.24,1.26-2.03,3.1-1.59,4.8c1.56,0.13,2.82-1.17,4.25-1.78c1.3-0.56,2.79-0.54,4.1-1.06c1.07-0.42,2-1.19,2.61-2.17
				C140.73,127.67,140.98,127.02,140.84,126.39z"/>
			<path class="st1" d="M147.29,88.46c-2.35-0.02-4.69,0.93-6.38,2.58c-0.24,0.24-0.46,0.49-0.69,0.74
				c-0.43,0.47-0.86,0.95-1.29,1.41c0.61,0.42,1.44,0.36,2.14,0.12c0.7-0.24,1.33-0.65,2.04-0.88c0.77-0.26,1.61-0.31,2.39-0.55
				c0.78-0.24,1.56-0.73,1.8-1.51V88.46z"/>
			<path class="st1" d="M122.08,137.95c-2.35-0.02-4.7,0.93-6.38,2.58c-0.24,0.23-0.46,0.48-0.69,0.73
				c-0.44,0.47-0.87,0.95-1.29,1.41c0.61,0.42,1.44,0.36,2.14,0.12c0.7-0.24,1.33-0.65,2.04-0.88c0.77-0.26,1.6-0.31,2.38-0.55
				c0.78-0.24,1.57-0.73,1.81-1.5V137.95z"/>
			<path class="st1" d="M127.96,90.32c-2.35-0.01-4.7,0.94-6.38,2.58c-0.24,0.24-0.47,0.49-0.7,0.74c-0.43,0.47-0.87,0.94-1.3,1.41
				c0.61,0.42,1.44,0.35,2.14,0.11c0.7-0.24,1.33-0.64,2.04-0.88c0.77-0.26,1.6-0.31,2.39-0.55c0.78-0.23,1.56-0.73,1.81-1.51
				L127.96,90.32z"/>
			<path class="st1" d="M136.02,110.29c-2.36-0.01-4.7,0.94-6.38,2.59c-0.24,0.23-0.47,0.48-0.7,0.73
				c-0.43,0.47-0.86,0.95-1.29,1.41c0.61,0.42,1.44,0.35,2.13,0.12c0.7-0.24,1.34-0.65,2.04-0.88c0.77-0.26,1.6-0.32,2.38-0.55
				c0.78-0.24,1.56-0.73,1.81-1.51V110.29z"/>
			<path class="st1" d="M176.21,155.06c-2.35-0.01-4.69,0.94-6.38,2.58c-0.24,0.23-0.47,0.49-0.7,0.74
				c-0.43,0.47-0.86,0.95-1.29,1.41c0.61,0.42,1.44,0.35,2.14,0.12c0.7-0.24,1.33-0.65,2.04-0.88c0.77-0.26,1.6-0.32,2.39-0.55
				c0.78-0.24,1.56-0.73,1.81-1.51L176.21,155.06z"/>
			<path class="st1" d="M229.23,135.75c-2.35-0.02-4.69,0.94-6.37,2.58c-0.25,0.24-0.47,0.48-0.7,0.73
				c-0.43,0.47-0.86,0.95-1.29,1.42c0.61,0.42,1.44,0.35,2.14,0.11c0.7-0.24,1.34-0.65,2.04-0.88c0.77-0.26,1.6-0.31,2.39-0.55
				c0.78-0.24,1.56-0.73,1.8-1.5V135.75z"/>
			<path class="st1" d="M213.2,107.19c-2.35-0.01-4.7,0.94-6.38,2.58c-0.24,0.24-0.47,0.49-0.7,0.74c-0.43,0.47-0.86,0.94-1.3,1.41
				c0.62,0.42,1.44,0.36,2.15,0.11c0.7-0.24,1.33-0.64,2.03-0.88c0.78-0.26,1.61-0.31,2.39-0.55c0.78-0.23,1.57-0.72,1.81-1.5
				V107.19z"/>
			<path class="st1" d="M159.96,126.63c-2.35-0.01-4.69,0.94-6.38,2.58c-0.24,0.23-0.47,0.48-0.7,0.73
				c-0.43,0.47-0.86,0.94-1.29,1.42c0.61,0.42,1.44,0.36,2.14,0.11c0.7-0.24,1.34-0.64,2.04-0.88c0.78-0.26,1.61-0.31,2.39-0.55
				c0.78-0.23,1.56-0.72,1.81-1.5V126.63z"/>
			<path class="st1" d="M153.33,102.92l-0.83,1.82c-2.94,1.92-5.66,4.18-8.09,6.71c1.44-0.73,3.03-1.07,4.57-1.57
				c1.54-0.5,3.08-1.22,4.07-2.49C154.05,106.13,154.33,104.18,153.33,102.92z"/>
			<path class="st1" d="M193.31,172.93l-0.84,1.83c-2.94,1.92-5.65,4.17-8.09,6.71c1.44-0.72,3.04-1.06,4.58-1.56
				c1.53-0.51,3.07-1.22,4.07-2.49C194.02,176.14,194.3,174.19,193.31,172.93z"/>
			<path class="st1" d="M209.75,147.07l-0.83,1.83c-2.93,1.92-5.65,4.18-8.09,6.72c1.44-0.73,3.04-1.07,4.57-1.57
				c1.54-0.5,3.08-1.22,4.07-2.49C210.47,150.29,210.76,148.34,209.75,147.07z"/>
			<path class="st1" d="M248.04,147.9l-0.83,1.82c-2.93,1.92-5.65,4.18-8.09,6.72c1.44-0.73,3.04-1.07,4.57-1.57
				c1.54-0.5,3.07-1.22,4.07-2.49C248.76,151.1,249.04,149.17,248.04,147.9z"/>
			<path class="st1" d="M118.23,116l-0.83,1.83c-2.93,1.92-5.65,4.18-8.08,6.71c1.44-0.73,3.04-1.06,4.57-1.56
				c1.54-0.5,3.07-1.22,4.07-2.49C118.96,119.21,119.24,117.26,118.23,116z"/>
			<path class="st1" d="M148.21,139.23l-0.83,1.83c-2.94,1.92-5.66,4.18-8.09,6.71c1.44-0.73,3.04-1.06,4.58-1.57
				c1.54-0.5,3.07-1.22,4.07-2.49C148.93,142.44,149.22,140.49,148.21,139.23z"/>
			<path class="st1" d="M168.49,171.52l-0.83,1.83c-2.94,1.92-5.66,4.18-8.09,6.71c1.44-0.73,3.04-1.06,4.57-1.56
				c1.54-0.5,3.07-1.22,4.07-2.49C169.21,174.74,169.49,172.79,168.49,171.52z"/>
			<path class="st1" d="M215.27,162.99l-0.84,1.83c-2.94,1.92-5.65,4.18-8.08,6.71c1.44-0.73,3.04-1.06,4.58-1.57
				c1.53-0.5,3.07-1.22,4.07-2.49C215.99,166.21,216.27,164.26,215.27,162.99z"/>
			<path class="st1" d="M122.69,99.66l-2.47,0.77c-0.87,0.61-1.98,0.77-2.96,1.17c-2.66,1.04-4.36,3.72-5.11,6.46
				c1.06-1.64,2.6-2.96,4.39-3.76c2.02-0.9,4.37-1.16,6.1-2.52c0.37-0.29,0.72-0.67,0.79-1.12
				C123.49,100.18,123.16,99.64,122.69,99.66z"/>
			<path class="st1" d="M170.99,101.45l-2.47,0.77c-0.87,0.62-1.98,0.78-2.97,1.17c-2.65,1.05-4.35,3.72-5.11,6.46
				c1.06-1.64,2.6-2.96,4.39-3.76c2.02-0.9,4.37-1.15,6.1-2.53c0.37-0.29,0.72-0.66,0.79-1.13
				C171.8,101.98,171.46,101.44,170.99,101.45z"/>
		</g>
	</g>
</g>
</svg>
