<?xml version="1.0" encoding="utf-8"?>
<!-- Generator: Adobe Illustrator 25.2.0, SVG Export Plug-In . SVG Version: 6.00 Build 0)  -->
<svg version="1.1" id="Lager_1" xmlns="http://www.w3.org/2000/svg" xmlns:xlink="http://www.w3.org/1999/xlink" x="0px" y="0px"
	 viewBox="0 0 283.46 283.46" style="enable-background:new 0 0 283.46 283.46;" xml:space="preserve">
<style type="text/css">
	.st0{fill:#B33317;}
	.st1{fill:#D3511E;}
	.st2{fill:#EF7A69;}
	.st3{fill:#DE5A46;}
	.st4{fill:#D54A35;}
	.st5{fill:#FAD3CC;}
	.st6{fill:#E7A093;}
</style>
<g>
	<g>
		<g>
			<g>
				<path class="st0" d="M203.29,131.04l-71.28-41.82l-1.06,2.24c-3.95,8.33-11.96,15.54-22.56,20.3
					c-9.41,4.23-19.88,6.32-30.01,8.34l-0.84,0.17c-9.52,1.9-21.36,4.26-31.74,9.3c-5.12,2.49-9.95,5.64-14.41,8.68
					c-3.93,2.68-8.07,5.59-11.66,9.21c-3.66,3.7-6.6,7.96-9.43,12.09L2.29,171.2L0,170.66v3.88l73.28,43l10.11-14.73
					c2.73-3.96,5.54-8.06,8.92-11.46c3.29-3.33,7.24-6.1,10.98-8.65c4.99-3.4,9.25-6.12,13.84-8.35c9.13-4.43,18.87-6.58,30.65-8.93
					l0.84-0.17c10.38-2.07,21.1-4.21,30.98-8.65c11.59-5.21,20.38-13.2,24.8-22.5l0.89-1.88v-3.88L203.29,131.04z"/>
				<path class="st1" d="M0,170.66l10.3-14.99c2.84-4.13,5.77-8.4,9.43-12.09c3.58-3.62,7.72-6.53,11.66-9.21
					c4.46-3.04,9.29-6.19,14.41-8.68c10.38-5.04,22.22-7.4,31.74-9.3l0.84-0.17c10.13-2.02,20.6-4.11,30.01-8.34
					c10.6-4.76,18.61-11.97,22.56-20.3l1.06-2.24l73.29,43l-0.89,1.88c-4.41,9.3-13.21,17.29-24.8,22.5
					c-9.88,4.44-20.6,6.58-30.98,8.65l-0.84,0.17c-11.78,2.35-21.51,4.5-30.65,8.93c-4.58,2.22-8.85,4.95-13.84,8.35
					c-3.75,2.56-7.69,5.33-10.98,8.65c-3.38,3.4-6.19,7.5-8.92,11.47l-10.11,14.73L0,170.66z"/>
				<path class="st2" d="M202.34,129.24c-4.65,9.81-13.75,16.94-23.68,21.41c-9.9,4.45-20.68,6.51-31.33,8.65
					c-10.65,2.13-21.41,4.38-31.2,9.12c-4.95,2.41-9.58,5.41-14.12,8.52c-3.97,2.7-7.92,5.52-11.33,8.92
					c-3.49,3.54-6.33,7.67-9.17,11.78c-2.97,4.33-5.95,8.65-8.92,12.98l-48.65-28.56l-9.47-5.54l-11.24-6.6
					c2.97-4.32,5.95-8.65,8.92-12.99c2.84-4.08,5.68-8.24,9.17-11.76c3.41-3.43,7.36-6.22,11.33-8.95
					c4.54-3.09,9.17-6.11,14.12-8.51c9.79-4.74,20.55-6.99,31.2-9.11c10.65-2.13,21.43-4.22,31.35-8.67
					c9.9-4.45,19.01-11.58,23.66-21.41l11.23,6.61l9.44,5.54L202.34,129.24z"/>
				<path class="st3" d="M17.71,160.21c2.82-4.11,5.67-8.24,9.17-11.78c3.39-3.42,7.34-6.22,11.32-8.93
					c4.55-3.1,9.17-6.11,14.13-8.52c9.77-4.74,20.53-6.99,31.19-9.12c10.65-2.13,21.43-4.21,31.34-8.66
					c9.91-4.45,19.02-11.58,23.67-21.4l-5.53-3.26c-4.65,9.82-13.76,16.95-23.67,21.4c-9.91,4.45-20.69,6.54-31.34,8.66
					c-10.65,2.13-21.41,4.37-31.19,9.12c-4.95,2.4-9.58,5.41-14.13,8.51c-3.98,2.71-7.93,5.51-11.32,8.93
					c-3.51,3.54-6.35,7.67-9.17,11.78c-2.97,4.33-5.95,8.66-8.92,12.98l5.54,3.25C11.77,168.86,14.73,164.54,17.71,160.21z"/>
				<path class="st4" d="M153.67,100.68c-4.4,9.24-13.19,17.16-24.7,22.34c-9.87,4.45-20.61,6.58-30.99,8.65l-0.84,0.18
					c-11.76,2.34-21.5,4.5-30.62,8.92c-4.58,2.22-8.85,4.95-13.85,8.35c-3.75,2.57-7.7,5.34-10.99,8.65
					c-3.38,3.41-6.2,7.51-8.92,11.46l-8.81,12.83l-9.47-5.54l9.01-13.12c2.84-4.13,5.77-8.4,9.42-12.08
					c3.58-3.61,7.72-6.54,11.67-9.22c5.15-3.52,9.58-6.33,14.41-8.67c10.37-5.04,22.2-7.4,31.74-9.31l0.82-0.16
					c10.15-2.02,20.61-4.11,30.04-8.35c10.58-4.77,18.59-11.97,22.54-20.3l0.09-0.18L153.67,100.68z"/>
				<path class="st3" d="M30.89,167.96c2.82-4.11,5.67-8.24,9.17-11.78c3.39-3.42,7.34-6.22,11.32-8.93
					c4.55-3.1,9.17-6.11,14.13-8.52c9.77-4.75,20.54-6.99,31.19-9.12c10.65-2.12,21.43-4.21,31.34-8.66
					c9.91-4.45,19.02-11.59,23.67-21.4l-5.54-3.26c-4.65,9.82-13.76,16.95-23.67,21.4c-9.9,4.45-20.69,6.54-31.34,8.66
					c-10.65,2.13-21.42,4.37-31.19,9.12c-4.95,2.4-9.58,5.42-14.13,8.52c-3.98,2.71-7.93,5.51-11.32,8.93
					c-3.51,3.54-6.35,7.67-9.17,11.78c-2.98,4.33-5.95,8.65-8.92,12.98l5.54,3.25C24.95,176.61,27.92,172.29,30.89,167.96z"/>
				<path class="st5" d="M45.87,176.77c2.83-4.11,5.67-8.24,9.18-11.78c3.39-3.42,7.34-6.22,11.32-8.93
					c4.55-3.1,9.18-6.11,14.13-8.51c9.77-4.74,20.53-6.99,31.19-9.12c10.65-2.12,21.43-4.21,31.34-8.66
					c9.91-4.45,19.02-11.58,23.68-21.4l-7.46-4.34c-4.64,9.82-13.76,16.95-23.67,21.4c-9.91,4.45-20.69,6.53-31.34,8.66
					c-10.65,2.13-21.42,4.37-31.19,9.12c-4.95,2.41-9.58,5.42-14.12,8.52c-3.98,2.71-7.93,5.51-11.32,8.93
					c-3.51,3.54-6.36,7.67-9.17,11.78c-2.97,4.33-5.95,8.66-8.92,12.98l7.46,4.33C39.93,185.42,42.89,181.1,45.87,176.77z"/>
				<path class="st6" d="M58.79,184.34c2.82-4.11,5.66-8.24,9.17-11.78c3.39-3.41,7.34-6.22,11.32-8.93
					c4.55-3.1,9.18-6.11,14.13-8.51c9.77-4.74,20.54-6.99,31.19-9.12c10.65-2.12,21.44-4.21,31.34-8.66
					c9.91-4.45,19.02-11.58,23.67-21.4l-7.45-4.34c-4.65,9.82-13.77,16.95-23.68,21.4c-9.9,4.45-20.68,6.53-31.34,8.66
					c-10.65,2.13-21.41,4.37-31.19,9.11c-4.95,2.4-9.58,5.42-14.13,8.51c-3.98,2.71-7.93,5.51-11.31,8.93
					c-3.51,3.54-6.36,7.67-9.17,11.78c-2.98,4.33-5.95,8.66-8.92,12.99l7.47,4.33C52.84,192.99,55.81,188.67,58.79,184.34z"/>
				<path class="st3" d="M71.04,191.44c2.82-4.11,5.66-8.24,9.17-11.78c3.39-3.42,7.34-6.22,11.32-8.93
					c4.55-3.1,9.18-6.11,14.13-8.52c9.77-4.74,20.54-6.99,31.19-9.12c10.65-2.12,21.43-4.21,31.34-8.66
					c9.91-4.45,19.02-11.59,23.67-21.4l-7.45-4.34c-4.65,9.82-13.77,16.95-23.68,21.4c-9.91,4.45-20.68,6.53-31.34,8.66
					c-10.65,2.13-21.41,4.37-31.19,9.11c-4.95,2.4-9.58,5.42-14.13,8.52c-3.98,2.71-7.93,5.51-11.32,8.93
					c-3.51,3.54-6.36,7.67-9.18,11.78c-2.97,4.33-5.95,8.66-8.92,12.99l7.47,4.33C65.09,200.08,68.06,195.76,71.04,191.44z"/>
				<path class="st4" d="M80.61,197.11c2.82-4.11,5.66-8.24,9.17-11.78c3.39-3.42,7.34-6.22,11.32-8.93
					c4.54-3.1,9.17-6.11,14.13-8.52c9.77-4.74,20.53-6.99,31.19-9.12c10.65-2.13,21.43-4.21,31.34-8.66
					c9.91-4.45,19.02-11.58,23.67-21.4l-7.45-4.34c-4.65,9.82-13.76,16.95-23.67,21.4c-9.91,4.45-20.69,6.54-31.35,8.66
					c-10.65,2.13-21.41,4.37-31.19,9.12c-4.95,2.4-9.58,5.42-14.12,8.52c-3.98,2.71-7.93,5.51-11.32,8.93
					c-3.51,3.54-6.35,7.67-9.18,11.78c-2.97,4.33-5.95,8.66-8.92,12.98l7.46,4.33C74.67,205.76,77.64,201.43,80.61,197.11z"/>
				<path class="st5" d="M67.49,205.02l7.53-10.96c2.72-3.96,5.54-8.06,8.91-11.46c3.3-3.32,7.24-6.1,10.99-8.65
					c5-3.41,9.27-6.13,13.84-8.35c9.13-4.43,18.87-6.58,30.65-8.93l0.85-0.17c10.36-2.07,21.09-4.21,30.97-8.65
					c10.66-4.79,18.97-11.95,23.67-20.31l3.53,2.05c-4.21,7.54-11.8,14.05-21.6,18.45c-9.41,4.23-19.88,6.32-30,8.34l-0.85,0.17
					c-12.11,2.41-22.13,4.63-31.74,9.3c-4.82,2.34-9.25,5.17-14.41,8.69c-3.93,2.68-8.07,5.6-11.65,9.21
					c-3.67,3.69-6.6,7.96-9.43,12.09l-7.72,11.24L67.49,205.02z"/>
				<path class="st5" d="M45.67,192.25l7.54-10.97c2.72-3.96,5.54-8.06,8.91-11.46c3.29-3.33,7.23-6.1,10.98-8.65
					c4.99-3.4,9.25-6.12,13.84-8.35c9.13-4.43,18.87-6.58,30.65-8.93l0.85-0.17c10.37-2.07,21.1-4.21,30.98-8.65
					c10.66-4.79,18.97-11.95,23.66-20.31l3.53,2.05c-4.2,7.54-11.79,14.05-21.6,18.45c-9.41,4.23-19.88,6.32-30,8.34l-0.85,0.17
					c-12.11,2.42-22.12,4.63-31.74,9.3c-4.82,2.34-9.25,5.16-14.41,8.68c-3.94,2.68-8.08,5.6-11.65,9.21
					c-3.67,3.69-6.6,7.96-9.44,12.09l-7.72,11.24L45.67,192.25z"/>
			</g>
		</g>
		<g>
			<g>
				<path class="st0" d="M80.17,111.88l71.29-41.83l1.06,2.24c3.95,8.33,11.96,15.54,22.56,20.3c9.41,4.23,19.88,6.32,30.01,8.34
					l0.85,0.17c9.51,1.9,21.35,4.26,31.74,9.3c5.12,2.49,9.95,5.64,14.41,8.68c3.93,2.68,8.07,5.6,11.65,9.21
					c3.67,3.69,6.6,7.96,9.43,12.09l8.01,11.65l2.3-0.54v3.88l-73.28,43l-10.12-14.73c-2.73-3.96-5.54-8.06-8.91-11.47
					c-3.3-3.33-7.24-6.1-10.98-8.65c-4.99-3.4-9.25-6.12-13.84-8.35c-9.13-4.43-18.87-6.58-30.65-8.93l-0.84-0.17
					c-10.37-2.07-21.1-4.21-30.98-8.65c-11.58-5.21-20.38-13.2-24.79-22.5l-0.89-1.88v-3.88L80.17,111.88z"/>
				<path class="st1" d="M283.46,151.49l-10.3-14.99c-2.83-4.13-5.76-8.4-9.43-12.09c-3.58-3.61-7.72-6.53-11.65-9.21
					c-4.46-3.04-9.29-6.2-14.41-8.68c-10.38-5.04-22.22-7.4-31.74-9.3l-0.85-0.17c-10.13-2.02-20.59-4.11-30.01-8.34
					c-10.6-4.76-18.61-11.97-22.56-20.3l-1.06-2.24l-73.28,43l0.89,1.88c4.41,9.3,13.21,17.29,24.79,22.5
					c9.88,4.44,20.61,6.58,30.98,8.65l0.84,0.17c11.78,2.35,21.52,4.5,30.65,8.93c4.59,2.23,8.85,4.95,13.84,8.35
					c3.75,2.56,7.69,5.33,10.98,8.65c3.37,3.4,6.19,7.5,8.91,11.46l10.12,14.73L283.46,151.49z"/>
				<path class="st2" d="M81.12,110.08c4.65,9.81,13.76,16.93,23.68,21.41c9.9,4.45,20.68,6.51,31.33,8.65
					c10.65,2.13,21.41,4.38,31.2,9.13c4.95,2.41,9.58,5.4,14.12,8.51c3.97,2.7,7.92,5.52,11.34,8.92c3.49,3.54,6.33,7.67,9.17,11.78
					c2.97,4.34,5.95,8.65,8.92,12.99l48.65-28.56l9.47-5.54l11.23-6.61c-2.98-4.31-5.95-8.65-8.92-12.99
					c-2.84-4.09-5.67-8.24-9.17-11.76c-3.41-3.43-7.36-6.22-11.33-8.95c-4.54-3.09-9.17-6.11-14.12-8.51
					c-9.79-4.74-20.55-6.99-31.2-9.1c-10.65-2.13-21.43-4.22-31.35-8.67c-9.9-4.45-19.01-11.58-23.66-21.41l-11.24,6.61l-9.44,5.54
					L81.12,110.08z"/>
				<path class="st3" d="M265.76,141.05c-2.82-4.11-5.66-8.24-9.17-11.78c-3.39-3.42-7.34-6.22-11.32-8.93
					c-4.55-3.1-9.18-6.11-14.13-8.52c-9.77-4.74-20.54-6.99-31.19-9.11c-10.65-2.13-21.43-4.21-31.34-8.66
					c-9.91-4.45-19.02-11.58-23.67-21.4l5.54-3.26c4.65,9.82,13.76,16.95,23.67,21.4c9.91,4.45,20.69,6.54,31.34,8.66
					c10.65,2.13,21.42,4.37,31.19,9.12c4.95,2.4,9.58,5.42,14.13,8.52c3.98,2.71,7.93,5.51,11.32,8.93
					c3.51,3.54,6.35,7.67,9.17,11.78c2.97,4.33,5.95,8.66,8.92,12.98l-5.55,3.25C271.7,149.7,268.73,145.37,265.76,141.05z"/>
				<path class="st4" d="M129.79,81.52c4.4,9.24,13.19,17.16,24.7,22.34c9.87,4.45,20.61,6.58,30.99,8.65l0.84,0.18
					c11.76,2.34,21.5,4.5,30.63,8.92c4.58,2.22,8.85,4.95,13.84,8.35c3.75,2.56,7.7,5.33,10.99,8.65c3.38,3.41,6.2,7.51,8.92,11.47
					l8.81,12.83l9.47-5.54l-9.01-13.12c-2.84-4.13-5.77-8.4-9.42-12.08c-3.59-3.61-7.72-6.54-11.67-9.22
					c-5.15-3.52-9.58-6.34-14.42-8.67c-10.37-5.04-22.2-7.4-31.74-9.31l-0.82-0.16c-10.15-2.02-20.61-4.11-30.04-8.36
					c-10.58-4.77-18.59-11.96-22.54-20.3l-0.09-0.18L129.79,81.52z"/>
				<path class="st3" d="M252.57,148.8c-2.82-4.11-5.66-8.24-9.17-11.78c-3.39-3.42-7.34-6.22-11.31-8.93
					c-4.55-3.1-9.18-6.12-14.13-8.52c-9.77-4.74-20.54-6.99-31.19-9.12c-10.65-2.13-21.43-4.21-31.34-8.66
					c-9.91-4.45-19.03-11.58-23.67-21.4l5.53-3.26c4.65,9.82,13.76,16.95,23.67,21.4c9.91,4.45,20.69,6.54,31.34,8.66
					c10.65,2.13,21.42,4.37,31.19,9.12c4.95,2.4,9.58,5.41,14.13,8.52c3.98,2.71,7.93,5.51,11.32,8.93
					c3.51,3.54,6.35,7.67,9.17,11.78c2.97,4.33,5.94,8.66,8.92,12.98l-5.54,3.25C258.51,157.45,255.54,153.12,252.57,148.8z"/>
				<path class="st5" d="M237.59,157.61c-2.82-4.11-5.66-8.24-9.17-11.78c-3.39-3.42-7.34-6.22-11.32-8.93
					c-4.54-3.1-9.18-6.11-14.13-8.51c-9.77-4.75-20.54-6.99-31.19-9.12c-10.65-2.12-21.43-4.21-31.34-8.66
					c-9.91-4.45-19.02-11.59-23.67-21.4l7.46-4.34c4.65,9.82,13.76,16.95,23.67,21.4c9.91,4.45,20.69,6.53,31.34,8.66
					c10.65,2.13,21.42,4.37,31.19,9.12c4.95,2.41,9.58,5.42,14.13,8.51c3.98,2.71,7.93,5.51,11.32,8.93
					c3.51,3.53,6.35,7.67,9.17,11.78c2.97,4.33,5.95,8.66,8.92,12.98l-7.46,4.33C243.54,166.26,240.57,161.93,237.59,157.61z"/>
				<path class="st3" d="M224.68,165.17c-2.82-4.11-5.67-8.24-9.17-11.78c-3.39-3.42-7.34-6.22-11.32-8.93
					c-4.55-3.1-9.17-6.11-14.13-8.51c-9.77-4.74-20.54-6.99-31.19-9.12c-10.65-2.12-21.43-4.21-31.34-8.66
					c-9.91-4.45-19.02-11.59-23.67-21.4l7.45-4.34c4.65,9.82,13.77,16.95,23.68,21.4c9.91,4.45,20.68,6.53,31.34,8.66
					c10.65,2.13,21.42,4.37,31.19,9.12c4.95,2.41,9.58,5.42,14.13,8.52c3.98,2.71,7.93,5.51,11.32,8.93
					c3.51,3.54,6.36,7.67,9.18,11.78c2.97,4.33,5.95,8.66,8.92,12.98l-7.46,4.33C230.62,173.82,227.65,169.5,224.68,165.17z"/>
				<path class="st4" d="M212.43,172.27c-2.82-4.11-5.66-8.24-9.17-11.78c-3.39-3.42-7.34-6.22-11.32-8.93
					c-4.55-3.1-9.17-6.11-14.13-8.52c-9.77-4.74-20.54-6.99-31.19-9.12c-10.65-2.12-21.43-4.21-31.34-8.66
					c-9.91-4.45-19.02-11.58-23.67-21.4l7.46-4.34c4.65,9.82,13.77,16.95,23.67,21.4c9.91,4.45,20.68,6.53,31.34,8.66
					c10.65,2.13,21.41,4.37,31.19,9.12c4.95,2.4,9.58,5.42,14.13,8.52c3.98,2.71,7.93,5.51,11.31,8.93
					c3.51,3.54,6.36,7.67,9.18,11.78c2.97,4.33,5.95,8.66,8.92,12.99l-7.47,4.33C218.37,180.92,215.4,176.59,212.43,172.27z"/>
				<path class="st4" d="M202.85,177.95c-2.82-4.11-5.66-8.24-9.17-11.78c-3.39-3.42-7.34-6.22-11.32-8.93
					c-4.55-3.1-9.18-6.11-14.13-8.52c-9.77-4.74-20.54-6.99-31.19-9.11c-10.65-2.12-21.43-4.21-31.34-8.66
					c-9.91-4.45-19.02-11.59-23.67-21.4l7.45-4.34c4.65,9.82,13.76,16.95,23.67,21.4c9.91,4.45,20.69,6.53,31.34,8.66
					c10.65,2.13,21.41,4.37,31.19,9.12c4.95,2.4,9.58,5.42,14.13,8.51c3.98,2.71,7.93,5.51,11.32,8.93
					c3.51,3.54,6.35,7.67,9.17,11.78c2.97,4.33,5.95,8.66,8.92,12.99l-7.46,4.33C208.8,186.59,205.82,182.27,202.85,177.95z"/>
				<path class="st5" d="M215.97,185.85l-7.54-10.97c-2.72-3.96-5.54-8.06-8.91-11.46c-3.3-3.32-7.23-6.1-10.98-8.65
					c-4.99-3.41-9.27-6.13-13.84-8.35c-9.13-4.43-18.87-6.58-30.64-8.93l-0.85-0.17c-10.37-2.07-21.1-4.21-30.98-8.65
					c-10.66-4.79-18.97-11.95-23.66-20.31l-3.53,2.06c4.2,7.54,11.79,14.04,21.6,18.45c9.4,4.23,19.88,6.32,30,8.34l0.85,0.17
					c12.11,2.42,22.13,4.63,31.74,9.3c4.82,2.34,9.25,5.16,14.42,8.68c3.92,2.68,8.06,5.6,11.65,9.21c3.67,3.69,6.6,7.96,9.43,12.09
					l7.72,11.24L215.97,185.85z"/>
				<path class="st5" d="M237.8,173.09l-7.53-10.97c-2.72-3.96-5.54-8.06-8.92-11.46c-3.29-3.33-7.23-6.1-10.99-8.65
					c-4.98-3.4-9.25-6.12-13.84-8.35c-9.13-4.43-18.87-6.58-30.64-8.93l-0.85-0.17c-10.37-2.07-21.1-4.21-30.98-8.65
					c-10.65-4.79-18.96-11.95-23.66-20.31l-3.53,2.05c4.21,7.54,11.8,14.05,21.6,18.45c9.41,4.23,19.87,6.32,30,8.34l0.86,0.17
					c12.1,2.41,22.12,4.63,31.73,9.3c4.82,2.34,9.25,5.16,14.42,8.68c3.93,2.68,8.07,5.6,11.65,9.21c3.67,3.69,6.6,7.96,9.44,12.09
					l7.72,11.24L237.8,173.09z"/>
			</g>
		</g>
	</g>
</g>
</svg>
