<?xml version="1.0" encoding="utf-8"?>
<!-- Generator: Adobe Illustrator 25.2.0, SVG Export Plug-In . SVG Version: 6.00 Build 0)  -->
<svg version="1.1" id="Lager_1" xmlns="http://www.w3.org/2000/svg" xmlns:xlink="http://www.w3.org/1999/xlink" x="0px" y="0px"
	 viewBox="0 0 283.46 283.46" style="enable-background:new 0 0 283.46 283.46;" xml:space="preserve">
<style type="text/css">
	.st0{fill:#611F18;}
	.st1{fill:#6E271F;}
	.st2{fill:#CC5F60;}
	.st3{fill:#DE7675;}
	.st4{fill:#CA5252;}
	.st5{fill:#CDAAAB;}
</style>
<g>
	<g>
		<g>
			<path class="st0" d="M241.98,180.44l-1.26,3.17c-2.74-9.55-9.65-18.83-20.28-26.89c-21.61-16.21-56.04-25.89-92.28-25.89
				c-25.32,0-49.29,4.61-69.43,13.16c-23.76,10.06-38.98,24.6-43.09,40.28l-1.15-1.65l0.07,8.72c-0.05,0.96-0.08,1.9-0.05,2.84
				c0,0.45,0,1.01,0.12,1.47c1.02,11.93,8.44,23.4,21.61,33.31c21.49,16.2,55.92,25.88,92.16,25.88c25.31,0,49.29-4.61,69.43-13.17
				c26.45-11.13,42.43-27.91,44.11-45.8c0.11-0.67,0.11-1.35,0.11-2.02L241.98,180.44z"/>
			<path class="st1" d="M220.44,146.52c-21.61-16.21-56.04-25.89-92.28-25.89c-25.32,0-49.29,4.61-69.43,13.16
				c-28.69,12.16-45.01,30.83-44.23,50.19c0,0.45,0,1.01,0.12,1.47c1.02,11.93,8.44,23.4,21.61,33.31
				c21.49,16.2,55.92,25.88,92.16,25.88c25.31,0,49.29-4.61,69.43-13.17c26.45-11.13,42.43-27.91,44.11-45.8
				c0.11-0.67,0.11-1.35,0.11-2.02C242.49,170.6,234.84,157.43,220.44,146.52z"/>
			<path class="st2" d="M128.39,237.98c-34.82,0-67.78-9.18-88.15-24.55c-11.57-8.69-18.13-18.57-18.99-28.55l-0.03-0.57l-0.15-0.54
				c-0.59-16.53,14.44-32.9,40.26-43.83c19.48-8.27,42.59-12.64,66.83-12.64c34.79,0,67.78,9.17,88.28,24.54
				c12.58,9.55,19.32,20.77,18.95,31.59c0,0.52,0.02,0.82-0.03,1.12c-1.53,16-16.13,30.68-40.14,40.78
				C175.75,233.61,152.63,237.98,128.39,237.98z"/>
			<path class="st3" d="M206.84,154.85c-7.07-1.99-15.17,0.24-21.6-3.29c-3.53-1.94-5.99-5.35-9.19-7.79
				c-10.46-7.95-25.32-3.85-38.33-5.64c-6.98-0.96-13.73-3.73-20.77-3.73c-8.46-0.01-16.18,3.9-23.74,7.24
				c-7.98,3.54-15.7,5.89-24.53,5.58c-1.86-0.06-3.77-0.22-5.5,0.44c-3.38,1.28-6.66,4.86-9.74,6.84c-4.17,2.69-8.04,6.01-12,8.98
				c-1.95,1.46-4.1,3.44-3.68,5.83c0.33,1.82,2.06,3,3.06,4.56c2.88,4.49-0.43,10.25,0.78,15.11c1.24,5,2,10.44,4.2,15.22
				c3.5,7.6,10.72,14.16,19.08,14.12c3.03-0.03,5.97-0.9,8.99-1.03c3.07-0.14,5.94,0.74,9.03,0.78c7.33,0.11,14.68,1.29,21.68,3.46
				c12.28,3.8,24.01,10.7,36.86,10.47c4.23-0.08,8.4-0.95,12.54-1.81c8.17-1.7,16.33-3.4,24.49-5.1c2.68-0.55,5.41-1.13,7.74-2.58
				c3.71-2.33,5.78-6.51,8.74-9.74c3.14-3.43,7.25-5.77,10.97-8.55c8.2-6.13,14.84-15.11,15.79-25.31
				C222.67,168.73,216.68,157.63,206.84,154.85z"/>
			<g>
				<path class="st4" d="M167.1,200.38c-3.39,0-6.57-0.93-8.7-2.53c-2.11-1.59-2.65-3.37-2.75-4.59c-0.12-2.92,1.78-5.34,5.06-6.73
					c1.89-0.8,4.09-1.22,6.37-1.22c3.39,0,6.55,0.92,8.7,2.53c1.86,1.41,2.84,3.25,2.76,5.19c-0.15,1.72-1,4.4-5.07,6.13
					C171.58,199.94,169.38,200.38,167.1,200.38z"/>
				<path class="st5" d="M167.1,197.04c-2.64,0-5.14-0.69-6.69-1.86c-0.89-0.66-1.37-1.41-1.44-2.17v-0.04l-0.02-0.04
					c-0.04-1.25,1.09-2.5,3.05-3.32c1.48-0.63,3.23-0.96,5.07-0.96c2.64,0,5.14,0.69,6.7,1.86c0.95,0.72,1.46,1.58,1.43,2.4
					c0,0.04,0,0.06,0,0.09c-0.12,1.21-1.23,2.33-3.04,3.1C170.69,196.7,168.94,197.04,167.1,197.04z"/>
			</g>
			<g>
				<path class="st4" d="M151.95,180.73c-3.39,0-6.56-0.92-8.7-2.53c-2.1-1.58-2.65-3.36-2.75-4.58c-0.12-2.92,1.79-5.34,5.06-6.73
					c1.9-0.8,4.09-1.22,6.37-1.22c3.39,0,6.56,0.92,8.7,2.53c1.87,1.41,2.84,3.25,2.77,5.18c-0.16,1.71-1,4.4-5.09,6.12
					C156.43,180.31,154.23,180.73,151.95,180.73z"/>
				<path class="st5" d="M151.95,177.4c-2.64,0-5.14-0.7-6.69-1.87c-0.88-0.66-1.38-1.4-1.44-2.16v-0.05l-0.02-0.03
					c-0.04-1.25,1.1-2.5,3.05-3.32c1.48-0.63,3.23-0.96,5.07-0.96c2.64,0,5.14,0.7,6.69,1.86c0.96,0.73,1.47,1.59,1.44,2.4
					c0,0.03,0,0.06-0.01,0.09c-0.11,1.21-1.22,2.33-3.03,3.09C155.54,177.07,153.79,177.4,151.95,177.4z"/>
			</g>
			<g>
				<path class="st4" d="M111.07,183.64c-3.39,0-6.56-0.93-8.71-2.53c-2.1-1.59-2.65-3.36-2.73-4.59c-0.12-2.91,1.79-5.34,5.06-6.73
					c1.88-0.79,4.09-1.22,6.37-1.22c3.38,0,6.55,0.92,8.7,2.53c1.86,1.41,2.84,3.25,2.77,5.18c-0.16,1.72-1,4.4-5.09,6.13
					C115.54,183.21,113.34,183.64,111.07,183.64z"/>
				<path class="st5" d="M111.07,180.3c-2.64,0-5.14-0.69-6.69-1.86c-0.88-0.66-1.37-1.41-1.43-2.17l-0.01-0.04l-0.01-0.04
					c-0.04-1.25,1.1-2.5,3.05-3.33c1.48-0.63,3.23-0.96,5.07-0.96c2.63,0,5.14,0.7,6.69,1.86c0.95,0.72,1.46,1.58,1.44,2.4
					c0,0.04,0,0.06-0.01,0.09c-0.11,1.21-1.22,2.33-3.03,3.09C114.66,179.97,112.91,180.3,111.07,180.3z"/>
			</g>
			<g>
				<path class="st4" d="M128.2,202.89c-3.38,0-6.56-0.92-8.69-2.53c-2.11-1.58-2.66-3.35-2.75-4.58c-0.13-2.92,1.78-5.34,5.06-6.73
					c1.89-0.79,4.08-1.22,6.37-1.22c3.39,0,6.55,0.92,8.69,2.53c1.87,1.41,2.84,3.25,2.77,5.18c-0.15,1.72-1,4.4-5.08,6.13
					C132.68,202.47,130.49,202.89,128.2,202.89z"/>
				<path class="st5" d="M128.2,199.56c-2.63,0-5.14-0.7-6.67-1.86c-0.89-0.66-1.38-1.41-1.45-2.17v-0.04l-0.01-0.04
					c-0.05-1.25,1.09-2.5,3.05-3.33c1.48-0.63,3.23-0.95,5.07-0.95c2.64,0,5.14,0.7,6.69,1.86c0.96,0.72,1.47,1.58,1.44,2.4
					c0,0.04,0,0.06,0,0.09c-0.12,1.21-1.23,2.33-3.05,3.09C131.8,199.24,130.05,199.56,128.2,199.56z"/>
			</g>
			<g>
				<path class="st4" d="M129.04,164.38c-3.39,0-6.57-0.93-8.7-2.53c-2.11-1.58-2.65-3.36-2.75-4.58c-0.12-2.92,1.79-5.35,5.06-6.73
					c1.89-0.8,4.09-1.23,6.38-1.23c3.39,0,6.55,0.93,8.69,2.53c1.87,1.41,2.84,3.25,2.77,5.18c-0.16,1.72-1,4.4-5.08,6.13
					C133.52,163.95,131.32,164.38,129.04,164.38z"/>
				<path class="st5" d="M129.05,161.04c-2.65,0-5.14-0.69-6.69-1.86c-0.88-0.66-1.37-1.41-1.44-2.16v-0.05l-0.01-0.03
					c-0.05-1.26,1.08-2.51,3.05-3.33c1.47-0.62,3.23-0.95,5.06-0.95c2.64,0,5.15,0.7,6.7,1.86c0.95,0.72,1.46,1.58,1.43,2.4
					c0,0.04,0.01,0.06,0,0.09c-0.12,1.21-1.22,2.34-3.04,3.1C132.64,160.71,130.88,161.04,129.05,161.04z"/>
			</g>
			<g>
				<path class="st4" d="M79.05,189.43c-3.39,0-6.56-0.92-8.7-2.53c-2.11-1.57-2.66-3.35-2.74-4.57c-0.12-2.92,1.79-5.35,5.06-6.73
					c1.89-0.8,4.09-1.23,6.37-1.23c3.38,0,6.55,0.92,8.7,2.53c1.87,1.41,2.84,3.25,2.77,5.19c-0.16,1.71-1,4.4-5.09,6.12
					C83.53,189.01,81.33,189.43,79.05,189.43z"/>
				<path class="st5" d="M79.05,186.11c-2.64,0-5.14-0.7-6.69-1.86c-0.87-0.67-1.37-1.42-1.43-2.17l-0.01-0.03l-0.01-0.05
					c-0.04-1.25,1.1-2.49,3.05-3.32c1.48-0.63,3.23-0.96,5.07-0.96c2.63,0,5.14,0.7,6.69,1.87c0.96,0.72,1.46,1.57,1.44,2.4
					c0,0.03,0,0.06-0.01,0.08c-0.11,1.22-1.22,2.33-3.03,3.09C82.64,185.77,80.89,186.11,79.05,186.11z"/>
			</g>
			<g>
				<path class="st4" d="M60.93,171.91c-3.39,0-6.56-0.92-8.7-2.53c-2.1-1.58-2.65-3.36-2.74-4.58c-0.11-2.92,1.79-5.34,5.06-6.73
					c1.9-0.8,4.1-1.23,6.38-1.23c3.38,0,6.56,0.93,8.7,2.53c1.86,1.42,2.84,3.26,2.76,5.18c-0.15,1.72-1,4.41-5.08,6.13
					C65.42,171.48,63.21,171.91,60.93,171.91z"/>
				<path class="st5" d="M60.93,168.58c-2.64,0-5.14-0.7-6.69-1.87c-0.87-0.66-1.37-1.4-1.44-2.16v-0.05l-0.01-0.03
					c-0.04-1.25,1.09-2.5,3.05-3.33c1.48-0.63,3.23-0.96,5.06-0.96c2.64,0,5.14,0.69,6.7,1.86c0.95,0.73,1.46,1.59,1.43,2.41
					c0,0.03,0,0.06,0,0.08c-0.11,1.21-1.22,2.33-3.04,3.1C64.53,168.24,62.77,168.58,60.93,168.58z"/>
			</g>
			<g>
				<path class="st4" d="M96.13,215.92c-3.39,0-6.57-0.92-8.71-2.53c-2.11-1.57-2.65-3.35-2.75-4.57c-0.12-2.92,1.79-5.35,5.06-6.74
					c1.89-0.79,4.09-1.23,6.37-1.23c3.39,0,6.55,0.93,8.69,2.54c1.87,1.41,2.84,3.25,2.77,5.18c-0.16,1.71-1,4.4-5.08,6.13
					C100.6,215.51,98.4,215.92,96.13,215.92z"/>
				<path class="st5" d="M96.13,212.59c-2.65,0-5.14-0.69-6.69-1.86c-0.88-0.66-1.37-1.4-1.44-2.16v-0.04l-0.01-0.04
					c-0.05-1.25,1.09-2.49,3.05-3.33c1.48-0.62,3.23-0.96,5.07-0.96c2.63,0,5.14,0.69,6.69,1.86c0.96,0.72,1.46,1.58,1.44,2.39
					c0,0.04,0,0.07-0.01,0.09c-0.12,1.21-1.22,2.33-3.04,3.09C99.72,212.26,97.97,212.59,96.13,212.59z"/>
			</g>
			<g>
				<path class="st4" d="M60.95,207.1c-3.39,0-6.56-0.93-8.7-2.53c-2.1-1.58-2.65-3.36-2.75-4.58c-0.11-2.92,1.79-5.35,5.06-6.74
					c1.89-0.79,4.09-1.22,6.37-1.22c3.39,0,6.56,0.92,8.71,2.53c1.86,1.41,2.83,3.25,2.76,5.19c-0.15,1.71-1,4.39-5.08,6.12
					C65.43,206.67,63.23,207.1,60.95,207.1z"/>
				<path class="st5" d="M60.95,203.77c-2.64,0-5.14-0.7-6.68-1.86c-0.88-0.66-1.38-1.41-1.44-2.17v-0.03l-0.02-0.05
					c-0.03-1.25,1.1-2.49,3.05-3.33c1.48-0.62,3.23-0.96,5.07-0.96c2.64,0,5.14,0.7,6.7,1.87c0.95,0.72,1.47,1.57,1.43,2.39
					c0,0.04,0,0.07,0,0.09c-0.11,1.22-1.23,2.33-3.04,3.09C64.54,203.43,62.79,203.77,60.95,203.77z"/>
			</g>
			<g>
				<path class="st4" d="M96.13,160.18c-3.39,0-6.57-0.92-8.71-2.53c-2.11-1.57-2.65-3.36-2.75-4.57c-0.12-2.92,1.79-5.35,5.06-6.74
					c1.89-0.8,4.09-1.22,6.37-1.22c3.39,0,6.55,0.92,8.69,2.53c1.87,1.4,2.84,3.24,2.77,5.18c-0.16,1.72-1,4.4-5.08,6.12
					C100.6,159.76,98.4,160.18,96.13,160.18z"/>
				<path class="st5" d="M96.13,156.84c-2.65,0-5.14-0.69-6.69-1.86c-0.88-0.66-1.37-1.41-1.44-2.17v-0.04l-0.01-0.04
					c-0.05-1.25,1.09-2.5,3.05-3.33c1.48-0.63,3.23-0.96,5.07-0.96c2.63,0,5.14,0.7,6.69,1.87c0.96,0.72,1.46,1.58,1.44,2.4
					c0,0.03,0,0.06-0.01,0.09c-0.12,1.21-1.22,2.33-3.04,3.09C99.72,156.51,97.97,156.84,96.13,156.84z"/>
			</g>
			<g>
				<path class="st4" d="M130.67,224.32c-3.39,0-6.56-0.92-8.7-2.53c-2.1-1.58-2.66-3.36-2.75-4.58c-0.12-2.92,1.79-5.34,5.06-6.73
					c1.88-0.8,4.08-1.22,6.37-1.22c3.38,0,6.55,0.92,8.69,2.53c1.87,1.41,2.84,3.25,2.77,5.18c-0.16,1.72-1,4.4-5.09,6.12
					C135.15,223.89,132.96,224.32,130.67,224.32z"/>
				<path class="st5" d="M130.67,220.99c-2.64,0-5.14-0.7-6.69-1.87c-0.88-0.65-1.38-1.4-1.44-2.16l-0.01-0.04l-0.01-0.04
					c-0.04-1.25,1.1-2.5,3.06-3.33c1.48-0.63,3.23-0.96,5.07-0.96c2.64,0,5.14,0.7,6.69,1.87c0.96,0.72,1.47,1.58,1.45,2.4
					c0,0.03,0,0.06-0.01,0.08c-0.12,1.21-1.22,2.33-3.04,3.1C134.27,220.66,132.51,220.99,130.67,220.99z"/>
			</g>
			<g>
				<path class="st4" d="M185.58,177.71c-3.39,0-6.56-0.92-8.7-2.53c-2.1-1.57-2.65-3.36-2.75-4.57c-0.12-2.92,1.79-5.36,5.06-6.74
					c1.89-0.8,4.09-1.23,6.37-1.23c3.38,0,6.56,0.93,8.7,2.53c1.86,1.41,2.84,3.25,2.77,5.19c-0.15,1.71-1,4.4-5.08,6.12
					C190.06,177.29,187.85,177.71,185.58,177.71z"/>
				<path class="st5" d="M185.58,174.37c-2.64,0-5.14-0.69-6.68-1.86c-0.89-0.67-1.38-1.41-1.44-2.17v-0.04l-0.02-0.04
					c-0.04-1.26,1.1-2.49,3.05-3.33c1.48-0.61,3.23-0.95,5.07-0.95c2.64,0,5.14,0.69,6.7,1.86c0.95,0.72,1.47,1.57,1.43,2.39
					c0,0.05,0,0.08,0,0.09c-0.11,1.22-1.23,2.34-3.04,3.1C189.17,174.04,187.42,174.37,185.58,174.37z"/>
			</g>
			<g>
				<path class="st4" d="M158.98,157.53c-3.39,0-6.56-0.93-8.69-2.53c-2.11-1.58-2.66-3.36-2.75-4.57
					c-0.12-2.92,1.78-5.35,5.06-6.74c1.89-0.8,4.09-1.23,6.38-1.23c3.38,0,6.55,0.93,8.69,2.53c1.86,1.41,2.84,3.25,2.76,5.19
					c-0.15,1.71-1,4.39-5.08,6.12C163.46,157.11,161.26,157.53,158.98,157.53z"/>
				<path class="st5" d="M158.98,154.2c-2.64,0-5.14-0.7-6.67-1.86c-0.88-0.67-1.38-1.41-1.45-2.17v-0.05l-0.01-0.03
					c-0.04-1.26,1.09-2.5,3.05-3.33c1.48-0.62,3.24-0.96,5.07-0.96c2.64,0,5.14,0.7,6.69,1.87c0.96,0.72,1.46,1.57,1.44,2.39
					c0,0.04,0,0.07,0,0.09c-0.12,1.21-1.22,2.34-3.05,3.1C162.58,153.87,160.82,154.2,158.98,154.2z"/>
			</g>
			<g>
				<path class="st4" d="M167.12,220.12c-3.39,0-6.56-0.92-8.69-2.53c-2.11-1.57-2.66-3.35-2.75-4.57c-0.11-2.92,1.8-5.34,5.07-6.73
					c1.89-0.8,4.09-1.22,6.37-1.22c3.39,0,6.56,0.92,8.7,2.53c1.87,1.4,2.84,3.24,2.76,5.19c-0.15,1.72-0.99,4.4-5.08,6.12
					C171.6,219.7,169.41,220.12,167.12,220.12z"/>
				<path class="st5" d="M167.13,216.79c-2.64,0-5.14-0.7-6.69-1.87c-0.87-0.66-1.37-1.41-1.43-2.17l-0.01-0.03l-0.01-0.05
					c-0.04-1.24,1.09-2.49,3.06-3.32c1.47-0.63,3.22-0.97,5.07-0.97c2.64,0,5.14,0.7,6.69,1.87c0.96,0.72,1.47,1.57,1.44,2.4
					c0,0.03,0,0.06,0,0.08c-0.12,1.21-1.23,2.32-3.05,3.09C170.72,216.46,168.96,216.79,167.13,216.79z"/>
			</g>
			<g>
				<path class="st4" d="M197.03,202.16c-3.39,0-6.56-0.93-8.7-2.53c-2.11-1.58-2.65-3.36-2.74-4.58c-0.12-2.92,1.78-5.34,5.06-6.73
					c1.89-0.8,4.09-1.22,6.37-1.22c3.38,0,6.55,0.92,8.7,2.53c1.86,1.4,2.84,3.24,2.76,5.18c-0.15,1.72-1,4.4-5.07,6.12
					C201.51,201.73,199.31,202.16,197.03,202.16z"/>
				<path class="st5" d="M197.03,198.83c-2.64,0-5.14-0.69-6.69-1.86c-0.88-0.66-1.37-1.42-1.44-2.17v-0.03l-0.02-0.05
					c-0.04-1.24,1.09-2.49,3.05-3.32c1.48-0.63,3.23-0.96,5.07-0.96c2.63,0,5.14,0.7,6.7,1.87c0.95,0.72,1.46,1.57,1.43,2.4
					c0,0.03,0,0.06,0,0.09c-0.12,1.21-1.23,2.32-3.04,3.09C200.63,198.49,198.87,198.83,197.03,198.83z"/>
			</g>
		</g>
		<g>
			<path class="st0" d="M227.5,157.04l-1.25,3.18c-2.74-9.56-9.65-18.84-20.29-26.9c-21.6-16.2-56.04-25.88-92.27-25.88
				c-25.31,0-49.29,4.61-69.43,13.16c-23.75,10.06-38.98,24.6-43.1,40.28L0,159.24l0.07,8.71c-0.04,0.95-0.08,1.89-0.04,2.84
				c0,0.44,0,1.01,0.11,1.46c1.02,11.94,8.44,23.41,21.61,33.31c21.49,16.21,55.93,25.89,92.16,25.89
				c25.32,0,49.28-4.61,69.43-13.17c26.44-11.14,42.42-27.91,44.11-45.8c0.12-0.68,0.12-1.35,0.12-2.02L227.5,157.04z"/>
			<path class="st1" d="M205.96,123.11c-21.6-16.2-56.04-25.88-92.27-25.88c-25.31,0-49.29,4.61-69.43,13.16
				c-28.7,12.16-45.01,30.83-44.23,50.19c0,0.44,0,1.02,0.11,1.46c1.02,11.94,8.44,23.41,21.61,33.31
				c21.49,16.21,55.93,25.89,92.16,25.89c25.32,0,49.28-4.61,69.43-13.17c26.44-11.14,42.42-27.91,44.11-45.8
				c0.12-0.67,0.12-1.35,0.12-2.02C228.02,147.2,220.37,134.03,205.96,123.11z"/>
			<path class="st2" d="M113.92,214.58c-34.82,0-67.78-9.18-88.16-24.55c-11.57-8.69-18.13-18.57-18.98-28.55l-0.04-0.57l-0.15-0.55
				c-0.58-16.53,14.44-32.89,40.26-43.83c19.48-8.27,42.59-12.64,66.83-12.64c34.78,0,67.78,9.17,88.28,24.55
				c12.58,9.54,19.33,20.76,18.95,31.58c0,0.53,0.02,0.83-0.02,1.12c-1.53,16-16.13,30.68-40.13,40.79
				C161.28,210.21,138.16,214.58,113.92,214.58z"/>
			<path class="st3" d="M192.36,131.44c-7.06-1.99-15.16,0.25-21.59-3.29c-3.53-1.94-6-5.35-9.19-7.78
				c-10.46-7.95-25.32-3.85-38.33-5.64c-6.98-0.96-13.73-3.73-20.77-3.73c-8.47,0-16.18,3.9-23.75,7.25
				c-7.97,3.53-15.69,5.88-24.52,5.58c-1.86-0.06-3.77-0.21-5.51,0.44c-3.38,1.29-6.66,4.86-9.74,6.84
				c-4.15,2.69-8.03,6.02-11.99,8.98c-1.94,1.46-4.11,3.44-3.69,5.83c0.33,1.82,2.06,3,3.06,4.57c2.87,4.49-0.43,10.24,0.78,15.1
				c1.24,5.01,2,10.44,4.2,15.22c3.49,7.6,10.71,14.16,19.07,14.12c3.04-0.02,5.97-0.9,8.99-1.02c3.07-0.14,5.95,0.73,9.03,0.78
				c7.35,0.12,14.68,1.3,21.69,3.46c12.28,3.8,24.01,10.71,36.86,10.47c4.22-0.08,8.4-0.94,12.55-1.81
				c8.16-1.7,16.31-3.39,24.48-5.1c2.67-0.55,5.4-1.13,7.72-2.58c3.72-2.33,5.79-6.5,8.74-9.74c3.14-3.43,7.26-5.77,10.97-8.55
				c8.2-6.13,14.85-15.11,15.8-25.3C208.2,145.32,202.21,134.22,192.36,131.44z"/>
			<g>
				<path class="st4" d="M152.63,176.97c-3.39,0-6.56-0.92-8.69-2.53c-2.11-1.58-2.66-3.37-2.76-4.58
					c-0.11-2.91,1.79-5.35,5.06-6.73c1.9-0.81,4.1-1.23,6.37-1.23c3.39,0,6.57,0.93,8.71,2.53c1.86,1.41,2.83,3.26,2.76,5.18
					c-0.16,1.72-1,4.41-5.08,6.13C157.11,176.55,154.91,176.97,152.63,176.97z"/>
				<path class="st5" d="M152.63,173.64c-2.64,0-5.14-0.7-6.69-1.87c-0.88-0.66-1.37-1.4-1.44-2.16v-0.05l-0.02-0.03
					c-0.03-1.26,1.1-2.5,3.06-3.33c1.48-0.63,3.22-0.96,5.06-0.96c2.65,0,5.14,0.69,6.7,1.86c0.96,0.73,1.47,1.58,1.43,2.4
					c0,0.04,0,0.07,0,0.09c-0.11,1.21-1.23,2.33-3.04,3.1C156.22,173.3,154.47,173.64,152.63,173.64z"/>
			</g>
			<g>
				<path class="st4" d="M137.48,157.34c-3.39,0-6.57-0.93-8.7-2.53c-2.11-1.59-2.65-3.37-2.75-4.59c-0.13-2.91,1.78-5.34,5.06-6.73
					c1.89-0.8,4.09-1.22,6.37-1.22c3.39,0,6.55,0.92,8.7,2.53c1.86,1.41,2.84,3.25,2.76,5.18c-0.15,1.72-1,4.4-5.08,6.12
					C141.95,156.91,139.76,157.34,137.48,157.34z"/>
				<path class="st5" d="M137.48,154c-2.64,0-5.14-0.69-6.69-1.86c-0.89-0.66-1.38-1.41-1.44-2.17l-0.01-0.04l-0.01-0.04
					c-0.05-1.25,1.09-2.5,3.05-3.33c1.49-0.63,3.23-0.96,5.07-0.96c2.64,0,5.14,0.7,6.7,1.87c0.95,0.72,1.46,1.58,1.43,2.4
					c0,0.03,0,0.06-0.01,0.09c-0.12,1.21-1.22,2.33-3.03,3.09C141.07,153.66,139.32,154,137.48,154z"/>
			</g>
			<g>
				<path class="st4" d="M96.59,160.24c-3.39,0-6.56-0.92-8.7-2.53c-2.11-1.58-2.66-3.36-2.75-4.58c-0.12-2.92,1.79-5.35,5.06-6.73
					c1.88-0.8,4.08-1.23,6.37-1.23c3.38,0,6.55,0.93,8.69,2.53c1.87,1.41,2.84,3.26,2.77,5.18c-0.16,1.72-1,4.41-5.08,6.13
					C101.06,159.81,98.87,160.24,96.59,160.24z"/>
				<path class="st5" d="M96.59,156.9c-2.64,0-5.14-0.7-6.69-1.87c-0.88-0.66-1.37-1.41-1.44-2.16l-0.01-0.05v-0.03
					c-0.05-1.26,1.09-2.5,3.05-3.33c1.48-0.62,3.23-0.95,5.07-0.95c2.62,0,5.14,0.69,6.69,1.85c0.96,0.73,1.46,1.58,1.45,2.41
					c0,0.04,0,0.06-0.01,0.09c-0.12,1.21-1.22,2.33-3.04,3.09C100.19,156.57,98.43,156.9,96.59,156.9z"/>
			</g>
			<g>
				<path class="st4" d="M113.74,179.5c-3.39,0-6.56-0.93-8.7-2.53c-2.1-1.58-2.65-3.36-2.75-4.58c-0.11-2.92,1.79-5.35,5.06-6.73
					c1.9-0.8,4.09-1.23,6.37-1.23c3.39,0,6.56,0.93,8.71,2.53c1.86,1.41,2.83,3.25,2.76,5.19c-0.15,1.72-1,4.4-5.08,6.13
					C118.22,179.07,116.01,179.5,113.74,179.5z"/>
				<path class="st5" d="M113.74,176.16c-2.64,0-5.14-0.7-6.69-1.87c-0.88-0.66-1.38-1.41-1.44-2.16v-0.05l-0.02-0.03
					c-0.04-1.26,1.1-2.51,3.05-3.33c1.49-0.62,3.23-0.96,5.07-0.96c2.64,0,5.14,0.7,6.7,1.86c0.96,0.73,1.47,1.58,1.43,2.4
					c0,0.04,0,0.06,0,0.09c-0.11,1.21-1.23,2.34-3.04,3.1C117.32,175.83,115.58,176.16,113.74,176.16z"/>
			</g>
			<g>
				<path class="st4" d="M114.57,140.98c-3.39,0-6.56-0.92-8.7-2.53c-2.11-1.58-2.66-3.36-2.76-4.58c-0.11-2.92,1.8-5.34,5.06-6.73
					c1.9-0.8,4.1-1.23,6.38-1.23c3.39,0,6.56,0.93,8.7,2.53c1.87,1.42,2.84,3.26,2.77,5.19c-0.16,1.72-1,4.41-5.09,6.14
					C119.05,140.55,116.85,140.98,114.57,140.98z"/>
				<path class="st5" d="M114.57,137.64c-2.64,0-5.14-0.7-6.69-1.87c-0.87-0.65-1.37-1.4-1.43-2.16l-0.01-0.05l-0.01-0.03
					c-0.04-1.25,1.1-2.5,3.05-3.33c1.48-0.63,3.23-0.95,5.07-0.95c2.64,0,5.14,0.69,6.69,1.85c0.97,0.73,1.47,1.59,1.44,2.41
					c-0.01,0.04,0,0.06-0.01,0.08c-0.11,1.21-1.22,2.33-3.03,3.09C118.16,137.31,116.4,137.64,114.57,137.64z"/>
			</g>
			<g>
				<path class="st4" d="M64.58,166.03c-3.39,0-6.56-0.93-8.7-2.53c-2.11-1.57-2.66-3.36-2.75-4.57c-0.13-2.92,1.78-5.35,5.06-6.74
					c1.88-0.8,4.09-1.23,6.37-1.23c3.38,0,6.55,0.92,8.7,2.53c1.86,1.41,2.84,3.25,2.76,5.19c-0.15,1.71-1,4.4-5.08,6.12
					C69.05,165.62,66.86,166.03,64.58,166.03z"/>
				<path class="st5" d="M64.58,162.7c-2.64,0-5.14-0.69-6.69-1.86c-0.88-0.66-1.37-1.41-1.43-2.17l-0.01-0.04l-0.01-0.04
					c-0.05-1.25,1.09-2.5,3.05-3.32c1.48-0.63,3.23-0.96,5.07-0.96c2.64,0,5.14,0.7,6.69,1.87c0.96,0.72,1.47,1.57,1.44,2.4
					c0,0.03,0,0.06-0.01,0.08c-0.12,1.22-1.22,2.34-3.03,3.09C68.17,162.37,66.42,162.7,64.58,162.7z"/>
			</g>
			<g>
				<path class="st4" d="M46.46,148.51c-3.39,0-6.56-0.93-8.7-2.53c-2.11-1.59-2.65-3.37-2.75-4.59c-0.12-2.92,1.79-5.34,5.06-6.73
					c1.89-0.8,4.1-1.22,6.38-1.22c3.39,0,6.55,0.92,8.7,2.53c1.85,1.41,2.84,3.25,2.76,5.18c-0.15,1.72-1,4.4-5.08,6.12
					C50.94,148.08,48.74,148.51,46.46,148.51z"/>
				<path class="st5" d="M46.47,145.17c-2.65,0-5.15-0.69-6.69-1.86c-0.88-0.66-1.37-1.41-1.44-2.17v-0.04l-0.01-0.04
					c-0.05-1.25,1.09-2.5,3.05-3.33c1.48-0.63,3.23-0.96,5.07-0.96c2.64,0,5.14,0.7,6.7,1.87c0.95,0.72,1.47,1.58,1.43,2.4
					c0,0.03,0,0.06,0,0.09c-0.12,1.21-1.22,2.33-3.04,3.09C50.06,144.84,48.3,145.17,46.47,145.17z"/>
			</g>
			<g>
				<path class="st4" d="M81.65,192.53c-3.39,0-6.56-0.93-8.7-2.53c-2.1-1.58-2.66-3.36-2.75-4.58c-0.12-2.92,1.79-5.35,5.06-6.74
					c1.89-0.79,4.09-1.22,6.37-1.22c3.39,0,6.56,0.92,8.7,2.53c1.87,1.41,2.84,3.25,2.77,5.19c-0.16,1.71-1,4.39-5.09,6.12
					C86.13,192.1,83.93,192.53,81.65,192.53z"/>
				<path class="st5" d="M81.65,189.18c-2.64,0-5.14-0.69-6.69-1.85c-0.87-0.67-1.37-1.41-1.43-2.17l-0.01-0.05l-0.01-0.04
					c-0.04-1.25,1.1-2.49,3.05-3.33c1.48-0.62,3.23-0.96,5.07-0.96c2.64,0,5.14,0.7,6.69,1.87c0.96,0.72,1.47,1.57,1.44,2.39
					c0,0.04,0,0.07-0.01,0.09c-0.11,1.21-1.22,2.33-3.04,3.1C85.24,188.86,83.49,189.18,81.65,189.18z"/>
			</g>
			<g>
				<path class="st4" d="M46.48,183.69c-3.39,0-6.57-0.93-8.7-2.53c-2.11-1.57-2.66-3.36-2.75-4.57c-0.12-2.92,1.78-5.36,5.06-6.74
					c1.89-0.8,4.08-1.23,6.37-1.23c3.39,0,6.55,0.93,8.7,2.53c1.86,1.41,2.83,3.25,2.76,5.19c-0.15,1.71-1,4.4-5.07,6.12
					C50.96,183.28,48.76,183.69,46.48,183.69z"/>
				<path class="st5" d="M46.48,180.36c-2.64,0-5.14-0.69-6.69-1.86c-0.89-0.67-1.37-1.42-1.45-2.17v-0.04l-0.01-0.04
					c-0.04-1.26,1.09-2.5,3.05-3.33c1.49-0.61,3.23-0.95,5.07-0.95c2.64,0,5.14,0.7,6.69,1.87c0.96,0.72,1.47,1.57,1.44,2.39
					c0,0.05,0,0.07,0,0.08c-0.12,1.22-1.23,2.34-3.05,3.1C50.07,180.03,48.32,180.36,46.48,180.36z"/>
			</g>
			<g>
				<path class="st4" d="M81.65,136.77c-3.39,0-6.56-0.92-8.7-2.53c-2.1-1.57-2.66-3.35-2.75-4.57c-0.12-2.92,1.79-5.34,5.06-6.73
					c1.89-0.8,4.09-1.23,6.37-1.23c3.39,0,6.56,0.93,8.7,2.53c1.87,1.41,2.84,3.25,2.77,5.19c-0.16,1.72-1,4.41-5.09,6.13
					C86.13,136.35,83.93,136.77,81.65,136.77z"/>
				<path class="st5" d="M81.65,133.45c-2.64,0-5.14-0.7-6.69-1.87c-0.87-0.66-1.37-1.41-1.43-2.17l-0.01-0.04l-0.01-0.04
					c-0.04-1.25,1.1-2.49,3.05-3.32c1.48-0.63,3.23-0.96,5.07-0.96c2.64,0,5.14,0.69,6.69,1.86c0.96,0.73,1.47,1.58,1.44,2.4
					c0,0.04,0,0.07-0.01,0.09c-0.11,1.21-1.22,2.32-3.04,3.09C85.24,133.11,83.49,133.45,81.65,133.45z"/>
			</g>
			<g>
				<path class="st4" d="M116.2,200.93c-3.39,0-6.56-0.93-8.7-2.53c-2.1-1.58-2.66-3.37-2.75-4.58c-0.12-2.92,1.79-5.35,5.06-6.74
					c1.9-0.8,4.09-1.22,6.37-1.22c3.39,0,6.56,0.92,8.7,2.53c1.87,1.41,2.84,3.25,2.77,5.19c-0.16,1.72-1,4.4-5.09,6.12
					C120.68,200.5,118.48,200.93,116.2,200.93z"/>
				<path class="st5" d="M116.2,197.58c-2.64,0-5.14-0.69-6.69-1.86c-0.87-0.66-1.37-1.41-1.43-2.17l-0.01-0.04l-0.01-0.03
					c-0.04-1.26,1.1-2.51,3.05-3.33c1.48-0.62,3.23-0.96,5.07-0.96c2.64,0,5.14,0.7,6.69,1.87c0.96,0.72,1.47,1.58,1.44,2.4
					c0,0.03,0,0.06-0.01,0.09c-0.11,1.21-1.22,2.33-3.04,3.09C119.79,197.25,118.04,197.58,116.2,197.58z"/>
			</g>
			<g>
				<path class="st4" d="M171.1,154.3c-3.38,0-6.56-0.92-8.69-2.53c-2.11-1.57-2.66-3.35-2.75-4.57c-0.12-2.91,1.78-5.35,5.06-6.73
					c1.9-0.79,4.08-1.22,6.37-1.22c3.39,0,6.56,0.92,8.7,2.53c1.86,1.41,2.83,3.25,2.76,5.19c-0.15,1.71-1,4.39-5.08,6.12
					C175.59,153.88,173.39,154.3,171.1,154.3z"/>
				<path class="st5" d="M171.1,150.97c-2.64,0-5.14-0.69-6.67-1.86c-0.89-0.66-1.38-1.41-1.45-2.17v-0.04l-0.01-0.04
					c-0.04-1.25,1.09-2.49,3.05-3.33c1.48-0.62,3.23-0.96,5.07-0.96c2.64,0,5.14,0.7,6.69,1.87c0.96,0.72,1.47,1.57,1.44,2.39
					c0,0.04,0,0.07,0,0.09c-0.12,1.21-1.23,2.33-3.05,3.09C174.71,150.65,172.94,150.97,171.1,150.97z"/>
			</g>
			<g>
				<path class="st4" d="M144.51,134.13c-3.39,0-6.56-0.92-8.7-2.53c-2.1-1.58-2.65-3.35-2.75-4.57c-0.11-2.92,1.79-5.35,5.06-6.74
					c1.9-0.79,4.1-1.23,6.38-1.23c3.39,0,6.56,0.93,8.7,2.53c1.86,1.41,2.84,3.26,2.76,5.19c-0.15,1.71-0.99,4.4-5.08,6.13
					C148.99,133.7,146.79,134.13,144.51,134.13z"/>
				<path class="st5" d="M144.52,130.79c-2.65,0-5.15-0.7-6.69-1.86c-0.87-0.66-1.38-1.41-1.44-2.17v-0.05l-0.01-0.03
					c-0.04-1.25,1.09-2.5,3.05-3.33c1.48-0.63,3.23-0.96,5.07-0.96c2.64,0,5.14,0.69,6.7,1.86c0.96,0.72,1.47,1.58,1.43,2.4
					c0,0.04,0,0.06,0,0.09c-0.11,1.21-1.22,2.33-3.04,3.1C148.11,130.47,146.35,130.79,144.52,130.79z"/>
			</g>
			<g>
				<path class="st4" d="M152.65,196.72c-3.39,0-6.56-0.93-8.7-2.53c-2.1-1.58-2.65-3.36-2.75-4.57c-0.11-2.92,1.8-5.35,5.06-6.74
					c1.89-0.8,4.1-1.22,6.38-1.22c3.39,0,6.56,0.92,8.7,2.53c1.86,1.4,2.84,3.24,2.76,5.19c-0.15,1.72-0.99,4.4-5.08,6.12
					C157.13,196.3,154.93,196.72,152.65,196.72z"/>
				<path class="st5" d="M152.66,193.39c-2.65,0-5.14-0.69-6.69-1.86c-0.88-0.66-1.37-1.41-1.43-2.17l-0.01-0.04l-0.01-0.04
					c-0.04-1.25,1.09-2.5,3.05-3.33c1.47-0.63,3.23-0.96,5.06-0.96c2.64,0,5.15,0.7,6.7,1.87c0.95,0.72,1.47,1.57,1.43,2.4
					c0,0.04,0.01,0.06,0,0.09c-0.11,1.21-1.22,2.33-3.04,3.09C156.25,193.06,154.49,193.39,152.66,193.39z"/>
			</g>
			<g>
				<path class="st4" d="M182.55,178.76c-3.39,0-6.56-0.92-8.69-2.53c-2.11-1.57-2.66-3.36-2.75-4.57
					c-0.11-2.92,1.79-5.35,5.06-6.73c1.9-0.81,4.1-1.23,6.37-1.23c3.38,0,6.56,0.93,8.7,2.53c1.86,1.4,2.83,3.24,2.76,5.19
					c-0.15,1.72-1,4.41-5.08,6.12C187.04,178.34,184.84,178.76,182.55,178.76z"/>
				<path class="st5" d="M182.55,175.43c-2.64,0-5.14-0.7-6.69-1.87c-0.87-0.66-1.37-1.41-1.44-2.17v-0.04l-0.02-0.04
					c-0.03-1.25,1.1-2.49,3.06-3.33c1.48-0.62,3.22-0.96,5.07-0.96c2.64,0,5.14,0.69,6.7,1.86c0.96,0.72,1.46,1.57,1.43,2.4
					c0,0.04,0,0.07,0,0.09c-0.11,1.22-1.23,2.33-3.04,3.1C186.15,175.09,184.4,175.43,182.55,175.43z"/>
			</g>
		</g>
		<g>
			<path class="st0" d="M252.23,140.19l-1.25,3.17c-2.74-9.56-9.66-18.84-20.29-26.9c-21.6-16.21-56.04-25.89-92.27-25.89
				c-25.32,0-49.29,4.62-69.44,13.17c-23.75,10.06-38.98,24.59-43.09,40.28l-1.15-1.65l0.07,8.73c-0.04,0.94-0.08,1.88-0.04,2.83
				c0,0.45,0,1.01,0.11,1.47c1.02,11.92,8.44,23.4,21.61,33.31c21.49,16.2,55.93,25.88,92.17,25.88c25.32,0,49.28-4.61,69.43-13.16
				c26.44-11.15,42.42-27.91,44.11-45.8c0.11-0.67,0.11-1.36,0.11-2.03L252.23,140.19z"/>
			<path class="st1" d="M230.69,106.26c-21.6-16.21-56.04-25.89-92.27-25.89c-25.32,0-49.29,4.62-69.44,13.17
				c-28.69,12.15-45,30.83-44.22,50.19c0,0.45,0,1.02,0.11,1.47c1.02,11.92,8.44,23.41,21.61,33.31
				c21.49,16.2,55.93,25.88,92.17,25.88c25.32,0,49.28-4.61,69.43-13.17c26.44-11.14,42.42-27.91,44.11-45.8
				c0.11-0.67,0.11-1.35,0.11-2.03C252.74,130.34,245.08,117.18,230.69,106.26z"/>
			<path class="st2" d="M138.64,197.72c-34.83,0-67.78-9.17-88.15-24.54c-11.57-8.7-18.12-18.57-18.98-28.55l-0.05-0.57l-0.14-0.55
				c-0.58-16.54,14.43-32.9,40.25-43.83c19.49-8.27,42.59-12.64,66.84-12.64c34.78,0,67.78,9.17,88.27,24.55
				c12.58,9.53,19.32,20.75,18.95,31.57c-0.01,0.53,0.02,0.83-0.02,1.13c-1.54,16-16.13,30.68-40.14,40.78
				C186,193.35,162.89,197.72,138.64,197.72z"/>
			<path class="st3" d="M217.08,114.59c-7.07-1.99-15.16,0.23-21.59-3.3c-3.53-1.94-6-5.35-9.2-7.78
				c-10.45-7.96-25.32-3.86-38.32-5.65c-6.98-0.96-13.73-3.72-20.77-3.73c-8.47-0.02-16.19,3.89-23.75,7.24
				c-7.98,3.54-15.7,5.89-24.52,5.58c-1.86-0.06-3.77-0.21-5.51,0.44c-3.38,1.29-6.66,4.87-9.74,6.85c-4.17,2.68-8.03,6.01-12,8.98
				c-1.94,1.45-4.1,3.44-3.69,5.82c0.33,1.83,2.07,3.01,3.07,4.57c2.87,4.48-0.44,10.24,0.77,15.11c1.24,5,2.01,10.44,4.21,15.21
				c3.5,7.6,10.71,14.17,19.07,14.12c3.03-0.01,5.97-0.89,8.99-1.02c3.07-0.13,5.94,0.73,9.03,0.78c7.34,0.1,14.68,1.29,21.69,3.46
				c12.28,3.79,24.01,10.71,36.85,10.47c4.23-0.09,8.41-0.95,12.55-1.81c8.16-1.7,16.32-3.4,24.48-5.1
				c2.68-0.56,5.41-1.14,7.73-2.58c3.72-2.33,5.79-6.51,8.74-9.74c3.14-3.44,7.25-5.77,10.97-8.55c8.2-6.13,14.84-15.11,15.79-25.31
				C232.93,128.48,226.94,117.36,217.08,114.59z"/>
			<g>
				<path class="st4" d="M177.35,160.12c-3.39,0-6.56-0.93-8.7-2.53c-2.1-1.57-2.65-3.36-2.75-4.57c-0.11-2.92,1.79-5.35,5.06-6.73
					c1.9-0.81,4.09-1.23,6.37-1.23c3.39,0,6.56,0.92,8.7,2.53c1.87,1.4,2.84,3.24,2.77,5.18c-0.15,1.72-1,4.4-5.08,6.12
					C181.83,159.7,179.63,160.12,177.35,160.12z"/>
				<path class="st5" d="M177.35,156.78c-2.64,0-5.14-0.69-6.68-1.86c-0.88-0.66-1.38-1.42-1.44-2.17v-0.04l-0.02-0.04
					c-0.04-1.25,1.1-2.5,3.05-3.33c1.48-0.63,3.23-0.96,5.07-0.96c2.64,0,5.14,0.7,6.7,1.87c0.96,0.72,1.47,1.57,1.43,2.4
					c0,0.03,0,0.06,0,0.09c-0.11,1.21-1.23,2.33-3.04,3.09C180.94,156.45,179.19,156.78,177.35,156.78z"/>
			</g>
			<g>
				<path class="st4" d="M162.2,140.47c-3.39,0-6.56-0.92-8.7-2.53c-2.1-1.57-2.66-3.35-2.74-4.57c-0.13-2.92,1.78-5.35,5.06-6.73
					c1.88-0.8,4.08-1.23,6.37-1.23c3.38,0,6.55,0.92,8.69,2.53c1.87,1.41,2.84,3.25,2.77,5.19c-0.16,1.71-1,4.4-5.08,6.12
					C166.68,140.05,164.49,140.47,162.2,140.47z"/>
				<path class="st5" d="M162.2,137.15c-2.64,0-5.14-0.7-6.68-1.86c-0.88-0.67-1.38-1.41-1.45-2.17l-0.01-0.03v-0.05
					c-0.05-1.25,1.09-2.49,3.05-3.32c1.48-0.63,3.23-0.96,5.07-0.96c2.63,0,5.14,0.7,6.68,1.87c0.97,0.72,1.47,1.57,1.45,2.4
					c0,0.03,0,0.06-0.01,0.08c-0.12,1.22-1.22,2.33-3.04,3.09C165.8,136.81,164.04,137.15,162.2,137.15z"/>
			</g>
			<g>
				<path class="st4" d="M121.31,143.38c-3.39,0-6.55-0.93-8.7-2.53c-2.11-1.57-2.66-3.36-2.75-4.58c-0.11-2.91,1.8-5.34,5.06-6.72
					c1.9-0.81,4.09-1.23,6.37-1.23c3.39,0,6.56,0.93,8.7,2.53c1.87,1.4,2.84,3.24,2.76,5.18c-0.15,1.72-0.99,4.4-5.08,6.12
					C125.79,142.96,123.59,143.38,121.31,143.38z"/>
				<path class="st5" d="M121.31,140.05c-2.64,0-5.14-0.69-6.69-1.86c-0.87-0.66-1.37-1.41-1.43-2.17l-0.01-0.04l-0.01-0.04
					c-0.04-1.25,1.1-2.5,3.06-3.33c1.47-0.62,3.22-0.96,5.07-0.96c2.64,0,5.14,0.7,6.69,1.87c0.96,0.72,1.47,1.57,1.44,2.4
					c0,0.03,0,0.06,0,0.08c-0.12,1.21-1.23,2.33-3.04,3.1C124.91,139.71,123.15,140.05,121.31,140.05z"/>
			</g>
			<g>
				<path class="st4" d="M138.46,162.64c-3.39,0-6.56-0.93-8.7-2.53c-2.1-1.58-2.65-3.36-2.75-4.58c-0.12-2.92,1.79-5.34,5.06-6.73
					c1.89-0.8,4.09-1.22,6.37-1.22c3.39,0,6.56,0.92,8.7,2.53c1.86,1.4,2.84,3.24,2.77,5.19c-0.16,1.72-1,4.4-5.09,6.12
					C142.94,162.22,140.74,162.64,138.46,162.64z"/>
				<path class="st5" d="M138.46,159.31c-2.64,0-5.14-0.69-6.69-1.86c-0.89-0.66-1.38-1.41-1.44-2.17v-0.03l-0.02-0.05
					c-0.04-1.24,1.1-2.49,3.05-3.32c1.48-0.63,3.23-0.96,5.07-0.96c2.64,0,5.14,0.7,6.7,1.87c0.94,0.73,1.46,1.57,1.43,2.4
					c0,0.03,0,0.06,0,0.09c-0.12,1.21-1.23,2.32-3.04,3.09C142.05,158.98,140.3,159.31,138.46,159.31z"/>
			</g>
			<g>
				<path class="st4" d="M139.29,124.12c-3.38,0-6.56-0.92-8.7-2.53c-2.1-1.57-2.65-3.36-2.75-4.57c-0.11-2.92,1.8-5.35,5.06-6.73
					c1.9-0.81,4.1-1.23,6.38-1.23c3.39,0,6.56,0.93,8.7,2.53c1.86,1.4,2.84,3.24,2.76,5.19c-0.15,1.72-0.99,4.41-5.08,6.12
					C143.77,123.7,141.57,124.12,139.29,124.12z"/>
				<path class="st5" d="M139.3,120.79c-2.65,0-5.14-0.7-6.69-1.87c-0.87-0.66-1.37-1.41-1.43-2.17l-0.01-0.04l-0.01-0.04
					c-0.04-1.25,1.09-2.49,3.05-3.32c1.48-0.63,3.23-0.97,5.07-0.97c2.64,0,5.15,0.7,6.7,1.87c0.96,0.73,1.47,1.57,1.43,2.4
					c0,0.04,0.01,0.07,0,0.09c-0.11,1.22-1.22,2.33-3.04,3.1C142.89,120.46,141.13,120.79,139.3,120.79z"/>
			</g>
			<g>
				<path class="st4" d="M89.3,149.19c-3.39,0-6.56-0.93-8.7-2.53c-2.11-1.59-2.66-3.36-2.75-4.59c-0.12-2.92,1.79-5.34,5.06-6.73
					c1.89-0.79,4.09-1.22,6.38-1.22c3.39,0,6.55,0.92,8.69,2.53c1.87,1.41,2.84,3.25,2.77,5.18c-0.16,1.72-1,4.4-5.08,6.13
					C93.78,148.75,91.58,149.19,89.3,149.19z"/>
				<path class="st5" d="M89.3,145.84c-2.64,0-5.14-0.69-6.69-1.86c-0.88-0.66-1.37-1.41-1.44-2.17l-0.01-0.04v-0.04
					c-0.05-1.25,1.09-2.5,3.05-3.33c1.48-0.63,3.23-0.96,5.07-0.96c2.63,0,5.14,0.7,6.69,1.86c0.96,0.72,1.47,1.58,1.45,2.4
					c-0.01,0.04,0,0.06-0.01,0.09c-0.12,1.21-1.22,2.33-3.04,3.1C92.9,145.52,91.14,145.84,89.3,145.84z"/>
			</g>
			<g>
				<path class="st4" d="M71.19,131.65c-3.39,0-6.56-0.92-8.7-2.53c-2.11-1.57-2.66-3.35-2.75-4.57c-0.12-2.92,1.78-5.35,5.06-6.73
					c1.89-0.8,4.09-1.23,6.37-1.23c3.39,0,6.56,0.92,8.7,2.53c1.86,1.41,2.84,3.25,2.76,5.19c-0.15,1.71-1,4.4-5.07,6.12
					C75.66,131.23,73.47,131.65,71.19,131.65z"/>
				<path class="st5" d="M71.19,128.32c-2.64,0-5.14-0.7-6.69-1.87c-0.88-0.66-1.37-1.41-1.45-2.17v-0.03l-0.01-0.05
					c-0.04-1.24,1.09-2.49,3.05-3.32c1.49-0.63,3.23-0.96,5.07-0.96c2.64,0,5.14,0.7,6.69,1.87c0.96,0.72,1.47,1.57,1.44,2.4
					c0,0.03,0,0.06,0,0.08c-0.12,1.22-1.23,2.33-3.05,3.09C74.79,127.99,73.03,128.32,71.19,128.32z"/>
			</g>
			<g>
				<path class="st4" d="M106.38,175.67c-3.39,0-6.56-0.92-8.71-2.53c-2.09-1.58-2.65-3.36-2.74-4.58c-0.11-2.92,1.8-5.34,5.06-6.73
					c1.89-0.8,4.09-1.22,6.37-1.22c3.39,0,6.56,0.92,8.7,2.53c1.87,1.41,2.84,3.25,2.77,5.18c-0.16,1.72-1,4.4-5.09,6.12
					C110.85,175.24,108.64,175.67,106.38,175.67z"/>
				<path class="st5" d="M106.38,172.34c-2.64,0-5.14-0.7-6.69-1.87c-0.87-0.65-1.37-1.4-1.43-2.16l-0.01-0.04l-0.01-0.04
					c-0.04-1.25,1.1-2.5,3.05-3.33c1.48-0.63,3.23-0.96,5.07-0.96c2.64,0,5.15,0.7,6.7,1.87c0.96,0.72,1.46,1.58,1.44,2.4
					c0,0.03,0,0.06-0.01,0.09c-0.11,1.21-1.22,2.33-3.04,3.09C109.97,172,108.22,172.34,106.38,172.34z"/>
			</g>
			<g>
				<path class="st4" d="M71.2,166.84c-3.39,0-6.56-0.93-8.69-2.53c-2.11-1.59-2.66-3.37-2.75-4.59c-0.11-2.92,1.79-5.34,5.06-6.73
					c1.89-0.8,4.08-1.22,6.37-1.22c3.38,0,6.55,0.92,8.69,2.53c1.87,1.41,2.84,3.25,2.77,5.18c-0.16,1.72-1,4.4-5.09,6.13
					C75.68,166.42,73.48,166.84,71.2,166.84z"/>
				<path class="st5" d="M71.2,163.5c-2.64,0-5.14-0.69-6.69-1.86c-0.88-0.66-1.38-1.41-1.44-2.16v-0.05l-0.02-0.04
					c-0.03-1.25,1.1-2.5,3.06-3.32c1.48-0.63,3.23-0.96,5.07-0.96c2.64,0,5.14,0.69,6.69,1.86c0.96,0.72,1.47,1.58,1.44,2.4
					c0,0.04,0,0.06,0,0.09c-0.12,1.21-1.23,2.33-3.05,3.09C74.8,163.17,73.04,163.5,71.2,163.5z"/>
			</g>
			<g>
				<path class="st4" d="M106.38,119.92c-3.39,0-6.56-0.93-8.71-2.53c-2.09-1.57-2.65-3.36-2.74-4.57c-0.11-2.92,1.8-5.35,5.06-6.74
					c1.89-0.8,4.09-1.23,6.37-1.23c3.39,0,6.56,0.93,8.7,2.53c1.87,1.41,2.84,3.25,2.77,5.19c-0.16,1.71-1,4.39-5.09,6.12
					C110.85,119.51,108.64,119.92,106.38,119.92z"/>
				<path class="st5" d="M106.38,116.59c-2.64,0-5.14-0.69-6.69-1.86c-0.87-0.67-1.37-1.41-1.43-2.17l-0.01-0.04l-0.01-0.04
					c-0.04-1.26,1.1-2.5,3.05-3.33c1.48-0.61,3.23-0.95,5.07-0.95c2.64,0,5.15,0.7,6.7,1.87c0.96,0.72,1.46,1.57,1.44,2.39
					c0,0.05,0,0.07-0.01,0.09c-0.11,1.22-1.22,2.34-3.04,3.1C109.97,116.26,108.22,116.59,106.38,116.59z"/>
			</g>
			<g>
				<path class="st4" d="M140.93,184.07c-3.39,0-6.56-0.93-8.7-2.53c-2.1-1.58-2.65-3.36-2.75-4.58c-0.12-2.91,1.8-5.35,5.07-6.73
					c1.88-0.8,4.09-1.23,6.37-1.23c3.38,0,6.56,0.92,8.7,2.53c1.86,1.41,2.84,3.25,2.77,5.19c-0.16,1.71-1,4.4-5.09,6.12
					C145.39,183.64,143.19,184.07,140.93,184.07z"/>
				<path class="st5" d="M140.93,180.73c-2.64,0-5.14-0.69-6.69-1.86c-0.88-0.67-1.37-1.42-1.43-2.17l-0.01-0.03l-0.01-0.05
					c-0.05-1.25,1.1-2.49,3.05-3.32c1.47-0.63,3.23-0.96,5.07-0.96c2.63,0,5.14,0.7,6.69,1.87c0.96,0.72,1.46,1.57,1.44,2.4
					c0,0.03,0,0.06-0.01,0.08c-0.11,1.22-1.22,2.33-3.04,3.1C144.52,180.4,142.77,180.73,140.93,180.73z"/>
			</g>
			<g>
				<path class="st4" d="M195.83,137.45c-3.39,0-6.56-0.92-8.69-2.53c-2.11-1.58-2.66-3.37-2.75-4.58
					c-0.11-2.92,1.79-5.35,5.06-6.73c1.9-0.81,4.09-1.23,6.37-1.23c3.39,0,6.56,0.93,8.7,2.53c1.87,1.42,2.84,3.26,2.77,5.18
					c-0.15,1.72-0.99,4.41-5.09,6.13C200.3,137.03,198.11,137.45,195.83,137.45z"/>
				<path class="st5" d="M195.83,134.12c-2.64,0-5.14-0.7-6.69-1.87c-0.88-0.66-1.38-1.4-1.44-2.16v-0.05l-0.02-0.03
					c-0.04-1.25,1.1-2.5,3.06-3.33c1.48-0.63,3.22-0.96,5.06-0.96c2.64,0,5.14,0.69,6.7,1.86c0.95,0.73,1.46,1.59,1.43,2.4
					c0,0.04,0,0.07,0,0.09c-0.11,1.21-1.23,2.33-3.04,3.09C199.42,133.79,197.67,134.12,195.83,134.12z"/>
			</g>
			<g>
				<path class="st4" d="M169.23,117.28c-3.39,0-6.56-0.92-8.7-2.53c-2.1-1.58-2.65-3.37-2.74-4.58c-0.12-2.92,1.79-5.35,5.06-6.73
					c1.89-0.81,4.1-1.23,6.37-1.23c3.39,0,6.56,0.93,8.7,2.53c1.85,1.41,2.83,3.25,2.76,5.18c-0.15,1.72-1,4.41-5.08,6.12
					C173.71,116.85,171.51,117.28,169.23,117.28z"/>
				<path class="st5" d="M169.23,113.95c-2.64,0-5.14-0.7-6.69-1.87c-0.88-0.66-1.37-1.41-1.44-2.17v-0.04l-0.02-0.03
					c-0.04-1.26,1.1-2.5,3.05-3.33c1.48-0.62,3.23-0.96,5.07-0.96c2.64,0,5.14,0.69,6.7,1.86c0.95,0.73,1.46,1.58,1.43,2.4
					c0,0.04,0,0.07,0,0.09c-0.11,1.22-1.23,2.33-3.04,3.09C172.83,113.61,171.08,113.95,169.23,113.95z"/>
			</g>
			<g>
				<path class="st4" d="M177.38,179.87c-3.39,0-6.56-0.92-8.7-2.52c-2.11-1.59-2.65-3.36-2.75-4.58c-0.12-2.92,1.79-5.35,5.06-6.74
					c1.89-0.79,4.1-1.22,6.38-1.22c3.39,0,6.55,0.92,8.7,2.53c1.85,1.41,2.84,3.25,2.76,5.19c-0.15,1.71-1,4.39-5.08,6.12
					C181.85,179.44,179.65,179.87,177.38,179.87z"/>
				<path class="st5" d="M177.38,176.53c-2.65,0-5.14-0.69-6.69-1.85c-0.88-0.67-1.37-1.41-1.43-2.17l-0.01-0.04l-0.01-0.04
					c-0.05-1.25,1.09-2.5,3.05-3.32c1.48-0.63,3.23-0.96,5.07-0.96c2.64,0,5.14,0.7,6.7,1.86c0.95,0.72,1.47,1.58,1.43,2.4
					c0,0.04,0,0.06,0,0.08c-0.12,1.21-1.22,2.33-3.04,3.1C180.98,176.21,179.22,176.53,177.38,176.53z"/>
			</g>
			<g>
				<path class="st4" d="M207.28,161.91c-3.39,0-6.55-0.93-8.7-2.53c-2.1-1.58-2.65-3.36-2.75-4.58c-0.11-2.92,1.79-5.35,5.06-6.74
					c1.9-0.79,4.09-1.22,6.37-1.22c3.39,0,6.56,0.92,8.71,2.53c1.86,1.41,2.83,3.25,2.76,5.19c-0.15,1.71-1,4.39-5.08,6.12
					C211.76,161.48,209.56,161.91,207.28,161.91z"/>
				<path class="st5" d="M207.28,158.57c-2.64,0-5.14-0.69-6.68-1.85c-0.88-0.67-1.37-1.41-1.44-2.17v-0.05l-0.02-0.03
					c-0.03-1.26,1.1-2.5,3.05-3.33c1.49-0.62,3.23-0.95,5.07-0.95c2.64,0,5.14,0.7,6.7,1.87c0.96,0.72,1.47,1.57,1.43,2.39
					c0,0.04,0,0.07,0,0.09c-0.11,1.21-1.23,2.34-3.04,3.09C210.87,158.24,209.12,158.57,207.28,158.57z"/>
			</g>
		</g>
		<g>
			<path class="st0" d="M283.39,114.18l-1.26,3.17c-2.74-9.57-9.65-18.84-20.28-26.9c-21.6-16.21-56.05-25.89-92.27-25.89
				c-25.32,0-49.29,4.61-69.44,13.17c-23.75,10.06-38.98,24.59-43.09,40.27l-1.15-1.65l0.06,8.72c-0.03,0.95-0.07,1.89-0.03,2.84
				c0,0.45,0,1.01,0.11,1.47c1.01,11.92,8.44,23.41,21.6,33.31c21.5,16.21,55.93,25.88,92.17,25.88c25.32,0,49.28-4.6,69.43-13.16
				c26.44-11.14,42.42-27.9,44.11-45.8c0.11-0.67,0.11-1.36,0.11-2.03L283.39,114.18z"/>
			<path class="st1" d="M261.84,80.24c-21.6-16.21-56.05-25.89-92.27-25.89c-25.32,0-49.29,4.61-69.44,13.17
				c-28.69,12.15-45.01,30.83-44.22,50.19c0,0.45,0,1.01,0.11,1.47c1.01,11.92,8.44,23.4,21.6,33.3
				c21.5,16.21,55.93,25.88,92.17,25.88c25.32,0,49.28-4.6,69.43-13.16c26.44-11.14,42.42-27.9,44.11-45.8
				c0.11-0.67,0.11-1.35,0.11-2.03C283.9,104.32,276.24,91.16,261.84,80.24z"/>
			<path class="st2" d="M169.8,171.7c-34.83,0-67.78-9.17-88.15-24.53c-11.58-8.7-18.13-18.57-18.98-28.55l-0.05-0.56l-0.14-0.56
				c-0.58-16.53,14.43-32.89,40.25-43.83c19.48-8.27,42.59-12.64,66.84-12.64c34.78,0,67.78,9.17,88.27,24.55
				c12.58,9.53,19.32,20.76,18.95,31.57c-0.01,0.53,0.02,0.83-0.02,1.13c-1.53,16-16.13,30.69-40.13,40.79
				C217.15,167.33,194.05,171.7,169.8,171.7z"/>
			<path class="st3" d="M248.24,88.57c-7.07-1.99-15.16,0.24-21.59-3.29c-3.53-1.94-6-5.35-9.2-7.78
				c-10.45-7.95-25.32-3.86-38.32-5.65c-6.98-0.96-13.73-3.72-20.78-3.73c-8.46-0.01-16.18,3.9-23.74,7.25
				c-7.98,3.54-15.7,5.88-24.53,5.59c-1.85-0.07-3.76-0.22-5.5,0.43c-3.39,1.29-6.66,4.87-9.74,6.85c-4.17,2.67-8.03,6.01-12,8.98
				c-1.94,1.45-4.1,3.43-3.69,5.82c0.33,1.82,2.07,3.02,3.07,4.58c2.87,4.48-0.44,10.23,0.77,15.11c1.24,4.99,2,10.43,4.21,15.21
				c3.5,7.6,10.71,14.17,19.07,14.12c3.04-0.02,5.98-0.89,8.99-1.02c3.07-0.14,5.95,0.73,9.03,0.78c7.34,0.1,14.67,1.29,21.69,3.46
				c12.28,3.79,24.01,10.7,36.85,10.46c4.23-0.08,8.41-0.95,12.55-1.8c8.16-1.71,16.32-3.4,24.48-5.1c2.68-0.56,5.41-1.14,7.73-2.59
				c3.72-2.33,5.79-6.5,8.74-9.74c3.14-3.43,7.25-5.76,10.97-8.55c8.2-6.12,14.84-15.1,15.79-25.3
				C264.08,102.45,258.1,91.34,248.24,88.57z"/>
			<g>
				<path class="st4" d="M208.51,134.1c-3.39,0-6.56-0.92-8.7-2.53c-2.1-1.57-2.65-3.35-2.75-4.57c-0.12-2.92,1.79-5.34,5.06-6.73
					c1.9-0.8,4.09-1.22,6.37-1.22c3.38,0,6.56,0.92,8.7,2.53c1.87,1.4,2.84,3.24,2.77,5.18c-0.16,1.71-1,4.4-5.09,6.12
					C212.98,133.68,210.78,134.1,208.51,134.1z"/>
				<path class="st5" d="M208.51,130.77c-2.64,0-5.14-0.7-6.69-1.87c-0.88-0.66-1.38-1.41-1.44-2.17v-0.03l-0.02-0.05
					c-0.04-1.25,1.1-2.49,3.05-3.32c1.48-0.63,3.23-0.96,5.07-0.96c2.64,0,5.14,0.7,6.7,1.87c0.96,0.72,1.47,1.57,1.43,2.4
					c0,0.03,0,0.06,0,0.09c-0.11,1.21-1.23,2.32-3.04,3.09C212.1,130.44,210.35,130.77,208.51,130.77z"/>
			</g>
			<g>
				<path class="st4" d="M193.36,114.46c-3.39,0-6.56-0.92-8.7-2.53c-2.11-1.57-2.66-3.36-2.74-4.57c-0.12-2.92,1.79-5.35,5.06-6.73
					c1.89-0.81,4.09-1.23,6.38-1.23c3.39,0,6.55,0.92,8.69,2.53c1.87,1.41,2.84,3.25,2.77,5.18c-0.16,1.72-0.99,4.41-5.08,6.12
					C197.83,114.04,195.63,114.46,193.36,114.46z"/>
				<path class="st5" d="M193.36,111.13c-2.64,0-5.14-0.7-6.69-1.87c-0.88-0.66-1.37-1.41-1.44-2.17l-0.01-0.04v-0.04
					c-0.05-1.25,1.09-2.49,3.05-3.32c1.48-0.63,3.23-0.96,5.07-0.96c2.63,0,5.14,0.69,6.69,1.86c0.96,0.72,1.47,1.57,1.45,2.4
					c-0.01,0.04,0,0.07-0.01,0.09c-0.12,1.22-1.22,2.33-3.04,3.09C196.95,110.8,195.2,111.13,193.36,111.13z"/>
			</g>
			<g>
				<path class="st4" d="M152.46,117.36c-3.39,0-6.56-0.92-8.69-2.53c-2.11-1.57-2.66-3.35-2.75-4.57c-0.11-2.92,1.8-5.34,5.07-6.73
					c1.89-0.8,4.09-1.22,6.37-1.22c3.38,0,6.56,0.92,8.7,2.53c1.86,1.4,2.84,3.24,2.76,5.18c-0.15,1.71-0.99,4.4-5.08,6.12
					C156.95,116.94,154.75,117.36,152.46,117.36z"/>
				<path class="st5" d="M152.47,114.03c-2.64,0-5.14-0.7-6.69-1.86c-0.87-0.66-1.37-1.41-1.43-2.17l-0.01-0.03l-0.01-0.05
					c-0.04-1.24,1.09-2.49,3.06-3.32c1.47-0.63,3.22-0.96,5.07-0.96c2.64,0,5.14,0.7,6.69,1.86c0.96,0.73,1.47,1.58,1.44,2.41
					c0,0.03,0,0.06,0,0.08c-0.12,1.21-1.23,2.32-3.05,3.09C156.06,113.7,154.3,114.03,152.47,114.03z"/>
			</g>
			<g>
				<path class="st4" d="M169.62,136.62c-3.39,0-6.56-0.92-8.7-2.53c-2.1-1.57-2.65-3.36-2.75-4.57c-0.12-2.92,1.79-5.34,5.06-6.73
					c1.89-0.8,4.09-1.23,6.37-1.23c3.38,0,6.56,0.93,8.7,2.53c1.86,1.41,2.84,3.25,2.77,5.18c-0.16,1.72-1,4.41-5.09,6.13
					C174.1,136.2,171.89,136.62,169.62,136.62z"/>
				<path class="st5" d="M169.62,133.29c-2.64,0-5.14-0.7-6.69-1.87c-0.89-0.66-1.38-1.41-1.44-2.17l-0.01-0.04l-0.01-0.04
					c-0.04-1.25,1.1-2.49,3.05-3.32c1.48-0.63,3.23-0.96,5.07-0.96c2.64,0,5.14,0.69,6.69,1.86c0.95,0.73,1.46,1.58,1.44,2.4
					c0,0.03,0,0.06-0.01,0.09c-0.11,1.21-1.22,2.32-3.03,3.09C173.21,132.96,171.46,133.29,169.62,133.29z"/>
			</g>
			<g>
				<path class="st4" d="M170.44,98.1c-3.39,0-6.56-0.93-8.7-2.53c-2.1-1.58-2.65-3.36-2.75-4.58c-0.11-2.91,1.79-5.34,5.06-6.73
					c1.9-0.8,4.1-1.22,6.38-1.22c3.39,0,6.56,0.92,8.7,2.53c1.86,1.4,2.84,3.24,2.76,5.19c-0.15,1.72-0.99,4.4-5.08,6.12
					C174.93,97.68,172.72,98.1,170.44,98.1z"/>
				<path class="st5" d="M170.46,94.77c-2.65,0-5.14-0.69-6.69-1.86c-0.87-0.66-1.38-1.42-1.44-2.18V90.7l-0.01-0.05
					c-0.04-1.25,1.09-2.49,3.05-3.32c1.48-0.63,3.23-0.96,5.07-0.96c2.64,0,5.14,0.7,6.7,1.87c0.96,0.72,1.47,1.57,1.43,2.4
					c0,0.03,0,0.06,0,0.09c-0.11,1.21-1.22,2.32-3.04,3.09C174.04,94.44,172.29,94.77,170.46,94.77z"/>
			</g>
			<g>
				<path class="st4" d="M120.45,123.16c-3.38,0-6.56-0.92-8.7-2.53c-2.11-1.58-2.66-3.35-2.75-4.58c-0.12-2.92,1.79-5.34,5.06-6.73
					c1.89-0.79,4.09-1.23,6.38-1.23c3.39,0,6.55,0.93,8.69,2.53c1.87,1.42,2.84,3.26,2.76,5.19c-0.15,1.71-0.99,4.4-5.07,6.13
					C124.93,122.74,122.73,123.16,120.45,123.16z"/>
				<path class="st5" d="M120.45,119.83c-2.64,0-5.14-0.7-6.68-1.86c-0.88-0.67-1.37-1.41-1.44-2.17l-0.01-0.05v-0.03
					c-0.05-1.26,1.08-2.5,3.05-3.33c1.48-0.63,3.23-0.96,5.07-0.96c2.64,0,5.15,0.69,6.69,1.85c0.96,0.73,1.47,1.59,1.45,2.4
					c-0.01,0.04,0,0.06-0.01,0.09c-0.12,1.21-1.22,2.33-3.05,3.1C124.05,119.51,122.3,119.83,120.45,119.83z"/>
			</g>
			<g>
				<path class="st4" d="M102.35,105.63c-3.39,0-6.57-0.92-8.7-2.53c-2.11-1.57-2.66-3.36-2.75-4.57c-0.12-2.92,1.78-5.35,5.06-6.73
					c1.9-0.81,4.09-1.23,6.37-1.23c3.39,0,6.56,0.92,8.7,2.53c1.86,1.4,2.83,3.24,2.76,5.18c-0.15,1.72-1,4.41-5.07,6.12
					C106.82,105.21,104.62,105.63,102.35,105.63z"/>
				<path class="st5" d="M102.35,102.31c-2.64,0-5.14-0.7-6.69-1.87c-0.89-0.66-1.37-1.42-1.45-2.17v-0.04l-0.01-0.04
					c-0.04-1.25,1.09-2.49,3.05-3.33c1.48-0.62,3.23-0.96,5.07-0.96c2.64,0,5.14,0.69,6.69,1.86c0.96,0.72,1.47,1.57,1.44,2.4
					c0,0.04,0,0.06,0,0.09c-0.12,1.22-1.23,2.33-3.05,3.09C105.94,101.97,104.19,102.31,102.35,102.31z"/>
			</g>
			<g>
				<path class="st4" d="M137.52,149.66c-3.39,0-6.56-0.92-8.7-2.53c-2.1-1.58-2.65-3.37-2.75-4.58c-0.11-2.91,1.8-5.35,5.06-6.73
					c1.9-0.81,4.1-1.23,6.38-1.23c3.38,0,6.56,0.93,8.7,2.53c1.87,1.41,2.84,3.25,2.76,5.18c-0.15,1.72-0.99,4.41-5.08,6.13
					C142.01,149.23,139.8,149.66,137.52,149.66z"/>
				<path class="st5" d="M137.53,146.32c-2.65,0-5.14-0.7-6.69-1.87c-0.87-0.66-1.37-1.4-1.43-2.16l-0.01-0.05l-0.01-0.03
					c-0.04-1.26,1.09-2.5,3.05-3.33c1.48-0.62,3.23-0.95,5.06-0.95c2.65,0,5.15,0.69,6.7,1.86c0.96,0.73,1.46,1.58,1.43,2.4
					c0,0.04,0.01,0.07,0,0.09c-0.11,1.21-1.22,2.33-3.04,3.1C141.12,145.98,139.37,146.32,137.53,146.32z"/>
			</g>
			<g>
				<path class="st4" d="M102.35,140.82c-3.39,0-6.56-0.92-8.69-2.53c-2.11-1.58-2.66-3.36-2.76-4.58
					c-0.12-2.92,1.79-5.34,5.07-6.73c1.89-0.8,4.08-1.23,6.37-1.23c3.38,0,6.55,0.93,8.69,2.53c1.87,1.42,2.84,3.26,2.77,5.19
					c-0.16,1.72-1,4.41-5.09,6.14C106.83,140.4,104.64,140.82,102.35,140.82z"/>
				<path class="st5" d="M102.35,137.49c-2.64,0-5.14-0.7-6.69-1.87c-0.88-0.66-1.38-1.4-1.44-2.16l-0.01-0.05l-0.01-0.03
					c-0.04-1.25,1.1-2.5,3.06-3.33c1.48-0.63,3.23-0.95,5.07-0.95c2.64,0,5.14,0.69,6.69,1.85c0.96,0.73,1.46,1.59,1.45,2.4
					c0,0.04,0,0.06,0,0.09c-0.13,1.21-1.23,2.33-3.05,3.09C105.95,137.16,104.2,137.49,102.35,137.49z"/>
			</g>
			<g>
				<path class="st4" d="M137.52,93.91c-3.39,0-6.56-0.93-8.7-2.53c-2.1-1.58-2.65-3.36-2.75-4.58c-0.11-2.92,1.8-5.35,5.06-6.74
					c1.9-0.79,4.1-1.22,6.38-1.22c3.38,0,6.56,0.92,8.7,2.53c1.87,1.41,2.84,3.25,2.76,5.19c-0.15,1.71-0.99,4.39-5.08,6.12
					C142.01,93.48,139.8,93.91,137.52,93.91z"/>
				<path class="st5" d="M137.53,90.58c-2.65,0-5.14-0.7-6.69-1.86c-0.87-0.67-1.37-1.41-1.43-2.17l-0.01-0.03l-0.01-0.05
					c-0.04-1.25,1.09-2.49,3.05-3.32c1.48-0.62,3.23-0.96,5.06-0.96c2.65,0,5.15,0.7,6.7,1.87c0.96,0.72,1.46,1.57,1.43,2.39
					c0,0.04,0.01,0.07,0,0.08c-0.11,1.22-1.22,2.33-3.04,3.1C141.12,90.24,139.37,90.58,137.53,90.58z"/>
			</g>
			<g>
				<path class="st4" d="M172.07,158.04c-3.39,0-6.56-0.92-8.7-2.53c-2.1-1.57-2.65-3.36-2.75-4.57c-0.12-2.92,1.8-5.35,5.06-6.73
					c1.89-0.81,4.1-1.23,6.38-1.23c3.39,0,6.56,0.92,8.7,2.53c1.86,1.41,2.84,3.25,2.76,5.18c-0.15,1.72-0.99,4.41-5.08,6.12
					C176.55,157.63,174.35,158.04,172.07,158.04z"/>
				<path class="st5" d="M172.08,154.72c-2.65,0-5.14-0.7-6.69-1.87c-0.88-0.66-1.37-1.41-1.43-2.17l-0.01-0.04l-0.01-0.04
					c-0.05-1.25,1.09-2.49,3.05-3.32c1.47-0.63,3.23-0.96,5.06-0.96c2.64,0,5.15,0.69,6.7,1.86c0.95,0.73,1.47,1.58,1.43,2.4
					c0,0.04,0.01,0.07,0,0.09c-0.11,1.22-1.22,2.33-3.04,3.09C175.67,154.39,173.92,154.72,172.08,154.72z"/>
			</g>
			<g>
				<path class="st4" d="M226.98,111.44c-3.39,0-6.56-0.93-8.69-2.53c-2.11-1.59-2.66-3.37-2.76-4.59
					c-0.12-2.92,1.79-5.34,5.06-6.73c1.9-0.8,4.09-1.22,6.37-1.22c3.39,0,6.56,0.92,8.7,2.53c1.87,1.41,2.84,3.25,2.77,5.18
					c-0.16,1.72-0.99,4.4-5.09,6.13C231.46,111.01,229.27,111.44,226.98,111.44z"/>
				<path class="st5" d="M226.98,108.1c-2.64,0-5.14-0.69-6.69-1.86c-0.88-0.66-1.38-1.41-1.44-2.16l-0.01-0.05l-0.01-0.03
					c-0.04-1.26,1.1-2.51,3.06-3.33c1.48-0.63,3.22-0.95,5.06-0.95c2.64,0,5.14,0.69,6.7,1.86c0.95,0.72,1.46,1.58,1.43,2.4
					c0,0.04,0,0.06,0,0.09c-0.12,1.21-1.23,2.33-3.04,3.09C230.57,107.76,228.82,108.1,226.98,108.1z"/>
			</g>
			<g>
				<path class="st4" d="M200.39,91.26c-3.39,0-6.57-0.92-8.7-2.52c-2.1-1.59-2.65-3.37-2.75-4.59c-0.12-2.92,1.79-5.34,5.06-6.73
					c1.89-0.8,4.09-1.22,6.37-1.22c3.39,0,6.57,0.92,8.71,2.53c1.85,1.41,2.83,3.25,2.76,5.18c-0.15,1.72-0.99,4.4-5.08,6.12
					C204.87,90.83,202.67,91.26,200.39,91.26z"/>
				<path class="st5" d="M200.39,87.92c-2.64,0-5.14-0.69-6.69-1.86c-0.89-0.66-1.37-1.41-1.44-2.17v-0.04l-0.02-0.04
					c-0.04-1.25,1.1-2.5,3.05-3.33c1.48-0.63,3.23-0.96,5.07-0.96c2.64,0,5.14,0.7,6.7,1.87c0.95,0.72,1.46,1.58,1.43,2.4
					c0,0.03,0,0.06,0,0.09c-0.11,1.21-1.23,2.33-3.04,3.09C203.99,87.59,202.23,87.92,200.39,87.92z"/>
			</g>
			<g>
				<path class="st4" d="M208.53,153.85c-3.39,0-6.56-0.92-8.7-2.53c-2.11-1.58-2.65-3.35-2.75-4.57c-0.12-2.92,1.79-5.35,5.06-6.73
					c1.89-0.8,4.1-1.23,6.38-1.23c3.38,0,6.55,0.93,8.7,2.53c1.85,1.41,2.84,3.26,2.76,5.19c-0.15,1.71-1,4.4-5.08,6.12
					C213.01,153.42,210.81,153.85,208.53,153.85z"/>
				<path class="st5" d="M208.54,150.52c-2.65,0-5.15-0.7-6.69-1.86c-0.88-0.66-1.37-1.41-1.44-2.17v-0.05l-0.01-0.03
					c-0.05-1.26,1.09-2.5,3.05-3.32c1.48-0.63,3.23-0.96,5.07-0.96c2.64,0,5.14,0.69,6.7,1.86c0.95,0.73,1.47,1.58,1.43,2.39
					c0,0.05,0,0.07,0,0.09c-0.12,1.21-1.22,2.33-3.04,3.09C212.13,150.19,210.37,150.52,208.54,150.52z"/>
			</g>
			<g>
				<path class="st4" d="M238.43,135.89c-3.39,0-6.56-0.92-8.7-2.53c-2.1-1.57-2.65-3.35-2.75-4.57c-0.11-2.92,1.79-5.35,5.06-6.74
					c1.9-0.79,4.09-1.22,6.37-1.22c3.39,0,6.56,0.92,8.7,2.53c1.87,1.41,2.84,3.25,2.77,5.19c-0.15,1.7-1,4.39-5.09,6.12
					C242.92,135.47,240.71,135.89,238.43,135.89z"/>
				<path class="st5" d="M238.43,132.55c-2.64,0-5.14-0.69-6.68-1.86c-0.88-0.67-1.38-1.41-1.44-2.17v-0.04l-0.02-0.04
					c-0.04-1.25,1.1-2.49,3.05-3.33c1.48-0.62,3.23-0.95,5.07-0.95c2.64,0,5.14,0.7,6.7,1.86c0.96,0.72,1.47,1.58,1.43,2.4
					c0,0.04,0,0.07,0,0.08c-0.11,1.21-1.23,2.33-3.04,3.1C242.02,132.23,240.28,132.55,238.43,132.55z"/>
			</g>
		</g>
		<g>
			<path class="st0" d="M262.76,88.21l-1.26,3.17c-2.74-9.56-9.66-18.84-20.28-26.9c-21.61-16.2-56.05-25.88-92.28-25.88
				c-25.32,0-49.28,4.61-69.43,13.17c-23.75,10.06-38.99,24.6-43.1,40.28l-1.15-1.64l0.07,8.71c-0.04,0.95-0.08,1.89-0.04,2.84
				c0,0.45,0,1.01,0.11,1.47c1.02,11.93,8.44,23.4,21.61,33.3c21.5,16.21,55.93,25.89,92.16,25.89c25.32,0,49.29-4.61,69.44-13.17
				c26.44-11.14,42.42-27.9,44.11-45.8c0.11-0.67,0.11-1.35,0.11-2.02L262.76,88.21z"/>
			<path class="st1" d="M241.22,54.28c-21.61-16.2-56.05-25.88-92.28-25.88c-25.32,0-49.28,4.61-69.43,13.16
				C50.8,53.73,34.49,72.4,35.28,91.75c0,0.45,0,1.01,0.11,1.47c1.02,11.93,8.44,23.41,21.61,33.31
				c21.5,16.21,55.93,25.89,92.16,25.89c25.32,0,49.29-4.61,69.44-13.16c26.44-11.14,42.42-27.91,44.11-45.8
				c0.11-0.67,0.11-1.35,0.11-2.02C263.26,78.37,255.62,65.19,241.22,54.28z"/>
			<path class="st2" d="M149.16,145.74c-34.82,0-67.77-9.17-88.15-24.54c-11.57-8.7-18.13-18.57-18.98-28.55l-0.04-0.56l-0.14-0.55
				C41.26,75,56.28,58.65,82.1,47.71c19.48-8.27,42.59-12.64,66.83-12.64c34.79,0,67.79,9.17,88.29,24.54
				c12.57,9.55,19.31,20.76,18.95,31.58c-0.01,0.53,0.01,0.83-0.03,1.13c-1.53,15.99-16.12,30.68-40.13,40.78
				C196.52,141.38,173.41,145.74,149.16,145.74z"/>
			<path class="st3" d="M227.61,62.62c-7.06-2-15.16,0.24-21.59-3.29c-3.53-1.94-5.99-5.35-9.2-7.79
				c-10.45-7.95-25.31-3.86-38.32-5.64c-6.98-0.96-13.73-3.73-20.78-3.73c-8.46-0.01-16.18,3.9-23.73,7.24
				c-7.98,3.54-15.7,5.88-24.54,5.58c-1.84-0.07-3.76-0.22-5.49,0.44c-3.39,1.28-6.67,4.86-9.75,6.84c-4.16,2.68-8.02,6.01-12,8.98
				c-1.94,1.45-4.1,3.44-3.69,5.82c0.33,1.83,2.06,3.01,3.06,4.57c2.88,4.48-0.43,10.24,0.78,15.11c1.24,5,2,10.43,4.21,15.22
				c3.5,7.6,10.71,14.16,19.07,14.11c3.03-0.02,5.97-0.89,9-1.02c3.07-0.14,5.94,0.74,9.02,0.78c7.34,0.11,14.68,1.29,21.69,3.46
				c12.28,3.79,24.01,10.7,36.85,10.46c4.24-0.08,8.42-0.94,12.56-1.8c8.15-1.7,16.31-3.4,24.48-5.1c2.67-0.55,5.4-1.14,7.72-2.59
				c3.72-2.33,5.79-6.5,8.75-9.74c3.13-3.42,7.25-5.76,10.96-8.55c8.2-6.12,14.85-15.1,15.79-25.3
				C243.45,76.49,237.47,65.4,227.61,62.62z"/>
			<g>
				<path class="st4" d="M187.87,108.14c-3.39,0-6.56-0.92-8.7-2.52c-2.1-1.59-2.65-3.37-2.75-4.59c-0.11-2.92,1.79-5.34,5.06-6.73
					c1.89-0.8,4.1-1.22,6.38-1.22c3.38,0,6.56,0.92,8.7,2.53c1.86,1.41,2.84,3.25,2.76,5.18c-0.15,1.72-1,4.4-5.08,6.12
					C192.36,107.71,190.15,108.14,187.87,108.14z"/>
				<path class="st5" d="M187.87,104.81c-2.64,0-5.14-0.69-6.69-1.86c-0.88-0.66-1.37-1.41-1.44-2.17v-0.04l-0.02-0.04
					c-0.03-1.25,1.1-2.5,3.06-3.33c1.48-0.63,3.22-0.96,5.06-0.96c2.65,0,5.14,0.7,6.7,1.87c0.94,0.72,1.47,1.58,1.43,2.4
					c0,0.03,0,0.06,0,0.09c-0.11,1.21-1.23,2.33-3.04,3.09C191.47,104.47,189.72,104.81,187.87,104.81z"/>
			</g>
			<g>
				<path class="st4" d="M172.72,88.5c-3.38,0-6.55-0.92-8.69-2.53c-2.11-1.58-2.66-3.36-2.75-4.58c-0.11-2.92,1.79-5.34,5.07-6.73
					c1.89-0.8,4.08-1.23,6.37-1.23c3.38,0,6.55,0.93,8.69,2.53c1.87,1.41,2.84,3.25,2.77,5.18c-0.15,1.72-1,4.41-5.08,6.13
					C177.21,88.08,175.01,88.5,172.72,88.5z"/>
				<path class="st5" d="M172.72,85.17c-2.63,0-5.14-0.7-6.68-1.87c-0.88-0.66-1.38-1.4-1.44-2.17v-0.04l-0.02-0.04
					c-0.03-1.25,1.1-2.5,3.06-3.32c1.48-0.63,3.23-0.96,5.07-0.96c2.64,0,5.14,0.69,6.69,1.86c0.96,0.73,1.47,1.59,1.44,2.4
					c0,0.03,0,0.06,0,0.09c-0.12,1.21-1.23,2.32-3.05,3.09C176.32,84.84,174.56,85.17,172.72,85.17z"/>
			</g>
			<g>
				<path class="st4" d="M131.84,91.4c-3.39,0-6.56-0.92-8.7-2.52c-2.1-1.59-2.65-3.37-2.75-4.59c-0.12-2.92,1.79-5.34,5.06-6.73
					c1.9-0.8,4.09-1.22,6.37-1.22c3.38,0,6.56,0.92,8.7,2.53c1.87,1.41,2.84,3.25,2.77,5.19c-0.15,1.72-1,4.4-5.09,6.13
					C136.32,90.98,134.12,91.4,131.84,91.4z"/>
				<path class="st5" d="M131.84,88.07c-2.63,0-5.14-0.69-6.69-1.86c-0.88-0.66-1.38-1.41-1.44-2.17V84l-0.02-0.04
					c-0.04-1.25,1.1-2.5,3.05-3.33c1.48-0.63,3.23-0.96,5.07-0.96c2.64,0,5.14,0.69,6.69,1.86c0.96,0.73,1.46,1.58,1.44,2.4
					c0,0.04,0,0.06,0,0.09c-0.12,1.21-1.23,2.33-3.04,3.09C135.43,87.74,133.68,88.07,131.84,88.07z"/>
			</g>
			<g>
				<path class="st4" d="M148.98,110.66c-3.39,0-6.57-0.92-8.7-2.53c-2.11-1.58-2.65-3.36-2.75-4.58c-0.12-2.91,1.79-5.34,5.06-6.73
					c1.89-0.8,4.1-1.22,6.37-1.22c3.39,0,6.56,0.92,8.71,2.52c1.85,1.42,2.83,3.26,2.76,5.19c-0.15,1.72-0.99,4.41-5.08,6.14
					C153.46,110.24,151.26,110.66,148.98,110.66z"/>
				<path class="st5" d="M148.98,107.33c-2.64,0-5.14-0.7-6.69-1.87c-0.88-0.66-1.37-1.4-1.44-2.16v-0.05l-0.02-0.03
					c-0.04-1.25,1.1-2.5,3.05-3.32c1.49-0.63,3.23-0.96,5.07-0.96c2.64,0,5.14,0.69,6.7,1.85c0.95,0.73,1.46,1.59,1.43,2.4
					c0,0.04,0,0.06,0,0.09c-0.12,1.21-1.23,2.33-3.04,3.1C152.58,107,150.82,107.33,148.98,107.33z"/>
			</g>
			<g>
				<path class="st4" d="M149.82,72.15c-3.39,0-6.56-0.93-8.7-2.53c-2.1-1.59-2.66-3.37-2.75-4.59c-0.12-2.92,1.79-5.34,5.06-6.73
					c1.88-0.8,4.09-1.22,6.37-1.22c3.38,0,6.56,0.92,8.7,2.53c1.86,1.41,2.84,3.25,2.77,5.18c-0.16,1.72-1,4.4-5.09,6.13
					C154.3,71.72,152.09,72.15,149.82,72.15z"/>
				<path class="st5" d="M149.82,68.81c-2.64,0-5.14-0.69-6.69-1.86c-0.88-0.66-1.38-1.41-1.44-2.16l-0.01-0.05l-0.01-0.03
					c-0.04-1.26,1.1-2.51,3.05-3.33c1.48-0.63,3.23-0.96,5.07-0.96c2.64,0,5.14,0.69,6.69,1.86c0.95,0.73,1.46,1.58,1.44,2.4
					c0,0.04,0,0.06-0.01,0.09c-0.11,1.21-1.22,2.33-3.03,3.09C153.41,68.48,151.66,68.81,149.82,68.81z"/>
			</g>
			<g>
				<path class="st4" d="M99.82,97.2c-3.39,0-6.56-0.92-8.69-2.53c-2.11-1.57-2.66-3.35-2.75-4.57c-0.11-2.92,1.79-5.35,5.06-6.74
					c1.9-0.79,4.08-1.22,6.37-1.22c3.38,0,6.55,0.92,8.69,2.53c1.87,1.41,2.84,3.25,2.77,5.19c-0.15,1.71-1,4.4-5.09,6.13
					C104.3,96.78,102.11,97.2,99.82,97.2z"/>
				<path class="st5" d="M99.82,93.87c-2.64,0-5.14-0.7-6.69-1.87c-0.88-0.67-1.38-1.41-1.44-2.17V89.8l-0.02-0.04
					c-0.04-1.25,1.1-2.49,3.06-3.32c1.48-0.62,3.23-0.96,5.07-0.96c2.64,0,5.14,0.7,6.69,1.86c0.96,0.73,1.48,1.58,1.45,2.4
					c0,0.04,0,0.07,0,0.09c-0.13,1.22-1.23,2.33-3.05,3.1C103.42,93.54,101.66,93.87,99.82,93.87z"/>
			</g>
			<g>
				<path class="st4" d="M81.7,79.68c-3.38,0-6.55-0.92-8.69-2.53c-2.11-1.58-2.66-3.37-2.75-4.58c-0.12-2.92,1.79-5.35,5.06-6.73
					c1.89-0.81,4.09-1.23,6.38-1.23c3.38,0,6.55,0.93,8.69,2.53c1.87,1.41,2.84,3.25,2.76,5.18c-0.16,1.72-0.99,4.41-5.08,6.12
					C86.19,79.25,83.99,79.68,81.7,79.68z"/>
				<path class="st5" d="M81.71,76.35c-2.64,0-5.14-0.7-6.68-1.87c-0.88-0.66-1.38-1.4-1.44-2.17l-0.01-0.04l-0.01-0.03
					c-0.04-1.26,1.09-2.5,3.06-3.33c1.47-0.63,3.23-0.96,5.07-0.96c2.64,0,5.15,0.69,6.69,1.86c0.96,0.73,1.47,1.58,1.44,2.4
					c0,0.03,0.01,0.06,0,0.09c-0.12,1.21-1.22,2.32-3.05,3.09C85.31,76.01,83.54,76.35,81.71,76.35z"/>
			</g>
			<g>
				<path class="st4" d="M116.9,123.69c-3.39,0-6.57-0.92-8.7-2.53c-2.09-1.58-2.65-3.36-2.75-4.57c-0.12-2.92,1.79-5.35,5.06-6.74
					c1.89-0.8,4.09-1.23,6.37-1.23c3.39,0,6.56,0.93,8.7,2.53c1.86,1.41,2.84,3.26,2.77,5.19c-0.16,1.71-1,4.4-5.09,6.12
					C121.37,123.27,119.18,123.69,116.9,123.69z"/>
				<path class="st5" d="M116.9,120.36c-2.64,0-5.14-0.7-6.69-1.86c-0.89-0.67-1.38-1.41-1.44-2.17v-0.05l-0.02-0.03
					c-0.04-1.25,1.1-2.5,3.05-3.32c1.48-0.63,3.23-0.96,5.07-0.96c2.65,0,5.14,0.69,6.7,1.86c0.95,0.72,1.46,1.58,1.43,2.4
					c0,0.04,0,0.06,0,0.09c-0.11,1.21-1.23,2.33-3.04,3.09C120.49,120.03,118.74,120.36,116.9,120.36z"/>
			</g>
			<g>
				<path class="st4" d="M81.72,114.86c-3.39,0-6.56-0.92-8.69-2.53c-2.11-1.57-2.66-3.35-2.76-4.57c-0.11-2.92,1.79-5.35,5.06-6.74
					c1.9-0.79,4.1-1.22,6.37-1.22c3.39,0,6.57,0.92,8.71,2.53c1.86,1.41,2.83,3.25,2.76,5.19c-0.15,1.71-1,4.39-5.08,6.12
					C86.21,114.44,84,114.86,81.72,114.86z"/>
				<path class="st5" d="M81.72,111.52c-2.64,0-5.14-0.69-6.69-1.86c-0.87-0.66-1.37-1.41-1.44-2.17v-0.04l-0.02-0.04
					c-0.03-1.25,1.1-2.49,3.06-3.33c1.48-0.62,3.22-0.95,5.06-0.95c2.64,0,5.14,0.7,6.7,1.87c0.96,0.72,1.47,1.57,1.43,2.39
					c0,0.04,0,0.07,0,0.09c-0.11,1.21-1.23,2.33-3.04,3.09C85.32,111.2,83.56,111.52,81.72,111.52z"/>
			</g>
			<g>
				<path class="st4" d="M116.9,67.95c-3.39,0-6.57-0.93-8.7-2.53c-2.09-1.58-2.65-3.36-2.75-4.58c-0.12-2.92,1.79-5.34,5.06-6.73
					c1.89-0.8,4.09-1.22,6.37-1.22c3.39,0,6.56,0.92,8.7,2.53c1.86,1.4,2.84,3.24,2.77,5.19c-0.16,1.72-1,4.4-5.09,6.12
					C121.37,67.53,119.18,67.95,116.9,67.95z"/>
				<path class="st5" d="M116.9,64.61c-2.64,0-5.14-0.69-6.69-1.86c-0.89-0.66-1.38-1.41-1.44-2.17v-0.04l-0.02-0.05
					c-0.04-1.24,1.1-2.49,3.05-3.32c1.48-0.63,3.23-0.96,5.07-0.96c2.65,0,5.14,0.7,6.7,1.87c0.95,0.73,1.46,1.57,1.43,2.4
					c0,0.03,0,0.06,0,0.09c-0.11,1.21-1.23,2.32-3.04,3.09C120.49,64.28,118.74,64.61,116.9,64.61z"/>
			</g>
			<g>
				<path class="st4" d="M151.45,132.09c-3.39,0-6.57-0.92-8.7-2.53c-2.11-1.58-2.65-3.36-2.75-4.58c-0.13-2.92,1.78-5.34,5.06-6.73
					c1.89-0.8,4.09-1.23,6.37-1.23c3.39,0,6.55,0.93,8.7,2.53c1.86,1.41,2.84,3.25,2.76,5.19c-0.15,1.72-1,4.41-5.08,6.13
					C155.92,131.66,153.72,132.09,151.45,132.09z"/>
				<path class="st5" d="M151.45,128.76c-2.64,0-5.14-0.7-6.69-1.87c-0.89-0.66-1.38-1.4-1.44-2.17v-0.04l-0.02-0.03
					c-0.05-1.25,1.09-2.5,3.05-3.33c1.48-0.63,3.23-0.96,5.07-0.96c2.64,0,5.14,0.7,6.7,1.86c0.95,0.73,1.46,1.59,1.43,2.41
					c0,0.03,0,0.06,0,0.09c-0.12,1.21-1.23,2.32-3.04,3.09C155.04,128.42,153.29,128.76,151.45,128.76z"/>
			</g>
			<g>
				<path class="st4" d="M206.35,85.48c-3.4,0-6.56-0.93-8.7-2.53c-2.1-1.58-2.65-3.36-2.75-4.57c-0.11-2.92,1.79-5.35,5.06-6.74
					c1.9-0.8,4.1-1.23,6.38-1.23c3.39,0,6.56,0.93,8.7,2.53c1.86,1.41,2.84,3.25,2.76,5.19c-0.15,1.71-1,4.39-5.08,6.12
					C210.83,85.05,208.63,85.48,206.35,85.48z"/>
				<path class="st5" d="M206.35,82.13c-2.64,0-5.14-0.69-6.69-1.85c-0.87-0.67-1.37-1.42-1.44-2.17v-0.05l-0.01-0.03
					c-0.04-1.26,1.09-2.5,3.04-3.33c1.48-0.62,3.23-0.95,5.07-0.95c2.64,0,5.14,0.7,6.7,1.87c0.96,0.72,1.47,1.57,1.43,2.39
					c0,0.04,0,0.07,0,0.08c-0.11,1.21-1.22,2.34-3.04,3.1C209.95,81.81,208.19,82.13,206.35,82.13z"/>
			</g>
			<g>
				<path class="st4" d="M179.76,65.3c-3.39,0-6.56-0.93-8.7-2.53c-2.11-1.59-2.65-3.36-2.75-4.58c-0.12-2.92,1.79-5.35,5.06-6.74
					c1.89-0.79,4.1-1.22,6.38-1.22c3.39,0,6.55,0.92,8.7,2.53c1.86,1.41,2.84,3.25,2.76,5.19c-0.15,1.71-1,4.39-5.08,6.12
					C184.23,64.88,182.03,65.3,179.76,65.3z"/>
				<path class="st5" d="M179.77,61.96c-2.65,0-5.14-0.69-6.69-1.85c-0.88-0.67-1.37-1.42-1.43-2.17l-0.01-0.05l-0.01-0.03
					c-0.05-1.26,1.09-2.51,3.05-3.33c1.47-0.63,3.23-0.96,5.06-0.96c2.64,0,5.14,0.7,6.7,1.86c0.95,0.72,1.47,1.58,1.43,2.4
					c0,0.04,0.01,0.06,0,0.09c-0.12,1.21-1.22,2.33-3.04,3.09C183.35,61.64,181.6,61.96,179.77,61.96z"/>
			</g>
			<g>
				<path class="st4" d="M187.91,127.89c-3.39,0-6.56-0.92-8.71-2.53c-2.1-1.57-2.65-3.35-2.74-4.57c-0.13-2.92,1.78-5.35,5.06-6.73
					c1.88-0.8,4.08-1.23,6.37-1.23c3.39,0,6.55,0.92,8.69,2.53c1.87,1.41,2.84,3.25,2.77,5.18c-0.16,1.72-1,4.41-5.08,6.13
					C192.37,127.47,190.18,127.89,187.91,127.89z"/>
				<path class="st5" d="M187.91,124.56c-2.64,0-5.14-0.7-6.69-1.87c-0.88-0.66-1.37-1.41-1.44-2.17v-0.04l-0.01-0.04
					c-0.05-1.25,1.09-2.49,3.05-3.32c1.48-0.63,3.23-0.96,5.07-0.96c2.64,0,5.14,0.69,6.7,1.86c0.95,0.72,1.46,1.58,1.44,2.4
					c0,0.03,0,0.06-0.01,0.08c-0.12,1.22-1.22,2.33-3.04,3.1C191.5,124.23,189.75,124.56,187.91,124.56z"/>
			</g>
			<g>
				<path class="st4" d="M217.8,109.92c-3.39,0-6.56-0.92-8.7-2.52c-2.1-1.58-2.65-3.36-2.75-4.58c-0.11-2.92,1.79-5.34,5.06-6.73
					c1.89-0.8,4.1-1.22,6.38-1.22c3.38,0,6.56,0.92,8.7,2.53c1.86,1.4,2.84,3.24,2.76,5.19c-0.15,1.72-0.99,4.4-5.08,6.12
					C222.29,109.51,220.08,109.92,217.8,109.92z"/>
				<path class="st5" d="M217.81,106.6c-2.65,0-5.14-0.7-6.69-1.86c-0.88-0.66-1.37-1.41-1.44-2.17v-0.03l-0.01-0.05
					c-0.04-1.24,1.09-2.49,3.05-3.32c1.48-0.63,3.23-0.96,5.07-0.96c2.64,0,5.14,0.7,6.7,1.87c0.95,0.72,1.47,1.57,1.43,2.4
					c0,0.03,0,0.06,0,0.09c-0.11,1.21-1.22,2.32-3.04,3.09C221.4,106.26,219.64,106.6,217.81,106.6z"/>
			</g>
		</g>
	</g>
</g>
</svg>
